# Blender 4.4.3
# www.blender.org
mtllib Cabinet.mtl
o cabinet
v 1.242932 -1.296428 4.910913
v 1.242932 14.795506 4.910912
v 1.242932 14.795506 -6.834250
v 1.242932 -1.296429 -6.834249
v -0.041017 16.095507 6.149343
v 6.926877 16.095507 6.149343
v 6.926877 16.095507 -8.072682
v -0.041017 16.095507 -8.072682
v 6.656021 15.955502 5.849084
v 0.229840 15.955502 5.849084
v 0.229840 15.955502 -7.772423
v 6.656021 15.955502 -7.772423
v 6.493078 15.815502 5.633389
v 0.392783 15.815502 5.633389
v 0.392783 15.815502 -7.556728
v 6.493078 15.815502 -7.556728
v 6.377250 15.675505 5.517560
v 0.508612 15.675505 5.517560
v 0.508612 15.675505 -7.440899
v 6.377250 15.675505 -7.440899
v 6.299728 15.535501 5.488221
v 0.586133 15.535501 5.488221
v 0.586133 15.535501 -7.411560
v 6.299728 15.535501 -7.411560
v 6.926876 15.955502 6.149339
v -0.041014 15.955502 6.149339
v -0.041014 15.955502 -8.072678
v 6.926876 15.955502 -8.072678
v 0.402926 -3.834637 -7.674254
v 6.482935 -3.834637 -7.674254
v 6.482935 -3.834636 5.750918
v 0.402926 -3.834636 5.750918
v 0.402926 -3.434637 -7.674254
v 0.342932 -3.494630 -7.734249
v 6.542930 -3.494630 -7.734249
v 6.482935 -3.434637 -7.674254
v 6.542930 -3.774642 -7.734249
v 0.342932 -3.774642 -7.734249
v 6.542930 -3.494629 5.810913
v 6.482935 -3.434636 5.750918
v 6.542930 -3.774641 5.810913
v 0.342932 -3.494629 5.810913
v 0.402926 -3.434636 5.750918
v 0.342932 -3.774641 5.810913
v 6.297750 -3.434636 5.565733
v 6.242929 -3.434636 5.401272
v 6.133288 -3.434636 5.510913
v 6.288364 15.507492 5.492761
v 6.133288 15.395506 5.510911
v 6.242929 15.285866 5.401270
v 6.242929 15.395506 5.388703
v 0.588111 -3.434636 5.565733
v 0.752573 -3.434636 5.510913
v 0.642932 -3.434636 5.401272
v 0.614109 15.466549 5.499396
v 0.642932 15.395506 5.401270
v 0.752573 15.395506 5.510911
v 6.288364 15.507492 -7.416100
v 6.242929 15.395506 -7.267363
v 6.242929 15.285866 -7.324609
v 6.133288 15.395506 -7.434250
v 6.297750 -3.434637 -7.489069
v 6.133288 -3.434637 -7.434249
v 6.242929 -3.434637 -7.324608
v 0.614109 15.466549 -7.422735
v 0.752573 15.395506 -7.434250
v 0.642932 15.395506 -7.324609
v 0.588111 -3.434637 -7.489069
v 0.642932 -3.434637 -7.324608
v 0.752573 -3.434637 -7.434249
v 6.182936 -1.296428 4.910913
v 6.242929 -1.356423 4.970907
v 6.182936 14.795506 4.910912
v 6.242929 14.855499 4.970906
v 6.182936 14.795506 -6.834250
v 6.242929 14.855499 -6.894245
v 6.242929 -1.356424 -6.894244
v 6.182936 -1.296429 -6.834249
v 4.903789 -3.794210 4.136441
v 6.456043 -3.794210 4.178478
v 4.954199 -3.794210 5.719664
v 5.137248 -3.943455 4.388062
v 6.401541 -3.943455 4.407877
v 5.161097 -3.943455 5.668311
v 5.317846 -4.092701 4.583079
v 5.446107 -4.241945 4.723518
v 6.363702 -4.092701 4.587707
v 5.323480 -4.092701 5.633018
v 5.446107 -4.241945 5.620461
v 6.359100 -4.092701 5.629314
v 6.350177 -4.241945 5.620460
v 6.384685 -3.943455 5.654696
v 6.423512 -3.794211 5.693217
v 6.350178 -4.241945 4.723518
v 6.359100 -4.391190 5.629314
v 6.363702 -4.391190 4.832495
v 6.384685 -4.540435 5.654696
v 5.543422 -4.391190 5.633018
v 5.634656 -4.540435 5.668311
v 5.539944 -4.391190 4.829805
v 5.626131 -4.540435 4.931155
v 5.729484 -4.623651 5.053696
v 6.401541 -4.540435 4.937243
v 6.456043 -4.623651 5.058497
v 6.423512 -4.623651 5.693217
v 6.537240 -4.623651 4.981865
v 5.651311 -4.623651 4.976009
v 6.620188 -4.702483 4.903579
v 6.496969 -4.623651 5.767609
v 6.572010 -4.702483 5.843604
v 5.661888 -4.623651 5.799827
v 5.584101 -4.702483 5.881719
v 5.738033 -4.623651 5.719664
v 5.571454 -4.702483 4.896647
v 5.584101 -4.934044 5.881719
v 5.571454 -4.934044 4.896647
v 6.572010 -4.934044 5.843604
v 6.620188 -4.934044 4.903579
v 1.982072 -3.794210 4.136442
v 1.931662 -3.794210 5.719665
v 0.429819 -3.794210 4.178479
v 1.748614 -3.943455 4.388062
v 0.484320 -3.943455 4.407878
v 1.724764 -3.943455 5.668312
v 1.568016 -4.092701 4.583080
v 0.522159 -4.092701 4.587708
v 1.439754 -4.241945 4.723519
v 1.562381 -4.092701 5.633019
v 1.439754 -4.241945 5.620462
v 0.526760 -4.092701 5.629315
v 0.535684 -4.241945 5.620461
v 0.501176 -3.943455 5.654696
v 0.462348 -3.794211 5.693218
v 0.535684 -4.241945 4.723519
v 0.526760 -4.391190 5.629315
v 0.522159 -4.391190 4.832496
v 0.501176 -4.540435 5.654696
v 1.342439 -4.391190 5.633019
v 1.345917 -4.391190 4.829806
v 1.251205 -4.540435 5.668312
v 1.259731 -4.540435 4.931156
v 1.147828 -4.623651 5.719665
v 1.156377 -4.623651 5.053697
v 0.462348 -4.623651 5.693218
v 1.223974 -4.623651 5.799828
v 1.234550 -4.623651 4.976010
v 1.301760 -4.702483 5.881720
v 0.388893 -4.623651 5.767610
v 0.313852 -4.702483 5.843605
v 0.348621 -4.623651 4.981866
v 0.265674 -4.702483 4.903580
v 0.429819 -4.623651 5.058498
v 0.484320 -4.540435 4.937244
v 1.314407 -4.702483 4.896648
v 0.265674 -4.934044 4.903580
v 1.314407 -4.934044 4.896648
v 0.313852 -4.934044 5.843605
v 1.301760 -4.934044 5.881720
v 4.903789 -3.794210 -6.059777
v 4.954199 -3.794211 -7.642999
v 6.456043 -3.794210 -6.101813
v 5.137248 -3.943456 -6.311397
v 6.401541 -3.943456 -6.331212
v 5.161097 -3.943456 -7.591645
v 5.317846 -4.092702 -6.506413
v 6.363702 -4.092702 -6.511041
v 5.446107 -4.241946 -6.646853
v 5.323480 -4.092702 -7.556352
v 5.446107 -4.241946 -7.543797
v 6.359101 -4.092702 -7.552649
v 6.350177 -4.241946 -7.543794
v 6.384685 -3.943456 -7.578031
v 6.423512 -3.794212 -7.616551
v 6.350177 -4.241946 -6.646853
v 6.359101 -4.391191 -7.552649
v 6.363702 -4.391191 -6.755830
v 6.384685 -4.540436 -7.578031
v 5.543422 -4.391191 -7.556352
v 5.539944 -4.391191 -6.753140
v 5.634656 -4.540436 -7.591645
v 5.626131 -4.540436 -6.854489
v 5.738033 -4.623652 -7.642999
v 5.729484 -4.623652 -6.977031
v 6.423512 -4.623652 -7.616551
v 5.661888 -4.623652 -7.723161
v 5.651311 -4.623652 -6.899344
v 5.584101 -4.702484 -7.805055
v 6.496969 -4.623652 -7.690944
v 6.572010 -4.702484 -7.766938
v 6.537240 -4.623652 -6.905200
v 6.620187 -4.702484 -6.826913
v 6.456043 -4.623652 -6.981832
v 6.401541 -4.540436 -6.860578
v 5.571454 -4.702484 -6.819982
v 6.620187 -4.934045 -6.826913
v 5.571454 -4.934045 -6.819982
v 6.572010 -4.934045 -7.766938
v 5.584101 -4.934045 -7.805055
v 1.982073 -3.794210 -6.059777
v 0.429818 -3.794210 -6.101814
v 1.931662 -3.794211 -7.643000
v 1.748614 -3.943456 -6.311398
v 0.484320 -3.943456 -6.331213
v 1.724764 -3.943456 -7.591647
v 1.568015 -4.092702 -6.506415
v 1.439754 -4.241946 -6.646854
v 0.522159 -4.092702 -6.511043
v 1.562382 -4.092702 -7.556354
v 1.439754 -4.241946 -7.543797
v 0.526760 -4.092702 -7.552650
v 0.535685 -4.241946 -7.543796
v 0.501177 -3.943456 -7.578032
v 0.462349 -3.794212 -7.616553
v 0.535684 -4.241946 -6.646854
v 0.526760 -4.391191 -7.552650
v 0.522159 -4.391191 -6.755831
v 0.501177 -4.540436 -7.578032
v 1.342440 -4.391191 -7.556354
v 1.251205 -4.540436 -7.591647
v 1.345917 -4.391191 -6.753141
v 1.259731 -4.540436 -6.854491
v 1.156378 -4.623652 -6.977032
v 0.484320 -4.540436 -6.860579
v 0.429818 -4.623652 -6.981833
v 0.462349 -4.623652 -7.616553
v 0.348621 -4.623652 -6.905201
v 1.234550 -4.623652 -6.899345
v 0.265674 -4.702484 -6.826915
v 0.388893 -4.623652 -7.690945
v 0.313852 -4.702484 -7.766940
v 1.223973 -4.623652 -7.723163
v 1.301760 -4.702484 -7.805055
v 1.147828 -4.623652 -7.643000
v 1.314407 -4.702484 -6.819983
v 1.301760 -4.934045 -7.805055
v 1.314407 -4.934045 -6.819983
v 0.313852 -4.934045 -7.766940
v 0.265674 -4.934045 -6.826915
vn -0.0000 -0.0000 1.0000
vn -0.0000 1.0000 -0.0000
vn -0.0000 -0.0000 -1.0000
vn 0.2508 -0.9345 0.2524
vn -0.2508 -0.9345 0.2524
vn -0.2508 -0.9345 -0.2524
vn 0.2508 -0.9345 -0.2524
vn -1.0000 -0.0000 -0.0000
vn 1.0000 -0.0000 -0.0000
vn -0.0000 -0.7970 0.6039
vn -0.0000 -0.8388 0.5444
vn -0.6844 -0.7291 -0.0000
vn -0.6517 -0.7585 -0.0000
vn -0.0000 -0.7970 -0.6039
vn -0.0000 -0.8388 -0.5444
vn 0.6845 -0.7291 -0.0000
vn 0.6517 -0.7585 -0.0000
vn -0.0000 -0.5302 0.8479
vn -0.8114 -0.5844 -0.0000
vn -0.0000 -0.5302 -0.8479
vn 0.8114 -0.5844 -0.0000
vn -0.0000 -0.1620 0.9868
vn -0.0000 -0.1862 0.9825
vn -0.8854 -0.4649 -0.0000
vn -0.8854 -0.4648 -0.0000
vn -0.0000 -0.1861 -0.9825
vn -0.0000 -0.1618 -0.9868
vn 0.8797 -0.4755 -0.0000
vn -0.0000 -1.0000 -0.0000
vn -0.7071 0.7071 -0.0000
vn -0.0000 0.7071 -0.7071
vn 0.7071 0.7071 -0.0000
vn 0.8848 -0.4369 0.1622
vn 0.7071 -0.7071 -0.0000
vn 0.8848 -0.4369 -0.1622
vn -0.0000 -0.7071 -0.7071
vn -0.1650 -0.4379 -0.8838
vn 0.1650 -0.4379 -0.8838
vn -0.7071 -0.7071 -0.0000
vn -0.8848 -0.4369 0.1622
vn -0.8848 -0.4369 -0.1622
vn -0.0000 0.7071 0.7071
vn -0.1650 -0.4379 0.8838
vn -0.0000 -0.7071 0.7071
vn 0.1650 -0.4379 0.8838
vn 0.9266 -0.3760 -0.0000
vn 0.9266 -0.3759 -0.0000
vn 0.9757 -0.2193 -0.0000
vn 0.9734 -0.2292 -0.0000
vn -0.0000 0.1600 0.9871
vn -0.0000 0.1600 -0.9871
vn -0.9266 -0.3760 -0.0000
vn 0.7071 -0.0000 0.7071
vn 0.7072 -0.0013 0.7070
vn 0.7074 -0.0039 0.7068
vn -0.7071 -0.0000 0.7071
vn 0.7087 -0.0044 -0.7055
vn 0.7078 -0.0019 -0.7064
vn 0.7071 -0.0000 -0.7071
vn -0.7071 -0.0000 -0.7071
vn 0.6842 -0.3937 0.6139
vn -0.4388 -0.7841 0.4388
vn 0.7765 -0.3698 -0.5102
vn -0.4388 -0.7841 -0.4388
vn 0.0116 -0.8477 -0.5304
vn 0.0098 -0.8249 -0.5652
vn 0.0105 -0.8339 -0.5519
vn -0.5656 -0.8246 0.0147
vn -0.5854 -0.8106 0.0134
vn -0.6003 -0.7997 0.0124
vn 0.0047 -0.7437 -0.6685
vn 0.0054 -0.7574 -0.6529
vn -0.6849 -0.7286 0.0069
vn -0.7020 -0.7121 0.0060
vn -0.7880 -0.6156 0.0021
vn -0.8015 -0.5979 0.0020
vn 0.0015 -0.6380 -0.7700
vn 0.0016 -0.6523 -0.7580
vn 0.0052 -0.1432 0.9897
vn 0.0062 -0.1663 0.9861
vn 0.0020 -0.0306 0.9995
vn 0.0020 -0.0036 1.0000
vn 0.0117 -0.2480 0.9687
vn 0.0129 -0.2641 0.9644
vn 0.9619 -0.2729 0.0157
vn 0.9666 -0.2557 0.0141
vn 0.9888 -0.1493 0.0063
vn 0.9846 -0.1748 0.0077
vn 1.0000 -0.0040 0.0025
vn 0.9994 -0.0346 0.0025
vn 0.0143 -0.2809 0.9596
vn 0.9574 -0.2884 0.0171
vn 0.9891 0.1469 0.0084
vn 0.9932 0.1159 0.0059
vn 0.0048 0.1130 0.9936
vn 0.0066 0.1402 0.9901
vn 0.9367 0.3493 0.0218
vn 0.9650 0.2616 0.0167
vn 0.0133 0.2549 0.9669
vn 0.0170 0.3353 0.9420
vn -0.8521 -0.5234 0.0043
vn -0.8482 -0.5296 0.0033
vn -0.8208 -0.5711 0.0070
vn -0.7584 -0.6517 0.0073
vn 0.0024 -0.5784 -0.8158
vn 0.0030 -0.5750 -0.8181
vn 0.0044 -0.7128 -0.7013
vn 0.0045 -0.6436 -0.7653
vn -0.6310 -0.7758 0.0077
vn 0.0041 -0.8247 -0.5656
vn 0.8586 0.5116 0.0314
vn 0.0047 0.7071 -0.7071
vn 0.7062 0.7071 0.0362
vn 0.0273 0.7071 0.7066
vn -0.7071 0.7071 0.0091
vn 0.0243 0.4910 0.8708
vn -0.9999 -0.0000 0.0128
vn 0.0386 -0.0000 0.9993
vn 0.9987 -0.0000 0.0512
vn 0.0066 -0.0000 -1.0000
vn 0.5656 -0.8246 0.0147
vn 0.6003 -0.7997 0.0124
vn 0.5854 -0.8106 0.0134
vn -0.0116 -0.8477 -0.5304
vn -0.0105 -0.8339 -0.5519
vn -0.0098 -0.8249 -0.5652
vn -0.0054 -0.7574 -0.6529
vn -0.0047 -0.7437 -0.6685
vn 0.7020 -0.7121 0.0060
vn 0.6849 -0.7286 0.0069
vn -0.0016 -0.6523 -0.7580
vn -0.0015 -0.6380 -0.7700
vn 0.8015 -0.5979 0.0020
vn 0.7880 -0.6156 0.0021
vn -0.0051 -0.1432 0.9897
vn -0.0020 -0.0036 1.0000
vn -0.0020 -0.0306 0.9995
vn -0.0062 -0.1663 0.9861
vn -0.0117 -0.2481 0.9687
vn -0.0129 -0.2642 0.9644
vn -0.9619 -0.2729 0.0157
vn -0.9846 -0.1748 0.0077
vn -0.9888 -0.1493 0.0063
vn -0.9666 -0.2557 0.0141
vn -0.9994 -0.0346 0.0025
vn -1.0000 -0.0040 0.0025
vn -0.9574 -0.2884 0.0171
vn -0.0143 -0.2809 0.9596
vn -0.9932 0.1159 0.0059
vn -0.9891 0.1468 0.0084
vn -0.0066 0.1402 0.9901
vn -0.0048 0.1130 0.9936
vn -0.9650 0.2616 0.0167
vn -0.9367 0.3493 0.0218
vn -0.0170 0.3353 0.9420
vn -0.0133 0.2549 0.9669
vn 0.8521 -0.5234 0.0043
vn 0.8482 -0.5297 0.0032
vn 0.7584 -0.6517 0.0073
vn 0.8208 -0.5711 0.0070
vn 0.6310 -0.7758 0.0077
vn -0.0243 0.4910 0.8708
vn 0.7071 0.7071 0.0091
vn -0.0273 0.7071 0.7066
vn -0.7062 0.7071 0.0362
vn -0.0047 0.7071 -0.7071
vn -0.0045 -0.6436 -0.7653
vn -0.0041 -0.8247 -0.5656
vn -0.0044 -0.7128 -0.7013
vn -0.8586 0.5116 0.0314
vn -0.0024 -0.5784 -0.8158
vn -0.0030 -0.5754 -0.8178
vn -0.0066 -0.0000 -1.0000
vn -0.9987 -0.0000 0.0512
vn -0.0386 -0.0000 0.9993
vn 0.9999 -0.0000 0.0128
vn -0.5656 -0.8246 -0.0147
vn -0.6003 -0.7997 -0.0124
vn -0.5854 -0.8106 -0.0134
vn 0.0116 -0.8477 0.5304
vn 0.0105 -0.8339 0.5519
vn 0.0098 -0.8249 0.5652
vn 0.0054 -0.7574 0.6529
vn 0.0047 -0.7437 0.6685
vn -0.7020 -0.7121 -0.0060
vn -0.6849 -0.7286 -0.0069
vn 0.0016 -0.6523 0.7579
vn 0.0015 -0.6380 0.7700
vn -0.8015 -0.5980 -0.0020
vn -0.7880 -0.6156 -0.0021
vn 0.0051 -0.1432 -0.9897
vn 0.0020 -0.0036 -1.0000
vn 0.0020 -0.0307 -0.9995
vn 0.0062 -0.1663 -0.9861
vn 0.0117 -0.2480 -0.9687
vn 0.0129 -0.2641 -0.9644
vn 0.9619 -0.2729 -0.0157
vn 0.9846 -0.1748 -0.0077
vn 0.9888 -0.1493 -0.0063
vn 0.9666 -0.2558 -0.0141
vn 0.9994 -0.0346 -0.0025
vn 1.0000 -0.0040 -0.0025
vn 0.9574 -0.2884 -0.0171
vn 0.0143 -0.2809 -0.9596
vn 0.9932 0.1159 -0.0059
vn 0.9891 0.1468 -0.0084
vn 0.0066 0.1401 -0.9901
vn 0.0048 0.1130 -0.9936
vn 0.9650 0.2616 -0.0167
vn 0.9367 0.3493 -0.0218
vn 0.0170 0.3353 -0.9420
vn 0.0133 0.2549 -0.9669
vn -0.8521 -0.5234 -0.0043
vn -0.8482 -0.5297 -0.0032
vn -0.7584 -0.6517 -0.0073
vn -0.8208 -0.5711 -0.0070
vn -0.6310 -0.7758 -0.0077
vn 0.0243 0.4910 -0.8708
vn -0.7071 0.7071 -0.0091
vn 0.0273 0.7071 -0.7066
vn 0.7062 0.7071 -0.0362
vn 0.0047 0.7071 0.7071
vn 0.0045 -0.6436 0.7653
vn 0.0041 -0.8247 0.5656
vn 0.0044 -0.7128 0.7013
vn 0.8586 0.5116 -0.0314
vn 0.0024 -0.5784 0.8158
vn 0.0030 -0.5753 0.8179
vn 0.0066 -0.0000 1.0000
vn 0.9987 -0.0000 -0.0512
vn 0.0386 -0.0000 -0.9993
vn -0.9999 -0.0000 -0.0128
vn -0.0116 -0.8477 0.5304
vn -0.0098 -0.8249 0.5652
vn -0.0105 -0.8339 0.5519
vn 0.5656 -0.8246 -0.0147
vn 0.5854 -0.8106 -0.0134
vn 0.6003 -0.7997 -0.0124
vn -0.0047 -0.7437 0.6685
vn -0.0054 -0.7574 0.6529
vn 0.6849 -0.7286 -0.0069
vn 0.7020 -0.7121 -0.0060
vn 0.7880 -0.6156 -0.0021
vn 0.8015 -0.5980 -0.0020
vn -0.0015 -0.6380 0.7700
vn -0.0016 -0.6523 0.7580
vn -0.0052 -0.1432 -0.9897
vn -0.0062 -0.1663 -0.9861
vn -0.0020 -0.0306 -0.9995
vn -0.0020 -0.0036 -1.0000
vn -0.0117 -0.2481 -0.9687
vn -0.0129 -0.2642 -0.9644
vn -0.9619 -0.2729 -0.0157
vn -0.9666 -0.2557 -0.0141
vn -0.9888 -0.1493 -0.0063
vn -0.9846 -0.1748 -0.0077
vn -1.0000 -0.0040 -0.0025
vn -0.9994 -0.0346 -0.0025
vn -0.0143 -0.2809 -0.9596
vn -0.9574 -0.2884 -0.0171
vn -0.9891 0.1468 -0.0084
vn -0.9932 0.1160 -0.0059
vn -0.0048 0.1130 -0.9936
vn -0.0066 0.1402 -0.9901
vn -0.9367 0.3493 -0.0218
vn -0.9650 0.2616 -0.0167
vn -0.0133 0.2549 -0.9669
vn -0.0170 0.3353 -0.9420
vn 0.8520 -0.5235 -0.0043
vn 0.8481 -0.5298 -0.0032
vn 0.8208 -0.5711 -0.0070
vn 0.7584 -0.6517 -0.0073
vn -0.0024 -0.5784 0.8158
vn -0.0030 -0.5750 0.8181
vn -0.0044 -0.7128 0.7013
vn -0.0045 -0.6436 0.7653
vn 0.6310 -0.7758 -0.0077
vn -0.0041 -0.8247 0.5656
vn -0.8586 0.5116 -0.0314
vn -0.0047 0.7071 0.7071
vn -0.7062 0.7071 -0.0362
vn -0.0273 0.7071 -0.7066
vn 0.7070 0.7071 -0.0091
vn -0.0243 0.4910 -0.8708
vn 0.9999 -0.0000 -0.0128
vn -0.0386 -0.0000 -0.9993
vn -0.9987 -0.0000 -0.0512
vn -0.0066 -0.0000 1.0000
vt 0.547519 0.751126
vt 0.547519 0.378355
vt 0.654039 0.378355
vt 0.654039 0.751126
vt 0.237097 0.391706
vt 0.375019 0.391706
vt 0.375019 0.673215
vt 0.237097 0.673215
vt 0.542251 0.378355
vt 0.542251 0.005584
vt 0.648770 0.005584
vt 0.648770 0.378355
vt 0.780977 0.319752
vt 0.901546 0.319752
vt 0.901546 0.585979
vt 0.780977 0.585979
vt 0.277639 0.380541
vt 0.277639 0.005114
vt 0.531362 0.005114
vt 0.531362 0.380541
vt 0.232482 0.387695
vt 0.232482 0.706216
vt 0.000000 0.706216
vt 0.000000 0.387695
vt 0.916777 0.454999
vt 0.916777 0.317078
vt 0.919548 0.317078
vt 0.919548 0.454999
vt 0.395162 0.684807
vt 0.395162 0.403299
vt 0.397934 0.403299
vt 0.397934 0.684807
vt 0.914279 0.317078
vt 0.914279 0.454999
vt 0.911508 0.454999
vt 0.911508 0.317078
vt 0.400431 0.684807
vt 0.400431 0.403299
vt 0.403203 0.403299
vt 0.403203 0.684807
vt 0.029875 0.320832
vt 0.153627 0.320832
vt 0.156932 0.325208
vt 0.026570 0.325208
vt 0.273011 0.388915
vt 0.535990 0.388915
vt 0.540290 0.391706
vt 0.268710 0.391706
vt 0.153627 0.053255
vt 0.029875 0.053255
vt 0.026570 0.048880
vt 0.156932 0.048880
vt 0.004312 0.384896
vt 0.268013 0.384896
vt 0.272326 0.387695
vt 0.032225 0.318483
vt 0.151277 0.318483
vt 0.275320 0.386124
vt 0.533680 0.386124
vt 0.151277 0.055605
vt 0.032225 0.055605
vt 0.006628 0.382097
vt 0.265698 0.382097
vt 0.544224 0.753897
vt 0.657334 0.753897
vt 0.658868 0.756669
vt 0.542690 0.756669
vt 0.275905 0.383333
vt 0.533096 0.383333
vt 0.652065 0.002813
vt 0.538956 0.002813
vt 0.537421 0.000041
vt 0.653599 0.000041
vt 0.007215 0.379298
vt 0.265111 0.379298
vt 0.162427 0.331299
vt 0.021075 0.331299
vt 0.021075 0.042789
vt 0.162427 0.042789
vt 0.998934 0.283013
vt 0.997675 0.284272
vt 0.997675 0.000041
vt 0.998934 0.001300
vt 0.779787 0.855775
vt 0.780977 0.854586
vt 0.901546 0.854586
vt 0.902736 0.855775
vt 0.507674 0.391706
vt 0.508933 0.392965
vt 0.508933 0.674678
vt 0.507674 0.675937
vt 0.500539 0.392965
vt 0.501798 0.391706
vt 0.501798 0.675937
vt 0.500539 0.674678
vt 0.902736 0.318562
vt 0.779787 0.318562
vt 0.991800 0.284272
vt 0.990541 0.283013
vt 0.990541 0.001300
vt 0.991800 0.000041
vt 0.902736 0.587169
vt 0.901546 0.588359
vt 0.780977 0.588359
vt 0.779787 0.587169
vt 0.131721 0.178327
vt 0.131721 0.055605
vt 0.137263 0.055605
vt 0.137263 0.178327
vt 0.147801 0.055605
vt 0.147801 0.178328
vt 0.142258 0.178328
vt 0.142258 0.055605
vt 0.784649 0.592031
vt 0.787911 0.593118
vt 0.894613 0.593118
vt 0.897874 0.592031
vt 0.265202 0.378738
vt 0.007124 0.378738
vt 0.262228 0.376499
vt 0.009204 0.376499
vt 0.784649 0.850913
vt 0.785736 0.847652
vt 0.785736 0.595292
vt 0.657109 0.753343
vt 0.544778 0.752532
vt 0.539509 0.004178
vt 0.651840 0.003367
vt 0.896787 0.595292
vt 0.896787 0.847652
vt 0.897874 0.850913
vt 0.533318 0.381958
vt 0.275682 0.381958
vt 0.894613 0.849826
vt 0.787911 0.849826
vt 0.006761 0.000041
vt 0.008953 0.000041
vt 0.008953 0.374307
vt 0.006761 0.376499
vt 0.533548 0.005114
vt 0.533548 0.380541
vt 0.265565 0.376499
vt 0.263373 0.374307
vt 0.263373 0.000041
vt 0.265565 0.000041
vt 0.275453 0.380541
vt 0.275453 0.005114
vt 0.281442 0.003114
vt 0.279248 0.002470
vt 0.281699 0.000019
vt 0.274237 0.003095
vt 0.273979 0.000000
vt 0.276430 0.002451
vt 0.018756 0.042789
vt 0.017557 0.041589
vt 0.254769 0.041589
vt 0.253569 0.042789
vt 0.018756 0.364504
vt 0.017557 0.365703
vt 0.253569 0.364504
vt 0.254769 0.365703
vt 0.237097 0.991735
vt 0.334879 0.673215
vt 0.334879 0.991735
vt 0.031613 0.288087
vt 0.031613 0.055605
vt 0.129395 0.055605
vt 0.129395 0.288087
vt 0.663873 0.959487
vt 0.663873 0.640966
vt 0.761654 0.640966
vt 0.761654 0.959487
vt 0.790325 0.825599
vt 0.790325 0.593118
vt 0.888106 0.593118
vt 0.888106 0.825599
vt 0.945042 0.125596
vt 0.945042 0.124163
vt 0.939956 0.116346
vt 0.939956 0.117021
vt 0.900970 0.107459
vt 0.901968 0.138797
vt 0.931052 0.138274
vt 0.931695 0.108291
vt 0.945042 0.071643
vt 0.939956 0.073393
vt 0.934871 0.110218
vt 0.934871 0.110375
vt 0.934871 0.074596
vt 0.929785 0.105589
vt 0.929785 0.075023
vt 0.142384 0.179603
vt 0.142384 0.200402
vt 0.139387 0.197940
vt 0.139387 0.179782
vt 0.145382 0.179089
vt 0.145382 0.203664
vt 0.977873 0.026095
vt 0.977873 0.051164
vt 0.974872 0.050654
vt 0.974872 0.029710
vt 0.971871 0.050476
vt 0.971871 0.032441
vt 0.148379 0.178309
vt 0.148379 0.207819
vt 0.980874 0.021482
vt 0.980874 0.051939
vt 0.968870 0.050654
vt 0.968870 0.034632
vt 0.136390 0.195985
vt 0.136390 0.179603
vt 0.965870 0.051164
vt 0.965870 0.036739
vt 0.133392 0.194153
vt 0.133392 0.179089
vt 0.924699 0.074596
vt 0.924699 0.101967
vt 0.919613 0.098514
vt 0.919613 0.073393
vt 0.924699 0.101876
vt 0.919613 0.098306
vt 0.916777 0.094338
vt 0.916777 0.071643
vt 0.916777 0.094174
vt 0.964196 0.051939
vt 0.964196 0.039177
vt 0.917850 0.201319
vt 0.904835 0.201986
vt 0.903310 0.200480
vt 0.919421 0.199654
vt 0.917948 0.216216
vt 0.919541 0.217819
vt 0.921168 0.219456
vt 0.921026 0.197953
vt 0.942660 0.245536
vt 0.944296 0.247161
vt 0.944296 0.263474
vt 0.942660 0.265051
vt 0.901752 0.198941
vt 0.902650 0.217602
vt 0.900970 0.219197
vt 0.904293 0.216041
vt 0.907410 0.071908
vt 0.905775 0.073554
vt 0.905775 0.053116
vt 0.907410 0.054815
vt 0.131721 0.192077
vt 0.131721 0.178309
vt 0.900970 0.073554
vt 0.900970 0.053116
vt 0.905556 0.073554
vt 0.905556 0.093116
vt 0.900971 0.093116
vt 0.943121 0.238811
vt 0.943258 0.218053
vt 0.961865 0.219007
vt 0.962619 0.238561
vt 0.937852 0.265051
vt 0.937852 0.245536
vt 0.980003 0.126790
vt 0.980003 0.106032
vt 0.984586 0.106032
vt 0.984586 0.126790
vt 0.960849 0.073906
vt 0.955763 0.072156
vt 0.955763 0.028528
vt 0.960849 0.019953
vt 0.931695 0.138339
vt 0.900970 0.139171
vt 0.901614 0.169153
vt 0.930698 0.169677
vt 0.955763 0.029203
vt 0.960849 0.021386
vt 0.950677 0.035174
vt 0.950677 0.035332
vt 0.950677 0.070953
vt 0.945591 0.039960
vt 0.945591 0.070526
vt 0.974860 0.210122
vt 0.971863 0.209943
vt 0.971863 0.191786
vt 0.974860 0.189323
vt 0.977857 0.210636
vt 0.977857 0.186061
vt 0.977873 0.162651
vt 0.974872 0.159036
vt 0.974872 0.138092
vt 0.977873 0.137582
vt 0.971871 0.156305
vt 0.971871 0.138270
vt 0.980874 0.167264
vt 0.980874 0.136808
vt 0.980855 0.211416
vt 0.980855 0.181906
vt 0.968870 0.154114
vt 0.968870 0.138092
vt 0.968865 0.210122
vt 0.968865 0.193740
vt 0.965870 0.152008
vt 0.965870 0.137582
vt 0.965868 0.210636
vt 0.965868 0.195572
vt 0.940505 0.070953
vt 0.940505 0.043582
vt 0.935419 0.072156
vt 0.935419 0.047036
vt 0.932583 0.073906
vt 0.932583 0.051211
vt 0.964196 0.211416
vt 0.964196 0.197649
vt 0.925369 0.207709
vt 0.923725 0.206147
vt 0.940616 0.205930
vt 0.939023 0.207533
vt 0.925911 0.221763
vt 0.924385 0.223270
vt 0.143430 0.228663
vt 0.143430 0.245756
vt 0.141794 0.247455
vt 0.141794 0.227017
vt 0.922827 0.224808
vt 0.922046 0.204552
vt 0.953197 0.258259
vt 0.953197 0.238743
vt 0.954834 0.240321
vt 0.954834 0.256633
vt 0.938925 0.222430
vt 0.940496 0.224095
vt 0.942243 0.204293
vt 0.942101 0.225796
vt 0.932583 0.051375
vt 0.935419 0.047243
vt 0.964196 0.149570
vt 0.964196 0.136808
vt 0.940505 0.043674
vt 0.958928 0.247402
vt 0.963511 0.247402
vt 0.963511 0.268161
vt 0.958928 0.268161
vt 0.948390 0.258259
vt 0.948390 0.238743
vt 0.922046 0.225583
vt 0.941544 0.225833
vt 0.940790 0.245388
vt 0.922183 0.246341
vt 0.979319 0.267560
vt 0.974734 0.267560
vt 0.974734 0.247998
vt 0.979319 0.247998
vt 0.136990 0.247455
vt 0.136990 0.227017
vt 0.981924 0.106055
vt 0.976838 0.104305
vt 0.976838 0.060677
vt 0.981924 0.052103
vt 0.932583 0.167501
vt 0.963308 0.166669
vt 0.962665 0.136687
vt 0.933581 0.136163
vt 0.976838 0.061353
vt 0.981924 0.053535
vt 0.971752 0.067323
vt 0.971752 0.067481
vt 0.971752 0.103103
vt 0.966666 0.072109
vt 0.966666 0.102675
vt 0.906965 0.170783
vt 0.909963 0.170962
vt 0.909963 0.189119
vt 0.906965 0.191582
vt 0.903968 0.170269
vt 0.903968 0.194843
vt 0.946260 0.193325
vt 0.943259 0.189709
vt 0.943259 0.168766
vt 0.946260 0.168256
vt 0.940258 0.186979
vt 0.940258 0.168944
vt 0.949261 0.197937
vt 0.949261 0.167481
vt 0.900970 0.169489
vt 0.900970 0.198999
vt 0.937257 0.184787
vt 0.937257 0.168766
vt 0.912960 0.170783
vt 0.912960 0.187165
vt 0.934257 0.182681
vt 0.934257 0.168256
vt 0.915958 0.170269
vt 0.915958 0.185332
vt 0.961581 0.103103
vt 0.961581 0.075731
vt 0.956495 0.104305
vt 0.956495 0.079185
vt 0.953659 0.106055
vt 0.953659 0.083361
vt 0.917629 0.169489
vt 0.917629 0.183256
vt 0.959996 0.214682
vt 0.961640 0.216244
vt 0.944748 0.216461
vt 0.946341 0.214858
vt 0.959454 0.200627
vt 0.960979 0.199121
vt 0.939023 0.023139
vt 0.939023 0.040231
vt 0.937388 0.041930
vt 0.937388 0.021492
vt 0.962537 0.197583
vt 0.963319 0.217839
vt 0.147066 0.266445
vt 0.147066 0.246930
vt 0.148702 0.248507
vt 0.148702 0.264820
vt 0.946440 0.199960
vt 0.944868 0.198296
vt 0.943121 0.218098
vt 0.943263 0.196595
vt 0.953659 0.083524
vt 0.956495 0.079392
vt 0.932583 0.180243
vt 0.932583 0.167481
vt 0.961581 0.075823
vt 0.984586 0.266146
vt 0.980003 0.266146
vt 0.980003 0.245387
vt 0.984586 0.245387
vt 0.142258 0.266445
vt 0.142258 0.246930
vt 0.983695 0.232153
vt 0.964196 0.231903
vt 0.964951 0.212348
vt 0.983558 0.211395
vt 0.141575 0.247455
vt 0.141575 0.267017
vt 0.136990 0.267017
vt 0.932583 0.041930
vt 0.932583 0.021492
vt 0.929236 0.075421
vt 0.929236 0.073988
vt 0.924150 0.066171
vt 0.924150 0.066846
vt 0.979115 0.137023
vt 0.978117 0.105685
vt 0.949034 0.106209
vt 0.948390 0.136191
vt 0.929236 0.021468
vt 0.924150 0.023218
vt 0.919064 0.060043
vt 0.919064 0.060201
vt 0.919064 0.024421
vt 0.913978 0.055415
vt 0.913978 0.024849
vt 0.928041 0.203102
vt 0.928041 0.182302
vt 0.931038 0.184765
vt 0.931038 0.202923
vt 0.925043 0.203615
vt 0.925043 0.179041
vt 0.967335 0.163550
vt 0.967335 0.188619
vt 0.964334 0.188109
vt 0.964334 0.167166
vt 0.961334 0.187931
vt 0.961334 0.169897
vt 0.922046 0.204395
vt 0.922046 0.174886
vt 0.970336 0.158938
vt 0.970336 0.189394
vt 0.958333 0.188109
vt 0.958333 0.172088
vt 0.934035 0.186720
vt 0.934035 0.203102
vt 0.955332 0.188619
vt 0.955332 0.174194
vt 0.937033 0.188552
vt 0.937033 0.203615
vt 0.908892 0.024421
vt 0.908892 0.051793
vt 0.903806 0.048339
vt 0.903806 0.023218
vt 0.908892 0.051701
vt 0.903806 0.048131
vt 0.900970 0.044163
vt 0.900970 0.021468
vt 0.900970 0.043999
vt 0.953659 0.189394
vt 0.953659 0.176632
vt 0.135039 0.225535
vt 0.148053 0.224868
vt 0.149579 0.226374
vt 0.133468 0.227199
vt 0.134941 0.210637
vt 0.133348 0.209035
vt 0.131721 0.207397
vt 0.131863 0.228900
vt 0.932122 0.246076
vt 0.933759 0.247701
vt 0.933759 0.264014
vt 0.932122 0.265592
vt 0.151137 0.227912
vt 0.150239 0.209252
vt 0.151918 0.207657
vt 0.148596 0.210813
vt 0.912679 0.091837
vt 0.911044 0.093483
vt 0.911044 0.073045
vt 0.912679 0.074744
vt 0.938704 0.190628
vt 0.938704 0.204395
vt 0.906239 0.093483
vt 0.906239 0.073045
vt 0.964196 0.268035
vt 0.964196 0.248473
vt 0.968782 0.248473
vt 0.968782 0.268035
vt 0.920469 0.219386
vt 0.920332 0.240145
vt 0.901725 0.239191
vt 0.900970 0.219637
vt 0.927315 0.265592
vt 0.927315 0.246076
vt 0.952973 0.071668
vt 0.952973 0.092427
vt 0.948390 0.092427
vt 0.948390 0.071668
s 1
usemtl blinn1SG
f 57/1/1 53/2/1 47/3/1 49/4/1
f 5/5/2 6/6/2 7/7/2 8/8/2
f 70/9/3 66/10/3 61/11/3 63/12/3
f 29/13/4 30/14/5 31/15/6 32/16/7
f 67/17/8 69/18/8 54/19/8 56/20/8
f 4/21/9 3/22/9 2/23/9 1/24/9
f 26/25/1 25/26/1 6/27/1 5/28/1
f 27/29/8 26/30/8 5/31/8 8/32/8
f 28/33/3 27/34/3 8/35/3 7/36/3
f 25/37/9 28/38/9 7/39/9 6/40/9
f 14/41/10 13/42/10 9/43/11 10/44/11
f 15/45/12 14/46/12 10/47/13 11/48/13
f 16/49/14 15/50/14 11/51/15 12/52/15
f 13/53/16 16/54/16 12/55/17 9/24/17
f 18/56/18 17/57/18 13/42/10 14/41/10
f 19/58/19 18/59/19 14/46/12 15/45/12
f 20/60/20 19/61/20 15/50/14 16/49/14
f 17/62/21 20/63/21 16/54/16 13/53/16
f 22/64/22 21/65/23 17/66/18 18/67/18
f 23/68/24 22/69/25 18/59/19 19/58/19
f 24/70/26 23/71/27 19/72/20 20/73/20
f 21/74/28 24/75/28 20/63/21 17/62/21
f 10/44/29 9/43/29 25/76/29 26/77/29
f 11/51/29 10/44/29 26/77/29 27/78/29
f 12/52/29 11/51/29 27/78/29 28/79/29
f 9/43/29 12/52/29 28/79/29 25/76/29
f 33/80/30 34/81/30 42/82/30 43/83/30
f 34/84/31 33/85/31 36/86/31 35/87/31
f 35/88/32 36/89/32 40/90/32 39/91/32
f 30/92/33 37/93/34 41/94/34 31/95/35
f 37/96/36 30/14/37 29/13/38 38/97/36
f 38/98/39 29/99/40 32/100/41 44/101/39
f 39/102/42 40/103/42 43/104/42 42/105/42
f 31/15/43 41/102/44 44/105/44 32/16/45
f 34/106/3 35/107/3 37/108/3 38/109/3
f 35/88/9 39/91/9 41/94/9 37/93/9
f 39/110/1 42/111/1 44/112/1 41/113/1
f 42/82/8 34/81/8 38/98/8 44/101/8
f 43/104/2 40/103/2 52/114/2
f 52/114/2 40/103/2 53/115/2
f 53/115/2 40/103/2 47/116/2
f 45/117/2 47/116/2 40/103/2
f 24/75/28 21/74/28 58/118/46
f 21/74/28 48/119/47 58/118/46
f 58/118/46 48/119/47 59/120/48
f 48/119/47 51/121/49 59/120/48
f 33/85/2 43/104/2 68/122/2
f 68/122/2 43/104/2 69/123/2
f 69/123/2 43/104/2 54/124/2
f 52/114/2 54/124/2 43/104/2
f 21/65/23 22/64/22 48/125/50
f 22/64/22 55/126/50 48/125/50
f 55/126/50 57/1/50 48/125/50
f 57/1/50 49/4/50 48/125/50
f 23/71/27 24/70/26 65/127/51
f 24/70/26 58/128/51 65/127/51
f 65/127/51 58/128/51 66/10/51
f 58/128/51 61/11/51 66/10/51
f 40/103/2 36/86/2 45/117/2
f 45/117/2 36/86/2 46/129/2
f 46/129/2 36/86/2 64/130/2
f 62/131/2 64/130/2 36/86/2
f 22/69/25 23/68/24 55/132/52
f 55/132/52 23/68/24 56/20/52
f 23/68/24 65/133/52 56/20/52
f 65/133/52 67/17/52 56/20/52
f 36/86/2 33/85/2 62/131/2
f 62/131/2 33/85/2 63/134/2
f 63/134/2 33/85/2 70/135/2
f 68/122/2 70/135/2 33/85/2
f 47/136/53 46/137/53 50/138/54 49/139/55
f 54/19/56 53/140/56 57/141/56 56/20/56
f 61/142/57 60/143/58 64/144/59 63/145/59
f 67/17/60 66/146/60 70/147/60 69/18/60
f 45/117/2 46/129/2 47/116/2
f 48/119/61 49/139/55 50/138/54 51/121/61
f 52/114/2 53/115/2 54/124/2
f 55/148/62 56/149/62 57/150/62
f 58/118/63 59/120/63 60/143/58 61/142/57
f 62/131/2 63/134/2 64/130/2
f 65/151/64 66/152/64 67/153/64
f 68/122/2 69/123/2 70/135/2
f 71/154/32 72/155/32 77/156/32 78/157/32
f 72/155/59 71/154/59 73/158/59 74/159/59
f 74/159/34 73/158/34 75/160/34 76/161/34
f 76/161/53 75/160/53 78/157/53 77/156/53
f 1/162/3 2/8/3 73/163/3 71/164/3
f 2/165/29 3/166/29 75/167/29 73/168/29
f 3/169/1 4/170/1 78/171/1 75/172/1
f 4/173/2 1/174/2 71/175/2 78/176/2
f 51/121/49 50/138/9 59/120/48
f 59/120/48 50/138/9 60/143/9
f 60/143/9 50/138/9 76/161/9
f 74/159/9 76/161/9 50/138/9
f 60/143/9 76/161/9 64/144/9
f 76/161/9 77/156/9 64/144/9
f 50/138/9 46/137/9 74/159/9
f 74/159/9 46/137/9 72/155/9
f 64/144/9 77/156/9 46/137/9
f 77/156/9 72/155/9 46/137/9
f 79/177/65 80/178/65 83/179/66 82/180/67
f 79/181/2 81/182/2 93/183/2 80/184/2
f 81/185/68 79/177/68 82/180/69 84/186/70
f 82/180/67 83/179/66 87/187/71 85/188/72
f 84/186/70 82/180/69 85/188/73 88/189/74
f 88/189/74 85/188/73 86/190/75 89/191/76
f 85/188/72 87/187/71 94/190/77 86/190/78
f 90/192/79 88/193/80 89/194/81 91/195/82
f 92/196/83 84/197/84 88/193/80 90/192/79
f 83/198/85 92/199/86 90/200/87 87/201/88
f 87/201/88 90/200/87 91/202/89 94/203/90
f 93/204/91 81/205/91 84/197/84 92/196/83
f 80/206/92 93/207/92 92/199/86 83/198/85
f 94/203/90 91/202/89 95/208/93 96/209/94
f 91/195/82 89/194/81 98/210/95 95/211/96
f 96/209/94 95/208/93 97/212/97 103/213/98
f 95/211/96 98/210/95 99/214/99 97/215/100
f 98/216/101 100/217/102 101/218/103 99/219/104
f 89/191/76 86/190/75 100/217/102 98/216/101
f 100/217/105 96/220/106 103/221/107 101/218/108
f 86/190/78 94/190/77 96/220/106 100/217/105
f 99/219/104 101/218/103 102/222/109 113/223/109
f 101/218/108 103/221/107 104/224/110 102/222/110
f 103/213/98 97/212/97 105/225/111 104/226/111
f 104/227/2 105/228/2 109/229/2 106/230/2
f 102/231/2 104/227/2 106/230/2 107/232/2
f 114/233/112 107/232/112 106/230/112 108/234/112
f 108/235/113 106/236/113 109/237/113 110/238/113
f 110/239/114 109/229/114 111/240/114 112/241/114
f 105/228/2 113/242/2 111/240/2 109/229/2
f 113/242/2 102/231/2 107/232/2 111/240/2
f 107/243/115 114/244/115 112/245/115 111/246/115
f 97/215/100 99/214/99 113/247/116 105/248/116
f 112/245/117 114/244/117 116/249/117 115/250/117
f 110/251/118 112/252/118 115/253/118 117/249/118
f 116/254/29 118/255/29 117/256/29 115/257/29
f 108/235/119 110/238/119 117/258/119 118/259/119
f 114/260/120 108/261/120 118/262/120 116/263/120
f 120/264/121 124/265/122 122/266/123 119/267/121
f 119/268/2 121/269/2 133/270/2 120/271/2
f 119/267/124 122/266/125 123/272/126 121/273/124
f 122/266/125 125/274/127 126/275/128 123/272/126
f 124/265/122 128/276/129 125/274/130 122/266/123
f 125/274/127 127/277/131 134/277/132 126/275/128
f 128/276/129 129/278/133 127/277/134 125/274/130
f 130/279/135 131/280/136 129/281/137 128/282/138
f 132/283/139 130/279/135 128/282/138 124/284/140
f 123/285/141 126/286/142 130/287/143 132/288/144
f 126/286/142 134/289/145 131/290/146 130/287/143
f 121/291/147 123/285/141 132/288/144 133/292/147
f 133/293/148 132/283/139 124/284/140 120/294/148
f 134/289/145 136/295/149 135/296/150 131/290/146
f 131/280/136 135/297/151 138/298/152 129/281/137
f 136/295/149 153/299/153 137/300/154 135/296/150
f 135/297/151 137/301/155 140/302/156 138/298/152
f 129/278/133 138/303/157 139/304/158 127/277/134
f 138/303/157 140/305/159 141/306/160 139/304/158
f 140/305/159 142/307/161 143/308/161 141/306/160
f 137/301/155 144/309/162 142/310/162 140/302/156
f 142/311/2 145/312/2 146/313/2 143/314/2
f 144/315/2 148/316/2 145/312/2 142/311/2
f 146/317/163 145/318/163 147/319/163 154/320/163
f 149/321/164 147/322/164 145/312/164 148/316/164
f 151/323/165 149/324/165 148/325/165 150/326/165
f 152/327/2 150/328/2 148/316/2 144/315/2
f 154/329/166 151/330/166 150/328/166 146/313/166
f 143/314/2 146/313/2 150/328/2 152/327/2
f 141/306/167 143/308/168 152/331/168 153/332/169
f 153/299/153 152/333/170 144/334/170 137/300/154
f 139/304/171 141/306/167 153/332/169 136/335/172
f 154/336/173 156/337/173 155/338/173 151/339/173
f 151/323/174 155/340/174 157/341/174 149/324/174
f 156/342/29 158/343/29 157/344/29 155/345/29
f 149/346/175 157/347/175 158/348/175 147/349/175
f 147/319/176 158/350/176 156/351/176 154/320/176
f 127/277/131 139/304/171 136/335/172 134/277/132
f 160/352/177 164/353/178 162/354/179 159/355/177
f 159/356/2 161/357/2 173/358/2 160/359/2
f 159/355/180 162/354/181 163/360/182 161/361/180
f 162/354/181 165/362/183 166/363/184 163/360/182
f 164/353/178 168/364/185 165/362/186 162/354/179
f 165/362/183 167/365/187 174/365/188 166/363/184
f 168/364/185 169/366/189 167/365/190 165/362/186
f 170/367/191 171/368/192 169/369/193 168/370/194
f 172/371/195 170/367/191 168/370/194 164/372/196
f 163/373/197 166/374/198 170/375/199 172/376/200
f 166/374/198 174/377/201 171/378/202 170/375/199
f 161/379/203 163/373/197 172/376/200 173/380/203
f 173/381/204 172/371/195 164/372/196 160/382/204
f 174/377/201 176/383/205 175/384/206 171/378/202
f 171/368/192 175/385/207 178/386/208 169/369/193
f 176/383/205 193/387/209 177/388/210 175/384/206
f 175/385/207 177/389/211 180/390/212 178/386/208
f 169/366/189 178/391/213 179/392/214 167/365/190
f 178/391/213 180/393/215 181/394/216 179/392/214
f 180/393/215 182/395/217 183/396/217 181/394/216
f 177/389/211 184/397/218 182/398/218 180/390/212
f 182/399/2 185/400/2 186/401/2 183/402/2
f 184/403/2 188/404/2 185/400/2 182/399/2
f 186/405/219 185/406/219 187/407/219 194/408/219
f 189/409/220 187/410/220 185/400/220 188/404/220
f 191/411/221 189/412/221 188/413/221 190/414/221
f 192/415/2 190/416/2 188/404/2 184/403/2
f 194/417/222 191/418/222 190/416/222 186/401/222
f 183/402/2 186/401/2 190/416/2 192/415/2
f 181/394/223 183/396/224 192/419/224 193/420/225
f 193/387/209 192/421/226 184/422/226 177/388/210
f 179/392/227 181/394/223 193/420/225 176/423/228
f 194/424/229 196/425/229 195/426/229 191/427/229
f 191/411/230 195/428/230 197/429/230 189/412/230
f 196/430/29 198/431/29 197/432/29 195/433/29
f 189/350/231 197/434/231 198/435/231 187/436/231
f 187/407/232 198/437/232 196/438/232 194/408/232
f 167/365/187 179/392/227 176/423/228 174/365/188
f 199/439/233 200/440/233 203/441/234 202/442/235
f 199/443/2 201/444/2 213/445/2 200/446/2
f 201/447/236 199/439/236 202/442/237 204/448/238
f 202/442/235 203/441/234 207/449/239 205/450/240
f 204/448/238 202/442/237 205/450/241 208/451/242
f 208/451/242 205/450/241 206/452/243 209/453/244
f 205/450/240 207/449/239 214/452/245 206/452/246
f 210/454/247 208/455/248 209/456/249 211/457/250
f 212/458/251 204/459/252 208/455/248 210/454/247
f 203/460/253 212/461/254 210/462/255 207/463/256
f 207/463/256 210/462/255 211/464/257 214/465/258
f 213/466/259 201/467/259 204/459/252 212/458/251
f 200/468/260 213/469/260 212/461/254 203/460/253
f 214/465/258 211/464/257 215/470/261 216/471/262
f 211/457/250 209/456/249 218/472/263 215/473/264
f 216/471/262 215/470/261 217/474/265 223/475/266
f 215/473/264 218/472/263 219/476/267 217/477/268
f 218/478/269 220/479/270 221/480/271 219/481/272
f 209/453/244 206/452/243 220/479/270 218/478/269
f 220/479/273 216/482/274 223/483/275 221/480/276
f 206/452/246 214/452/245 216/482/274 220/479/273
f 219/481/272 221/480/271 222/484/277 233/485/277
f 221/480/276 223/483/275 224/486/278 222/484/278
f 223/475/266 217/474/265 225/487/279 224/488/279
f 224/489/2 225/490/2 229/491/2 226/492/2
f 222/493/2 224/489/2 226/492/2 227/494/2
f 234/495/280 227/494/280 226/492/280 228/496/280
f 228/497/281 226/498/281 229/499/281 230/500/281
f 230/501/282 229/491/282 231/502/282 232/503/282
f 225/490/2 233/504/2 231/502/2 229/491/2
f 233/504/2 222/493/2 227/494/2 231/502/2
f 227/505/283 234/506/283 232/507/283 231/508/283
f 217/477/268 219/476/267 233/509/284 225/510/284
f 232/507/285 234/506/285 236/511/285 235/512/285
f 230/513/286 232/514/286 235/515/286 237/516/286
f 236/517/29 238/518/29 237/519/29 235/520/29
f 228/497/287 230/500/287 237/521/287 238/522/287
f 234/523/288 228/524/288 238/525/288 236/526/288
