# Blender 4.4.3
# www.blender.org
mtllib LeftDoor.mtl
o cabinet.005
v 5.602251 -1.296428 -0.961668
v 5.602251 -1.296429 -6.834250
v 5.602251 14.795506 -0.961669
v 5.766901 -1.296428 -0.961668
v 5.766901 -1.296429 -6.834250
v 5.882250 -1.181080 -1.077017
v 5.766901 14.795506 -0.961669
v 5.766901 14.795506 -6.834251
v 5.882250 14.680159 -1.077018
v 5.882250 14.680159 -6.718904
v 5.882250 14.216167 -1.529526
v 5.882250 14.216167 -6.266396
v 5.882250 -0.717092 -1.529525
v 5.699563 14.216167 -1.529526
v 5.699563 14.216167 -6.266396
v 5.699563 -0.717092 -1.529525
v 5.699563 14.047739 -1.692314
v 5.699563 14.047739 -6.103608
v 5.699563 0.366621 -1.692313
v 5.763560 14.047739 -1.692314
v 5.763560 14.047739 -6.103608
v 5.897047 13.914251 -1.825799
v 5.763560 0.366621 -1.692313
v 5.897047 0.500108 -1.825798
v 5.763560 0.366621 -6.103607
v 5.897047 0.500107 -5.970120
v 5.699563 0.366621 -6.103607
v 5.699563 -0.717092 -6.266395
v 5.882250 -0.717092 -6.266395
v 5.882250 -1.181081 -6.718903
v 5.897047 13.914251 -5.970121
v 5.897047 7.207181 -3.897960
v 5.602251 14.795506 -6.834251
v 6.222810 7.203440 -1.309897
v 6.222810 7.322552 -1.190785
v 6.222810 7.359061 -1.245434
v 6.222810 7.267903 -1.154270
v 6.222810 7.203440 -1.141447
v 6.222810 7.138978 -1.154270
v 6.222810 7.084322 -1.190785
v 6.222810 7.047814 -1.245434
v 6.222810 7.034991 -1.309897
v 6.222810 7.047814 -1.374359
v 6.222810 7.084322 -1.429008
v 6.222810 7.138978 -1.465524
v 6.222810 7.203440 -1.478346
v 6.222810 7.267903 -1.465524
v 6.222810 7.322552 -1.429008
v 6.222810 7.359061 -1.374359
v 6.222810 7.371890 -1.309897
v 6.199514 7.429231 -1.309897
v 6.143276 7.452977 -1.309897
v 6.199514 7.412043 -1.396303
v 6.199514 7.412043 -1.223490
v 6.143276 7.433985 -1.214401
v 6.199514 7.363099 -1.150238
v 6.143276 7.379887 -1.133443
v 6.199514 7.289847 -1.101293
v 6.143276 7.298930 -1.079349
v 6.199514 7.203440 -1.084106
v 6.143276 7.203440 -1.060354
v 6.199514 7.117033 -1.101293
v 6.143276 7.107945 -1.079349
v 6.199514 7.043776 -1.150238
v 6.143276 7.026988 -1.133443
v 6.199514 6.994832 -1.223490
v 6.143276 6.972891 -1.214401
v 6.199514 6.977648 -1.309897
v 6.143276 6.953898 -1.309897
v 6.199514 6.994832 -1.396303
v 6.143276 6.972891 -1.405392
v 6.199514 7.043776 -1.469555
v 6.143276 7.026988 -1.486350
v 6.199514 7.117033 -1.518500
v 6.143276 7.107945 -1.540444
v 6.199514 7.203440 -1.535688
v 6.143276 7.203440 -1.559439
v 6.199514 7.289847 -1.518500
v 6.143276 7.298930 -1.540444
v 6.199514 7.363099 -1.469555
v 6.143276 7.379887 -1.486350
v 6.143276 7.433985 -1.405393
v 6.117157 7.379887 -1.486350
v 5.975944 7.278079 -1.384540
v 6.117157 7.298930 -1.540444
v 6.117157 7.433985 -1.405393
v 5.975944 7.300961 -1.350294
v 6.117157 7.452977 -1.309897
v 6.117157 7.433985 -1.214401
v 5.975944 7.309002 -1.309897
v 5.975944 7.300961 -1.269500
v 5.771784 7.309002 -1.309897
v 5.771784 7.300961 -1.350294
v 5.771784 7.300961 -1.269500
v 5.771784 7.278079 -1.235253
v 5.975944 7.278079 -1.235253
v 5.771784 7.243832 -1.212370
v 5.975944 7.243832 -1.212370
v 5.771784 7.203440 -1.204335
v 5.975944 7.203440 -1.204335
v 5.771784 7.163043 -1.212370
v 5.975944 7.163043 -1.212370
v 5.771784 7.128796 -1.235253
v 5.975944 7.128796 -1.235253
v 5.771784 7.105914 -1.269500
v 5.975944 7.105914 -1.269500
v 5.771784 7.097872 -1.309897
v 5.975944 7.097872 -1.309897
v 5.771784 7.105914 -1.350293
v 5.975944 7.105914 -1.350293
v 5.771784 7.128796 -1.384540
v 5.975944 7.128796 -1.384540
v 5.771784 7.163043 -1.407423
v 5.975944 7.163043 -1.407423
v 5.771784 7.203440 -1.415459
v 5.975944 7.203440 -1.415459
v 5.771784 7.243832 -1.407423
v 5.975944 7.243832 -1.407423
v 5.771784 7.278079 -1.384540
v 6.117157 7.203440 -1.559439
v 6.117157 7.107945 -1.540444
v 6.117157 7.026988 -1.486350
v 6.117157 6.972891 -1.405392
v 6.117157 6.953898 -1.309897
v 6.117157 6.972891 -1.214401
v 6.117157 7.026988 -1.133443
v 6.117157 7.107945 -1.079349
v 6.117157 7.203440 -1.060354
v 6.117157 7.298930 -1.079349
v 6.117157 7.379887 -1.133443
vn -0.0000 -1.0000 -0.0000
vn -1.0000 -0.0000 -0.0000
vn -0.0000 -0.0000 1.0000
vn 0.7071 -0.7071 -0.0000
vn 0.7071 -0.0000 0.7071
vn -0.0000 1.0000 -0.0000
vn 0.7071 0.7071 -0.0000
vn 1.0000 -0.0000 -0.0000
vn -0.0000 -0.0000 -1.0000
vn 0.7071 -0.0000 -0.7071
vn 0.9797 0.0768 0.1853
vn 0.9797 0.1418 0.1418
vn 0.9797 0.1853 0.0768
vn 0.9797 0.2006 -0.0000
vn 0.9797 -0.0000 0.2006
vn 0.9797 -0.0768 0.1853
vn 0.9797 -0.1418 0.1418
vn 0.9797 -0.1853 0.0768
vn 0.9797 -0.2006 -0.0000
vn 0.9797 -0.1853 -0.0768
vn 0.9797 -0.1418 -0.1418
vn 0.9797 -0.0767 -0.1853
vn 0.9797 -0.0000 -0.2006
vn 0.9797 0.0767 -0.1853
vn 0.9797 0.1418 -0.1418
vn 0.9797 0.1853 -0.0768
vn 0.9265 0.3477 -0.1440
vn 0.9265 0.3764 -0.0000
vn 0.9265 0.3477 0.1440
vn 0.3890 0.8511 0.3525
vn 0.3890 0.9212 -0.0000
vn 0.2689 0.9632 -0.0000
vn 0.2689 0.8899 0.3686
vn 0.2689 0.8899 -0.3686
vn 0.3890 0.8511 -0.3525
vn 0.2689 0.6811 0.6811
vn 0.3890 0.6514 0.6514
vn 0.9265 0.2661 0.2661
vn 0.2689 0.3686 0.8898
vn 0.3890 0.3526 0.8511
vn 0.9265 0.1440 0.3477
vn 0.2690 -0.0000 0.9632
vn 0.3891 -0.0000 0.9212
vn 0.9265 -0.0000 0.3764
vn 0.2689 -0.3686 0.8898
vn 0.3890 -0.3525 0.8511
vn 0.9265 -0.1440 0.3477
vn 0.2689 -0.6811 0.6811
vn 0.3890 -0.6514 0.6514
vn 0.9265 -0.2661 0.2661
vn 0.2689 -0.8898 0.3686
vn 0.3890 -0.8511 0.3525
vn 0.9265 -0.3477 0.1440
vn 0.2689 -0.9632 -0.0000
vn 0.3890 -0.9212 -0.0000
vn 0.9265 -0.3764 -0.0000
vn 0.2689 -0.8898 -0.3686
vn 0.3890 -0.8511 -0.3525
vn 0.9265 -0.3477 -0.1440
vn 0.2689 -0.6811 -0.6811
vn 0.3890 -0.6514 -0.6514
vn 0.9265 -0.2661 -0.2661
vn 0.2689 -0.3686 -0.8898
vn 0.3890 -0.3525 -0.8511
vn 0.9265 -0.1440 -0.3477
vn 0.2689 -0.0000 -0.9632
vn 0.3891 -0.0000 -0.9212
vn 0.9265 -0.0000 -0.3764
vn 0.2689 0.3686 -0.8898
vn 0.3890 0.3526 -0.8511
vn 0.9265 0.1440 -0.3477
vn 0.2689 0.6811 -0.6811
vn 0.3890 0.6514 -0.6514
vn 0.9265 0.2661 -0.2661
vn -0.0000 0.3827 -0.9239
vn -0.0000 0.7071 -0.7071
vn -0.0000 0.9239 -0.3827
vn -0.7139 0.4951 -0.4951
vn -0.7139 0.6469 -0.2680
vn -0.7139 0.2680 -0.6469
vn -0.7139 0.7002 -0.0000
vn -0.0000 0.9239 0.3827
vn -0.7139 0.6469 0.2680
vn -0.0000 0.9808 0.1952
vn -0.0000 0.9808 -0.1952
vn -0.0000 0.8315 0.5556
vn -0.0000 0.5556 0.8315
vn -0.0000 0.1951 0.9808
vn -0.0000 -0.1951 0.9808
vn -0.0000 -0.5556 0.8315
vn -0.0000 -0.8315 0.5556
vn -0.0000 -0.9808 0.1952
vn -0.0000 -0.9808 -0.1952
vn -0.0000 -0.8315 -0.5556
vn -0.0000 -0.5556 -0.8315
vn -0.0000 -0.1951 -0.9808
vn -0.0000 0.1951 -0.9808
vn -0.0000 0.5556 -0.8315
vn -0.0000 0.8315 -0.5556
vn -0.7139 -0.0000 -0.7002
vn -0.7139 -0.2680 -0.6469
vn -0.0000 -0.3827 -0.9239
vn -0.7139 -0.4951 -0.4951
vn -0.0000 -0.7071 -0.7071
vn -0.7139 -0.6469 -0.2680
vn -0.0000 -0.9239 -0.3827
vn -0.7139 -0.7002 -0.0000
vn -0.7139 -0.6469 0.2680
vn -0.0000 -0.9239 0.3827
vn -0.7139 -0.4951 0.4951
vn -0.0000 -0.7071 0.7071
vn -0.7139 -0.2680 0.6469
vn -0.0000 -0.3827 0.9239
vn -0.7139 -0.0000 0.7002
vn -0.7139 0.2680 0.6469
vn -0.0000 0.3827 0.9239
vn -0.7139 0.4951 0.4951
vn -0.0000 0.7071 0.7071
vt 0.927315 0.433319
vt 0.927315 0.317078
vt 0.930574 0.317078
vt 0.930574 0.433319
vt 0.658604 0.322446
vt 0.774845 0.322446
vt 0.774845 0.640966
vt 0.658604 0.640966
vt 0.532152 0.710227
vt 0.532152 0.391706
vt 0.535411 0.391706
vt 0.535411 0.710227
vt 0.770846 0.000444
vt 0.768538 0.002752
vt 0.655643 0.002752
vt 0.653335 0.000444
vt 0.655643 0.320137
vt 0.653335 0.322446
vt 0.937852 0.433319
vt 0.937852 0.317078
vt 0.941111 0.317078
vt 0.941111 0.433319
vt 0.768538 0.320137
vt 0.770846 0.322446
vt 0.664698 0.310853
vt 0.759484 0.310853
vt 0.664698 0.012036
vt 0.962544 0.317078
vt 0.962544 0.410839
vt 0.958928 0.410839
vt 0.958928 0.317078
vt 0.003616 0.000041
vt 0.003616 0.295628
vt 0.000000 0.295628
vt 0.000000 0.000041
vt 1.000000 0.591214
vt 0.906239 0.591214
vt 0.909461 0.587880
vt 0.996778 0.587880
vt 0.906239 0.295627
vt 0.909461 0.317078
vt 0.131721 0.316152
vt 0.131721 0.228833
vt 0.132988 0.228833
vt 0.132988 0.316152
vt 0.943121 0.587878
vt 0.943121 0.317078
vt 0.944388 0.317078
vt 0.944388 0.587878
vt 0.669142 0.287225
vt 0.671827 0.284540
vt 0.755188 0.284540
vt 0.757873 0.287225
vt 0.669142 0.012036
vt 0.671827 0.014721
vt 0.757873 0.012036
vt 0.755188 0.014721
vt 0.974734 0.404393
vt 0.974734 0.317078
vt 0.976001 0.317078
vt 0.976001 0.404393
vt 0.405700 0.674104
vt 0.405700 0.403299
vt 0.406967 0.403299
vt 0.406967 0.674104
vt 1.000000 0.295627
vt 0.996778 0.317078
vt 0.967813 0.317078
vt 0.967813 0.410838
vt 0.964196 0.410838
vt 0.964196 0.317078
vt 0.514693 0.391706
vt 0.514693 0.687292
vt 0.511077 0.687292
vt 0.511077 0.391706
vt 0.759484 0.012036
vt 0.713507 0.149631
vt 0.537421 0.710227
vt 0.537421 0.391706
vt 0.540680 0.391706
vt 0.540680 0.710227
vt 0.907193 0.102267
vt 0.906542 0.099054
vt 0.905914 0.102271
vt 0.904731 0.101786
vt 0.903823 0.100885
vt 0.908373 0.101773
vt 0.909274 0.100865
vt 0.909759 0.099682
vt 0.909754 0.098403
vt 0.909260 0.097223
vt 0.908353 0.096322
vt 0.907169 0.095837
vt 0.905890 0.095842
vt 0.904711 0.096336
vt 0.903810 0.097243
vt 0.903324 0.098427
vt 0.903329 0.099706
vt 0.902146 0.099940
vt 0.902820 0.101555
vt 0.904060 0.102789
vt 0.901818 0.102209
vt 0.903385 0.103776
vt 0.900970 0.100161
vt 0.905433 0.104625
vt 0.905678 0.103454
vt 0.907649 0.104625
vt 0.907428 0.103449
vt 0.909696 0.103778
vt 0.909042 0.102776
vt 0.911264 0.102211
vt 0.910276 0.101536
vt 0.912112 0.100163
vt 0.910941 0.099918
vt 0.912113 0.097947
vt 0.910937 0.098168
vt 0.911265 0.095899
vt 0.910263 0.096554
vt 0.909698 0.094332
vt 0.909023 0.095320
vt 0.907651 0.093484
vt 0.907405 0.094655
vt 0.905434 0.093483
vt 0.905656 0.094659
vt 0.903387 0.094331
vt 0.904041 0.095333
vt 0.901819 0.095898
vt 0.902807 0.096573
vt 0.900971 0.097945
vt 0.902142 0.098191
vt 0.961578 0.246026
vt 0.961889 0.245595
vt 0.960546 0.244466
vt 0.960172 0.244841
vt 0.959338 0.242993
vt 0.958928 0.243345
vt 0.963844 0.241801
vt 0.963185 0.241278
vt 0.964608 0.242273
vt 0.977698 0.241640
vt 0.976963 0.242124
vt 0.980118 0.244653
vt 0.981347 0.243281
vt 0.981742 0.243640
vt 0.980487 0.245030
vt 0.978816 0.245698
vt 0.979134 0.246123
vt 0.976139 0.242551
vt 0.975841 0.238475
vt 0.975084 0.238727
vt 0.976612 0.238219
vt 0.974331 0.238960
vt 0.975251 0.242915
vt 0.973576 0.239158
vt 0.974314 0.243212
vt 0.972819 0.239315
vt 0.973342 0.243440
vt 0.972058 0.239425
vt 0.972346 0.243597
vt 0.971295 0.239482
vt 0.971334 0.243683
vt 0.970533 0.239487
vt 0.970316 0.243698
vt 0.969774 0.239436
vt 0.969300 0.243639
vt 0.969020 0.239330
vt 0.968295 0.243509
vt 0.968275 0.239169
vt 0.967311 0.243306
vt 0.967538 0.238957
vt 0.966359 0.243031
vt 0.966808 0.238697
vt 0.965452 0.242685
vt 0.966081 0.238397
vt 0.965345 0.238068
vt 0.964584 0.237729
vt 0.963308 0.246433
vt 0.964751 0.247042
vt 0.964569 0.247542
vt 0.963064 0.246906
vt 0.966194 0.247473
vt 0.966068 0.247990
vt 0.967628 0.247760
vt 0.967553 0.248287
vt 0.969051 0.247924
vt 0.969024 0.248456
vt 0.970466 0.247976
vt 0.970485 0.248509
vt 0.971874 0.247922
vt 0.971939 0.248451
vt 0.973278 0.247758
vt 0.973388 0.248280
vt 0.974679 0.247477
vt 0.974836 0.247986
vt 0.976074 0.247061
vt 0.976283 0.247551
vt 0.977459 0.246482
vt 0.977721 0.246945
s 1
usemtl blinn1SG.001
f 1/1/1 2/2/1 5/3/1 4/4/1
f 2/5/2 1/6/2 3/7/2 33/8/2
f 3/9/3 1/10/3 4/11/3 7/12/3
f 5/13/4 30/14/4 6/15/4 4/16/4
f 9/17/5 7/18/5 4/16/5 6/15/5
f 33/19/6 3/20/6 7/21/6 8/22/6
f 10/23/7 8/24/7 7/18/7 9/17/7
f 10/23/8 9/17/8 11/25/8 12/26/8
f 9/17/8 6/15/8 13/27/8 11/25/8
f 12/28/1 11/29/1 14/30/1 15/31/1
f 11/32/9 13/33/9 16/34/9 14/35/9
f 15/36/8 14/37/8 17/38/8 18/39/8
f 14/37/8 16/40/8 19/41/8 17/38/8
f 18/42/6 17/43/6 20/44/6 21/45/6
f 17/46/3 19/47/3 23/48/3 20/49/3
f 20/50/7 22/51/7 31/52/7 21/53/7
f 22/51/5 20/50/5 23/54/5 24/55/5
f 25/56/4 26/57/4 24/55/4 23/54/4
f 19/58/1 27/59/1 25/60/1 23/61/1
f 27/62/9 18/63/9 21/64/9 25/65/9
f 21/53/10 31/52/10 26/57/10 25/56/10
f 16/40/8 28/66/8 27/67/8 19/41/8
f 28/66/8 15/36/8 18/39/8 27/67/8
f 13/68/6 29/69/6 28/70/6 16/71/6
f 29/72/3 12/73/3 15/74/3 28/75/3
f 6/15/8 30/14/8 29/76/8 13/27/8
f 30/14/8 10/23/8 12/26/8 29/76/8
f 8/24/10 10/23/10 30/14/10 5/13/10
f 26/57/8 31/52/8 32/77/8
f 24/55/8 26/57/8 32/77/8
f 31/52/8 22/51/8 32/77/8
f 22/51/8 24/55/8 32/77/8
f 2/78/9 33/79/9 8/80/9 5/81/9
f 37/82/11 34/83/8 35/84/12
f 35/84/12 34/83/8 36/85/13
f 36/85/13 34/83/8 50/86/14
f 38/87/15 34/83/8 37/82/11
f 39/88/16 34/83/8 38/87/15
f 40/89/17 34/83/8 39/88/16
f 41/90/18 34/83/8 40/89/17
f 42/91/19 34/83/8 41/90/18
f 43/92/20 34/83/8 42/91/19
f 44/93/21 34/83/8 43/92/20
f 45/94/22 34/83/8 44/93/21
f 46/95/23 34/83/8 45/94/22
f 47/96/24 34/83/8 46/95/23
f 48/97/25 34/83/8 47/96/24
f 49/98/26 34/83/8 48/97/25
f 50/86/14 34/83/8 49/98/26
f 53/99/27 51/100/28 50/86/14 49/98/26
f 36/85/13 50/86/14 51/100/28 54/101/29
f 54/101/30 51/100/31 52/102/32 55/103/33
f 82/104/34 52/102/32 51/100/31 53/99/35
f 55/103/33 57/105/36 56/106/37 54/101/30
f 54/101/29 56/106/38 35/84/12 36/85/13
f 57/105/36 59/107/39 58/108/40 56/106/37
f 56/106/38 58/108/41 37/82/11 35/84/12
f 59/107/39 61/109/42 60/110/43 58/108/40
f 58/108/41 60/110/44 38/87/15 37/82/11
f 61/109/42 63/111/45 62/112/46 60/110/43
f 60/110/44 62/112/47 39/88/16 38/87/15
f 63/111/45 65/113/48 64/114/49 62/112/46
f 62/112/47 64/114/50 40/89/17 39/88/16
f 65/113/48 67/115/51 66/116/52 64/114/49
f 64/114/50 66/116/53 41/90/18 40/89/17
f 67/115/51 69/117/54 68/118/55 66/116/52
f 66/116/53 68/118/56 42/91/19 41/90/18
f 69/117/54 71/119/57 70/120/58 68/118/55
f 68/118/56 70/120/59 43/92/20 42/91/19
f 71/119/57 73/121/60 72/122/61 70/120/58
f 70/120/59 72/122/62 44/93/21 43/92/20
f 73/121/60 75/123/63 74/124/64 72/122/61
f 72/122/62 74/124/65 45/94/22 44/93/21
f 75/123/63 77/125/66 76/126/67 74/124/64
f 74/124/65 76/126/68 46/95/23 45/94/22
f 77/125/66 79/127/69 78/128/70 76/126/67
f 76/126/68 78/128/71 47/96/24 46/95/23
f 79/127/69 81/129/72 80/130/73 78/128/70
f 78/128/71 80/130/74 48/97/25 47/96/24
f 81/129/72 82/104/34 53/99/35 80/130/73
f 80/130/74 53/99/27 49/98/26 48/97/25
f 79/131/69 85/132/75 83/133/76 81/134/72
f 81/134/72 83/133/76 86/135/77 82/136/34
f 84/137/78 87/138/79 86/135/79 83/133/78
f 118/139/80 84/137/78 83/133/78 85/132/80
f 87/140/79 90/141/81 88/142/81 86/143/79
f 82/144/34 86/143/77 88/142/6 52/145/32
f 52/145/32 88/142/6 89/146/82 55/147/33
f 89/146/83 88/142/81 90/141/81 91/148/83
f 90/141/84 92/149/84 94/150/84 91/148/84
f 87/140/85 93/151/85 92/149/85 90/141/85
f 91/148/86 94/150/86 95/152/86 96/153/86
f 96/153/87 95/152/87 97/154/87 98/155/87
f 98/155/88 97/154/88 99/156/88 100/157/88
f 100/157/89 99/156/89 101/158/89 102/159/89
f 102/159/90 101/158/90 103/160/90 104/161/90
f 104/161/91 103/160/91 105/162/91 106/163/91
f 106/163/92 105/162/92 107/164/92 108/165/92
f 108/165/93 107/164/93 109/166/93 110/167/93
f 110/167/94 109/166/94 111/168/94 112/169/94
f 112/169/95 111/168/95 113/170/95 114/171/95
f 114/171/96 113/170/96 115/172/96 116/173/96
f 116/173/97 115/172/97 117/174/97 118/139/97
f 118/139/98 117/174/98 119/175/98 84/137/98
f 84/137/99 119/175/99 93/176/99 87/138/99
f 116/173/100 118/139/80 85/132/80 120/177/100
f 114/171/101 116/173/100 120/177/100 121/178/101
f 75/179/63 121/178/102 120/177/9 77/180/66
f 77/180/66 120/177/9 85/132/75 79/131/69
f 112/169/103 114/171/101 121/178/101 122/181/103
f 73/182/60 122/181/104 121/178/102 75/179/63
f 110/167/105 112/169/103 122/181/103 123/183/105
f 71/184/57 123/183/106 122/181/104 73/182/60
f 108/165/107 110/167/105 123/183/105 124/185/107
f 69/186/54 124/185/1 123/183/106 71/184/57
f 106/163/108 108/165/107 124/185/107 125/187/108
f 67/188/51 125/187/109 124/185/1 69/186/54
f 104/161/110 106/163/108 125/187/108 126/189/110
f 65/190/48 126/189/111 125/187/109 67/188/51
f 102/159/112 104/161/110 126/189/110 127/191/112
f 63/192/45 127/191/113 126/189/111 65/190/48
f 100/157/114 102/159/112 127/191/112 128/193/114
f 61/194/42 128/193/3 127/191/113 63/192/45
f 98/155/115 100/157/114 128/193/114 129/195/115
f 59/196/39 129/195/116 128/193/3 61/194/42
f 96/153/117 98/155/115 129/195/115 130/197/117
f 57/198/36 130/197/118 129/195/116 59/196/39
f 91/148/83 96/153/117 130/197/117 89/146/83
f 55/147/33 89/146/82 130/197/118 57/198/36
