# Blender 4.4.3
# www.blender.org
mtllib RightDoor.mtl
o cabinet.007
v 5.602251 -1.296428 4.910913
v 5.602251 -1.296428 -0.961668
v 5.602251 14.795506 4.910912
v 5.766901 -1.296428 4.910913
v 5.766901 -1.296428 -0.961668
v 5.882250 -1.181080 4.795565
v 5.766901 14.795506 4.910912
v 5.766901 14.795506 -0.961669
v 5.882250 14.680159 4.795564
v 5.882250 14.680159 -0.846321
v 5.882250 14.216167 4.343056
v 5.882250 14.216167 -0.393813
v 5.882250 -0.717091 4.343057
v 5.699563 14.216167 4.343056
v 5.699563 14.216167 -0.393813
v 5.699563 -0.717091 4.343057
v 5.699563 14.047739 4.180267
v 5.699563 14.047739 -0.231025
v 5.699563 0.366622 4.180268
v 5.763560 14.047739 4.180267
v 5.763560 14.047739 -0.231025
v 5.897047 13.914251 4.046782
v 5.763560 0.366622 4.180268
v 5.897047 0.500108 4.046782
v 5.763560 0.366621 -0.231024
v 5.897047 0.500108 -0.097538
v 5.699563 0.366621 -0.231024
v 5.699563 -0.717092 -0.393812
v 5.882250 -0.717092 -0.393812
v 5.882250 -1.181080 -0.846319
v 5.897047 13.914251 -0.097539
v 5.897047 7.207181 1.974622
v 5.602251 14.795506 -0.961669
v 6.222810 7.203440 -0.613441
v 6.222810 7.322552 -0.732553
v 6.222810 7.359061 -0.677904
v 6.222810 7.267903 -0.769068
v 6.222810 7.203440 -0.781891
v 6.222810 7.138978 -0.769068
v 6.222810 7.084322 -0.732553
v 6.222810 7.047814 -0.677904
v 6.222810 7.034991 -0.613441
v 6.222810 7.047814 -0.548979
v 6.222810 7.084322 -0.494330
v 6.222810 7.138978 -0.457814
v 6.222810 7.203440 -0.444992
v 6.222810 7.267903 -0.457814
v 6.222810 7.322552 -0.494330
v 6.222810 7.359061 -0.548979
v 6.222810 7.371890 -0.613441
v 6.199514 7.429231 -0.613441
v 6.199514 7.412043 -0.527035
v 6.143276 7.452977 -0.613441
v 6.199514 7.412043 -0.699848
v 6.143276 7.433985 -0.708937
v 6.199514 7.363099 -0.773100
v 6.143276 7.379887 -0.789895
v 6.199514 7.289847 -0.822045
v 6.143276 7.298930 -0.843989
v 6.199514 7.203440 -0.839232
v 6.143276 7.203440 -0.862984
v 6.199514 7.117033 -0.822045
v 6.143276 7.107945 -0.843989
v 6.199514 7.043776 -0.773100
v 6.143276 7.026988 -0.789895
v 6.199514 6.994832 -0.699848
v 6.143276 6.972891 -0.708937
v 6.199514 6.977648 -0.613441
v 6.143276 6.953898 -0.613441
v 6.199514 6.994832 -0.527035
v 6.143276 6.972891 -0.517946
v 6.199514 7.043776 -0.453783
v 6.143276 7.026988 -0.436988
v 6.199514 7.117033 -0.404838
v 6.143276 7.107945 -0.382894
v 6.199514 7.203440 -0.387650
v 6.143276 7.203440 -0.363899
v 6.199514 7.289847 -0.404838
v 6.143276 7.298930 -0.382894
v 6.199514 7.363099 -0.453783
v 6.143276 7.379887 -0.436988
v 6.143276 7.433985 -0.517946
v 6.117157 7.379887 -0.436988
v 6.117157 7.298930 -0.382894
v 5.975944 7.278079 -0.538798
v 6.117157 7.433985 -0.517946
v 5.975944 7.300961 -0.573045
v 6.117157 7.452977 -0.613441
v 6.117157 7.433985 -0.708937
v 5.975944 7.309002 -0.613441
v 5.975944 7.300961 -0.653838
v 5.771784 7.309002 -0.613441
v 5.771784 7.300961 -0.573045
v 5.771784 7.300961 -0.653838
v 5.771784 7.278079 -0.688085
v 5.975944 7.278079 -0.688085
v 5.771784 7.243832 -0.710968
v 5.975944 7.243832 -0.710968
v 5.771784 7.203440 -0.719003
v 5.975944 7.203440 -0.719003
v 5.771784 7.163043 -0.710968
v 5.975944 7.163043 -0.710968
v 5.771784 7.128796 -0.688085
v 5.975944 7.128796 -0.688085
v 5.771784 7.105914 -0.653838
v 5.975944 7.105914 -0.653838
v 5.771784 7.097872 -0.613441
v 5.975944 7.097872 -0.613441
v 5.771784 7.105914 -0.573045
v 5.975944 7.105914 -0.573045
v 5.771784 7.128796 -0.538798
v 5.975944 7.128796 -0.538798
v 5.771784 7.163043 -0.515915
v 5.975944 7.163043 -0.515915
v 5.771784 7.203440 -0.507879
v 5.975944 7.203440 -0.507879
v 5.771784 7.243832 -0.515915
v 5.975944 7.243832 -0.515915
v 5.771784 7.278079 -0.538798
v 6.117157 7.203440 -0.363899
v 6.117157 7.107945 -0.382894
v 6.117157 7.026988 -0.436988
v 6.117157 6.972891 -0.517946
v 6.117157 6.953898 -0.613441
v 6.117157 6.972891 -0.708937
v 6.117157 7.026988 -0.789895
v 6.117157 7.107945 -0.843989
v 6.117157 7.203440 -0.862984
v 6.117157 7.298930 -0.843989
v 6.117157 7.379887 -0.789895
vn -0.0000 -1.0000 -0.0000
vn -1.0000 -0.0000 -0.0000
vn -0.0000 -0.0000 1.0000
vn 0.7071 -0.7071 -0.0000
vn 0.7071 -0.0000 0.7071
vn -0.0000 1.0000 -0.0000
vn 0.7071 0.7071 -0.0000
vn 1.0000 -0.0000 -0.0000
vn -0.0000 -0.0000 -1.0000
vn 0.7071 -0.0000 -0.7071
vn 0.9797 0.0768 -0.1853
vn 0.9797 0.1418 -0.1418
vn 0.9797 0.1853 -0.0768
vn 0.9797 0.2006 -0.0000
vn 0.9797 -0.0000 -0.2006
vn 0.9797 -0.0768 -0.1853
vn 0.9797 -0.1418 -0.1418
vn 0.9797 -0.1853 -0.0768
vn 0.9797 -0.2006 -0.0000
vn 0.9797 -0.1853 0.0768
vn 0.9797 -0.1418 0.1418
vn 0.9797 -0.0767 0.1853
vn 0.9797 -0.0000 0.2005
vn 0.9797 0.0767 0.1853
vn 0.9797 0.1418 0.1418
vn 0.9797 0.1853 0.0768
vn 0.9265 0.3477 0.1440
vn 0.9265 0.3764 -0.0000
vn 0.9265 0.3477 -0.1440
vn 0.2689 0.8899 0.3686
vn 0.3890 0.8511 0.3525
vn 0.3890 0.9212 -0.0000
vn 0.2689 0.9632 -0.0000
vn 0.3890 0.8511 -0.3525
vn 0.2689 0.8899 -0.3686
vn 0.3890 0.6514 -0.6514
vn 0.2689 0.6811 -0.6811
vn 0.9265 0.2661 -0.2661
vn 0.3890 0.3526 -0.8511
vn 0.2689 0.3686 -0.8898
vn 0.9265 0.1440 -0.3477
vn 0.3891 -0.0000 -0.9212
vn 0.2690 -0.0000 -0.9632
vn 0.9265 -0.0000 -0.3764
vn 0.3890 -0.3525 -0.8511
vn 0.2689 -0.3686 -0.8898
vn 0.9265 -0.1440 -0.3477
vn 0.3890 -0.6514 -0.6514
vn 0.2689 -0.6811 -0.6811
vn 0.9265 -0.2661 -0.2661
vn 0.3890 -0.8511 -0.3525
vn 0.2689 -0.8898 -0.3686
vn 0.9265 -0.3477 -0.1440
vn 0.3890 -0.9212 -0.0000
vn 0.2689 -0.9632 -0.0000
vn 0.9265 -0.3764 -0.0000
vn 0.3890 -0.8511 0.3525
vn 0.2689 -0.8898 0.3686
vn 0.9265 -0.3477 0.1440
vn 0.3890 -0.6514 0.6514
vn 0.2689 -0.6810 0.6811
vn 0.9265 -0.2661 0.2661
vn 0.3890 -0.3525 0.8511
vn 0.2689 -0.3686 0.8898
vn 0.9265 -0.1440 0.3477
vn 0.3891 -0.0000 0.9212
vn 0.2689 -0.0000 0.9632
vn 0.9265 -0.0000 0.3764
vn 0.3890 0.3526 0.8511
vn 0.2689 0.3686 0.8898
vn 0.9265 0.1440 0.3477
vn 0.3890 0.6514 0.6514
vn 0.2689 0.6810 0.6811
vn 0.9265 0.2661 0.2661
vn -0.0000 0.7071 0.7071
vn -0.0000 0.3827 0.9239
vn -0.0000 0.9239 0.3827
vn -0.7139 0.2680 0.6469
vn -0.7139 0.4951 0.4951
vn -0.7139 0.6469 0.2680
vn -0.7139 0.7002 -0.0000
vn -0.0000 0.9239 -0.3827
vn -0.7139 0.6469 -0.2680
vn -0.0000 0.9808 -0.1952
vn -0.0000 0.9808 0.1952
vn -0.0000 0.8315 -0.5556
vn -0.0000 0.5556 -0.8315
vn -0.0000 0.1951 -0.9808
vn -0.0000 -0.1951 -0.9808
vn -0.0000 -0.5556 -0.8315
vn -0.0000 -0.8315 -0.5556
vn -0.0000 -0.9808 -0.1952
vn -0.0000 -0.9808 0.1952
vn -0.0000 -0.8315 0.5556
vn -0.0000 -0.5556 0.8315
vn -0.0000 -0.1951 0.9808
vn -0.0000 0.1951 0.9808
vn -0.0000 0.5556 0.8315
vn -0.0000 0.8315 0.5556
vn -0.7139 -0.0000 0.7002
vn -0.7139 -0.2680 0.6469
vn -0.0000 -0.3827 0.9239
vn -0.0000 -0.7071 0.7071
vn -0.7139 -0.4951 0.4951
vn -0.0000 -0.9239 0.3827
vn -0.7139 -0.6469 0.2680
vn -0.7139 -0.7002 -0.0000
vn -0.0000 -0.9239 -0.3827
vn -0.7139 -0.6469 -0.2680
vn -0.0000 -0.7071 -0.7071
vn -0.7139 -0.4951 -0.4951
vn -0.0000 -0.3827 -0.9239
vn -0.7139 -0.2680 -0.6469
vn -0.7139 -0.0000 -0.7002
vn -0.0000 0.3827 -0.9239
vn -0.7139 0.2680 -0.6469
vn -0.0000 0.7071 -0.7071
vn -0.7139 0.4951 -0.4951
vt 0.932583 0.433319
vt 0.932583 0.317078
vt 0.935843 0.317078
vt 0.935843 0.433319
vt 0.774518 0.000041
vt 0.890759 0.000041
vt 0.890759 0.318562
vt 0.774518 0.318562
vt 0.526883 0.710227
vt 0.526883 0.391706
vt 0.530142 0.391706
vt 0.530142 0.710227
vt 0.496867 0.391706
vt 0.494559 0.394015
vt 0.381664 0.394015
vt 0.379356 0.391706
vt 0.381664 0.711400
vt 0.379356 0.713708
vt 0.922046 0.433319
vt 0.922046 0.317078
vt 0.925305 0.317078
vt 0.925305 0.433319
vt 0.494559 0.711400
vt 0.496867 0.713708
vt 0.390719 0.702116
vt 0.485504 0.702116
vt 0.390719 0.403299
vt 0.957275 0.317078
vt 0.957275 0.410839
vt 0.953659 0.410839
vt 0.953659 0.317078
vt 0.519962 0.391706
vt 0.519962 0.687292
vt 0.516346 0.687292
vt 0.516346 0.391706
vt 0.989462 0.295627
vt 0.895702 0.295627
vt 0.898924 0.292294
vt 0.986240 0.292294
vt 0.895702 0.000041
vt 0.898924 0.021492
vt 0.268710 0.382947
vt 0.268710 0.295628
vt 0.269977 0.295628
vt 0.269977 0.382947
vt 0.948390 0.587878
vt 0.948390 0.317078
vt 0.949657 0.317078
vt 0.949657 0.587878
vt 0.163334 0.317977
vt 0.166019 0.315292
vt 0.249380 0.315292
vt 0.252065 0.317977
vt 0.163334 0.042789
vt 0.166019 0.045474
vt 0.252065 0.042789
vt 0.249380 0.045474
vt 0.000000 0.382943
vt 0.000000 0.295628
vt 0.001267 0.295628
vt 0.001267 0.382943
vt 0.410969 0.674104
vt 0.410969 0.403299
vt 0.412236 0.403299
vt 0.412236 0.674104
vt 0.989462 0.000041
vt 0.986240 0.021492
vt 0.973081 0.317078
vt 0.973081 0.410838
vt 0.969465 0.410838
vt 0.969465 0.317078
vt 0.272327 0.000041
vt 0.272327 0.295628
vt 0.268710 0.000041
vt 0.485504 0.403299
vt 0.207699 0.180383
vt 0.521614 0.710227
vt 0.521614 0.391706
vt 0.524874 0.391706
vt 0.524874 0.710227
vt 0.938806 0.130057
vt 0.937527 0.130061
vt 0.938155 0.126844
vt 0.936344 0.129576
vt 0.935436 0.128675
vt 0.939986 0.129563
vt 0.940886 0.128655
vt 0.941372 0.127472
vt 0.941367 0.126193
vt 0.940873 0.125013
vt 0.939965 0.124112
vt 0.938782 0.123627
vt 0.937503 0.123632
vt 0.936324 0.124126
vt 0.935423 0.125033
vt 0.934937 0.126217
vt 0.934942 0.127495
vt 0.933759 0.127730
vt 0.934433 0.129345
vt 0.935673 0.130579
vt 0.932583 0.127951
vt 0.933431 0.129999
vt 0.934998 0.131566
vt 0.937291 0.131244
vt 0.937046 0.132415
vt 0.939041 0.131239
vt 0.939262 0.132415
vt 0.940655 0.130566
vt 0.941309 0.131567
vt 0.941889 0.129326
vt 0.942877 0.130001
vt 0.942554 0.127708
vt 0.943725 0.127953
vt 0.942550 0.125958
vt 0.943726 0.125737
vt 0.941876 0.124344
vt 0.942878 0.123689
vt 0.940636 0.123110
vt 0.941311 0.122122
vt 0.939018 0.122444
vt 0.939264 0.121274
vt 0.937269 0.122449
vt 0.937047 0.121273
vt 0.935654 0.123123
vt 0.935000 0.122121
vt 0.934420 0.124363
vt 0.933432 0.123688
vt 0.933755 0.125981
vt 0.932584 0.125735
vt 0.903621 0.249668
vt 0.902214 0.248483
vt 0.902589 0.248108
vt 0.903932 0.249238
vt 0.900970 0.246987
vt 0.901380 0.246636
vt 0.906651 0.245915
vt 0.905887 0.245443
vt 0.905228 0.244921
vt 0.919741 0.245282
vt 0.923390 0.246924
vt 0.922161 0.248295
vt 0.919006 0.245766
vt 0.923785 0.247282
vt 0.922529 0.248672
vt 0.921177 0.249765
vt 0.920859 0.249340
vt 0.918182 0.246193
vt 0.917127 0.242370
vt 0.917884 0.242117
vt 0.918655 0.241862
vt 0.917294 0.246557
vt 0.916374 0.242602
vt 0.916357 0.246854
vt 0.915619 0.242801
vt 0.915385 0.247082
vt 0.914862 0.242958
vt 0.914389 0.247240
vt 0.914100 0.243067
vt 0.913377 0.247326
vt 0.913338 0.243125
vt 0.912359 0.247340
vt 0.912575 0.243129
vt 0.911343 0.247282
vt 0.911816 0.243078
vt 0.910338 0.247151
vt 0.911063 0.242972
vt 0.909354 0.246948
vt 0.910318 0.242812
vt 0.908402 0.246673
vt 0.909581 0.242600
vt 0.907495 0.246327
vt 0.908851 0.242340
vt 0.908123 0.242039
vt 0.907388 0.241710
vt 0.906627 0.241371
vt 0.905351 0.250076
vt 0.906794 0.250685
vt 0.906612 0.251185
vt 0.905107 0.250548
vt 0.908110 0.251633
vt 0.908237 0.251115
vt 0.909595 0.251930
vt 0.909671 0.251402
vt 0.911067 0.252098
vt 0.911094 0.251566
vt 0.912528 0.252151
vt 0.912509 0.251619
vt 0.913981 0.252093
vt 0.913917 0.251564
vt 0.915431 0.251922
vt 0.915321 0.251401
vt 0.916879 0.251628
vt 0.916722 0.251119
vt 0.918326 0.251193
vt 0.918117 0.250703
vt 0.919764 0.250587
vt 0.919502 0.250124
s 1
usemtl blinn1SG.001
f 1/1/1 2/2/1 5/3/1 4/4/1
f 2/5/2 1/6/2 3/7/2 33/8/2
f 3/9/3 1/10/3 4/11/3 7/12/3
f 5/13/4 30/14/4 6/15/4 4/16/4
f 9/17/5 7/18/5 4/16/5 6/15/5
f 33/19/6 3/20/6 7/21/6 8/22/6
f 10/23/7 8/24/7 7/18/7 9/17/7
f 10/23/8 9/17/8 11/25/8 12/26/8
f 9/17/8 6/15/8 13/27/8 11/25/8
f 12/28/1 11/29/1 14/30/1 15/31/1
f 11/32/9 13/33/9 16/34/9 14/35/9
f 15/36/8 14/37/8 17/38/8 18/39/8
f 14/37/8 16/40/8 19/41/8 17/38/8
f 18/42/6 17/43/6 20/44/6 21/45/6
f 17/46/3 19/47/3 23/48/3 20/49/3
f 20/50/7 22/51/7 31/52/7 21/53/7
f 22/51/5 20/50/5 23/54/5 24/55/5
f 25/56/4 26/57/4 24/55/4 23/54/4
f 19/58/1 27/59/1 25/60/1 23/61/1
f 27/62/9 18/63/9 21/64/9 25/65/9
f 21/53/10 31/52/10 26/57/10 25/56/10
f 16/40/8 28/66/8 27/67/8 19/41/8
f 28/66/8 15/36/8 18/39/8 27/67/8
f 13/68/6 29/69/6 28/70/6 16/71/6
f 29/72/3 12/73/3 15/43/3 28/74/3
f 6/15/8 30/14/8 29/75/8 13/27/8
f 30/14/8 10/23/8 12/26/8 29/75/8
f 8/24/10 10/23/10 30/14/10 5/13/10
f 26/57/8 31/52/8 32/76/8
f 24/55/8 26/57/8 32/76/8
f 31/52/8 22/51/8 32/76/8
f 22/51/8 24/55/8 32/76/8
f 2/77/9 33/78/9 8/79/9 5/80/9
f 37/81/11 35/82/12 34/83/8
f 35/82/12 36/84/13 34/83/8
f 36/84/13 50/85/14 34/83/8
f 38/86/15 37/81/11 34/83/8
f 39/87/16 38/86/15 34/83/8
f 40/88/17 39/87/16 34/83/8
f 41/89/18 40/88/17 34/83/8
f 42/90/19 41/89/18 34/83/8
f 43/91/20 42/90/19 34/83/8
f 44/92/21 43/91/20 34/83/8
f 45/93/22 44/92/21 34/83/8
f 46/94/23 45/93/22 34/83/8
f 47/95/24 46/94/23 34/83/8
f 48/96/25 47/95/24 34/83/8
f 49/97/26 48/96/25 34/83/8
f 50/85/14 49/97/26 34/83/8
f 52/98/27 49/97/26 50/85/14 51/99/28
f 36/84/13 54/100/29 51/99/28 50/85/14
f 82/101/30 52/98/31 51/99/32 53/102/33
f 54/100/34 55/103/35 53/102/33 51/99/32
f 55/103/35 54/100/34 56/104/36 57/105/37
f 54/100/29 36/84/13 35/82/12 56/104/38
f 57/105/37 56/104/36 58/106/39 59/107/40
f 56/104/38 35/82/12 37/81/11 58/106/41
f 59/107/40 58/106/39 60/108/42 61/109/43
f 58/106/41 37/81/11 38/86/15 60/108/44
f 61/109/43 60/108/42 62/110/45 63/111/46
f 60/108/44 38/86/15 39/87/16 62/110/47
f 63/111/46 62/110/45 64/112/48 65/113/49
f 62/110/47 39/87/16 40/88/17 64/112/50
f 65/113/49 64/112/48 66/114/51 67/115/52
f 64/112/50 40/88/17 41/89/18 66/114/53
f 67/115/52 66/114/51 68/116/54 69/117/55
f 66/114/53 41/89/18 42/90/19 68/116/56
f 69/117/55 68/116/54 70/118/57 71/119/58
f 68/116/56 42/90/19 43/91/20 70/118/59
f 71/119/58 70/118/57 72/120/60 73/121/61
f 70/118/59 43/91/20 44/92/21 72/120/62
f 73/121/61 72/120/60 74/122/63 75/123/64
f 72/120/62 44/92/21 45/93/22 74/122/65
f 75/123/64 74/122/63 76/124/66 77/125/67
f 74/122/65 45/93/22 46/94/23 76/124/68
f 77/125/67 76/124/66 78/126/69 79/127/70
f 76/124/68 46/94/23 47/95/24 78/126/71
f 79/127/70 78/126/69 80/128/72 81/129/73
f 78/126/71 47/95/24 48/96/25 80/128/74
f 81/129/73 80/128/72 52/98/31 82/101/30
f 80/128/74 48/96/25 49/97/26 52/98/27
f 79/130/70 81/131/73 83/132/75 84/133/76
f 81/131/73 82/134/30 86/135/77 83/132/75
f 118/136/78 84/133/78 83/132/79 85/137/79
f 85/137/79 83/132/79 86/135/80 87/138/80
f 87/139/80 86/140/80 88/141/81 90/142/81
f 82/143/30 53/144/33 88/141/6 86/140/77
f 53/144/33 55/145/35 89/146/82 88/141/6
f 89/146/83 91/147/83 90/142/81 88/141/81
f 90/142/84 91/147/84 94/148/84 92/149/84
f 87/139/85 90/142/85 92/149/85 93/150/85
f 91/147/86 96/151/86 95/152/86 94/148/86
f 96/151/87 98/153/87 97/154/87 95/152/87
f 98/153/88 100/155/88 99/156/88 97/154/88
f 100/155/89 102/157/89 101/158/89 99/156/89
f 102/157/90 104/159/90 103/160/90 101/158/90
f 104/159/91 106/161/91 105/162/91 103/160/91
f 106/161/92 108/163/92 107/164/92 105/162/92
f 108/163/93 110/165/93 109/166/93 107/164/93
f 110/165/94 112/167/94 111/168/94 109/166/94
f 112/167/95 114/169/95 113/170/95 111/168/95
f 114/169/96 116/171/96 115/172/96 113/170/96
f 116/171/97 118/136/97 117/173/97 115/172/97
f 118/136/98 85/137/98 119/174/98 117/173/98
f 85/137/99 87/138/99 93/175/99 119/174/99
f 116/171/100 120/176/100 84/133/78 118/136/78
f 114/169/101 121/177/101 120/176/100 116/171/100
f 75/178/64 77/179/67 120/176/3 121/177/102
f 77/179/67 79/130/70 84/133/76 120/176/3
f 73/180/61 75/178/64 121/177/102 122/181/103
f 112/167/104 122/181/104 121/177/101 114/169/101
f 71/182/58 73/180/61 122/181/103 123/183/105
f 110/165/106 123/183/106 122/181/104 112/167/104
f 69/184/55 71/182/58 123/183/105 124/185/1
f 108/163/107 124/185/107 123/183/106 110/165/106
f 67/186/52 69/184/55 124/185/1 125/187/108
f 106/161/109 125/187/109 124/185/107 108/163/107
f 65/188/49 67/186/52 125/187/108 126/189/110
f 104/159/111 126/189/111 125/187/109 106/161/109
f 63/190/46 65/188/49 126/189/110 127/191/112
f 102/157/113 127/191/113 126/189/111 104/159/111
f 61/192/43 63/190/46 127/191/112 128/193/9
f 100/155/114 128/193/114 127/191/113 102/157/113
f 59/194/40 61/192/43 128/193/9 129/195/115
f 98/153/116 129/195/116 128/193/114 100/155/114
f 57/196/37 59/194/40 129/195/115 130/197/117
f 96/151/118 130/197/118 129/195/116 98/153/116
f 55/145/35 57/196/37 130/197/117 89/146/82
f 91/147/83 89/146/83 130/197/118 96/151/118
