# Blender 4.3.2
# www.blender.org
mtllib Light1bulb.mtl
o Cylinder
v 0.000000 0.066287 -0.155456
v 0.030328 0.066287 -0.152469
v 0.059490 0.066287 -0.143623
v 0.086367 0.066287 -0.129257
v 0.109924 0.066287 -0.109924
v 0.129257 0.066287 -0.086367
v 0.143623 0.066287 -0.059490
v 0.152469 0.066287 -0.030328
v 0.155456 0.066287 0.000000
v 0.152469 0.066287 0.030328
v 0.143623 0.066287 0.059490
v 0.129257 0.066287 0.086367
v 0.109924 0.066287 0.109924
v 0.086367 0.066287 0.129257
v 0.059490 0.066287 0.143623
v 0.030328 0.066287 0.152469
v 0.000000 0.066287 0.155456
v -0.030328 0.066287 0.152469
v -0.059490 0.066287 0.143623
v -0.086367 0.066287 0.129257
v -0.109924 0.066287 0.109924
v -0.129257 0.066287 0.086367
v -0.143623 0.066287 0.059490
v -0.152469 0.066287 0.030328
v -0.155456 0.066287 0.000000
v -0.152469 0.066287 -0.030328
v -0.143623 0.066287 -0.059490
v -0.129257 0.066287 -0.086367
v -0.109924 0.066287 -0.109924
v -0.086367 0.066287 -0.129257
v -0.059490 0.066287 -0.143623
v -0.030328 0.066287 -0.152469
v 0.000000 0.989477 -0.039480
v 0.000000 0.800149 -0.155456
v 0.000000 0.980210 -0.075319
v 0.000000 0.953318 -0.107649
v 0.000000 0.911433 -0.133307
v 0.000000 0.858654 -0.149780
v 0.007702 0.989477 -0.038721
v 0.030328 0.800149 -0.152469
v 0.014694 0.980210 -0.073871
v 0.021001 0.953318 -0.105581
v 0.026007 0.911433 -0.130745
v 0.029221 0.858654 -0.146902
v 0.015108 0.989477 -0.036475
v 0.059490 0.800149 -0.143623
v 0.028823 0.980210 -0.069585
v 0.041196 0.953318 -0.099455
v 0.051014 0.911433 -0.123159
v 0.057318 0.858654 -0.138379
v 0.021934 0.989477 -0.032826
v 0.086367 0.800149 -0.129257
v 0.041845 0.980210 -0.062625
v 0.059807 0.953318 -0.089507
v 0.074061 0.911433 -0.110840
v 0.083213 0.858654 -0.124537
v 0.027917 0.989477 -0.027917
v 0.109924 0.800149 -0.109924
v 0.053258 0.980210 -0.053258
v 0.076119 0.953318 -0.076119
v 0.094262 0.911433 -0.094262
v 0.105910 0.858654 -0.105910
v 0.032826 0.989477 -0.021934
v 0.129257 0.800149 -0.086367
v 0.062625 0.980210 -0.041845
v 0.089507 0.953318 -0.059807
v 0.110840 0.911433 -0.074061
v 0.124537 0.858654 -0.083213
v 0.036475 0.989477 -0.015108
v 0.143623 0.800149 -0.059490
v 0.069585 0.980210 -0.028823
v 0.099455 0.953318 -0.041196
v 0.123159 0.911433 -0.051014
v 0.138379 0.858654 -0.057318
v 0.038721 0.989477 -0.007702
v 0.152469 0.800149 -0.030328
v 0.073871 0.980210 -0.014694
v 0.105581 0.953318 -0.021001
v 0.130745 0.911433 -0.026007
v 0.146902 0.858654 -0.029221
v 0.039480 0.989477 0.000000
v 0.155456 0.800149 0.000000
v 0.075319 0.980210 0.000000
v 0.107649 0.953318 0.000000
v 0.133307 0.911433 0.000000
v 0.149780 0.858654 0.000000
v 0.038721 0.989477 0.007702
v 0.152469 0.800149 0.030328
v 0.073871 0.980210 0.014694
v 0.105581 0.953318 0.021001
v 0.130745 0.911433 0.026007
v 0.146902 0.858654 0.029221
v 0.036475 0.989477 0.015108
v 0.143623 0.800149 0.059490
v 0.069585 0.980210 0.028823
v 0.099455 0.953318 0.041196
v 0.123159 0.911433 0.051014
v 0.138379 0.858654 0.057318
v 0.032826 0.989477 0.021934
v 0.129257 0.800149 0.086367
v 0.062625 0.980210 0.041845
v 0.089507 0.953318 0.059807
v 0.110840 0.911433 0.074061
v 0.124537 0.858654 0.083213
v 0.027917 0.989477 0.027917
v 0.109924 0.800149 0.109924
v 0.053258 0.980210 0.053258
v 0.076119 0.953318 0.076119
v 0.094262 0.911433 0.094262
v 0.105910 0.858654 0.105910
v 0.021934 0.989477 0.032826
v 0.086367 0.800149 0.129257
v 0.041845 0.980210 0.062625
v 0.059807 0.953318 0.089507
v 0.074061 0.911433 0.110840
v 0.083213 0.858654 0.124537
v 0.015108 0.989477 0.036475
v 0.059490 0.800149 0.143623
v 0.028823 0.980210 0.069585
v 0.041196 0.953318 0.099455
v 0.051014 0.911433 0.123159
v 0.057318 0.858654 0.138379
v 0.007702 0.989477 0.038721
v 0.030328 0.800149 0.152469
v 0.014694 0.980210 0.073871
v 0.021001 0.953318 0.105581
v 0.026007 0.911433 0.130745
v 0.029221 0.858654 0.146902
v 0.000000 0.989477 0.039480
v 0.000000 0.800149 0.155456
v 0.000000 0.980210 0.075319
v 0.000000 0.953318 0.107649
v 0.000000 0.911433 0.133307
v 0.000000 0.858654 0.149780
v -0.007702 0.989477 0.038721
v -0.030328 0.800149 0.152469
v -0.014694 0.980210 0.073871
v -0.021001 0.953318 0.105581
v -0.026007 0.911433 0.130745
v -0.029221 0.858654 0.146902
v -0.015108 0.989477 0.036475
v -0.059490 0.800149 0.143623
v -0.028823 0.980210 0.069585
v -0.041196 0.953318 0.099455
v -0.051014 0.911433 0.123159
v -0.057318 0.858654 0.138379
v -0.021934 0.989477 0.032826
v -0.086367 0.800149 0.129257
v -0.041845 0.980210 0.062625
v -0.059807 0.953318 0.089507
v -0.074061 0.911433 0.110840
v -0.083213 0.858654 0.124537
v -0.027917 0.989477 0.027917
v -0.109924 0.800149 0.109924
v -0.053258 0.980210 0.053258
v -0.076119 0.953318 0.076119
v -0.094262 0.911433 0.094262
v -0.105910 0.858654 0.105910
v -0.032826 0.989477 0.021934
v -0.129257 0.800149 0.086367
v -0.062625 0.980210 0.041845
v -0.089507 0.953318 0.059807
v -0.110840 0.911433 0.074061
v -0.124537 0.858654 0.083213
v -0.036475 0.989477 0.015108
v -0.143623 0.800149 0.059490
v -0.069585 0.980210 0.028823
v -0.099455 0.953318 0.041196
v -0.123159 0.911433 0.051014
v -0.138379 0.858654 0.057318
v -0.038721 0.989477 0.007702
v -0.152469 0.800149 0.030328
v -0.073871 0.980210 0.014694
v -0.105581 0.953318 0.021001
v -0.130745 0.911433 0.026007
v -0.146902 0.858654 0.029221
v -0.039480 0.989477 0.000000
v -0.155456 0.800149 0.000000
v -0.075319 0.980210 0.000000
v -0.107649 0.953318 0.000000
v -0.133307 0.911433 0.000000
v -0.149780 0.858654 0.000000
v -0.038721 0.989477 -0.007702
v -0.152469 0.800149 -0.030328
v -0.073871 0.980210 -0.014694
v -0.105581 0.953318 -0.021001
v -0.130745 0.911433 -0.026007
v -0.146902 0.858654 -0.029221
v -0.036475 0.989477 -0.015108
v -0.143623 0.800149 -0.059490
v -0.069585 0.980210 -0.028823
v -0.099455 0.953318 -0.041196
v -0.123159 0.911433 -0.051014
v -0.138379 0.858654 -0.057318
v -0.032826 0.989477 -0.021934
v -0.129257 0.800149 -0.086367
v -0.062625 0.980210 -0.041845
v -0.089507 0.953318 -0.059807
v -0.110840 0.911433 -0.074061
v -0.124537 0.858654 -0.083213
v -0.027917 0.989477 -0.027917
v -0.109924 0.800149 -0.109924
v -0.053258 0.980210 -0.053258
v -0.076119 0.953318 -0.076119
v -0.094262 0.911433 -0.094262
v -0.105910 0.858654 -0.105910
v -0.021934 0.989477 -0.032826
v -0.086367 0.800149 -0.129257
v -0.041845 0.980210 -0.062625
v -0.059807 0.953318 -0.089507
v -0.074061 0.911433 -0.110840
v -0.083213 0.858654 -0.124537
v -0.015108 0.989477 -0.036475
v -0.059490 0.800149 -0.143623
v -0.028823 0.980210 -0.069585
v -0.041196 0.953318 -0.099455
v -0.051014 0.911433 -0.123159
v -0.057318 0.858654 -0.138379
v -0.007702 0.989477 -0.038721
v -0.030328 0.800149 -0.152469
v -0.014694 0.980210 -0.073871
v -0.021001 0.953318 -0.105581
v -0.026007 0.911433 -0.130745
v -0.029221 0.858654 -0.146902
vn -0.0980 -0.0000 -0.9952
vn 0.4714 -0.0000 -0.8819
vn 0.6344 -0.0000 -0.7730
vn 0.7730 -0.0000 -0.6344
vn 0.8819 -0.0000 -0.4714
vn 0.9569 -0.0000 -0.2903
vn 0.9952 -0.0000 -0.0980
vn 0.9952 -0.0000 0.0980
vn 0.9569 -0.0000 0.2903
vn 0.8819 -0.0000 0.4714
vn 0.7730 -0.0000 0.6344
vn 0.6344 -0.0000 0.7730
vn 0.4714 -0.0000 0.8819
vn 0.2903 -0.0000 0.9569
vn 0.0980 -0.0000 0.9952
vn -0.0980 -0.0000 0.9952
vn -0.2903 -0.0000 0.9569
vn -0.4714 -0.0000 0.8819
vn -0.6344 -0.0000 0.7730
vn -0.7730 -0.0000 0.6344
vn -0.8819 -0.0000 0.4714
vn -0.9569 -0.0000 0.2903
vn -0.9952 -0.0000 0.0980
vn -0.9952 -0.0000 -0.0980
vn -0.9569 -0.0000 -0.2903
vn -0.8819 -0.0000 -0.4714
vn -0.7730 -0.0000 -0.6344
vn -0.6344 -0.0000 -0.7730
vn -0.4714 -0.0000 -0.8819
vn -0.2903 -0.0000 -0.9569
vn 0.0980 -0.0000 -0.9952
vn 0.2903 -0.0000 -0.9569
vn 0.0976 0.0961 -0.9906
vn 0.0936 0.2966 -0.9504
vn 0.0837 0.5205 -0.8497
vn 0.0629 0.7673 -0.6382
vn 0.0246 0.9679 -0.2502
vn 0.2889 0.0961 -0.9525
vn 0.2772 0.2966 -0.9139
vn 0.2479 0.5205 -0.8171
vn 0.1862 0.7673 -0.6137
vn 0.0730 0.9679 -0.2406
vn 0.4692 0.0961 -0.8778
vn 0.4502 0.2966 -0.8422
vn 0.4025 0.5205 -0.7530
vn 0.3023 0.7673 -0.5656
vn 0.1185 0.9679 -0.2218
vn 0.6315 0.0961 -0.7694
vn 0.6058 0.2966 -0.7382
vn 0.5417 0.5205 -0.6600
vn 0.4068 0.7673 -0.4957
vn 0.1595 0.9679 -0.1944
vn 0.7694 0.0961 -0.6315
vn 0.7382 0.2966 -0.6058
vn 0.6600 0.5205 -0.5417
vn 0.4957 0.7673 -0.4068
vn 0.1944 0.9679 -0.1595
vn 0.8778 0.0961 -0.4692
vn 0.8422 0.2966 -0.4502
vn 0.7530 0.5205 -0.4025
vn 0.5656 0.7673 -0.3023
vn 0.2218 0.9679 -0.1185
vn 0.9525 0.0961 -0.2889
vn 0.9139 0.2966 -0.2772
vn 0.8171 0.5205 -0.2479
vn 0.6137 0.7673 -0.1862
vn 0.2406 0.9679 -0.0730
vn 0.9906 0.0961 -0.0976
vn 0.9504 0.2966 -0.0936
vn 0.8497 0.5205 -0.0837
vn 0.6382 0.7673 -0.0629
vn 0.2502 0.9679 -0.0246
vn 0.9906 0.0961 0.0976
vn 0.9504 0.2966 0.0936
vn 0.8497 0.5205 0.0837
vn 0.6382 0.7673 0.0629
vn 0.2502 0.9679 0.0246
vn 0.9525 0.0961 0.2889
vn 0.9139 0.2966 0.2772
vn 0.8171 0.5205 0.2479
vn 0.6137 0.7673 0.1862
vn 0.2406 0.9679 0.0730
vn 0.8778 0.0961 0.4692
vn 0.8422 0.2966 0.4502
vn 0.7530 0.5205 0.4025
vn 0.5656 0.7673 0.3023
vn 0.2218 0.9679 0.1185
vn 0.7694 0.0961 0.6315
vn 0.7382 0.2966 0.6058
vn 0.6600 0.5205 0.5417
vn 0.4957 0.7673 0.4068
vn 0.1944 0.9679 0.1595
vn 0.6315 0.0961 0.7694
vn 0.6058 0.2966 0.7382
vn 0.5417 0.5205 0.6600
vn 0.4068 0.7673 0.4957
vn 0.1595 0.9679 0.1944
vn 0.4692 0.0961 0.8778
vn 0.4502 0.2966 0.8422
vn 0.4025 0.5205 0.7530
vn 0.3023 0.7673 0.5656
vn 0.1185 0.9679 0.2218
vn 0.2889 0.0961 0.9525
vn 0.2772 0.2966 0.9139
vn 0.2479 0.5205 0.8171
vn 0.1862 0.7673 0.6137
vn 0.0730 0.9679 0.2406
vn 0.0976 0.0961 0.9906
vn 0.0936 0.2966 0.9504
vn 0.0837 0.5205 0.8497
vn 0.0629 0.7673 0.6382
vn 0.0246 0.9679 0.2502
vn -0.0976 0.0961 0.9906
vn -0.0936 0.2966 0.9504
vn -0.0837 0.5205 0.8497
vn -0.0629 0.7673 0.6382
vn -0.0246 0.9679 0.2502
vn -0.2889 0.0961 0.9525
vn -0.2772 0.2966 0.9139
vn -0.2479 0.5205 0.8171
vn -0.1862 0.7673 0.6137
vn -0.0730 0.9679 0.2406
vn -0.4692 0.0961 0.8778
vn -0.4502 0.2966 0.8422
vn -0.4025 0.5205 0.7530
vn -0.3023 0.7673 0.5656
vn -0.1185 0.9679 0.2218
vn -0.6315 0.0961 0.7694
vn -0.6058 0.2966 0.7382
vn -0.5417 0.5205 0.6600
vn -0.4068 0.7673 0.4957
vn -0.1595 0.9679 0.1944
vn -0.7694 0.0961 0.6315
vn -0.7382 0.2966 0.6058
vn -0.6600 0.5205 0.5417
vn -0.4957 0.7673 0.4068
vn -0.1944 0.9679 0.1595
vn -0.8778 0.0961 0.4692
vn -0.8422 0.2966 0.4502
vn -0.7530 0.5205 0.4025
vn -0.5656 0.7673 0.3023
vn -0.2218 0.9679 0.1185
vn -0.9525 0.0961 0.2889
vn -0.9139 0.2966 0.2772
vn -0.8171 0.5205 0.2479
vn -0.6137 0.7673 0.1862
vn -0.2406 0.9679 0.0730
vn -0.9906 0.0961 0.0976
vn -0.9504 0.2966 0.0936
vn -0.8497 0.5205 0.0837
vn -0.6382 0.7673 0.0629
vn -0.2502 0.9679 0.0246
vn -0.9906 0.0961 -0.0976
vn -0.9504 0.2966 -0.0936
vn -0.8497 0.5205 -0.0837
vn -0.6382 0.7673 -0.0629
vn -0.2502 0.9679 -0.0246
vn -0.9525 0.0961 -0.2889
vn -0.9139 0.2966 -0.2772
vn -0.8171 0.5205 -0.2479
vn -0.6137 0.7673 -0.1862
vn -0.2406 0.9679 -0.0730
vn -0.8778 0.0961 -0.4692
vn -0.8422 0.2966 -0.4502
vn -0.7530 0.5205 -0.4025
vn -0.5656 0.7673 -0.3023
vn -0.2218 0.9679 -0.1185
vn -0.7694 0.0961 -0.6315
vn -0.7382 0.2966 -0.6058
vn -0.6600 0.5205 -0.5417
vn -0.4957 0.7673 -0.4068
vn -0.1944 0.9679 -0.1595
vn -0.6315 0.0961 -0.7694
vn -0.6058 0.2966 -0.7382
vn -0.5417 0.5205 -0.6600
vn -0.4068 0.7673 -0.4957
vn -0.1595 0.9679 -0.1944
vn -0.4692 0.0961 -0.8778
vn -0.4502 0.2966 -0.8422
vn -0.4025 0.5205 -0.7530
vn -0.3023 0.7673 -0.5656
vn -0.1185 0.9679 -0.2218
vn -0.2889 0.0961 -0.9525
vn -0.2772 0.2966 -0.9139
vn -0.2479 0.5205 -0.8171
vn -0.1862 0.7673 -0.6137
vn -0.0730 0.9679 -0.2406
vn -0.0976 0.0961 -0.9906
vn -0.0936 0.2966 -0.9504
vn -0.0837 0.5205 -0.8497
vn -0.0629 0.7673 -0.6382
vn -0.0246 0.9679 -0.2502
vn -0.0000 1.0000 -0.0000
vt 0.312795 0.587945
vt 0.312795 0.108101
vt 0.343457 0.110299
vt 0.343457 0.590144
vt 0.409194 0.591265
vt 0.409194 0.111420
vt 0.441744 0.110299
vt 0.441744 0.590144
vt 0.472405 0.108101
vt 0.472405 0.587945
vt 0.500000 0.104909
vt 0.500000 0.584753
vt 0.523467 0.100846
vt 0.523467 0.580691
vt 0.523467 0.584753
vt 0.523467 0.104909
vt 0.551062 0.108101
vt 0.551062 0.587945
vt 0.581723 0.110299
vt 0.581723 0.590144
vt 0.614273 0.111420
vt 0.614273 0.591265
vt 0.647461 0.111420
vt 0.647461 0.591265
vt 0.680011 0.110299
vt 0.680011 0.590144
vt 0.710672 0.108101
vt 0.710672 0.587945
vt 0.738266 0.104909
vt 0.738266 0.584753
vt 0.000000 0.580691
vt 0.000000 0.100846
vt 0.023467 0.104909
vt 0.023467 0.584754
vt 0.051062 0.108101
vt 0.051062 0.587946
vt 0.081723 0.110299
vt 0.081723 0.590144
vt 0.114273 0.111420
vt 0.114273 0.591265
vt 0.147461 0.111420
vt 0.147461 0.591265
vt 0.180011 0.110299
vt 0.180011 0.590144
vt 0.210672 0.108101
vt 0.210672 0.587946
vt 0.238266 0.104909
vt 0.238266 0.584754
vt 0.261734 0.100846
vt 0.261734 0.580691
vt 0.761734 0.584753
vt 0.761734 0.104909
vt 0.789328 0.108101
vt 0.789328 0.587945
vt 0.819989 0.110299
vt 0.819989 0.590144
vt 0.852539 0.111420
vt 0.852539 0.591265
vt 0.885727 0.111420
vt 0.885727 0.591265
vt 0.918277 0.110299
vt 0.918277 0.590144
vt 0.948938 0.108101
vt 0.948938 0.587945
vt 0.976533 0.104909
vt 0.976533 0.584753
vt 0.261734 0.580691
vt 0.261734 0.100846
vt 0.285201 0.104909
vt 0.285201 0.584753
vt 0.376007 0.111420
vt 0.376007 0.591265
vt 0.345251 0.071021
vt 0.376612 0.072101
vt 0.350459 0.033539
vt 0.378371 0.034500
vt 0.358570 0.001523
vt 0.381110 0.002299
vt 0.116541 0.835965
vt 0.094001 0.831481
vt 0.104222 0.797789
vt 0.119992 0.800926
vt 0.115551 0.760440
vt 0.123818 0.762085
vt 0.408588 0.072101
vt 0.406830 0.034500
vt 0.404091 0.002299
vt 0.139523 0.835965
vt 0.136072 0.800926
vt 0.132246 0.762085
vt 0.439950 0.071021
vt 0.434742 0.033539
vt 0.426631 0.001523
vt 0.162063 0.831481
vt 0.151842 0.797789
vt 0.140513 0.760440
vt 0.469492 0.068902
vt 0.461035 0.031653
vt 0.447863 0.000000
vt 0.183295 0.822686
vt 0.166697 0.791635
vt 0.148299 0.757215
vt 0.496078 0.065827
vt 0.484698 0.028916
vt 0.220129 0.831518
vt 0.196466 0.847329
vt 0.202403 0.809919
vt 0.180067 0.782702
vt 0.155307 0.752532
vt 0.518689 0.061912
vt 0.504821 0.025432
vt 0.240253 0.811394
vt 0.218653 0.793668
vt 0.191437 0.771332
vt 0.161267 0.746572
vt 0.527389 0.065827
vt 0.553976 0.068902
vt 0.538770 0.028916
vt 0.562432 0.031653
vt 0.256064 0.787731
vt 0.231421 0.774560
vt 0.200370 0.757963
vt 0.165950 0.739564
vt 0.583517 0.071021
vt 0.588725 0.033539
vt 0.575604 0.000000
vt 0.596836 0.001523
vt 0.240216 0.753328
vt 0.206524 0.743107
vt 0.169175 0.731778
vt 0.614879 0.072101
vt 0.616637 0.034500
vt 0.619376 0.002299
vt 0.244699 0.730788
vt 0.209660 0.727337
vt 0.170819 0.723511
vt 0.646855 0.072101
vt 0.645096 0.034500
vt 0.642358 0.002299
vt 0.244699 0.707806
vt 0.209660 0.711257
vt 0.170819 0.715083
vt 0.678216 0.071021
vt 0.673009 0.033539
vt 0.664898 0.001523
vt 0.240216 0.685266
vt 0.206523 0.695487
vt 0.169175 0.706816
vt 0.707758 0.068902
vt 0.699301 0.031653
vt 0.686130 0.000000
vt 0.231421 0.664034
vt 0.200370 0.680631
vt 0.165950 0.699029
vt 0.734345 0.065827
vt 0.722964 0.028916
vt 0.240253 0.627200
vt 0.256064 0.650863
vt 0.218653 0.644926
vt 0.191437 0.667262
vt 0.161267 0.692021
vt 0.761734 0.100846
vt 0.756955 0.061912
vt 0.743088 0.025432
vt 0.220129 0.607076
vt 0.202403 0.628675
vt 0.180067 0.655892
vt 0.155307 0.686062
vt 0.027389 0.065827
vt 0.053976 0.068902
vt 0.038770 0.028916
vt 0.062432 0.031653
vt 0.196466 0.591265
vt 0.183295 0.615907
vt 0.166697 0.646959
vt 0.148299 0.681379
vt 0.083517 0.071021
vt 0.088725 0.033539
vt 0.075604 0.000000
vt 0.096836 0.001523
vt 0.162063 0.607113
vt 0.151842 0.640805
vt 0.140512 0.678154
vt 0.114879 0.072101
vt 0.116637 0.034500
vt 0.119376 0.002299
vt 0.139523 0.602629
vt 0.136072 0.637668
vt 0.132246 0.676509
vt 0.146855 0.072101
vt 0.145096 0.034500
vt 0.142358 0.002299
vt 0.116541 0.602629
vt 0.119992 0.637668
vt 0.123818 0.676509
vt 0.178216 0.071021
vt 0.173009 0.033539
vt 0.164898 0.001523
vt 0.094001 0.607113
vt 0.104222 0.640805
vt 0.115551 0.678154
vt 0.207758 0.068902
vt 0.199301 0.031653
vt 0.186130 0.000000
vt 0.072769 0.615907
vt 0.089366 0.646959
vt 0.107764 0.681379
vt 0.234345 0.065827
vt 0.222964 0.028916
vt 0.035935 0.607076
vt 0.059597 0.591265
vt 0.053661 0.628675
vt 0.075997 0.655892
vt 0.100756 0.686062
vt 0.256955 0.061913
vt 0.243088 0.025432
vt 0.015811 0.627200
vt 0.037410 0.644926
vt 0.064627 0.667262
vt 0.094797 0.692021
vt 0.765655 0.065827
vt 0.792242 0.068902
vt 0.777036 0.028916
vt 0.800699 0.031653
vt -0.000000 0.650863
vt 0.024642 0.664034
vt 0.055693 0.680631
vt 0.090114 0.699029
vt 0.821784 0.071021
vt 0.826991 0.033539
vt 0.813870 0.000000
vt 0.835102 0.001523
vt 0.015848 0.685266
vt 0.049540 0.695487
vt 0.086889 0.706816
vt 0.853145 0.072101
vt 0.854904 0.034500
vt 0.857642 0.002299
vt 0.011364 0.707806
vt 0.046403 0.711257
vt 0.085244 0.715083
vt 0.885121 0.072101
vt 0.883363 0.034500
vt 0.880624 0.002299
vt 0.011364 0.730788
vt 0.046403 0.727337
vt 0.085244 0.723511
vt 0.916483 0.071021
vt 0.911275 0.033539
vt 0.903164 0.001523
vt 0.015848 0.753328
vt 0.049540 0.743107
vt 0.086889 0.731778
vt 0.946024 0.068902
vt 0.937568 0.031653
vt 0.924396 0.000000
vt 0.024642 0.774560
vt 0.055693 0.757963
vt 0.090114 0.739564
vt 0.972611 0.065827
vt 0.961230 0.028916
vt 0.015811 0.811394
vt -0.000000 0.787731
vt 0.037410 0.793668
vt 0.064627 0.771332
vt 0.094797 0.746572
vt 1.000000 0.100846
vt 0.995222 0.061912
vt 0.981354 0.025432
vt 0.035935 0.831518
vt 0.053661 0.809919
vt 0.075997 0.782702
vt 0.100756 0.752532
vt 0.289122 0.065827
vt 0.315709 0.068902
vt 0.300503 0.028916
vt 0.324166 0.031653
vt 0.059597 0.847329
vt 0.072769 0.822686
vt 0.089366 0.791635
vt 0.107764 0.757215
vt 0.337338 0.000000
s 0
f 32/1/1 220/2/1 34/3/1 1/4/1
f 3/5/2 46/6/2 52/7/2 4/8/2
f 4/8/3 52/7/3 58/9/3 5/10/3
f 5/10/4 58/9/4 64/11/4 6/12/4
f 6/12/5 64/11/5 70/13/5 7/14/5
f 7/15/6 70/16/6 76/17/6 8/18/6
f 8/18/7 76/17/7 82/19/7 9/20/7
f 9/20/8 82/19/8 88/21/8 10/22/8
f 10/22/9 88/21/9 94/23/9 11/24/9
f 11/24/10 94/23/10 100/25/10 12/26/10
f 12/26/11 100/25/11 106/27/11 13/28/11
f 13/28/12 106/27/12 112/29/12 14/30/12
f 14/31/13 112/32/13 118/33/13 15/34/13
f 15/34/14 118/33/14 124/35/14 16/36/14
f 16/36/15 124/35/15 130/37/15 17/38/15
f 17/38/16 130/37/16 136/39/16 18/40/16
f 18/40/17 136/39/17 142/41/17 19/42/17
f 19/42/18 142/41/18 148/43/18 20/44/18
f 20/44/19 148/43/19 154/45/19 21/46/19
f 21/46/20 154/45/20 160/47/20 22/48/20
f 22/48/21 160/47/21 166/49/21 23/50/21
f 23/51/22 166/52/22 172/53/22 24/54/22
f 24/54/23 172/53/23 178/55/23 25/56/23
f 25/56/24 178/55/24 184/57/24 26/58/24
f 26/58/25 184/57/25 190/59/25 27/60/25
f 27/60/26 190/59/26 196/61/26 28/62/26
f 28/62/27 196/61/27 202/63/27 29/64/27
f 29/64/28 202/63/28 208/65/28 30/66/28
f 30/67/29 208/68/29 214/69/29 31/70/29
f 31/70/30 214/69/30 220/2/30 32/1/30
f 1/4/31 34/3/31 40/71/31 2/72/31
f 2/72/32 40/71/32 46/6/32 3/5/32
f 40/71/33 34/3/33 38/73/33 44/74/33
f 44/74/34 38/73/34 37/75/34 43/76/34
f 43/76/35 37/75/35 36/77/35 42/78/35
f 42/79/36 36/80/36 35/81/36 41/82/36
f 41/82/37 35/81/37 33/83/37 39/84/37
f 46/6/38 40/71/38 44/74/38 50/85/38
f 50/85/39 44/74/39 43/76/39 49/86/39
f 49/86/40 43/76/40 42/78/40 48/87/40
f 48/88/41 42/79/41 41/82/41 47/89/41
f 47/89/42 41/82/42 39/84/42 45/90/42
f 52/7/43 46/6/43 50/85/43 56/91/43
f 56/91/44 50/85/44 49/86/44 55/92/44
f 55/92/45 49/86/45 48/87/45 54/93/45
f 54/94/46 48/88/46 47/89/46 53/95/46
f 53/95/47 47/89/47 45/90/47 51/96/47
f 58/9/48 52/7/48 56/91/48 62/97/48
f 62/97/49 56/91/49 55/92/49 61/98/49
f 61/98/50 55/92/50 54/93/50 60/99/50
f 60/100/51 54/94/51 53/95/51 59/101/51
f 59/101/52 53/95/52 51/96/52 57/102/52
f 64/11/53 58/9/53 62/97/53 68/103/53
f 68/103/54 62/97/54 61/98/54 67/104/54
f 67/105/55 61/106/55 60/100/55 66/107/55
f 66/107/56 60/100/56 59/101/56 65/108/56
f 65/108/57 59/101/57 57/102/57 63/109/57
f 70/13/58 64/11/58 68/103/58 74/110/58
f 74/110/59 68/103/59 67/104/59 73/111/59
f 73/112/60 67/105/60 66/107/60 72/113/60
f 72/113/61 66/107/61 65/108/61 71/114/61
f 71/114/62 65/108/62 63/109/62 69/115/62
f 76/17/63 70/16/63 74/116/63 80/117/63
f 80/117/64 74/116/64 73/118/64 79/119/64
f 79/120/65 73/112/65 72/113/65 78/121/65
f 78/121/66 72/113/66 71/114/66 77/122/66
f 77/122/67 71/114/67 69/115/67 75/123/67
f 82/19/68 76/17/68 80/117/68 86/124/68
f 86/124/69 80/117/69 79/119/69 85/125/69
f 85/125/70 79/119/70 78/126/70 84/127/70
f 84/128/71 78/121/71 77/122/71 83/129/71
f 83/129/72 77/122/72 75/123/72 81/130/72
f 88/21/73 82/19/73 86/124/73 92/131/73
f 92/131/74 86/124/74 85/125/74 91/132/74
f 91/132/75 85/125/75 84/127/75 90/133/75
f 90/134/76 84/128/76 83/129/76 89/135/76
f 89/135/77 83/129/77 81/130/77 87/136/77
f 94/23/78 88/21/78 92/131/78 98/137/78
f 98/137/79 92/131/79 91/132/79 97/138/79
f 97/138/80 91/132/80 90/133/80 96/139/80
f 96/140/81 90/134/81 89/135/81 95/141/81
f 95/141/82 89/135/82 87/136/82 93/142/82
f 100/25/83 94/23/83 98/137/83 104/143/83
f 104/143/84 98/137/84 97/138/84 103/144/84
f 103/144/85 97/138/85 96/139/85 102/145/85
f 102/146/86 96/140/86 95/141/86 101/147/86
f 101/147/87 95/141/87 93/142/87 99/148/87
f 106/27/88 100/25/88 104/143/88 110/149/88
f 110/149/89 104/143/89 103/144/89 109/150/89
f 109/150/90 103/144/90 102/145/90 108/151/90
f 108/152/91 102/146/91 101/147/91 107/153/91
f 107/153/92 101/147/92 99/148/92 105/154/92
f 112/29/93 106/27/93 110/149/93 116/155/93
f 116/155/94 110/149/94 109/150/94 115/156/94
f 115/157/95 109/158/95 108/152/95 114/159/95
f 114/159/96 108/152/96 107/153/96 113/160/96
f 113/160/97 107/153/97 105/154/97 111/161/97
f 118/162/98 112/29/98 116/155/98 122/163/98
f 122/163/99 116/155/99 115/156/99 121/164/99
f 121/165/100 115/157/100 114/159/100 120/166/100
f 120/166/101 114/159/101 113/160/101 119/167/101
f 119/167/102 113/160/102 111/161/102 117/168/102
f 124/35/103 118/33/103 122/169/103 128/170/103
f 128/170/104 122/169/104 121/171/104 127/172/104
f 127/173/105 121/165/105 120/166/105 126/174/105
f 126/174/106 120/166/106 119/167/106 125/175/106
f 125/175/107 119/167/107 117/168/107 123/176/107
f 130/37/108 124/35/108 128/170/108 134/177/108
f 134/177/109 128/170/109 127/172/109 133/178/109
f 133/178/110 127/172/110 126/179/110 132/180/110
f 132/181/111 126/174/111 125/175/111 131/182/111
f 131/182/112 125/175/112 123/176/112 129/183/112
f 136/39/113 130/37/113 134/177/113 140/184/113
f 140/184/114 134/177/114 133/178/114 139/185/114
f 139/185/115 133/178/115 132/180/115 138/186/115
f 138/187/116 132/181/116 131/182/116 137/188/116
f 137/188/117 131/182/117 129/183/117 135/189/117
f 142/41/118 136/39/118 140/184/118 146/190/118
f 146/190/119 140/184/119 139/185/119 145/191/119
f 145/191/120 139/185/120 138/186/120 144/192/120
f 144/193/121 138/187/121 137/188/121 143/194/121
f 143/194/122 137/188/122 135/189/122 141/195/122
f 148/43/123 142/41/123 146/190/123 152/196/123
f 152/196/124 146/190/124 145/191/124 151/197/124
f 151/197/125 145/191/125 144/192/125 150/198/125
f 150/199/126 144/193/126 143/194/126 149/200/126
f 149/200/127 143/194/127 141/195/127 147/201/127
f 154/45/128 148/43/128 152/196/128 158/202/128
f 158/202/129 152/196/129 151/197/129 157/203/129
f 157/203/130 151/197/130 150/198/130 156/204/130
f 156/205/131 150/199/131 149/200/131 155/206/131
f 155/206/132 149/200/132 147/201/132 153/207/132
f 160/47/133 154/45/133 158/202/133 164/208/133
f 164/208/134 158/202/134 157/203/134 163/209/134
f 163/210/135 157/211/135 156/205/135 162/212/135
f 162/212/136 156/205/136 155/206/136 161/213/136
f 161/213/137 155/206/137 153/207/137 159/214/137
f 166/49/138 160/47/138 164/208/138 170/215/138
f 170/215/139 164/208/139 163/209/139 169/216/139
f 169/217/140 163/210/140 162/212/140 168/218/140
f 168/218/141 162/212/141 161/213/141 167/219/141
f 167/219/142 161/213/142 159/214/142 165/220/142
f 172/53/143 166/52/143 170/221/143 176/222/143
f 176/222/144 170/221/144 169/223/144 175/224/144
f 175/225/145 169/217/145 168/218/145 174/226/145
f 174/226/146 168/218/146 167/219/146 173/227/146
f 173/227/147 167/219/147 165/220/147 171/228/147
f 178/55/148 172/53/148 176/222/148 182/229/148
f 182/229/149 176/222/149 175/224/149 181/230/149
f 181/230/150 175/224/150 174/231/150 180/232/150
f 180/233/151 174/226/151 173/227/151 179/234/151
f 179/234/152 173/227/152 171/228/152 177/235/152
f 184/57/153 178/55/153 182/229/153 188/236/153
f 188/236/154 182/229/154 181/230/154 187/237/154
f 187/237/155 181/230/155 180/232/155 186/238/155
f 186/239/156 180/233/156 179/234/156 185/240/156
f 185/240/157 179/234/157 177/235/157 183/241/157
f 190/59/158 184/57/158 188/236/158 194/242/158
f 194/242/159 188/236/159 187/237/159 193/243/159
f 193/243/160 187/237/160 186/238/160 192/244/160
f 192/245/161 186/239/161 185/240/161 191/246/161
f 191/246/162 185/240/162 183/241/162 189/247/162
f 196/61/163 190/59/163 194/242/163 200/248/163
f 200/248/164 194/242/164 193/243/164 199/249/164
f 199/249/165 193/243/165 192/244/165 198/250/165
f 198/251/166 192/245/166 191/246/166 197/252/166
f 197/252/167 191/246/167 189/247/167 195/253/167
f 202/63/168 196/61/168 200/248/168 206/254/168
f 206/254/169 200/248/169 199/249/169 205/255/169
f 205/255/170 199/249/170 198/250/170 204/256/170
f 204/257/171 198/251/171 197/252/171 203/258/171
f 203/258/172 197/252/172 195/253/172 201/259/172
f 208/65/173 202/63/173 206/254/173 212/260/173
f 212/260/174 206/254/174 205/255/174 211/261/174
f 211/262/175 205/263/175 204/257/175 210/264/175
f 210/264/176 204/257/176 203/258/176 209/265/176
f 209/265/177 203/258/177 201/259/177 207/266/177
f 214/267/178 208/65/178 212/260/178 218/268/178
f 218/268/179 212/260/179 211/261/179 217/269/179
f 217/270/180 211/262/180 210/264/180 216/271/180
f 216/271/181 210/264/181 209/265/181 215/272/181
f 215/272/182 209/265/182 207/266/182 213/273/182
f 220/2/183 214/69/183 218/274/183 224/275/183
f 224/275/184 218/274/184 217/276/184 223/277/184
f 223/278/185 217/270/185 216/271/185 222/279/185
f 222/279/186 216/271/186 215/272/186 221/280/186
f 221/280/187 215/272/187 213/273/187 219/281/187
f 34/3/188 220/2/188 224/275/188 38/73/188
f 38/73/189 224/275/189 223/277/189 37/75/189
f 37/75/190 223/277/190 222/282/190 36/77/190
f 36/80/191 222/279/191 221/280/191 35/81/191
f 35/81/192 221/280/192 219/281/192 33/83/192
f 39/84/193 33/83/193 219/281/193 213/273/193 207/266/193 201/259/193 195/253/193 189/247/193 183/241/193 177/235/193 171/228/193 165/220/193 159/214/193 153/207/193 147/201/193 141/195/193 135/189/193 129/183/193 123/176/193 117/168/193 111/161/193 105/154/193 99/148/193 93/142/193 87/136/193 81/130/193 75/123/193 69/115/193 63/109/193 57/102/193 51/96/193 45/90/193
