# Blender 4.3.2
# www.blender.org
mtllib Light1.mtl
o Light1
v -0.211706 0.387306 -0.014878
v -0.211811 0.387306 0.010204
v -0.211811 0.893095 0.010204
v -0.211706 0.893095 -0.014878
v -0.169245 1.008782 0.010223
v -0.169140 1.008782 -0.014860
v -0.069680 1.054677 0.010252
v -0.069575 1.054677 -0.014831
v -0.194184 0.387306 -0.014804
v -0.194184 0.888828 -0.014804
v -0.194289 0.888828 0.010278
v -0.194289 0.387306 0.010278
v -0.155955 0.992726 -0.014804
v -0.156061 0.992726 0.010278
v -0.063181 1.035492 -0.014804
v -0.063286 1.035492 0.010278
v 0.007417 1.035492 0.010278
v 0.007417 1.035492 -0.014804
v 0.007417 1.052131 -0.014831
v 0.007417 1.052131 0.010252
v 0.065726 0.407005 -0.181882
v 0.159930 0.407005 -0.113436
v 0.179239 0.407005 -0.127465
v 0.073101 0.407005 -0.204580
v -0.050718 0.407005 -0.181882
v -0.058093 0.407005 -0.204580
v -0.144922 0.407005 -0.113436
v -0.164231 0.407005 -0.127465
v -0.180905 0.407005 -0.002693
v -0.204771 0.407005 -0.002693
v -0.144922 0.407005 0.108049
v -0.164230 0.407005 0.122078
v -0.050717 0.407005 0.176496
v -0.058093 0.407005 0.199194
v 0.065726 0.407005 0.176496
v 0.073101 0.407005 0.199194
v 0.159930 0.407005 0.108049
v 0.179239 0.407005 0.122078
v 0.195913 0.407005 -0.002693
v 0.219780 0.407005 -0.002693
v 0.179239 0.391720 -0.127465
v 0.073101 0.391720 -0.204580
v -0.058093 0.391720 -0.204580
v -0.164231 0.391720 -0.127465
v -0.204771 0.391720 -0.002693
v -0.164230 0.391720 0.122078
v -0.058093 0.391720 0.199194
v 0.073101 0.391720 0.199194
v 0.179239 0.391720 0.122078
v 0.219780 0.391720 -0.002693
v 0.191283 0.391720 -0.136216
v 0.077702 0.391720 -0.218739
v -0.062693 0.391720 -0.218739
v -0.176275 0.391720 -0.136216
v -0.219659 0.391720 -0.002693
v -0.176275 0.391720 0.130829
v -0.062693 0.391720 0.213352
v 0.077702 0.391720 0.213352
v 0.191283 0.391720 0.130829
v 0.234667 0.391720 -0.002693
v 0.191283 0.334872 -0.136216
v 0.077702 0.334872 -0.218739
v -0.062693 0.334872 -0.218739
v -0.176275 0.334872 -0.136216
v -0.219659 0.334872 -0.002693
v -0.176275 0.334872 0.130829
v -0.062693 0.334872 0.213352
v 0.077702 0.334872 0.213352
v 0.191283 0.334872 0.130829
v 0.234667 0.334872 -0.002693
v 0.172726 0.334872 -0.122733
v 0.070613 0.334872 -0.196923
v -0.055605 0.334872 -0.196923
v -0.157718 0.334872 -0.122733
v -0.196721 0.334872 -0.002693
v -0.157718 0.334872 0.117346
v -0.055605 0.334872 0.191537
v 0.070613 0.334872 0.191537
v 0.172726 0.334872 0.117346
v 0.211729 0.334872 -0.002693
v 0.172726 0.316620 -0.122733
v 0.070613 0.316620 -0.196923
v -0.055605 0.316620 -0.196923
v -0.157718 0.316620 -0.122733
v -0.196721 0.316620 -0.002693
v -0.157718 0.316620 0.117346
v -0.055605 0.316620 0.191537
v 0.070613 0.316620 0.191537
v 0.172726 0.316620 0.117346
v 0.211729 0.316620 -0.002693
v 0.190287 0.316620 -0.135493
v 0.077321 0.316620 -0.217568
v -0.062313 0.316620 -0.217568
v -0.175279 0.316620 -0.135493
v -0.218428 0.316620 -0.002693
v -0.175279 0.316620 0.130106
v -0.062313 0.316620 0.212181
v 0.077321 0.316620 0.212181
v 0.190287 0.316620 0.130106
v 0.233436 0.316620 -0.002693
v 0.190287 0.157756 -0.135493
v 0.077321 0.157756 -0.217568
v -0.062313 0.157756 -0.217568
v -0.175279 0.157756 -0.135493
v -0.218428 0.157756 -0.002693
v -0.175279 0.157756 0.130106
v -0.062313 0.157756 0.212181
v 0.077321 0.157756 0.212181
v 0.190287 0.157756 0.130106
v 0.233436 0.157756 -0.002693
v 0.202069 0.157756 -0.144053
v 0.081821 0.157756 -0.231419
v -0.066813 0.157756 -0.231419
v -0.187060 0.157756 -0.144053
v -0.232991 0.157756 -0.002693
v -0.187060 0.157756 0.138666
v -0.066813 0.157756 0.226030
v 0.081821 0.157756 0.226030
v 0.202069 0.157756 0.138666
v 0.247999 0.157756 -0.002693
v 0.202069 -0.004451 -0.144053
v 0.081821 -0.004451 -0.231419
v 0.081478 0.016651 -0.231745
v -0.066813 0.016651 -0.231419
v -0.066813 -0.004451 -0.231419
v -0.187060 -0.004451 -0.144053
v -0.232991 -0.004451 -0.002693
v -0.187060 -0.004451 0.138666
v -0.066813 -0.004451 0.226030
v -0.066813 0.016651 0.226030
v 0.081821 0.016651 0.226030
v 0.081821 -0.004451 0.226030
v 0.202069 -0.004451 0.138666
v 0.247999 -0.004451 -0.002693
v 0.081821 -0.004451 -0.305816
v 0.081672 0.016651 -0.305742
v 0.025049 0.016651 -0.362512
v 0.025123 -0.004451 -0.362512
v -0.010115 -0.004451 -0.362512
v -0.010115 0.016651 -0.362512
v -0.066813 0.016651 -0.305816
v -0.066813 -0.004451 -0.305816
v -0.066813 -0.004451 0.300430
v -0.066813 0.016651 0.300430
v -0.010115 0.016651 0.357128
v -0.010115 -0.004451 0.357128
v 0.025123 -0.004451 0.357128
v 0.025123 0.016651 0.357128
v 0.081821 0.016651 0.300430
v 0.081821 -0.004451 0.300430
v 0.065215 -0.004451 -0.345908
v 0.065140 0.016651 -0.345876
v -0.050206 -0.004451 -0.345905
v -0.050206 0.016651 -0.345905
v -0.050206 -0.004451 0.340521
v -0.050206 0.016651 0.340521
v 0.065215 -0.004451 0.340521
v 0.065215 0.016651 0.340521
v 0.007429 0.016651 -0.298996
v 0.007504 0.016651 0.295245
v -0.157614 0.478904 -0.122659
v -0.157614 0.452569 -0.122659
v -0.055565 0.452569 -0.196801
v -0.055565 0.478904 -0.196801
v 0.070574 0.452569 -0.196801
v 0.070574 0.478904 -0.196801
v 0.172622 0.452569 -0.122659
v 0.172622 0.478904 -0.122659
v 0.211601 0.452569 -0.002693
v 0.211601 0.478904 -0.002693
v 0.172622 0.452569 0.117272
v 0.172622 0.478904 0.117272
v 0.070574 0.452569 0.191415
v 0.070574 0.478904 0.191415
v -0.055565 0.452569 0.191415
v -0.055565 0.478904 0.191415
v -0.157614 0.452569 0.117272
v -0.157614 0.478904 0.117272
v -0.196593 0.452569 -0.002693
v -0.196593 0.478904 -0.002693
v -0.176045 0.478904 -0.136049
v -0.062605 0.478904 -0.218469
v -0.062605 0.452569 -0.218469
v -0.176045 0.452569 -0.136049
v 0.077614 0.478904 -0.218469
v 0.077614 0.452569 -0.218469
v 0.191053 0.478904 -0.136049
v 0.191053 0.452569 -0.136049
v 0.234383 0.478904 -0.002693
v 0.234383 0.452569 -0.002693
v 0.191053 0.478904 0.130662
v 0.191053 0.452569 0.130662
v 0.077614 0.478904 0.213082
v 0.077614 0.452569 0.213082
v -0.062605 0.478904 0.213082
v -0.062605 0.452569 0.213082
v -0.176045 0.478904 0.130662
v -0.176045 0.452569 0.130662
v -0.219375 0.478904 -0.002693
v -0.219375 0.452569 -0.002693
v 0.019690 0.387306 -0.221902
v -0.005393 0.387306 -0.222008
v -0.005393 0.893095 -0.222008
v 0.019690 0.893095 -0.221905
v -0.005411 1.008782 -0.179445
v 0.019672 1.008782 -0.179339
v -0.005440 1.054677 -0.079878
v 0.019643 1.054677 -0.079772
v 0.019616 0.387306 -0.204381
v 0.019616 0.888828 -0.204382
v -0.005467 0.888828 -0.204487
v -0.005467 0.387306 -0.204487
v 0.019616 0.992726 -0.166152
v -0.005467 0.992726 -0.166258
v 0.019616 1.035492 -0.073378
v -0.005467 1.035492 -0.073482
v -0.005467 1.035492 -0.002781
v 0.019616 1.035492 -0.002781
v 0.019643 1.054677 -0.002781
v -0.005440 1.054677 -0.002781
v -0.157614 0.643157 -0.122659
v -0.157614 0.616822 -0.122659
v -0.055565 0.616822 -0.196801
v -0.055565 0.643157 -0.196801
v 0.070574 0.616822 -0.196801
v 0.070574 0.643157 -0.196801
v 0.172622 0.616822 -0.122659
v 0.172622 0.643157 -0.122659
v 0.211601 0.616822 -0.002693
v 0.211601 0.643157 -0.002693
v 0.172622 0.616822 0.117272
v 0.172622 0.643157 0.117272
v 0.070574 0.616822 0.191415
v 0.070574 0.643157 0.191415
v -0.055565 0.616822 0.191415
v -0.055565 0.643157 0.191415
v -0.157614 0.616822 0.117272
v -0.157614 0.643157 0.117272
v -0.196593 0.616822 -0.002693
v -0.196593 0.643157 -0.002693
v -0.176045 0.643157 -0.136049
v -0.062605 0.643157 -0.218469
v -0.062605 0.616822 -0.218469
v -0.176045 0.616822 -0.136049
v 0.077614 0.643157 -0.218469
v 0.077614 0.616822 -0.218469
v 0.191053 0.643157 -0.136049
v 0.191053 0.616822 -0.136049
v 0.234383 0.643157 -0.002693
v 0.234383 0.616822 -0.002693
v 0.191053 0.643157 0.130662
v 0.191053 0.616822 0.130662
v 0.077614 0.643157 0.213082
v 0.077614 0.616822 0.213082
v -0.062605 0.643157 0.213082
v -0.062605 0.616822 0.213082
v -0.176045 0.643157 0.130662
v -0.176045 0.616822 0.130662
v -0.219375 0.643157 -0.002693
v -0.219375 0.616822 -0.002693
v 0.226714 0.387306 0.009492
v 0.226820 0.387306 -0.015591
v 0.226820 0.893095 -0.015591
v 0.226714 0.893095 0.009492
v 0.184254 1.008782 -0.015610
v 0.184148 1.008782 0.009473
v 0.084689 1.054677 -0.015639
v 0.084583 1.054677 0.009444
v 0.209193 0.387306 0.009417
v 0.209193 0.888828 0.009417
v 0.209298 0.888828 -0.015665
v 0.209298 0.387306 -0.015665
v 0.170964 0.992726 0.009417
v 0.171069 0.992726 -0.015665
v 0.078189 1.035492 0.009417
v 0.078294 1.035492 -0.015665
v 0.007591 1.035492 -0.015665
v 0.007591 1.035492 0.009417
v 0.007591 1.052131 0.009444
v 0.007591 1.052131 -0.015639
v -0.157614 0.807409 -0.122659
v -0.157614 0.781074 -0.122659
v -0.055565 0.781074 -0.196801
v -0.055565 0.807409 -0.196801
v 0.070574 0.781074 -0.196801
v 0.070574 0.807409 -0.196801
v 0.172622 0.781074 -0.122659
v 0.172622 0.807409 -0.122659
v 0.211601 0.781074 -0.002693
v 0.211601 0.807409 -0.002693
v 0.172622 0.781074 0.117272
v 0.172622 0.807409 0.117272
v 0.070574 0.781074 0.191415
v 0.070574 0.807409 0.191415
v -0.055565 0.781074 0.191415
v -0.055565 0.807409 0.191415
v -0.157614 0.781074 0.117272
v -0.157614 0.807409 0.117272
v -0.196593 0.781074 -0.002693
v -0.196593 0.807409 -0.002693
v -0.176045 0.807409 -0.136049
v -0.062605 0.807409 -0.218469
v -0.062605 0.781074 -0.218469
v -0.176045 0.781074 -0.136049
v 0.077614 0.807409 -0.218469
v 0.077614 0.781074 -0.218469
v 0.191053 0.807409 -0.136049
v 0.191053 0.781074 -0.136049
v 0.234383 0.807409 -0.002693
v 0.234383 0.781074 -0.002693
v 0.191053 0.807409 0.130662
v 0.191053 0.781074 0.130662
v 0.077614 0.807409 0.213082
v 0.077614 0.781074 0.213082
v -0.062605 0.807409 0.213082
v -0.062605 0.781074 0.213082
v -0.176045 0.807409 0.130662
v -0.176045 0.781074 0.130662
v -0.219375 0.807409 -0.002693
v -0.219375 0.781074 -0.002693
v -0.004681 0.387306 0.216518
v 0.020401 0.387306 0.216622
v 0.020401 0.893095 0.216622
v -0.004681 0.893095 0.216518
v 0.020420 1.008782 0.174058
v -0.004663 1.008782 0.173952
v 0.020448 1.054677 0.074491
v -0.004635 1.054677 0.074385
v -0.004608 0.387306 0.198995
v -0.004608 0.888828 0.198995
v 0.020475 0.888828 0.199101
v 0.020475 0.387306 0.199101
v -0.004608 0.992726 0.160766
v 0.020475 0.992726 0.160871
v -0.004608 1.035492 0.067992
v 0.020475 1.035492 0.068095
v 0.020475 1.035492 -0.002606
v -0.004608 1.035492 -0.002606
v -0.004635 1.054677 -0.002606
v 0.020448 1.054677 -0.002606
vn -0.8520 0.0584 -0.5202
vn -0.8182 -0.0284 -0.5743
vn -0.8229 -0.0284 0.5675
vn -0.8563 0.0586 0.5131
vn -0.6459 0.5691 -0.5088
vn -0.6489 0.5699 0.5041
vn -0.1960 0.8056 -0.5591
vn -0.1962 0.8072 0.5567
vn 0.8159 -0.0286 0.5775
vn 0.8207 -0.0286 -0.5706
vn 0.7759 -0.0490 -0.6290
vn 0.7706 -0.0487 0.6355
vn 0.5108 -0.4565 -0.7285
vn 0.5075 -0.4531 0.7329
vn 0.1843 -0.7057 -0.6841
vn 0.1845 -0.7037 0.6861
vn 0.2090 0.7832 0.5856
vn 0.2075 -0.7635 0.6116
vn 0.2076 -0.7647 -0.6101
vn 0.2106 0.7858 -0.5815
vn 0.1999 0.7626 -0.6152
vn 0.2647 0.5151 -0.8152
vn 0.1277 0.5151 -0.8475
vn 0.5234 0.7626 -0.3802
vn -0.1999 0.7626 -0.6152
vn -0.2649 0.5151 -0.8152
vn -0.5234 0.7626 -0.3802
vn -0.6935 0.5151 -0.5037
vn -0.6469 0.7626 -0.0000
vn -0.8571 0.5151 0.0004
vn -0.5234 0.7626 0.3802
vn -0.6933 0.5151 0.5039
vn -0.1999 0.7626 0.6152
vn -0.2647 0.5151 0.8152
vn 0.1999 0.7626 0.6152
vn 0.2649 0.5151 0.8152
vn 0.5234 0.7626 0.3802
vn 0.6935 0.5151 0.5037
vn 0.6469 0.7626 -0.0000
vn 0.8571 0.5151 -0.0003
vn 0.1969 0.7708 -0.6059
vn 0.5154 0.7708 -0.3745
vn -0.1969 0.7708 -0.6059
vn -0.5154 0.7708 -0.3745
vn -0.6371 0.7708 -0.0000
vn -0.5154 0.7708 0.3745
vn -0.1969 0.7708 0.6059
vn 0.1969 0.7708 0.6059
vn 0.5154 0.7708 0.3745
vn 0.6371 0.7708 -0.0000
vn 0.3026 0.1986 -0.9322
vn 0.7929 0.1986 -0.5761
vn -0.3029 0.1986 -0.9321
vn -0.7929 0.1986 -0.5761
vn -0.9801 0.1986 -0.0000
vn -0.7929 0.1986 0.5761
vn -0.3028 0.1986 0.9321
vn 0.3029 0.1986 0.9321
vn 0.7930 0.1986 0.5759
vn 0.9801 0.1986 -0.0000
vn 0.2954 -0.2932 -0.9093
vn 0.7735 -0.2931 -0.5620
vn -0.2955 -0.2932 -0.9093
vn -0.7735 -0.2931 -0.5620
vn -0.9561 -0.2930 -0.0000
vn -0.7735 -0.2931 0.5620
vn -0.2954 -0.2932 0.9093
vn 0.2955 -0.2932 0.9093
vn 0.7735 -0.2931 0.5620
vn 0.9561 -0.2930 -0.0000
vn 0.1643 -0.8469 -0.5057
vn 0.4302 -0.8469 -0.3126
vn -0.1643 -0.8469 -0.5057
vn -0.4302 -0.8469 -0.3126
vn -0.5317 -0.8469 -0.0000
vn -0.4302 -0.8469 0.3126
vn -0.1643 -0.8469 0.5058
vn 0.1643 -0.8469 0.5057
vn 0.4302 -0.8469 0.3125
vn 0.5317 -0.8469 -0.0000
vn 0.1712 0.8326 -0.5268
vn 0.4481 0.8326 -0.3256
vn -0.1712 0.8326 -0.5268
vn -0.4481 0.8326 -0.3256
vn -0.5539 0.8326 -0.0000
vn -0.4481 0.8326 0.3256
vn -0.1712 0.8326 0.5268
vn 0.1712 0.8326 0.5268
vn 0.4481 0.8326 0.3256
vn 0.5539 0.8326 -0.0000
vn 0.3073 0.1035 -0.9460
vn 0.8047 0.1035 -0.5846
vn -0.3076 0.1035 -0.9459
vn -0.8048 0.1035 -0.5844
vn -0.9946 0.1035 0.0002
vn -0.8046 0.1035 0.5847
vn -0.3071 0.1035 0.9460
vn 0.3076 0.1035 0.9459
vn 0.8048 0.1035 0.5844
vn 0.9946 0.1035 -0.0002
vn 0.3070 0.1128 -0.9450
vn 0.8039 0.1128 -0.5839
vn -0.3071 0.1128 -0.9450
vn -0.8039 0.1128 -0.5840
vn -0.9936 0.1128 0.0002
vn -0.8038 0.1128 0.5841
vn -0.3070 0.1128 0.9450
vn 0.3071 0.1128 0.9450
vn 0.8041 0.1128 0.5837
vn 0.9936 0.1128 -0.0001
vn 0.3301 0.0746 -0.9410
vn 0.8070 0.0694 -0.5865
vn -0.3301 0.0748 -0.9410
vn -0.8071 0.0695 -0.5863
vn -0.9976 0.0695 0.0001
vn -0.8069 0.0695 0.5866
vn -0.3295 0.0742 0.9412
vn 0.3295 0.0742 0.9412
vn 0.8071 0.0695 0.5863
vn 0.9976 0.0695 -0.0002
vn 0.4262 0.0004 -0.9046
vn 0.8091 -0.0001 -0.5876
vn 0.5880 -0.0000 -0.8089
vn -0.8090 -0.0000 -0.5878
vn -0.4276 0.0004 -0.9040
vn -0.5878 -0.0000 -0.8090
vn -1.0000 -0.0000 -0.0000
vn -0.8090 -0.0000 0.5878
vn -0.4272 -0.0000 0.9041
vn -0.5878 -0.0000 0.8090
vn 0.8090 -0.0000 0.5878
vn 0.4272 -0.0000 0.9041
vn 0.5878 -0.0000 0.8090
vn 1.0000 -0.0000 -0.0000
vn 0.9999 0.0117 0.0013
vn 0.9897 0.0097 -0.1429
vn 0.9898 0.0090 -0.1424
vn -0.2154 -0.0000 -0.9765
vn 0.2151 0.0010 -0.9766
vn 0.2159 0.0012 -0.9764
vn -0.9896 -0.0000 -0.1436
vn -0.9896 -0.0000 0.1436
vn 0.2153 -0.0000 0.9766
vn -0.2153 -0.0000 0.9766
vn 0.9896 -0.0000 0.1436
vn 0.9242 0.0060 -0.3818
vn 0.9242 0.0059 -0.3818
vn 0.9898 0.0090 -0.1425
vn 0.3828 0.0023 -0.9238
vn 0.3829 0.0021 -0.9238
vn -0.3827 -0.0000 -0.9239
vn -0.9239 -0.0000 -0.3827
vn -0.9239 -0.0000 0.3827
vn -0.3827 -0.0000 0.9239
vn 0.3827 -0.0000 0.9239
vn 0.2153 -0.0000 0.9765
vn 0.9239 -0.0000 0.3827
vn -0.0000 1.0000 -0.0000
vn 0.2083 0.7388 0.6409
vn 0.5453 0.7387 0.3962
vn 0.5453 -0.7388 0.3961
vn 0.2083 -0.7388 0.6409
vn -0.2083 0.7388 0.6409
vn -0.2083 -0.7388 0.6409
vn -0.5453 0.7388 0.3961
vn -0.5452 -0.7388 0.3961
vn -0.6740 0.7388 -0.0000
vn -0.6739 -0.7388 -0.0000
vn -0.5453 0.7387 -0.3962
vn -0.5453 -0.7387 -0.3962
vn -0.2083 0.7388 -0.6409
vn -0.2083 -0.7388 -0.6409
vn 0.2083 0.7388 -0.6409
vn 0.2083 -0.7388 -0.6409
vn 0.5453 0.7387 -0.3962
vn 0.5452 -0.7388 -0.3961
vn 0.6739 0.7388 -0.0000
vn 0.6740 -0.7388 -0.0000
vn -0.6760 -0.5494 -0.4911
vn -0.6760 0.5494 -0.4912
vn -0.2582 0.5493 -0.7947
vn -0.2582 -0.5493 -0.7947
vn 0.2582 0.5493 -0.7947
vn 0.2582 -0.5493 -0.7947
vn 0.6760 0.5493 -0.4912
vn 0.6760 -0.5494 -0.4912
vn 0.8356 0.5493 -0.0000
vn 0.8356 -0.5493 -0.0000
vn 0.6760 0.5494 0.4912
vn 0.6760 -0.5494 0.4912
vn 0.2582 0.5493 0.7947
vn 0.2582 -0.5493 0.7947
vn -0.2582 0.5493 0.7947
vn -0.2582 -0.5493 0.7947
vn -0.6760 0.5493 0.4912
vn -0.6760 -0.5493 0.4912
vn -0.8356 0.5493 -0.0000
vn -0.8356 -0.5493 -0.0000
vn 0.5202 0.0584 -0.8520
vn 0.5742 -0.0284 -0.8182
vn -0.5674 -0.0283 -0.8229
vn -0.5132 0.0586 -0.8562
vn 0.5089 0.5691 -0.6459
vn -0.5041 0.5699 -0.6489
vn 0.5626 0.8003 -0.2074
vn -0.5605 0.8014 -0.2088
vn -0.5775 -0.0286 0.8159
vn 0.5706 -0.0286 0.8207
vn 0.6290 -0.0490 0.7759
vn -0.6355 -0.0487 0.7706
vn 0.7285 -0.4565 0.5108
vn -0.7329 -0.4531 0.5075
vn 0.6841 -0.7057 0.1843
vn -0.6861 -0.7037 0.1845
vn -0.5796 0.7908 0.1969
vn -0.6116 -0.7635 0.2074
vn 0.6102 -0.7646 0.2076
vn 0.5798 0.7906 0.1969
vn 0.5452 0.7388 0.3961
vn -0.6739 0.7388 -0.0000
vn -0.5452 -0.7388 -0.3961
vn 0.6739 -0.7388 -0.0000
vn -0.6760 0.5493 -0.4912
vn 0.6760 0.5494 -0.4912
vn 0.6760 -0.5493 0.4912
vn -0.6760 -0.5494 0.4912
vn 0.8521 0.0584 0.5201
vn 0.8182 -0.0284 0.5743
vn 0.8230 -0.0284 -0.5674
vn 0.8563 0.0586 -0.5132
vn 0.6459 0.5691 0.5088
vn 0.6489 0.5699 -0.5042
vn 0.1959 0.8056 0.5591
vn 0.1962 0.8072 -0.5567
vn -0.8158 -0.0286 -0.5776
vn -0.8207 -0.0286 0.5706
vn -0.7759 -0.0490 0.6290
vn -0.7705 -0.0487 -0.6355
vn -0.5108 -0.4565 0.7285
vn -0.5075 -0.4531 -0.7329
vn -0.1844 -0.7057 0.6841
vn -0.1845 -0.7037 -0.6861
vn -0.2089 0.7831 -0.5857
vn -0.2075 -0.7635 -0.6116
vn -0.2076 -0.7646 0.6101
vn -0.2106 0.7858 0.5815
vn -0.5452 0.7388 0.3962
vn -0.6740 -0.7388 -0.0000
vn 0.5453 -0.7387 -0.3962
vn 0.6740 0.7388 -0.0000
vn 0.6760 0.5493 0.4912
vn -0.6760 0.5494 0.4912
vn -0.5202 0.0584 0.8520
vn -0.5742 -0.0284 0.8182
vn 0.5674 -0.0284 0.8230
vn 0.5132 0.0586 0.8562
vn -0.5088 0.5691 0.6459
vn 0.5041 0.5699 0.6489
vn -0.5626 0.8003 0.2074
vn 0.5605 0.8014 0.2088
vn 0.5775 -0.0286 -0.8159
vn -0.5706 -0.0286 -0.8207
vn -0.6291 -0.0490 -0.7758
vn 0.6355 -0.0487 -0.7706
vn -0.7285 -0.4565 -0.5108
vn 0.7329 -0.4531 -0.5075
vn -0.6841 -0.7057 -0.1843
vn 0.6861 -0.7038 -0.1845
vn 0.5796 0.7908 -0.1969
vn 0.6116 -0.7635 -0.2075
vn -0.6102 -0.7646 -0.2076
vn -0.5798 0.7906 -0.1969
vt 0.179544 0.904332
vt 0.173565 0.662997
vt 0.184739 0.662720
vt 0.190718 0.904055
vt 0.173565 0.959713
vt 0.184739 0.959436
vt 0.921759 0.370734
vt 0.921766 0.418255
vt 0.909794 0.418304
vt 0.909788 0.370782
vt 0.196191 0.662720
vt 0.207365 0.662977
vt 0.201892 0.902287
vt 0.190718 0.902030
vt 0.207365 0.952009
vt 0.196191 0.951752
vt 0.320903 0.848869
vt 0.332875 0.848919
vt 0.332875 0.893200
vt 0.320903 0.893149
vt 0.256922 0.860844
vt 0.248559 0.860844
vt 0.248559 0.848872
vt 0.256922 0.848872
vt 0.861241 0.747508
vt 0.854762 0.745904
vt 0.912286 0.513547
vt 0.919255 0.513174
vt 0.489034 0.744537
vt 0.496002 0.744914
vt 0.553501 0.977277
vt 0.547021 0.978877
vt 0.910113 0.461922
vt 0.916830 0.455691
vt 0.491466 0.687061
vt 0.498182 0.693296
vt 0.880822 0.433643
vt 0.885387 0.425340
vt 0.823260 0.333104
vt 0.832417 0.333091
vt 0.832417 0.344250
vt 0.823260 0.344263
vt 0.522913 0.656731
vt 0.527477 0.665037
vt 0.320903 0.926895
vt 0.332875 0.926895
vt 0.553501 0.658610
vt 0.551294 0.649723
vt 0.921766 0.333986
vt 0.909794 0.333984
vt 0.856970 0.418304
vt 0.854762 0.427191
vt 0.667350 0.398955
vt 0.674045 0.389740
vt 0.726903 0.406913
vt 0.726903 0.418304
vt 0.630543 0.348297
vt 0.641377 0.344777
vt 0.630543 0.285679
vt 0.641378 0.289199
vt 0.667348 0.235021
vt 0.674044 0.244236
vt 0.726900 0.215671
vt 0.726900 0.227062
vt 0.786454 0.235019
vt 0.779759 0.244235
vt 0.823260 0.285678
vt 0.812427 0.289198
vt 0.823260 0.348296
vt 0.812426 0.344776
vt 0.786455 0.398954
vt 0.779760 0.389739
vt 0.214685 0.659007
vt 0.207390 0.659007
vt 0.207390 0.596405
vt 0.214686 0.596405
vt 0.214662 0.708820
vt 0.207366 0.708820
vt 0.207366 0.882141
vt 0.214662 0.882141
vt 0.214662 0.934794
vt 0.207366 0.934794
vt 0.207366 0.819624
vt 0.214662 0.819624
vt 0.417015 0.762683
vt 0.424311 0.762683
vt 0.424311 0.814158
vt 0.417015 0.814158
vt 0.417015 0.700081
vt 0.424311 0.700081
vt 0.417015 0.650265
vt 0.424311 0.650265
vt 0.779481 0.804065
vt 0.772185 0.804064
vt 0.772179 0.751410
vt 0.779474 0.751411
vt 0.779474 0.866582
vt 0.772179 0.866582
vt 0.207369 0.544927
vt 0.214664 0.544927
vt 0.257724 0.196139
vt 0.261900 0.190391
vt 0.321454 0.209740
vt 0.321454 0.216845
vt 0.218336 0.141928
vt 0.225094 0.139732
vt 0.218336 0.074919
vt 0.225094 0.077114
vt 0.257723 0.020707
vt 0.261899 0.026456
vt 0.321452 -0.000000
vt 0.321451 0.007106
vt 0.385182 0.020706
vt 0.381005 0.026455
vt 0.424569 0.074917
vt 0.417811 0.077113
vt 0.424569 0.141927
vt 0.417811 0.139731
vt 0.385183 0.196138
vt 0.381006 0.190390
vt 0.732452 0.873491
vt 0.705319 0.873491
vt 0.705319 0.806499
vt 0.732452 0.806499
vt 0.732427 0.926797
vt 0.705294 0.926797
vt 0.127732 0.915303
vt 0.154866 0.915303
vt 0.154866 0.971648
vt 0.127732 0.971648
vt 0.127732 0.848401
vt 0.154866 0.848401
vt 0.732452 0.871712
vt 0.759585 0.871712
vt 0.759585 0.926797
vt 0.732452 0.926797
vt 0.732452 0.804720
vt 0.759585 0.804720
vt 0.732452 0.751410
vt 0.759585 0.751410
vt 0.958831 0.807734
vt 0.931698 0.807732
vt 0.931691 0.751385
vt 0.958824 0.751387
vt 0.958824 0.874636
vt 0.931691 0.874634
vt 0.705294 0.751410
vt 0.732427 0.751410
vt 0.378746 0.404127
vt 0.385182 0.412985
vt 0.321452 0.433691
vt 0.321452 0.422743
vt 0.414156 0.355390
vt 0.424569 0.358773
vt 0.414156 0.295147
vt 0.424569 0.291764
vt 0.378747 0.246410
vt 0.385182 0.237553
vt 0.321454 0.227794
vt 0.321453 0.216845
vt 0.264159 0.246409
vt 0.257723 0.237552
vt 0.228749 0.295146
vt 0.218336 0.291763
vt 0.228749 0.355389
vt 0.218336 0.358772
vt 0.264158 0.404127
vt 0.257723 0.412984
vt 0.214708 0.339326
vt 0.205997 0.339326
vt 0.205998 0.279098
vt 0.214709 0.279098
vt 0.214686 0.387249
vt 0.205975 0.387249
vt 0.415600 0.874305
vt 0.424311 0.874305
vt 0.424311 0.924961
vt 0.415600 0.924961
vt 0.415600 0.814158
vt 0.205975 0.495404
vt 0.214686 0.495404
vt 0.214686 0.544927
vt 0.205975 0.544927
vt 0.205975 0.435176
vt 0.214686 0.435176
vt 0.216084 0.759478
vt 0.207373 0.759477
vt 0.216078 0.708820
vt 0.216078 0.819624
vt 0.207366 0.819623
vt 0.205977 0.229572
vt 0.214688 0.229572
vt 0.835658 0.141159
vt 0.825805 0.137957
vt 0.825805 0.077714
vt 0.835658 0.074512
vt 0.796485 0.195076
vt 0.790395 0.186694
vt 0.733101 0.215670
vt 0.733100 0.205310
vt 0.669717 0.195076
vt 0.675807 0.186694
vt 0.630543 0.141158
vt 0.640397 0.137957
vt 0.630543 0.074512
vt 0.640397 0.077714
vt 0.669717 0.020594
vt 0.675807 0.028976
vt 0.733101 -0.000000
vt 0.733102 0.010361
vt 0.796485 0.020595
vt 0.790395 0.028977
vt 0.629349 0.771142
vt 0.553525 0.771143
vt 0.553525 0.704514
vt 0.629349 0.704513
vt 0.629325 0.824159
vt 0.553501 0.824160
vt 0.855866 0.817924
vt 0.931691 0.817924
vt 0.931691 0.873964
vt 0.855866 0.873964
vt 0.855866 0.751385
vt 0.780042 0.871035
vt 0.855866 0.871035
vt 0.855866 0.925822
vt 0.780042 0.925822
vt 0.780042 0.804406
vt 0.855866 0.804406
vt 0.780042 0.751385
vt 0.705294 0.807446
vt 0.629470 0.807439
vt 0.629463 0.751398
vt 0.705287 0.751405
vt 0.705287 0.873986
vt 0.629463 0.873979
vt 0.553501 0.649724
vt 0.629325 0.649723
vt 0.218336 0.079315
vt 0.211725 0.081463
vt 0.172551 0.027545
vt 0.176637 0.021922
vt 0.218336 0.150257
vt 0.211725 0.148109
vt 0.176637 0.207650
vt 0.172551 0.202027
vt 0.109168 0.229572
vt 0.109168 0.222621
vt 0.041698 0.207650
vt 0.045784 0.202027
vt -0.000000 0.150257
vt 0.006610 0.148109
vt 0.000000 0.079315
vt 0.006610 0.081463
vt 0.041698 0.021922
vt 0.045784 0.027545
vt 0.109168 -0.000000
vt 0.109168 0.006951
vt 0.067374 0.792191
vt 0.000026 0.791968
vt 0.000026 0.721044
vt 0.077446 0.721043
vt 0.077446 0.791967
vt 0.295764 0.721094
vt 0.373184 0.721094
vt 0.373184 0.780746
vt 0.305836 0.780746
vt 0.295764 0.780746
vt 0.295764 0.650265
vt 0.373184 0.650265
vt 0.077446 0.790082
vt 0.154866 0.790082
vt 0.077446 0.848401
vt 0.087517 0.719159
vt 0.154866 0.719159
vt 0.077446 0.719159
vt 0.295764 0.778043
vt 0.218344 0.778037
vt 0.218336 0.718385
vt 0.285684 0.718390
vt 0.295756 0.718391
vt 0.295758 0.848872
vt 0.218338 0.848866
vt 0.000000 0.662722
vt 0.077420 0.662721
vt 0.238487 0.848959
vt 0.248559 0.881971
vt 0.238487 0.881913
vt 0.218336 0.900177
vt 0.218342 0.886826
vt 0.228414 0.886797
vt 0.228408 0.900176
vt 0.305836 0.813845
vt 0.295764 0.813845
vt 0.833332 0.333091
vt 0.823260 0.333091
vt 0.823260 0.299991
vt 0.833332 0.299991
vt 0.238487 0.848872
vt 0.238487 0.862253
vt 0.228416 0.862253
vt 0.228416 0.848872
vt 0.285691 0.685290
vt 0.295763 0.685291
vt 0.087517 0.662720
vt 0.154866 0.662720
vt 0.067348 0.848401
vt 0.000000 0.848402
vt 0.218336 0.848908
vt 0.228408 0.848872
vt 0.228416 0.866773
vt 0.218344 0.866792
vt 0.305836 0.848869
vt 0.295764 0.848869
vt 0.295764 0.834551
vt 0.305836 0.834551
vt 0.238487 0.900178
vt 0.228416 0.900178
vt 0.228416 0.882278
vt 0.238487 0.882278
vt 0.285689 0.650265
vt 0.295761 0.650266
vt 0.295764 0.664584
vt 0.285693 0.664583
vt 0.616070 0.824160
vt 0.615914 0.894938
vt 0.583816 0.859595
vt 0.580596 0.895031
vt 0.580561 0.824160
vt 0.553501 0.868005
vt 0.553501 0.851222
vt 0.561441 0.887140
vt 0.561427 0.832086
vt 0.885832 0.347363
vt 0.885832 0.418304
vt 0.852797 0.382834
vt 0.850322 0.418304
vt 0.850322 0.347363
vt 0.823260 0.391243
vt 0.823260 0.374424
vt 0.831186 0.410378
vt 0.831186 0.355289
vt 0.050290 0.959136
vt 0.050284 0.908511
vt 0.062854 0.908512
vt 0.062860 0.959137
vt 0.997744 0.527986
vt 0.997744 0.575883
vt 0.985174 0.575883
vt 0.985174 0.527986
vt 0.997744 0.467796
vt 0.985174 0.467796
vt 0.997744 0.418304
vt 0.985174 0.418304
vt 0.088005 0.899026
vt 0.088005 0.959135
vt 0.075436 0.959135
vt 0.075436 0.899026
vt 0.088005 0.848402
vt 0.075436 0.848402
vt 0.616070 0.872054
vt 0.616092 0.824161
vt 0.628661 0.824160
vt 0.628639 0.872054
vt 0.616070 0.932243
vt 0.628639 0.932243
vt 0.616092 0.981739
vt 0.628661 0.981739
vt 0.050290 0.848402
vt 0.062860 0.848403
vt 0.000000 0.915221
vt 0.012569 0.915221
vt 0.012569 0.971496
vt 0.000000 0.971496
vt 0.772155 0.926577
vt 0.759585 0.926578
vt 0.759609 0.873338
vt 0.772179 0.873338
vt 0.759609 0.806430
vt 0.772179 0.806430
vt 0.772155 0.751410
vt 0.127725 0.971497
vt 0.115156 0.971495
vt 0.115163 0.904677
vt 0.127732 0.904678
vt 0.115156 0.848401
vt 0.127725 0.848402
vt 0.972605 0.418304
vt 0.985174 0.471548
vt 0.972605 0.471548
vt 0.985174 0.538456
vt 0.972605 0.538456
vt 0.985174 0.593472
vt 0.972605 0.593472
vt 0.012569 0.848402
vt 0.166637 0.642040
vt 0.102987 0.662720
vt 0.102987 0.651847
vt 0.160245 0.633243
vt 0.527557 0.216574
vt 0.463907 0.195894
vt 0.470298 0.187097
vt 0.527557 0.205701
vt 0.205975 0.587897
vt 0.195633 0.584536
vt 0.424569 0.141750
vt 0.434910 0.138390
vt 0.205975 0.520971
vt 0.195633 0.524331
vt 0.424569 0.074825
vt 0.434910 0.078185
vt 0.166637 0.466827
vt 0.160246 0.475624
vt 0.463906 0.020681
vt 0.470297 0.029478
vt 0.102988 0.446146
vt 0.102988 0.457020
vt 0.527555 -0.000000
vt 0.527556 0.010873
vt 0.039338 0.466827
vt 0.045729 0.475624
vt 0.591205 0.020680
vt 0.584814 0.029477
vt -0.000000 0.520970
vt 0.010342 0.524330
vt 0.630543 0.074824
vt 0.620202 0.078184
vt -0.000000 0.587895
vt 0.010341 0.584535
vt 0.630543 0.141749
vt 0.620202 0.138389
vt 0.039337 0.642039
vt 0.045729 0.633242
vt 0.591206 0.195893
vt 0.584815 0.187096
vt 0.928800 0.473993
vt 0.938805 0.715194
vt 0.929259 0.715586
vt 0.919255 0.474384
vt 0.938805 0.418304
vt 0.929259 0.418696
vt 0.897804 0.370733
vt 0.897810 0.418256
vt 0.885838 0.418304
vt 0.885832 0.370782
vt 0.382739 0.650265
vt 0.382739 0.889637
vt 0.373184 0.889637
vt 0.393794 0.939227
vt 0.384239 0.939227
vt 0.344847 0.926895
vt 0.332875 0.926845
vt 0.332875 0.882564
vt 0.344847 0.882614
vt 0.265285 0.848872
vt 0.265285 0.860844
vt 0.638042 0.751398
vt 0.630544 0.749223
vt 0.697228 0.519327
vt 0.705294 0.519546
vt 0.835658 0.101207
vt 0.843726 0.100990
vt 0.910380 0.330895
vt 0.902881 0.333068
vt 0.694709 0.466963
vt 0.702487 0.461240
vt 0.838475 0.042903
vt 0.846253 0.048628
vt 0.660753 0.435860
vt 0.666041 0.427860
vt 0.283599 0.858396
vt 0.274442 0.858407
vt 0.274442 0.848882
vt 0.283599 0.848872
vt 0.874926 0.009534
vt 0.880213 0.017536
vt 0.344847 0.848869
vt 0.332875 0.848869
vt 0.910380 0.008794
vt 0.907825 -0.000000
vt 0.897810 0.333986
vt 0.885838 0.333984
vt 0.633099 0.418304
vt 0.630544 0.427098
vt 0.062866 0.959136
vt 0.062860 0.908511
vt 0.075429 0.908512
vt 0.075436 0.959137
vt 0.997765 0.703154
vt 0.997765 0.751051
vt 0.985196 0.751051
vt 0.985196 0.703154
vt 0.997765 0.642964
vt 0.985196 0.642964
vt 0.997765 0.593472
vt 0.985196 0.593472
vt 0.308334 0.899493
vt 0.308334 0.959602
vt 0.295764 0.959602
vt 0.295764 0.899493
vt 0.308334 0.848869
vt 0.972605 0.641366
vt 0.972627 0.593473
vt 0.985174 0.641366
vt 0.972605 0.701555
vt 0.985174 0.701555
vt 0.972627 0.751051
vt 0.062866 0.848402
vt 0.075436 0.848403
vt 0.025139 0.915221
vt 0.037708 0.915221
vt 0.037708 0.971496
vt 0.025139 0.971496
vt 0.971400 0.926552
vt 0.958831 0.926553
vt 0.958855 0.873313
vt 0.971424 0.873313
vt 0.958855 0.806405
vt 0.971424 0.806405
vt 0.958831 0.751385
vt 0.971400 0.751385
vt 0.115149 0.971496
vt 0.102579 0.971495
vt 0.102586 0.904677
vt 0.115156 0.904678
vt 0.102579 0.848401
vt 0.115149 0.848402
vt 0.974861 0.000000
vt 0.987430 0.000000
vt 0.987430 0.053243
vt 0.974861 0.053243
vt 0.987430 0.120152
vt 0.974861 0.120152
vt 0.987430 0.175168
vt 0.974861 0.175168
vt 0.025139 0.848402
vt 0.037708 0.848402
vt 0.166637 0.425466
vt 0.102987 0.446146
vt 0.102987 0.435273
vt 0.160245 0.416669
vt 0.527557 0.433149
vt 0.463907 0.412468
vt 0.470298 0.403671
vt 0.527557 0.422275
vt 0.205975 0.371322
vt 0.195633 0.367962
vt 0.424569 0.358325
vt 0.434910 0.354964
vt 0.205975 0.304397
vt 0.195633 0.307757
vt 0.424569 0.291399
vt 0.434910 0.294759
vt 0.166637 0.250253
vt 0.160246 0.259050
vt 0.463906 0.237256
vt 0.470297 0.246052
vt 0.102988 0.229572
vt 0.102988 0.240445
vt 0.527555 0.216574
vt 0.527556 0.227448
vt 0.039338 0.250252
vt 0.045729 0.259049
vt 0.591205 0.237255
vt 0.584814 0.246052
vt 0.000000 0.304396
vt 0.010342 0.307756
vt 0.630543 0.291398
vt 0.620202 0.294758
vt 0.000000 0.371321
vt 0.010341 0.367961
vt 0.630543 0.358324
vt 0.620202 0.354963
vt 0.039337 0.425465
vt 0.045729 0.416668
vt 0.591206 0.412467
vt 0.584815 0.403670
vt 0.949979 0.473692
vt 0.955958 0.715026
vt 0.944785 0.715302
vt 0.938805 0.473967
vt 0.955958 0.418304
vt 0.944785 0.418580
vt 0.897816 0.381554
vt 0.897810 0.334032
vt 0.909782 0.333984
vt 0.909788 0.381506
vt 0.967133 0.707597
vt 0.955958 0.707342
vt 0.961430 0.468032
vt 0.972605 0.468288
vt 0.967133 0.418560
vt 0.368790 0.926895
vt 0.356818 0.926845
vt 0.356818 0.882565
vt 0.368790 0.882615
vt 0.849938 0.333091
vt 0.858301 0.333091
vt 0.858301 0.345063
vt 0.849938 0.345063
vt 0.968383 -0.000000
vt 0.974861 0.001607
vt 0.917347 0.233966
vt 0.910380 0.234337
vt 0.489034 0.884064
vt 0.482065 0.883690
vt 0.424569 0.651326
vt 0.431048 0.649723
vt 0.919520 0.285598
vt 0.912805 0.291827
vt 0.486601 0.941547
vt 0.479885 0.935315
vt 0.948805 0.313891
vt 0.944241 0.322193
vt 0.841574 0.344250
vt 0.832417 0.344262
vt 0.832417 0.333103
vt 0.841574 0.333091
vt 0.455155 0.971895
vt 0.450591 0.963591
vt 0.368790 0.848869
vt 0.356818 0.848869
vt 0.424569 0.970030
vt 0.426776 0.978917
vt 0.897810 0.418302
vt 0.909782 0.418304
vt 0.972653 0.329240
vt 0.974861 0.320353
vt 0.037715 0.959136
vt 0.037708 0.908511
vt 0.050278 0.908512
vt 0.050284 0.959137
vt 1.000000 0.109682
vt 1.000000 0.157578
vt 0.987431 0.157578
vt 0.987431 0.109682
vt 1.000000 0.049492
vt 0.987431 0.049492
vt 1.000000 -0.000000
vt 0.987431 -0.000000
vt 0.320903 0.899493
vt 0.320903 0.959602
vt 0.984018 0.799278
vt 0.984040 0.751385
vt 0.996609 0.751385
vt 0.996588 0.799278
vt 0.984018 0.859468
vt 0.996588 0.859467
vt 0.984040 0.908963
vt 0.996609 0.908963
vt 0.037715 0.848402
vt 0.050284 0.848403
vt 0.983994 0.926552
vt 0.971424 0.926552
vt 0.971449 0.873313
vt 0.984018 0.873313
vt 0.971449 0.806405
vt 0.984018 0.806405
vt 0.971424 0.751385
vt 0.983994 0.751385
vt 0.102572 0.971497
vt 0.090003 0.971495
vt 0.090010 0.904677
vt 0.102579 0.904678
vt 0.090003 0.848401
vt 0.102572 0.848402
vt 0.987430 0.228411
vt 0.974861 0.228411
vt 0.987430 0.295320
vt 0.974861 0.295320
vt 0.987430 0.350336
vt 0.974861 0.350336
vt 0.424569 0.574899
vt 0.424569 0.507973
vt 0.434910 0.511334
vt 0.434910 0.571539
vt 0.321324 0.650265
vt 0.257674 0.629585
vt 0.264066 0.620788
vt 0.321324 0.639392
vt 0.463907 0.629042
vt 0.470298 0.620245
vt 0.218336 0.575441
vt 0.228678 0.572081
vt 0.527557 0.649723
vt 0.527557 0.638849
vt 0.218336 0.508516
vt 0.228678 0.511876
vt 0.591206 0.629042
vt 0.584815 0.620245
vt 0.257673 0.454372
vt 0.264065 0.463169
vt 0.630543 0.574898
vt 0.620202 0.571538
vt 0.321323 0.433691
vt 0.321323 0.444564
vt 0.630543 0.507972
vt 0.620202 0.511333
vt 0.384973 0.454371
vt 0.378582 0.463168
vt 0.591205 0.453829
vt 0.584814 0.462626
vt 0.424311 0.508515
vt 0.413969 0.511875
vt 0.527555 0.433149
vt 0.527556 0.444022
vt 0.424311 0.575440
vt 0.413970 0.572080
vt 0.463906 0.453830
vt 0.470297 0.462627
vt 0.384974 0.629584
vt 0.378582 0.620787
vt 0.403798 0.891862
vt 0.393794 0.650661
vt 0.403340 0.650265
vt 0.413344 0.891466
vt 0.393794 0.947541
vt 0.403341 0.947145
vt 0.823266 0.263242
vt 0.823260 0.215719
vt 0.835232 0.215671
vt 0.835238 0.263193
vt 0.164018 0.662720
vt 0.173565 0.663090
vt 0.164413 0.902287
vt 0.154866 0.901917
vt 0.173565 0.952254
vt 0.164018 0.951885
vt 0.356818 0.848919
vt 0.356818 0.893199
vt 0.344847 0.893150
vt 0.841574 0.345063
vt 0.841575 0.333091
vt 0.849937 0.333091
vt 0.772544 0.418304
vt 0.780042 0.420480
vt 0.713360 0.650377
vt 0.705294 0.650157
vt 0.854762 0.650166
vt 0.846695 0.650384
vt 0.780042 0.420479
vt 0.787542 0.418304
vt 0.715880 0.702744
vt 0.708102 0.708466
vt 0.851945 0.708472
vt 0.844167 0.702748
vt 0.749834 0.733850
vt 0.744546 0.741851
vt 0.265285 0.848887
vt 0.274442 0.848872
vt 0.274442 0.858396
vt 0.265285 0.858410
vt 0.815495 0.741847
vt 0.810209 0.733845
vt 0.356818 0.926895
vt 0.780042 0.742591
vt 0.782596 0.751385
vt 0.823260 0.299989
vt 0.835232 0.299991
vt 0.777487 0.751410
vt 0.780042 0.742616
s 1
usemtl initialShadingGroup.006
f 4/1/1 1/2/2 2/3/3
f 2/3/3 3/4/4 4/1/1
f 6/5/5 4/1/1 3/4/4
f 3/4/4 5/6/6 6/5/5
f 8/7/7 6/8/5 5/9/6
f 5/9/6 7/10/8 8/7/7
f 12/11/9 9/12/10 10/13/11
f 10/13/11 11/14/12 12/11/9
f 11/14/12 10/13/11 13/15/13
f 13/15/13 14/16/14 11/14/12
f 14/17/14 13/18/13 15/19/15
f 15/19/15 16/20/16 14/17/14
f 1/21/2 9/22/10 12/23/9
f 12/23/9 2/24/3 1/21/2
f 2/25/3 12/26/9 11/27/12
f 11/27/12 3/28/4 2/25/3
f 4/29/1 10/30/11 9/31/10
f 9/31/10 1/32/2 4/29/1
f 3/28/4 11/27/12 14/33/14
f 14/33/14 5/34/6 3/28/4
f 6/35/5 13/36/13 10/30/11
f 10/30/11 4/29/1 6/35/5
f 5/34/6 14/33/14 16/37/16
f 16/37/16 7/38/8 5/34/6
f 20/39/17 17/40/18 18/41/19
f 18/41/19 19/42/20 20/39/17
f 8/43/7 15/44/15 13/36/13
f 13/36/13 6/35/5 8/43/7
f 17/45/18 16/20/16 15/19/15
f 15/19/15 18/46/19 17/45/18
f 18/47/19 15/44/15 8/43/7
f 8/43/7 19/48/20 18/47/19
f 19/49/20 8/7/7 7/10/8
f 7/10/8 20/50/17 19/49/20
f 20/51/17 7/38/8 16/37/16
f 16/37/16 17/52/18 20/51/17
f 24/53/21 21/54/22 22/55/23
f 22/55/23 23/56/24 24/53/21
f 26/57/25 25/58/26 21/54/22
f 21/54/22 24/53/21 26/57/25
f 28/59/27 27/60/28 25/58/26
f 25/58/26 26/57/25 28/59/27
f 30/61/29 29/62/30 27/60/28
f 27/60/28 28/59/27 30/61/29
f 32/63/31 31/64/32 29/62/30
f 29/62/30 30/61/29 32/63/31
f 34/65/33 33/66/34 31/64/32
f 31/64/32 32/63/31 34/65/33
f 36/67/35 35/68/36 33/66/34
f 33/66/34 34/65/33 36/67/35
f 38/69/37 37/70/38 35/68/36
f 35/68/36 36/67/35 38/69/37
f 40/71/39 39/72/40 37/70/38
f 37/70/38 38/69/37 40/71/39
f 23/56/24 22/55/23 39/72/40
f 39/72/40 40/71/39 23/56/24
f 42/73/41 24/74/21 23/75/24
f 23/75/24 41/76/42 42/73/41
f 43/77/43 26/78/25 24/74/21
f 24/74/21 42/73/41 43/77/43
f 44/79/44 28/80/27 26/81/25
f 26/81/25 43/82/43 44/79/44
f 45/83/45 30/84/29 28/80/27
f 28/80/27 44/79/44 45/83/45
f 46/85/46 32/86/31 30/87/29
f 30/87/29 45/88/45 46/85/46
f 47/89/47 34/90/33 32/86/31
f 32/86/31 46/85/46 47/89/47
f 48/91/48 36/92/35 34/90/33
f 34/90/33 47/89/47 48/91/48
f 49/93/49 38/94/37 36/95/35
f 36/95/35 48/96/48 49/93/49
f 50/97/50 40/98/39 38/94/37
f 38/94/37 49/93/49 50/97/50
f 41/76/42 23/75/24 40/99/39
f 40/99/39 50/100/50 41/76/42
f 52/101/51 42/102/41 41/103/42
f 41/103/42 51/104/52 52/101/51
f 53/105/53 43/106/43 42/102/41
f 42/102/41 52/101/51 53/105/53
f 54/107/54 44/108/44 43/106/43
f 43/106/43 53/105/53 54/107/54
f 55/109/55 45/110/45 44/108/44
f 44/108/44 54/107/54 55/109/55
f 56/111/56 46/112/46 45/110/45
f 45/110/45 55/109/55 56/111/56
f 57/113/57 47/114/47 46/112/46
f 46/112/46 56/111/56 57/113/57
f 58/115/58 48/116/48 47/114/47
f 47/114/47 57/113/57 58/115/58
f 59/117/59 49/118/49 48/116/48
f 48/116/48 58/115/58 59/117/59
f 60/119/60 50/120/50 49/118/49
f 49/118/49 59/117/59 60/119/60
f 51/104/52 41/103/42 50/120/50
f 50/120/50 60/119/60 51/104/52
f 62/121/61 52/122/51 51/123/52
f 51/123/52 61/124/62 62/121/61
f 63/125/63 53/126/53 52/122/51
f 52/122/51 62/121/61 63/125/63
f 64/127/64 54/128/54 53/129/53
f 53/129/53 63/130/63 64/127/64
f 65/131/65 55/132/55 54/128/54
f 54/128/54 64/127/64 65/131/65
f 66/133/66 56/134/56 55/135/55
f 55/135/55 65/136/65 66/133/66
f 67/137/67 57/138/57 56/134/56
f 56/134/56 66/133/66 67/137/67
f 68/139/68 58/140/58 57/138/57
f 57/138/57 67/137/67 68/139/68
f 69/141/69 59/142/59 58/143/58
f 58/143/58 68/144/68 69/141/69
f 70/145/70 60/146/60 59/142/59
f 59/142/59 69/141/69 70/145/70
f 61/124/62 51/123/52 60/147/60
f 60/147/60 70/148/70 61/124/62
f 72/149/71 62/150/61 61/151/62
f 61/151/62 71/152/72 72/149/71
f 73/153/73 63/154/63 62/150/61
f 62/150/61 72/149/71 73/153/73
f 74/155/74 64/156/64 63/154/63
f 63/154/63 73/153/73 74/155/74
f 75/157/75 65/158/65 64/156/64
f 64/156/64 74/155/74 75/157/75
f 76/159/76 66/160/66 65/158/65
f 65/158/65 75/157/75 76/159/76
f 77/161/77 67/162/67 66/160/66
f 66/160/66 76/159/76 77/161/77
f 78/163/78 68/164/68 67/162/67
f 67/162/67 77/161/77 78/163/78
f 79/165/79 69/166/69 68/164/68
f 68/164/68 78/163/78 79/165/79
f 80/167/80 70/168/70 69/166/69
f 69/166/69 79/165/79 80/167/80
f 71/152/72 61/151/62 70/168/70
f 70/168/70 80/167/80 71/152/72
f 82/169/81 72/170/71 71/171/72
f 71/171/72 81/172/82 82/169/81
f 83/173/83 73/174/73 72/170/71
f 72/170/71 82/169/81 83/173/83
f 84/175/84 74/176/74 73/177/73
f 73/177/73 83/178/83 84/175/84
f 85/179/85 75/87/75 74/176/74
f 74/176/74 84/175/84 85/179/85
f 86/180/86 76/181/76 75/182/75
f 75/182/75 85/183/85 86/180/86
f 87/184/87 77/185/77 76/181/76
f 76/181/76 86/180/86 87/184/87
f 88/174/88 78/173/78 77/185/77
f 77/185/77 87/184/87 88/174/88
f 89/186/89 79/187/79 78/78/78
f 78/78/78 88/188/88 89/186/89
f 90/189/90 80/190/80 79/187/79
f 79/187/79 89/186/89 90/189/90
f 81/172/82 71/171/72 80/191/80
f 80/191/80 90/192/90 81/172/82
f 92/193/91 82/194/81 81/195/82
f 81/195/82 91/196/92 92/193/91
f 93/197/93 83/198/83 82/194/81
f 82/194/81 92/193/91 93/197/93
f 94/199/94 84/200/84 83/198/83
f 83/198/83 93/197/93 94/199/94
f 95/201/95 85/202/85 84/200/84
f 84/200/84 94/199/94 95/201/95
f 96/203/96 86/204/86 85/202/85
f 85/202/85 95/201/95 96/203/96
f 97/205/97 87/206/87 86/204/86
f 86/204/86 96/203/96 97/205/97
f 98/207/98 88/208/88 87/206/87
f 87/206/87 97/205/97 98/207/98
f 99/209/99 89/210/89 88/208/88
f 88/208/88 98/207/98 99/209/99
f 100/211/100 90/212/90 89/210/89
f 89/210/89 99/209/99 100/211/100
f 91/196/92 81/195/82 90/212/90
f 90/212/90 100/211/100 91/196/92
f 102/213/101 92/214/91 91/215/92
f 91/215/92 101/216/102 102/213/101
f 103/217/103 93/218/93 92/214/91
f 92/214/91 102/213/101 103/217/103
f 104/219/104 94/220/94 93/221/93
f 93/221/93 103/222/103 104/219/104
f 105/223/105 95/143/95 94/220/94
f 94/220/94 104/219/104 105/223/105
f 106/224/106 96/225/96 95/226/95
f 95/226/95 105/227/105 106/224/106
f 107/228/107 97/229/97 96/225/96
f 96/225/96 106/224/106 107/228/107
f 108/230/108 98/223/98 97/229/97
f 97/229/97 107/228/107 108/230/108
f 109/231/109 99/232/99 98/233/98
f 98/233/98 108/234/108 109/231/109
f 110/235/110 100/236/100 99/232/99
f 99/232/99 109/231/109 110/235/110
f 101/216/102 91/215/92 100/237/100
f 100/237/100 110/238/110 101/216/102
f 112/239/111 102/240/101 101/241/102
f 101/241/102 111/242/112 112/239/111
f 113/243/113 103/244/103 102/240/101
f 102/240/101 112/239/111 113/243/113
f 114/245/114 104/246/104 103/244/103
f 103/244/103 113/243/113 114/245/114
f 115/247/115 105/248/105 104/246/104
f 104/246/104 114/245/114 115/247/115
f 116/249/116 106/250/106 105/248/105
f 105/248/105 115/247/115 116/249/116
f 117/251/117 107/252/107 106/250/106
f 106/250/106 116/249/116 117/251/117
f 118/253/118 108/254/108 107/252/107
f 107/252/107 117/251/117 118/253/118
f 119/255/119 109/256/109 108/254/108
f 108/254/108 118/253/118 119/255/119
f 120/257/120 110/258/110 109/256/109
f 109/256/109 119/255/119 120/257/120
f 111/242/112 101/241/102 110/258/110
f 110/258/110 120/257/120 111/242/112
f 123/259/121 112/260/111 111/261/112
f 123/259/121 111/261/112 121/262/122
f 121/262/122 122/263/123 123/259/121
f 126/264/124 114/265/114 113/266/113
f 126/264/124 113/266/113 124/267/125
f 124/267/125 125/268/126 126/264/124
f 127/269/127 115/270/115 114/265/114
f 114/265/114 126/264/124 127/269/127
f 128/271/128 116/272/116 115/132/115
f 115/132/115 127/273/127 128/271/128
f 130/274/129 117/275/117 116/272/116
f 130/274/129 116/272/116 128/271/128
f 128/271/128 129/276/130 130/274/129
f 133/277/131 119/278/119 118/279/118
f 133/277/131 118/279/118 131/280/132
f 131/280/132 132/281/133 133/277/131
f 134/282/134 120/283/120 119/278/119
f 119/278/119 133/277/131 134/282/134
f 121/262/122 111/261/112 120/284/120
f 120/284/120 134/285/134 121/262/122
f 123/286/135 122/23/135 135/287/136
f 135/287/136 136/288/137 123/286/135
f 140/289/138 137/290/139 138/291/140
f 138/291/140 139/292/138 140/289/138
f 124/267/127 141/293/141 142/294/141
f 142/294/141 125/268/127 124/267/127
f 130/295/127 129/296/127 143/297/142
f 143/297/142 144/298/142 130/295/127
f 148/299/143 145/300/144 146/301/144
f 146/301/144 147/302/143 148/299/143
f 131/280/134 149/303/145 150/304/145
f 150/304/145 132/281/134 131/280/134
f 131/305/132 118/306/118 117/275/117
f 117/275/117 130/274/129 131/305/132
f 124/307/125 113/308/113 112/260/111
f 112/260/111 123/259/121 124/307/125
f 136/309/137 135/310/136 151/311/146
f 151/311/147 152/312/147 136/309/148
f 152/312/149 151/311/150 138/291/140
f 138/291/140 137/290/139 152/312/149
f 140/313/138 139/314/138 153/315/151
f 153/315/151 154/316/151 140/313/138
f 154/316/152 153/315/152 142/294/141
f 142/294/141 141/293/141 154/316/152
f 144/317/142 143/318/142 155/319/153
f 155/319/153 156/320/153 144/317/142
f 156/320/154 155/319/154 146/301/144
f 146/301/144 145/300/144 156/320/154
f 148/321/143 147/322/143 157/323/155
f 157/323/155 158/324/155 148/321/156
f 158/324/157 157/323/157 150/304/145
f 150/304/145 149/303/145 158/324/157
f 124/325/158 123/326/158 159/327/158
f 123/326/158 136/328/158 159/327/158
f 141/329/158 124/325/158 159/327/158
f 137/330/158 140/331/158 159/327/158
f 136/328/158 152/332/158 159/327/158
f 152/332/158 137/330/158 159/327/158
f 140/331/158 154/333/158 159/327/158
f 154/333/158 141/329/158 159/327/158
f 131/334/158 130/335/158 160/336/158
f 130/335/158 144/337/158 160/336/158
f 149/338/158 131/334/158 160/336/158
f 145/339/158 148/340/158 160/336/158
f 144/337/158 156/341/158 160/336/158
f 156/341/158 145/339/158 160/336/158
f 148/340/158 158/342/158 160/336/158
f 158/342/158 149/338/158 160/336/158
f 164/343/159 161/344/160 162/345/161
f 162/345/161 163/346/162 164/343/159
f 166/347/163 164/348/159 163/349/162
f 163/349/162 165/350/164 166/347/163
f 168/351/165 166/347/163 165/350/164
f 165/350/164 167/352/166 168/351/165
f 170/353/167 168/351/165 167/352/166
f 167/352/166 169/354/168 170/353/167
f 172/355/169 170/356/167 169/357/168
f 169/357/168 171/358/170 172/355/169
f 174/359/171 172/355/169 171/358/170
f 171/358/170 173/360/172 174/359/171
f 176/361/173 174/362/171 173/363/172
f 173/363/172 175/364/174 176/361/173
f 178/365/175 176/361/173 175/364/174
f 175/364/174 177/366/176 178/365/175
f 180/367/177 178/365/175 177/366/176
f 177/366/176 179/368/178 180/367/177
f 161/344/160 180/369/177 179/370/178
f 179/370/178 162/345/161 161/344/160
f 184/371/179 181/372/180 182/373/181
f 182/373/181 183/374/182 184/371/179
f 183/375/182 182/376/181 185/377/183
f 185/377/183 186/378/184 183/375/182
f 186/378/184 185/377/183 187/379/185
f 187/379/185 188/380/186 186/378/184
f 188/380/186 187/379/185 189/140/187
f 189/140/187 190/381/188 188/380/186
f 190/382/188 189/383/187 191/384/189
f 191/384/189 192/385/190 190/382/188
f 192/385/190 191/384/189 193/386/191
f 193/386/191 194/387/192 192/385/190
f 194/388/192 193/354/191 195/389/193
f 195/389/193 196/390/194 194/388/192
f 196/390/194 195/389/193 197/391/195
f 197/391/195 198/392/196 196/390/194
f 198/392/196 197/391/195 199/393/197
f 199/393/197 200/394/198 198/392/196
f 200/308/198 199/395/197 181/372/180
f 181/372/180 184/371/179 200/308/198
f 182/396/181 181/397/180 161/398/160
f 161/398/160 164/399/159 182/396/181
f 184/400/179 183/401/182 163/402/162
f 163/402/162 162/403/161 184/400/179
f 185/404/183 182/396/181 164/399/159
f 164/399/159 166/405/163 185/404/183
f 183/401/182 186/406/184 165/407/164
f 165/407/164 163/402/162 183/401/182
f 187/408/185 185/404/183 166/405/163
f 166/405/163 168/409/165 187/408/185
f 186/406/184 188/410/186 167/411/166
f 167/411/166 165/407/164 186/406/184
f 189/412/187 187/408/185 168/409/165
f 168/409/165 170/413/167 189/412/187
f 188/410/186 190/414/188 169/415/168
f 169/415/168 167/411/166 188/410/186
f 191/416/189 189/412/187 170/413/167
f 170/413/167 172/417/169 191/416/189
f 190/414/188 192/418/190 171/419/170
f 171/419/170 169/415/168 190/414/188
f 193/420/191 191/416/189 172/417/169
f 172/417/169 174/421/171 193/420/191
f 192/418/190 194/422/192 173/423/172
f 173/423/172 171/419/170 192/418/190
f 195/424/193 193/420/191 174/421/171
f 174/421/171 176/425/173 195/424/193
f 194/422/192 196/426/194 175/427/174
f 175/427/174 173/423/172 194/422/192
f 197/428/195 195/424/193 176/425/173
f 176/425/173 178/429/175 197/428/195
f 196/426/194 198/430/196 177/431/176
f 177/431/176 175/427/174 196/426/194
f 199/432/197 197/428/195 178/429/175
f 178/429/175 180/433/177 199/432/197
f 198/430/196 200/434/198 179/435/178
f 179/435/178 177/431/176 198/430/196
f 181/397/180 199/432/197 180/433/177
f 180/433/177 161/398/160 181/397/180
f 200/434/198 184/400/179 162/403/161
f 162/403/161 179/435/178 200/434/198
f 204/436/199 201/437/200 202/438/201
f 202/438/201 203/439/202 204/436/199
f 206/440/203 204/436/199 203/439/202
f 203/439/202 205/441/204 206/440/203
f 208/442/205 206/443/203 205/444/204
f 205/444/204 207/445/206 208/442/205
f 212/270/207 209/446/208 210/447/209
f 210/447/209 211/448/210 212/270/207
f 211/448/210 210/447/209 213/449/211
f 213/449/211 214/450/212 211/448/210
f 214/451/212 213/452/211 215/453/213
f 215/453/213 216/454/214 214/451/212
f 201/24/200 209/455/208 212/456/207
f 212/456/207 202/21/201 201/24/200
f 202/457/201 212/458/207 211/459/210
f 211/459/210 203/460/202 202/457/201
f 204/461/199 210/462/209 209/463/208
f 209/463/208 201/464/200 204/461/199
f 203/460/202 211/459/210 214/465/212
f 214/465/212 205/466/204 203/460/202
f 206/467/203 213/468/211 210/462/209
f 210/462/209 204/461/199 206/467/203
f 205/466/204 214/465/212 216/469/214
f 216/469/214 207/470/206 205/466/204
f 220/471/215 217/472/216 218/473/217
f 218/473/217 219/474/218 220/471/215
f 208/475/205 215/476/213 213/468/211
f 213/468/211 206/467/203 208/475/205
f 217/477/216 216/454/214 215/453/213
f 215/453/213 218/478/217 217/477/216
f 218/479/217 215/476/213 208/475/205
f 208/475/205 219/480/218 218/479/217
f 219/481/218 208/442/205 207/445/206
f 207/445/206 220/482/215 219/481/218
f 220/483/215 207/470/206 216/469/214
f 216/469/214 217/484/216 220/483/215
f 224/485/159 221/486/219 222/487/161
f 222/487/161 223/488/162 224/485/159
f 226/489/163 224/490/159 223/491/162
f 223/491/162 225/492/164 226/489/163
f 228/493/165 226/489/163 225/492/164
f 225/492/164 227/494/166 228/493/165
f 230/495/220 228/493/165 227/494/166
f 227/494/166 229/496/168 230/495/220
f 232/497/169 230/498/220 229/499/168
f 229/499/168 231/500/221 232/497/169
f 234/501/171 232/497/169 231/500/221
f 231/500/221 233/314/172 234/501/171
f 236/502/173 234/503/171 233/496/172
f 233/496/172 235/504/174 236/502/173
f 238/505/175 236/502/173 235/504/174
f 235/504/174 237/506/176 238/505/175
f 240/507/177 238/505/175 237/506/176
f 237/506/176 239/491/222 240/507/177
f 221/486/219 240/508/177 239/509/222
f 239/509/222 222/487/161 221/486/219
f 244/510/179 241/511/223 242/512/181
f 242/512/181 243/513/182 244/510/179
f 243/514/182 242/515/181 245/516/183
f 245/516/183 246/517/184 243/514/182
f 246/517/184 245/516/183 247/518/224
f 247/518/224 248/519/186 246/517/184
f 248/519/186 247/518/224 249/520/187
f 249/520/187 250/521/188 248/519/186
f 250/522/188 249/523/187 251/524/189
f 251/524/189 252/525/225 250/522/188
f 252/525/225 251/524/189 253/526/191
f 253/526/191 254/527/192 252/525/225
f 254/528/192 253/529/191 255/530/193
f 255/530/193 256/531/194 254/528/192
f 256/531/194 255/530/193 257/532/195
f 257/532/195 258/533/226 256/531/194
f 258/533/226 257/532/195 259/534/197
f 259/534/197 260/535/198 258/533/226
f 260/536/198 259/537/197 241/511/223
f 241/511/223 244/510/179 260/536/198
f 242/538/181 241/539/223 221/540/219
f 221/540/219 224/541/159 242/538/181
f 244/542/179 243/543/182 223/544/162
f 223/544/162 222/545/161 244/542/179
f 245/546/183 242/538/181 224/541/159
f 224/541/159 226/547/163 245/546/183
f 243/543/182 246/548/184 225/549/164
f 225/549/164 223/544/162 243/543/182
f 247/550/224 245/546/183 226/547/163
f 226/547/163 228/551/165 247/550/224
f 246/548/184 248/552/186 227/553/166
f 227/553/166 225/549/164 246/548/184
f 249/554/187 247/550/224 228/551/165
f 228/551/165 230/555/220 249/554/187
f 248/552/186 250/556/188 229/557/168
f 229/557/168 227/553/166 248/552/186
f 251/558/189 249/554/187 230/555/220
f 230/555/220 232/559/169 251/558/189
f 250/556/188 252/560/225 231/561/221
f 231/561/221 229/557/168 250/556/188
f 253/562/191 251/558/189 232/559/169
f 232/559/169 234/563/171 253/562/191
f 252/560/225 254/564/192 233/565/172
f 233/565/172 231/561/221 252/560/225
f 255/566/193 253/562/191 234/563/171
f 234/563/171 236/567/173 255/566/193
f 254/564/192 256/568/194 235/569/174
f 235/569/174 233/565/172 254/564/192
f 257/570/195 255/566/193 236/567/173
f 236/567/173 238/571/175 257/570/195
f 256/568/194 258/572/226 237/573/176
f 237/573/176 235/569/174 256/568/194
f 259/574/197 257/570/195 238/571/175
f 238/571/175 240/575/177 259/574/197
f 258/572/226 260/576/198 239/577/222
f 239/577/222 237/573/176 258/572/226
f 241/539/223 259/574/197 240/575/177
f 240/575/177 221/540/219 241/539/223
f 260/576/198 244/542/179 222/545/161
f 222/545/161 239/577/222 260/576/198
f 264/578/227 261/579/228 262/580/229
f 262/580/229 263/581/230 264/578/227
f 266/582/231 264/578/227 263/581/230
f 263/581/230 265/583/232 266/582/231
f 268/584/233 266/585/231 265/586/232
f 265/586/232 267/587/234 268/584/233
f 272/588/235 269/589/236 270/590/237
f 270/590/237 271/591/238 272/588/235
f 271/591/238 270/590/237 273/582/239
f 273/582/239 274/592/240 271/591/238
f 274/593/240 273/594/239 275/595/241
f 275/595/241 276/596/242 274/593/240
f 261/597/228 269/598/236 272/599/235
f 272/599/235 262/600/229 261/597/228
f 262/601/229 272/602/235 271/603/238
f 271/603/238 263/604/230 262/601/229
f 264/605/227 270/606/237 269/607/236
f 269/607/236 261/608/228 264/605/227
f 263/604/230 271/603/238 274/609/240
f 274/609/240 265/610/232 263/604/230
f 266/611/231 273/612/239 270/606/237
f 270/606/237 264/605/227 266/611/231
f 265/610/232 274/609/240 276/613/242
f 276/613/242 267/614/234 265/610/232
f 280/615/243 277/616/244 278/617/245
f 278/617/245 279/618/246 280/615/243
f 268/619/233 275/620/241 273/612/239
f 273/612/239 266/611/231 268/619/233
f 277/621/244 276/596/242 275/595/241
f 275/595/241 278/622/245 277/621/244
f 278/623/245 275/620/241 268/619/233
f 268/619/233 279/624/246 278/623/245
f 279/625/246 268/584/233 267/587/234
f 267/587/234 280/626/243 279/625/246
f 280/627/243 267/614/234 276/613/242
f 276/613/242 277/628/244 280/627/243
f 284/629/159 281/630/219 282/631/161
f 282/631/161 283/632/162 284/629/159
f 286/633/163 284/634/159 283/635/162
f 283/635/162 285/636/164 286/633/163
f 288/637/247 286/633/163 285/636/164
f 285/636/164 287/638/166 288/637/247
f 290/639/167 288/637/247 287/638/166
f 287/638/166 289/640/248 290/639/167
f 292/641/169 290/642/167 289/498/248
f 289/498/248 291/497/170 292/641/169
f 294/17/171 292/641/169 291/497/170
f 291/497/170 293/501/172 294/17/171
f 296/643/173 294/644/171 293/645/172
f 293/645/172 295/646/174 296/643/173
f 298/647/175 296/643/173 295/646/174
f 295/646/174 297/648/249 298/647/175
f 300/649/250 298/647/175 297/648/249
f 297/648/249 299/650/222 300/649/250
f 281/630/219 300/651/250 299/652/222
f 299/652/222 282/631/161 281/630/219
f 304/372/179 301/510/223 302/513/181
f 302/513/181 303/373/182 304/372/179
f 303/653/182 302/654/181 305/655/183
f 305/655/183 306/656/184 303/653/182
f 306/656/184 305/655/183 307/657/224
f 307/657/224 308/658/186 306/656/184
f 308/658/186 307/657/224 309/659/187
f 309/659/187 310/660/188 308/658/186
f 310/661/188 309/662/187 311/663/251
f 311/663/251 312/664/190 310/661/188
f 312/664/190 311/663/251 313/665/191
f 313/665/191 314/666/192 312/664/190
f 314/535/192 313/534/191 315/667/193
f 315/667/193 316/668/194 314/535/192
f 316/668/194 315/667/193 317/669/252
f 317/669/252 318/670/226 316/668/194
f 318/670/226 317/669/252 319/671/197
f 319/671/197 320/672/198 318/670/226
f 320/395/198 319/536/197 301/510/223
f 301/510/223 304/372/179 320/395/198
f 302/673/181 301/674/223 281/675/219
f 281/675/219 284/676/159 302/673/181
f 304/677/179 303/678/182 283/679/162
f 283/679/162 282/680/161 304/677/179
f 305/681/183 302/673/181 284/676/159
f 284/676/159 286/682/163 305/681/183
f 303/678/182 306/683/184 285/684/164
f 285/684/164 283/679/162 303/678/182
f 307/685/224 305/681/183 286/682/163
f 286/682/163 288/686/247 307/685/224
f 306/683/184 308/687/186 287/688/166
f 287/688/166 285/684/164 306/683/184
f 309/689/187 307/685/224 288/686/247
f 288/686/247 290/690/167 309/689/187
f 308/687/186 310/691/188 289/692/248
f 289/692/248 287/688/166 308/687/186
f 311/693/251 309/689/187 290/690/167
f 290/690/167 292/694/169 311/693/251
f 310/691/188 312/695/190 291/696/170
f 291/696/170 289/692/248 310/691/188
f 313/697/191 311/693/251 292/694/169
f 292/694/169 294/698/171 313/697/191
f 312/695/190 314/699/192 293/700/172
f 293/700/172 291/696/170 312/695/190
f 315/701/193 313/697/191 294/698/171
f 294/698/171 296/702/173 315/701/193
f 314/699/192 316/703/194 295/704/174
f 295/704/174 293/700/172 314/699/192
f 317/705/252 315/701/193 296/702/173
f 296/702/173 298/706/175 317/705/252
f 316/703/194 318/707/226 297/708/249
f 297/708/249 295/704/174 316/703/194
f 319/709/197 317/705/252 298/706/175
f 298/706/175 300/710/250 319/709/197
f 318/707/226 320/711/198 299/712/222
f 299/712/222 297/708/249 318/707/226
f 301/674/223 319/709/197 300/710/250
f 300/710/250 281/675/219 301/674/223
f 320/711/198 304/677/179 282/680/161
f 282/680/161 299/712/222 320/711/198
f 324/713/253 321/714/254 322/715/255
f 322/715/255 323/716/256 324/713/253
f 326/717/257 324/713/253 323/716/256
f 323/716/256 325/718/258 326/717/257
f 328/719/259 326/720/257 325/721/258
f 325/721/258 327/722/260 328/719/259
f 332/723/261 329/724/262 330/725/263
f 330/725/263 331/726/264 332/723/261
f 331/726/264 330/725/263 333/727/265
f 333/727/265 334/728/266 331/726/264
f 334/477/266 333/729/265 335/730/267
f 335/730/267 336/731/268 334/477/266
f 321/600/254 329/732/262 332/733/261
f 332/733/261 322/734/255 321/600/254
f 322/735/255 332/736/261 331/737/264
f 331/737/264 323/738/256 322/735/255
f 324/739/253 330/740/263 329/741/262
f 329/741/262 321/742/254 324/739/253
f 323/738/256 331/737/264 334/743/266
f 334/743/266 325/744/258 323/738/256
f 326/745/257 333/746/265 330/740/263
f 330/740/263 324/739/253 326/745/257
f 325/744/258 334/743/266 336/747/268
f 336/747/268 327/748/260 325/744/258
f 340/749/269 337/750/270 338/751/271
f 338/751/271 339/752/272 340/749/269
f 328/753/259 335/754/267 333/746/265
f 333/746/265 326/745/257 328/753/259
f 337/451/270 336/731/268 335/730/267
f 335/730/267 338/755/271 337/451/270
f 338/756/271 335/754/267 328/753/259
f 328/753/259 339/757/272 338/756/271
f 339/758/272 328/719/259 327/722/260
f 327/722/260 340/759/269 339/758/272
f 340/760/269 327/748/260 336/747/268
f 336/747/268 337/761/270 340/760/269
