# Blender 4.3.2
# www.blender.org
mtllib light2.mtl
o light2
v 3.838870 0.000000 0.484612
v 3.875434 0.000000 0.484612
v 3.875434 0.232088 0.484612
v 3.838870 0.232088 0.484612
v 3.838870 0.269866 0.446835
v 3.875434 0.269866 0.446835
v 3.875434 0.269866 -0.252821
v 3.838870 0.269866 -0.252821
v 3.838870 0.232088 -0.290598
v 3.875434 0.232088 -0.290598
v 3.875434 -0.000000 -0.290598
v 3.838870 -0.000000 -0.290598
v 3.838870 0.258801 0.473547
v 3.875434 0.258801 0.473547
v 3.838870 0.258801 -0.279533
v 3.875434 0.258801 -0.279533
v 3.838870 0.175923 0.097007
v 3.875434 0.154770 0.097007
v 3.800773 0.364124 0.364087
v 3.800773 0.395819 0.327712
v 3.800773 0.320827 0.278024
v 3.800773 0.320827 0.377400
v 3.800773 0.364123 0.191964
v 3.800773 0.320827 0.178649
v 3.800773 0.395820 0.228337
v 3.800773 0.407421 0.278024
v 3.800773 0.185566 0.278024
v 3.800773 0.185566 0.377400
v 3.800773 0.185566 0.178649
v 3.839240 0.185566 0.278024
v 3.839240 0.185566 0.367268
v 3.829109 0.185566 0.377400
v 3.829109 0.185566 0.178649
v 3.839240 0.185566 0.188781
v 3.839240 0.386526 0.322956
v 3.839240 0.397018 0.278024
v 3.829109 0.407421 0.278024
v 3.829109 0.395819 0.327712
v 3.829109 0.364124 0.364087
v 3.839240 0.358384 0.355252
v 3.829109 0.320827 0.377400
v 3.839240 0.319305 0.367268
v 3.839240 0.319305 0.188781
v 3.829109 0.320827 0.178649
v 3.829109 0.364123 0.191964
v 3.839240 0.358384 0.200797
v 3.829109 0.395820 0.228337
v 3.839240 0.386527 0.233093
v 3.839240 0.320827 0.278024
v 3.694385 0.334600 0.342273
v 3.694385 0.337678 0.347603
v 3.694385 0.367085 0.318196
v 3.694385 0.361755 0.315118
v 3.694385 0.297506 0.352213
v 3.694385 0.297506 0.358367
v 3.694385 0.260412 0.342273
v 3.694385 0.257335 0.347603
v 3.694385 0.233258 0.315118
v 3.694385 0.227927 0.318196
v 3.694385 0.223318 0.278024
v 3.694385 0.217163 0.278024
v 3.694385 0.233258 0.240931
v 3.694385 0.227927 0.237853
v 3.694385 0.260412 0.213776
v 3.694385 0.257335 0.208446
v 3.694385 0.297506 0.203838
v 3.694385 0.297506 0.197682
v 3.694385 0.334600 0.213776
v 3.694385 0.337678 0.208446
v 3.694385 0.361755 0.240931
v 3.694385 0.367085 0.237853
v 3.694385 0.371694 0.278024
v 3.694385 0.377849 0.278024
v 3.741611 0.337678 0.347603
v 3.741611 0.367086 0.318196
v 3.741611 0.297506 0.358367
v 3.741611 0.257334 0.347603
v 3.741611 0.227927 0.318196
v 3.741611 0.217163 0.278024
v 3.741611 0.227927 0.237853
v 3.741611 0.257335 0.208446
v 3.741611 0.297507 0.197682
v 3.741611 0.337678 0.208446
v 3.741611 0.367085 0.237853
v 3.741611 0.377849 0.278024
v 3.741611 0.340803 0.353016
v 3.741611 0.372498 0.321321
v 3.741611 0.297506 0.364618
v 3.741611 0.254210 0.353016
v 3.741611 0.222515 0.321321
v 3.741611 0.210914 0.278024
v 3.741611 0.222515 0.234728
v 3.741611 0.254210 0.203033
v 3.741611 0.297506 0.191433
v 3.741611 0.340803 0.203033
v 3.741611 0.372498 0.234728
v 3.741611 0.384099 0.278024
v 3.804220 0.340803 0.353016
v 3.804220 0.372498 0.321321
v 3.804220 0.297506 0.364618
v 3.804220 0.254210 0.353016
v 3.804220 0.222515 0.321321
v 3.804220 0.210913 0.278024
v 3.804220 0.222515 0.234728
v 3.804220 0.254211 0.203033
v 3.804220 0.297506 0.191433
v 3.804220 0.340802 0.203033
v 3.804220 0.372499 0.234728
v 3.804220 0.384100 0.278024
v 3.804220 0.297506 0.278024
v 3.800773 0.364124 -0.170073
v 3.800773 0.320827 -0.084013
v 3.800773 0.395819 -0.133698
v 3.800773 0.320827 -0.183386
v 3.800773 0.364123 0.002050
v 3.800773 0.320827 0.015363
v 3.800773 0.395820 -0.034325
v 3.800773 0.407421 -0.084013
v 3.800773 0.185566 -0.183386
v 3.800773 0.185566 -0.084013
v 3.800773 0.185566 0.015363
v 3.829109 0.185566 -0.183386
v 3.839240 0.185566 -0.173256
v 3.839240 0.185566 -0.084013
v 3.839240 0.185566 0.005233
v 3.829109 0.185566 0.015363
v 3.839240 0.386526 -0.128942
v 3.829109 0.395819 -0.133698
v 3.829109 0.407421 -0.084013
v 3.839240 0.397018 -0.084013
v 3.839240 0.358384 -0.161238
v 3.829109 0.364124 -0.170073
v 3.839240 0.319305 -0.173256
v 3.829109 0.320827 -0.183386
v 3.839240 0.319305 0.005233
v 3.829109 0.320827 0.015363
v 3.839240 0.358384 -0.006785
v 3.829109 0.364123 0.002050
v 3.839240 0.386527 -0.039081
v 3.829109 0.395820 -0.034325
v 3.839240 0.320827 -0.084013
v 3.694385 0.334600 -0.148261
v 3.694385 0.361754 -0.121106
v 3.694385 0.367085 -0.124184
v 3.694385 0.337678 -0.153592
v 3.694385 0.297506 -0.158199
v 3.694385 0.297506 -0.164356
v 3.694385 0.260412 -0.148261
v 3.694385 0.257335 -0.153592
v 3.694385 0.233258 -0.121106
v 3.694385 0.227927 -0.124184
v 3.694385 0.223318 -0.084013
v 3.694385 0.217163 -0.084013
v 3.694385 0.233258 -0.046917
v 3.694385 0.227927 -0.043841
v 3.694385 0.260412 -0.019764
v 3.694385 0.257335 -0.014432
v 3.694385 0.297506 -0.009824
v 3.694385 0.297506 -0.003668
v 3.694385 0.334600 -0.019764
v 3.694385 0.337678 -0.014432
v 3.694385 0.361754 -0.046917
v 3.694385 0.367085 -0.043841
v 3.694385 0.371694 -0.084013
v 3.694385 0.377849 -0.084013
v 3.741611 0.367086 -0.124184
v 3.741611 0.337678 -0.153592
v 3.741611 0.297506 -0.164356
v 3.741611 0.257334 -0.153592
v 3.741611 0.227927 -0.124184
v 3.741611 0.217163 -0.084013
v 3.741611 0.227927 -0.043841
v 3.741611 0.257335 -0.014432
v 3.741611 0.297506 -0.003668
v 3.741611 0.337678 -0.014432
v 3.741611 0.367085 -0.043841
v 3.741611 0.377849 -0.084013
v 3.741611 0.372498 -0.127308
v 3.741611 0.340803 -0.159004
v 3.741611 0.297506 -0.170604
v 3.741611 0.254209 -0.159002
v 3.741611 0.222515 -0.127308
v 3.741611 0.210914 -0.084013
v 3.741611 0.222515 -0.040716
v 3.741611 0.254210 -0.009021
v 3.741611 0.297506 0.002581
v 3.741611 0.340803 -0.009021
v 3.741611 0.372498 -0.040716
v 3.741611 0.384099 -0.084013
v 3.804220 0.372498 -0.127308
v 3.804220 0.340803 -0.159004
v 3.804220 0.297506 -0.170604
v 3.804220 0.254210 -0.159002
v 3.804220 0.222515 -0.127308
v 3.804220 0.210912 -0.084013
v 3.804220 0.222515 -0.040716
v 3.804220 0.254211 -0.009021
v 3.804220 0.297506 0.002581
v 3.804220 0.340802 -0.009021
v 3.804220 0.372499 -0.040716
v 3.804220 0.384100 -0.084013
v 3.804220 0.297506 -0.084013
v -3.838870 0.000000 0.484612
v -3.838870 0.232088 0.484612
v -3.875434 0.232088 0.484612
v -3.875434 0.000000 0.484612
v -3.838870 0.269866 0.446835
v -3.838870 0.269866 -0.252821
v -3.875434 0.269866 -0.252821
v -3.875434 0.269866 0.446835
v -3.838870 0.232088 -0.290598
v -3.838870 -0.000000 -0.290598
v -3.875434 -0.000000 -0.290598
v -3.875434 0.232088 -0.290598
v -3.875434 0.258801 0.473547
v -3.838870 0.258801 0.473547
v -3.875434 0.258801 -0.279533
v -3.838870 0.258801 -0.279533
v -3.838870 0.175923 0.097007
v -3.875434 0.154770 0.097007
v -3.800773 0.364124 0.364087
v -3.800773 0.320827 0.278024
v -3.800773 0.395819 0.327712
v -3.800773 0.320827 0.377400
v -3.800773 0.364123 0.191964
v -3.800773 0.320827 0.178649
v -3.800773 0.395820 0.228337
v -3.800773 0.407421 0.278024
v -3.800773 0.185566 0.377400
v -3.800773 0.185566 0.278024
v -3.800773 0.185566 0.178649
v -3.829109 0.185566 0.377400
v -3.839240 0.185566 0.367268
v -3.839240 0.185566 0.278024
v -3.839240 0.185566 0.188781
v -3.829109 0.185566 0.178649
v -3.839240 0.386526 0.322956
v -3.829109 0.395819 0.327712
v -3.829109 0.407421 0.278024
v -3.839240 0.397018 0.278024
v -3.839240 0.358384 0.355252
v -3.829109 0.364124 0.364087
v -3.839240 0.319305 0.367268
v -3.829109 0.320827 0.377400
v -3.839240 0.319305 0.188781
v -3.829109 0.320827 0.178649
v -3.839240 0.358384 0.200797
v -3.829109 0.364123 0.191964
v -3.839240 0.386527 0.233093
v -3.829109 0.395820 0.228337
v -3.839240 0.320827 0.278024
v -3.694385 0.334600 0.342273
v -3.694385 0.361755 0.315118
v -3.694385 0.367085 0.318196
v -3.694385 0.337678 0.347603
v -3.694385 0.297506 0.352213
v -3.694385 0.297506 0.358367
v -3.694385 0.260412 0.342273
v -3.694385 0.257335 0.347603
v -3.694385 0.233258 0.315118
v -3.694385 0.227927 0.318196
v -3.694385 0.223318 0.278024
v -3.694385 0.217163 0.278024
v -3.694385 0.233258 0.240931
v -3.694385 0.227927 0.237853
v -3.694385 0.260412 0.213776
v -3.694385 0.257335 0.208446
v -3.694385 0.297506 0.203838
v -3.694385 0.297506 0.197682
v -3.694385 0.334600 0.213776
v -3.694385 0.337678 0.208446
v -3.694385 0.361755 0.240931
v -3.694385 0.367085 0.237853
v -3.694385 0.371694 0.278024
v -3.694385 0.377849 0.278024
v -3.741611 0.367086 0.318196
v -3.741611 0.337678 0.347603
v -3.741611 0.297506 0.358367
v -3.741611 0.257334 0.347603
v -3.741611 0.227927 0.318196
v -3.741611 0.217163 0.278024
v -3.741611 0.227927 0.237853
v -3.741611 0.257335 0.208446
v -3.741611 0.297507 0.197682
v -3.741611 0.337678 0.208446
v -3.741611 0.367085 0.237853
v -3.741611 0.377849 0.278024
v -3.741611 0.372498 0.321321
v -3.741611 0.340803 0.353016
v -3.741611 0.297506 0.364618
v -3.741611 0.254210 0.353016
v -3.741611 0.222515 0.321321
v -3.741611 0.210914 0.278024
v -3.741611 0.222515 0.234728
v -3.741611 0.254210 0.203033
v -3.741611 0.297506 0.191433
v -3.741611 0.340803 0.203033
v -3.741611 0.372498 0.234728
v -3.741611 0.384099 0.278024
v -3.804220 0.372498 0.321321
v -3.804220 0.340803 0.353016
v -3.804220 0.297506 0.364618
v -3.804220 0.254210 0.353016
v -3.804220 0.222515 0.321321
v -3.804220 0.210913 0.278024
v -3.804220 0.222515 0.234728
v -3.804220 0.254211 0.203033
v -3.804220 0.297506 0.191433
v -3.804220 0.340802 0.203033
v -3.804220 0.372499 0.234728
v -3.804220 0.384100 0.278024
v -3.804220 0.297506 0.278024
v -3.800773 0.364124 -0.170073
v -3.800773 0.395819 -0.133698
v -3.800773 0.320827 -0.084013
v -3.800773 0.320827 -0.183386
v -3.800773 0.364123 0.002050
v -3.800773 0.320827 0.015363
v -3.800773 0.395820 -0.034325
v -3.800773 0.407421 -0.084013
v -3.800773 0.185566 -0.084013
v -3.800773 0.185566 -0.183386
v -3.800773 0.185566 0.015363
v -3.839240 0.185566 -0.084013
v -3.839240 0.185566 -0.173256
v -3.829109 0.185566 -0.183386
v -3.829109 0.185566 0.015363
v -3.839240 0.185566 0.005233
v -3.839240 0.386526 -0.128942
v -3.839240 0.397018 -0.084013
v -3.829109 0.407421 -0.084013
v -3.829109 0.395819 -0.133698
v -3.829109 0.364124 -0.170073
v -3.839240 0.358384 -0.161238
v -3.829109 0.320827 -0.183386
v -3.839240 0.319305 -0.173256
v -3.839240 0.319305 0.005233
v -3.829109 0.320827 0.015363
v -3.829109 0.364123 0.002050
v -3.839240 0.358384 -0.006785
v -3.829109 0.395820 -0.034325
v -3.839240 0.386527 -0.039081
v -3.839240 0.320827 -0.084013
v -3.694385 0.334600 -0.148261
v -3.694385 0.337678 -0.153592
v -3.694385 0.367085 -0.124184
v -3.694385 0.361754 -0.121106
v -3.694385 0.297506 -0.158199
v -3.694385 0.297506 -0.164356
v -3.694385 0.260412 -0.148261
v -3.694385 0.257335 -0.153592
v -3.694385 0.233258 -0.121106
v -3.694385 0.227927 -0.124184
v -3.694385 0.223318 -0.084013
v -3.694385 0.217163 -0.084013
v -3.694385 0.233258 -0.046917
v -3.694385 0.227927 -0.043841
v -3.694385 0.260412 -0.019764
v -3.694385 0.257335 -0.014432
v -3.694385 0.297506 -0.009824
v -3.694385 0.297506 -0.003668
v -3.694385 0.334600 -0.019764
v -3.694385 0.337678 -0.014432
v -3.694385 0.361754 -0.046917
v -3.694385 0.367085 -0.043841
v -3.694385 0.371694 -0.084013
v -3.694385 0.377849 -0.084013
v -3.741611 0.337678 -0.153592
v -3.741611 0.367086 -0.124184
v -3.741611 0.297506 -0.164356
v -3.741611 0.257334 -0.153592
v -3.741611 0.227927 -0.124184
v -3.741611 0.217163 -0.084013
v -3.741611 0.227927 -0.043841
v -3.741611 0.257335 -0.014432
v -3.741611 0.297506 -0.003668
v -3.741611 0.337678 -0.014432
v -3.741611 0.367085 -0.043841
v -3.741611 0.377849 -0.084013
v -3.741611 0.340803 -0.159004
v -3.741611 0.372498 -0.127308
v -3.741611 0.297506 -0.170604
v -3.741611 0.254209 -0.159002
v -3.741611 0.222515 -0.127308
v -3.741611 0.210914 -0.084013
v -3.741611 0.222515 -0.040716
v -3.741611 0.254210 -0.009021
v -3.741611 0.297506 0.002581
v -3.741611 0.340803 -0.009021
v -3.741611 0.372498 -0.040716
v -3.741611 0.384099 -0.084013
v -3.804220 0.340803 -0.159004
v -3.804220 0.372498 -0.127308
v -3.804220 0.297506 -0.170604
v -3.804220 0.254210 -0.159002
v -3.804220 0.222515 -0.127308
v -3.804220 0.210912 -0.084013
v -3.804220 0.222515 -0.040716
v -3.804220 0.254211 -0.009021
v -3.804220 0.297506 0.002581
v -3.804220 0.340802 -0.009021
v -3.804220 0.372499 -0.040716
v -3.804220 0.384100 -0.084013
v -3.804220 0.297506 -0.084013
v 3.846502 0.148911 0.482186
v -3.846502 0.148911 0.482186
v -3.846502 0.000000 0.482186
v 3.846502 0.000000 0.482186
v 3.846502 0.217362 -0.213292
v -3.846502 0.217362 -0.213292
v -3.846502 0.202999 -0.088145
v 3.846502 0.202999 -0.088145
v 3.846502 -0.000000 -0.283035
v -3.846502 -0.000000 -0.283035
v -3.846502 0.148911 -0.283035
v 3.846502 0.148911 -0.283035
v 3.846502 0.217362 0.412443
v -3.846502 0.217362 0.412443
v -3.846502 0.193092 0.037002
v 3.846502 0.193092 0.037002
v -3.846502 0.193092 0.162149
v 3.846502 0.193092 0.162149
v -3.846502 0.202999 0.287296
v 3.846502 0.202999 0.287296
vn -0.0000 0.0429 0.9991
vn -0.0000 -0.0000 1.0000
vn -0.0000 0.0428 0.9991
vn -0.0000 0.9999 -0.0154
vn 0.0001 0.9999 0.0154
vn -0.0000 0.9999 0.0154
vn -0.0001 0.9999 -0.0154
vn -0.0000 -0.0000 -1.0000
vn 0.0001 0.0428 -0.9991
vn -0.0000 0.0429 -0.9991
vn -0.0000 -1.0000 -0.0000
vn -0.0000 0.9239 0.3827
vn -0.0000 0.3827 0.9239
vn -0.0000 0.3827 -0.9239
vn -0.0000 0.9239 -0.3827
vn -1.0000 -0.0000 -0.0000
vn 1.0000 -0.0000 -0.0000
vn 0.7176 0.6225 0.3123
vn 0.7164 0.6977 -0.0000
vn 0.7208 0.3822 0.5782
vn 0.7100 0.0506 0.7023
vn 0.7072 -0.0000 0.7071
vn 0.7100 0.0506 -0.7023
vn 0.7071 -0.0000 -0.7071
vn 0.7208 0.3821 -0.5783
vn 0.7208 0.3822 -0.5783
vn 0.7176 0.6225 -0.3123
vn 0.7176 0.6224 -0.3124
vn -0.0000 0.8933 0.4494
vn -0.0000 0.7539 0.6569
vn -0.0000 0.2939 0.9558
vn -0.0000 0.0744 0.9972
vn -0.0000 0.0744 -0.9972
vn -0.0000 0.2940 -0.9558
vn -0.0000 0.2939 -0.9558
vn -0.0000 0.7539 -0.6570
vn -0.0000 0.8933 -0.4494
vn -0.0000 1.0000 -0.0000
vn -0.0000 0.7071 0.7071
vn -0.0000 0.2588 0.9659
vn -0.0000 -0.2588 0.9659
vn -0.0000 -0.7071 0.7071
vn -0.0000 -0.9659 0.2588
vn -0.0000 -0.9659 -0.2588
vn -0.0000 -0.7071 -0.7071
vn -0.0000 -0.2588 -0.9659
vn -0.0000 0.2588 -0.9659
vn -0.0000 0.7071 -0.7071
vn -0.0000 0.9659 -0.2588
vn -0.0000 0.9659 0.2588
vn -0.0000 0.8660 0.5000
vn -0.0000 -0.5000 0.8660
vn 0.7208 0.3822 -0.5782
vn 0.7100 0.0507 -0.7024
vn 0.7100 0.0506 -0.7024
vn 0.7071 -0.0000 0.7071
vn 0.7100 0.0506 0.7024
vn 0.7208 0.3822 0.5783
vn -0.0000 0.7539 -0.6569
vn -0.0000 0.7539 0.6570
vn -1.0000 0.0001 -0.0000
vn -0.0000 0.8660 -0.5000
vn -0.0000 -0.5000 -0.8660
vn -0.0000 -0.9659 -0.2589
vn -0.0000 0.9659 -0.2589
vn 0.0001 0.0429 -0.9991
vn -0.0000 0.0428 -0.9991
vn -0.7164 0.6977 -0.0000
vn -0.7176 0.6225 0.3123
vn -0.7208 0.3822 0.5782
vn -0.7100 0.0506 0.7023
vn -0.7072 -0.0000 0.7071
vn -0.7071 -0.0000 -0.7071
vn -0.7100 0.0506 -0.7023
vn -0.7208 0.3821 -0.5783
vn -0.7208 0.3822 -0.5783
vn -0.7176 0.6225 -0.3123
vn -0.7176 0.6224 -0.3124
vn -0.7208 0.3822 -0.5782
vn -0.7100 0.0506 -0.7024
vn -0.7100 0.0506 0.7024
vn -0.7071 -0.0000 0.7071
vn -0.0000 0.8933 -0.4495
vn -0.0000 0.9953 0.0965
vn -0.0000 0.9935 0.1140
vn -0.0000 0.7137 0.7005
vn -0.0000 0.7137 -0.7005
vn -0.0000 0.9992 0.0395
vn -0.0000 0.9992 -0.0395
vn -0.0000 0.9953 -0.0965
vn -0.0000 0.9935 -0.1140
vt 0.850341 0.524328
vt 0.850341 0.417375
vt 0.868875 0.417375
vt 0.868875 0.524328
vt 0.911562 0.616123
vt 0.911562 0.298692
vt 0.930096 0.298692
vt 0.930096 0.616123
vt 0.933441 0.044301
vt 0.933441 0.160731
vt 0.914907 0.160731
vt 0.914907 0.044301
vt 0.811576 0.044301
vt 0.811576 0.437255
vt 0.793041 0.437255
vt 0.793041 0.044301
vt 0.868875 0.549713
vt 0.850341 0.549713
vt 0.850341 0.538974
vt 0.868875 0.538974
vt 0.933441 0.173328
vt 0.914907 0.173328
vt 0.930096 0.630743
vt 0.911562 0.630743
vt 0.245860 0.044301
vt 0.363506 0.044301
vt 0.335036 0.240778
vt 0.245860 0.437255
vt 0.382656 0.063450
vt 0.382656 0.418106
vt 0.363506 0.437255
vt 0.377047 0.049910
vt 0.377047 0.431647
vt 0.401805 0.044301
vt 0.519451 0.044301
vt 0.440998 0.240778
vt 0.519451 0.437255
vt 0.401805 0.437255
vt 0.388264 0.049910
vt 0.388264 0.431647
vt 0.252609 0.459202
vt 0.271047 0.443136
vt 0.296234 0.481149
vt 0.245860 0.481149
vt 0.339858 0.459203
vt 0.346608 0.481149
vt 0.321421 0.443136
vt 0.296234 0.437255
vt 0.245860 0.549713
vt 0.296234 0.549713
vt 0.346608 0.549713
vt 0.931060 0.630743
vt 0.931060 0.681117
vt 0.911562 0.681117
vt 0.911562 0.635879
vt 0.916697 0.630743
vt 0.931060 0.731490
vt 0.916697 0.731490
vt 0.911562 0.726355
vt 0.472541 0.543832
vt 0.474952 0.539122
vt 0.497728 0.544440
vt 0.497728 0.549713
vt 0.454103 0.527766
vt 0.458581 0.524857
vt 0.447355 0.505819
vt 0.452491 0.505047
vt 0.447355 0.437255
vt 0.452491 0.437255
vt 0.548102 0.505819
vt 0.542966 0.505048
vt 0.542966 0.437255
vt 0.548102 0.437255
vt 0.541352 0.527766
vt 0.536875 0.524856
vt 0.522915 0.543833
vt 0.520504 0.539122
vt 0.497728 0.505819
vt 0.497728 0.437255
vt 0.934405 0.280710
vt 0.934405 0.258424
vt 0.948769 0.258424
vt 0.948769 0.280710
vt 0.934405 0.235661
vt 0.948769 0.235661
vt 0.976196 0.584183
vt 0.976196 0.604936
vt 0.961833 0.604936
vt 0.961833 0.584183
vt 0.972708 0.242082
vt 0.972708 0.218414
vt 0.987071 0.218414
vt 0.987071 0.242082
vt 0.972708 0.193248
vt 0.987071 0.193248
vt 0.972708 0.173328
vt 0.987071 0.173328
vt 0.934405 0.173328
vt 0.948769 0.173328
vt 0.976196 0.516328
vt 0.961833 0.516328
vt 0.506882 0.710795
vt 0.520647 0.697030
vt 0.523349 0.698590
vt 0.508442 0.713497
vt 0.525686 0.678227
vt 0.528805 0.678227
vt 0.520647 0.659424
vt 0.523349 0.657864
vt 0.506882 0.645660
vt 0.508442 0.642958
vt 0.488079 0.640621
vt 0.488079 0.637501
vt 0.469277 0.645660
vt 0.467716 0.642958
vt 0.455512 0.659424
vt 0.452810 0.657864
vt 0.450474 0.678227
vt 0.447353 0.678227
vt 0.455512 0.697030
vt 0.452810 0.698590
vt 0.469277 0.710795
vt 0.467716 0.713497
vt 0.488079 0.715833
vt 0.488079 0.718953
vt 0.948769 0.230114
vt 0.948769 0.210353
vt 0.972708 0.210353
vt 0.972708 0.230114
vt 0.948769 0.189568
vt 0.972708 0.189568
vt 0.552745 0.718953
vt 0.552745 0.733860
vt 0.528805 0.733860
vt 0.528805 0.718953
vt 0.552745 0.754223
vt 0.528805 0.754223
vt 0.552745 0.774586
vt 0.528805 0.774586
vt 0.971744 0.044301
vt 0.971744 0.061191
vt 0.947804 0.061191
vt 0.947804 0.044301
vt 0.971744 0.082126
vt 0.947804 0.082126
vt 0.971744 0.101496
vt 0.947804 0.101496
vt 0.846383 0.772405
vt 0.846383 0.752415
vt 0.870322 0.752415
vt 0.870322 0.772405
vt 0.846383 0.731755
vt 0.870322 0.731755
vt 0.846383 0.715963
vt 0.870322 0.715963
vt 0.526517 0.573245
vt 0.511610 0.558338
vt 0.513194 0.555595
vt 0.529261 0.571661
vt 0.491247 0.552882
vt 0.491247 0.549713
vt 0.470884 0.558338
vt 0.469300 0.555595
vt 0.455978 0.573245
vt 0.453234 0.571661
vt 0.450521 0.593608
vt 0.447353 0.593608
vt 0.455978 0.613971
vt 0.453234 0.615555
vt 0.470884 0.628877
vt 0.469301 0.631621
vt 0.491247 0.634334
vt 0.491247 0.637501
vt 0.511610 0.628877
vt 0.513194 0.631621
vt 0.526517 0.613971
vt 0.529261 0.615555
vt 0.531973 0.593608
vt 0.535141 0.593608
vt 0.309334 0.723375
vt 0.309334 0.702077
vt 0.341070 0.702077
vt 0.341070 0.723375
vt 0.309334 0.679674
vt 0.341070 0.679674
vt 0.309334 0.662172
vt 0.341070 0.662172
vt 0.757136 0.699146
vt 0.757136 0.715212
vt 0.725399 0.715212
vt 0.725399 0.699146
vt 0.757136 0.737159
vt 0.725399 0.737159
vt 0.757136 0.759106
vt 0.725399 0.759106
vt 0.757136 0.637501
vt 0.757136 0.655705
vt 0.725399 0.655705
vt 0.725399 0.637501
vt 0.757136 0.678268
vt 0.725399 0.678268
vt 0.757136 0.699145
vt 0.725399 0.699145
vt 0.661926 0.759978
vt 0.661926 0.738433
vt 0.693662 0.738433
vt 0.693662 0.759978
vt 0.661926 0.716166
vt 0.693662 0.716166
vt 0.661926 0.699145
vt 0.693662 0.699146
vt 0.798505 0.580751
vt 0.840903 0.592112
vt 0.798504 0.603472
vt 0.809865 0.561074
vt 0.829542 0.549713
vt 0.852263 0.549713
vt 0.871941 0.561074
vt 0.883301 0.580752
vt 0.883301 0.603473
vt 0.871940 0.623149
vt 0.852263 0.634510
vt 0.829542 0.634511
vt 0.809865 0.623150
vt 0.742846 0.459202
vt 0.699222 0.481149
vt 0.724408 0.443136
vt 0.749595 0.481150
vt 0.655597 0.459203
vt 0.648849 0.481149
vt 0.674035 0.443136
vt 0.699222 0.437255
vt 0.749595 0.549713
vt 0.699222 0.549713
vt 0.648849 0.549713
vt 0.622929 0.687875
vt 0.642427 0.687875
vt 0.642427 0.738247
vt 0.628064 0.738247
vt 0.622929 0.733112
vt 0.628064 0.637501
vt 0.642427 0.637501
vt 0.622929 0.642636
vt 0.296234 0.656898
vt 0.319009 0.651580
vt 0.321420 0.656291
vt 0.296234 0.662172
vt 0.339858 0.640224
vt 0.335380 0.637315
vt 0.346606 0.618277
vt 0.341472 0.617506
vt 0.346606 0.549713
vt 0.341472 0.549713
vt 0.250995 0.549714
vt 0.250995 0.617506
vt 0.245860 0.618278
vt 0.245860 0.549714
vt 0.252609 0.640224
vt 0.257087 0.637315
vt 0.271047 0.656291
vt 0.273458 0.651581
vt 0.296234 0.618278
vt 0.296234 0.549714
vt 0.884686 0.784717
vt 0.870322 0.784717
vt 0.870322 0.761049
vt 0.884686 0.761049
vt 0.959787 0.698599
vt 0.974151 0.698599
vt 0.974151 0.719352
vt 0.959787 0.719352
vt 0.945424 0.715839
vt 0.931060 0.715839
vt 0.931060 0.693076
vt 0.945424 0.693076
vt 0.945424 0.738126
vt 0.931060 0.738126
vt 0.884686 0.735884
vt 0.870322 0.735884
vt 0.884686 0.715963
vt 0.959787 0.630743
vt 0.974151 0.630743
vt 0.945424 0.630743
vt 0.891199 0.374688
vt 0.889639 0.371986
vt 0.903403 0.358221
vt 0.906106 0.359782
vt 0.870836 0.380145
vt 0.870836 0.377024
vt 0.850473 0.374688
vt 0.852033 0.371986
vt 0.835566 0.359782
vt 0.838268 0.358221
vt 0.830110 0.339419
vt 0.833230 0.339419
vt 0.835566 0.319056
vt 0.838268 0.320615
vt 0.850473 0.304148
vt 0.852033 0.306851
vt 0.870836 0.298692
vt 0.870836 0.301812
vt 0.891199 0.304148
vt 0.889639 0.306851
vt 0.906106 0.319056
vt 0.903403 0.320615
vt 0.911562 0.339419
vt 0.908442 0.339419
vt 0.822444 0.772405
vt 0.798505 0.772405
vt 0.798505 0.752415
vt 0.822444 0.752414
vt 0.930096 0.585463
vt 0.954035 0.585463
vt 0.954035 0.604834
vt 0.930096 0.604834
vt 0.930096 0.564528
vt 0.954035 0.564528
vt 0.930096 0.547638
vt 0.954035 0.547638
vt 0.471293 0.754224
vt 0.495232 0.754224
vt 0.495232 0.774587
vt 0.471293 0.774587
vt 0.471293 0.733861
vt 0.495232 0.733861
vt 0.471293 0.718953
vt 0.495232 0.718953
vt 0.972570 0.314931
vt 0.948630 0.314931
vt 0.948630 0.298692
vt 0.972570 0.298692
vt 0.972570 0.335716
vt 0.948630 0.335716
vt 0.972570 0.355478
vt 0.948630 0.355478
vt 0.822444 0.731755
vt 0.798505 0.731755
vt 0.798505 0.715963
vt 0.822444 0.715963
vt 0.688770 0.631621
vt 0.687186 0.628877
vt 0.702093 0.613971
vt 0.704836 0.615554
vt 0.666823 0.637501
vt 0.666823 0.634334
vt 0.644876 0.631620
vt 0.646460 0.628877
vt 0.628810 0.615554
vt 0.631553 0.613971
vt 0.622929 0.593608
vt 0.626097 0.593608
vt 0.628810 0.571661
vt 0.631553 0.573245
vt 0.644876 0.555594
vt 0.646460 0.558337
vt 0.666823 0.549713
vt 0.666823 0.552881
vt 0.688770 0.555594
vt 0.687186 0.558337
vt 0.704836 0.571661
vt 0.702093 0.573245
vt 0.710717 0.593608
vt 0.707549 0.593608
vt 0.410081 0.723004
vt 0.378344 0.723004
vt 0.378344 0.701458
vt 0.410081 0.701458
vt 0.661926 0.678268
vt 0.693662 0.678268
vt 0.661926 0.699146
vt 0.661926 0.655705
vt 0.693662 0.655705
vt 0.661926 0.637501
vt 0.693662 0.637501
vt 0.930096 0.465733
vt 0.961833 0.465733
vt 0.961833 0.487679
vt 0.930096 0.487679
vt 0.930096 0.443785
vt 0.961833 0.443785
vt 0.930096 0.427719
vt 0.961833 0.427719
vt 0.277597 0.679674
vt 0.245860 0.679674
vt 0.245860 0.662172
vt 0.277597 0.662172
vt 0.277597 0.702076
vt 0.245860 0.702076
vt 0.277597 0.723375
vt 0.245860 0.723375
vt 0.410081 0.679193
vt 0.378344 0.679193
vt 0.378344 0.662172
vt 0.410081 0.662172
vt 0.883870 0.213895
vt 0.861148 0.213895
vt 0.872508 0.171497
vt 0.903546 0.202533
vt 0.914906 0.182856
vt 0.914906 0.160135
vt 0.903545 0.140458
vt 0.883868 0.129098
vt 0.861146 0.129099
vt 0.841469 0.140460
vt 0.830110 0.160137
vt 0.830110 0.182859
vt 0.841471 0.202536
vt 0.887409 0.417375
vt 0.887409 0.524328
vt 0.893027 0.380145
vt 0.911562 0.380145
vt 0.911562 0.697575
vt 0.893027 0.697575
vt 0.948630 0.415122
vt 0.930096 0.415122
vt 0.830110 0.437255
vt 0.811575 0.437255
vt 0.811575 0.044301
vt 0.830110 0.044301
vt 0.887409 0.538974
vt 0.887409 0.549713
vt 0.948630 0.427719
vt 0.911562 0.712196
vt 0.893027 0.712196
vt 0.656246 0.044301
vt 0.567071 0.240778
vt 0.538600 0.044301
vt 0.656246 0.437255
vt 0.519451 0.063450
vt 0.519451 0.418106
vt 0.538600 0.437255
vt 0.525060 0.049910
vt 0.525060 0.431647
vt 0.773892 0.044301
vt 0.734699 0.240778
vt 0.793041 0.418106
vt 0.793041 0.063450
vt 0.773892 0.437255
vt 0.787432 0.049910
vt 0.787432 0.431647
vt 0.554850 0.527766
vt 0.598475 0.505819
vt 0.573288 0.543832
vt 0.642099 0.527766
vt 0.648849 0.505819
vt 0.623662 0.543833
vt 0.598475 0.549713
vt 0.598475 0.437255
vt 0.648849 0.437255
vt 0.934405 0.223702
vt 0.914907 0.223702
vt 0.929270 0.173328
vt 0.934405 0.178464
vt 0.929270 0.274075
vt 0.914907 0.274075
vt 0.934405 0.268939
vt 0.396981 0.442529
vt 0.374205 0.447847
vt 0.371794 0.443136
vt 0.396981 0.437255
vt 0.353356 0.459202
vt 0.357834 0.462112
vt 0.351743 0.481921
vt 0.351743 0.549713
vt 0.442219 0.549713
vt 0.442219 0.481921
vt 0.447355 0.481149
vt 0.447355 0.549713
vt 0.440605 0.459203
vt 0.436128 0.462112
vt 0.422168 0.443136
vt 0.419757 0.447846
vt 0.396981 0.481149
vt 0.396981 0.549713
vt 0.959787 0.715839
vt 0.959787 0.738126
vt 0.959787 0.693076
vt 0.986107 0.132909
vt 0.971744 0.132909
vt 0.971744 0.112157
vt 0.986107 0.112157
vt 0.974151 0.675829
vt 0.988515 0.675829
vt 0.988515 0.699497
vt 0.974151 0.699497
vt 0.974151 0.650664
vt 0.988515 0.650664
vt 0.988515 0.630743
vt 0.986107 0.044301
vt 0.611137 0.657864
vt 0.608435 0.659424
vt 0.594670 0.645660
vt 0.596230 0.642957
vt 0.616593 0.678227
vt 0.613473 0.678227
vt 0.611137 0.698590
vt 0.608435 0.697030
vt 0.596230 0.713497
vt 0.594670 0.710795
vt 0.575867 0.718953
vt 0.575867 0.715833
vt 0.555504 0.713497
vt 0.557065 0.710795
vt 0.540598 0.698590
vt 0.543300 0.697030
vt 0.535141 0.678227
vt 0.538262 0.678227
vt 0.540598 0.657864
vt 0.543300 0.659424
vt 0.555504 0.642957
vt 0.557065 0.645660
vt 0.575867 0.637501
vt 0.575867 0.640621
vt 0.948769 0.267139
vt 0.972708 0.267139
vt 0.972708 0.286900
vt 0.948769 0.286900
vt 0.948769 0.246354
vt 0.972708 0.246354
vt 0.576684 0.733860
vt 0.576684 0.718953
vt 0.576684 0.754223
vt 0.576684 0.774586
vt 0.971744 0.118386
vt 0.947805 0.118386
vt 0.947805 0.101496
vt 0.971744 0.139321
vt 0.947805 0.139321
vt 0.971744 0.158691
vt 0.947805 0.158691
vt 0.447353 0.755404
vt 0.471293 0.755404
vt 0.471293 0.775395
vt 0.447353 0.775395
vt 0.447353 0.734745
vt 0.471293 0.734745
vt 0.447353 0.718953
vt 0.557088 0.555595
vt 0.558672 0.558338
vt 0.543765 0.573245
vt 0.541022 0.571661
vt 0.579035 0.549713
vt 0.579035 0.552882
vt 0.600982 0.555595
vt 0.599398 0.558338
vt 0.617048 0.571661
vt 0.614305 0.573245
vt 0.619761 0.593608
vt 0.617048 0.615555
vt 0.614305 0.613971
vt 0.600982 0.631621
vt 0.599398 0.628877
vt 0.579035 0.637501
vt 0.579035 0.634334
vt 0.557088 0.631621
vt 0.558672 0.628877
vt 0.541022 0.615555
vt 0.543765 0.613971
vt 0.538309 0.593608
vt 0.346608 0.702077
vt 0.378344 0.702077
vt 0.378344 0.723375
vt 0.346608 0.723375
vt 0.346608 0.679674
vt 0.378344 0.679674
vt 0.346608 0.662172
vt 0.788872 0.715212
vt 0.788872 0.699145
vt 0.788872 0.737159
vt 0.788872 0.759106
vt 0.788872 0.655705
vt 0.788872 0.637501
vt 0.788872 0.678268
vt 0.725399 0.738433
vt 0.725399 0.759978
vt 0.725399 0.716166
vt 0.914907 0.075338
vt 0.914907 0.098059
vt 0.872508 0.086699
vt 0.903546 0.055661
vt 0.883869 0.044301
vt 0.861148 0.044301
vt 0.841470 0.055661
vt 0.830110 0.075339
vt 0.830110 0.098060
vt 0.841471 0.117737
vt 0.861148 0.129098
vt 0.883869 0.129098
vt 0.903546 0.117737
vt 0.440605 0.640224
vt 0.422167 0.656291
vt 0.396981 0.618278
vt 0.447353 0.618277
vt 0.353356 0.640224
vt 0.346608 0.618278
vt 0.371794 0.656291
vt 0.396981 0.662172
vt 0.447353 0.549713
vt 0.396981 0.549714
vt 0.346608 0.549714
vt 0.661926 0.687875
vt 0.661926 0.733112
vt 0.656791 0.738247
vt 0.656791 0.637501
vt 0.661926 0.642636
vt 0.825154 0.443136
vt 0.822743 0.447847
vt 0.799968 0.442529
vt 0.799968 0.437255
vt 0.843592 0.459202
vt 0.839114 0.462112
vt 0.850341 0.481149
vt 0.845206 0.481921
vt 0.845206 0.549713
vt 0.749595 0.481149
vt 0.754729 0.481921
vt 0.754729 0.549713
vt 0.756343 0.459203
vt 0.760821 0.462112
vt 0.774781 0.443136
vt 0.777192 0.447846
vt 0.799968 0.481149
vt 0.799968 0.549713
vt 0.986933 0.343777
vt 0.986933 0.367446
vt 0.972570 0.367446
vt 0.972570 0.343777
vt 0.961833 0.495575
vt 0.976196 0.495575
vt 0.947805 0.106633
vt 0.947805 0.129396
vt 0.933441 0.129396
vt 0.933441 0.106633
vt 0.947805 0.151684
vt 0.933441 0.151684
vt 0.986933 0.298692
vt 0.986933 0.318612
vt 0.972570 0.318612
vt 0.976196 0.427719
vt 0.947805 0.044301
vt 0.806663 0.694040
vt 0.820427 0.707805
vt 0.818867 0.710507
vt 0.803961 0.695600
vt 0.839230 0.712843
vt 0.839230 0.715963
vt 0.858033 0.707805
vt 0.859593 0.710507
vt 0.871798 0.694040
vt 0.874500 0.695600
vt 0.876836 0.675237
vt 0.879956 0.675237
vt 0.871798 0.656434
vt 0.874500 0.654875
vt 0.858033 0.642670
vt 0.859593 0.639967
vt 0.839230 0.637631
vt 0.839230 0.634511
vt 0.820427 0.642670
vt 0.818867 0.639967
vt 0.806663 0.656434
vt 0.803961 0.654875
vt 0.801625 0.675237
vt 0.798505 0.675237
vt 0.887623 0.769391
vt 0.887623 0.750021
vt 0.911562 0.750021
vt 0.911562 0.769391
vt 0.887623 0.729086
vt 0.911562 0.729086
vt 0.887623 0.712196
vt 0.519171 0.754224
vt 0.519171 0.774587
vt 0.519171 0.733861
vt 0.519171 0.718953
vt 0.972570 0.371718
vt 0.948630 0.371718
vt 0.972570 0.392503
vt 0.948630 0.392503
vt 0.972570 0.412265
vt 0.948630 0.412265
vt 0.719341 0.613971
vt 0.734248 0.628877
vt 0.732664 0.631621
vt 0.716597 0.615554
vt 0.754611 0.634334
vt 0.754611 0.637501
vt 0.774974 0.628877
vt 0.776558 0.631620
vt 0.789880 0.613971
vt 0.792624 0.615554
vt 0.795337 0.593608
vt 0.798505 0.593608
vt 0.789880 0.573245
vt 0.792624 0.571661
vt 0.774974 0.558337
vt 0.776558 0.555594
vt 0.754610 0.552881
vt 0.754610 0.549713
vt 0.734248 0.558337
vt 0.732664 0.555594
vt 0.719341 0.573245
vt 0.716597 0.571661
vt 0.713885 0.593608
vt 0.441817 0.701458
vt 0.441817 0.723004
vt 0.930096 0.525692
vt 0.961833 0.525692
vt 0.961833 0.547638
vt 0.930096 0.503745
vt 0.961833 0.503745
vt 0.309334 0.702076
vt 0.441817 0.662172
vt 0.441817 0.679193
vt 0.861146 0.298692
vt 0.872508 0.256294
vt 0.883868 0.298692
vt 0.841470 0.287330
vt 0.830110 0.267653
vt 0.830110 0.244932
vt 0.841470 0.225255
vt 0.883870 0.213896
vt 0.903546 0.225256
vt 0.914906 0.244934
vt 0.914906 0.267656
vt 0.903545 0.287333
vt 0.198940 0.000000
vt 0.218296 0.000000
vt 0.218296 1.000000
vt 0.198940 1.000000
vt 0.074136 0.000000
vt 0.090404 0.000000
vt 0.090404 1.000000
vt 0.074136 1.000000
vt 0.237653 1.000000
vt 0.218297 0.000000
vt 0.237653 0.000000
vt 0.099470 1.000000
vt 0.099470 0.000000
vt 0.000000 0.000000
vt 0.009066 0.000000
vt 0.009066 1.000000
vt -0.000000 1.000000
vt 0.057869 0.000000
vt 0.057869 1.000000
vt 0.041601 0.000000
vt 0.041601 1.000000
vt 0.025334 0.000000
vt 0.025333 1.000000
s 1
usemtl initialShadingGroup.001
f 4/1/1 1/2/2 2/3/2
f 2/3/2 3/4/3 4/1/1
f 8/5/4 5/6/5 6/7/6
f 6/7/6 7/8/7 8/5/4
f 12/9/8 9/10/9 10/11/10
f 10/11/10 11/12/8 12/9/8
f 1/13/11 12/14/11 11/15/11
f 11/15/11 2/16/11 1/13/11
f 6/17/6 5/18/5 13/19/12
f 13/19/12 14/20/12 6/17/6
f 14/20/13 13/19/13 4/1/1
f 4/1/1 3/4/3 14/20/13
f 10/11/10 9/10/9 15/21/14
f 15/21/14 16/22/14 10/11/10
f 16/23/15 15/24/15 8/5/4
f 8/5/4 7/8/7 16/23/15
f 1/25/16 4/26/16 17/27/16
f 12/28/16 1/25/16 17/27/16
f 5/29/16 8/30/16 17/27/16
f 9/31/16 12/28/16 17/27/16
f 13/32/16 5/29/16 17/27/16
f 4/26/16 13/32/16 17/27/16
f 15/33/16 9/31/16 17/27/16
f 8/30/16 15/33/16 17/27/16
f 3/34/17 2/35/17 18/36/17
f 2/35/17 11/37/17 18/36/17
f 7/30/17 6/29/17 18/36/17
f 11/37/17 10/38/17 18/36/17
f 6/29/17 14/39/17 18/36/17
f 14/39/17 3/34/17 18/36/17
f 10/38/17 16/40/17 18/36/17
f 16/40/17 7/30/17 18/36/17
f 19/41/16 20/42/16 21/43/16
f 22/44/16 19/41/16 21/43/16
f 23/45/16 24/46/16 21/43/16
f 25/47/16 23/45/16 21/43/16
f 26/48/16 25/47/16 21/43/16
f 20/42/16 26/48/16 21/43/16
f 28/49/16 22/44/16 21/43/16
f 21/43/16 27/50/16 28/49/16
f 27/50/16 21/43/16 24/46/16
f 24/46/16 29/51/16 27/50/16
f 28/52/11 27/53/11 30/54/11
f 28/52/11 30/54/11 31/55/11
f 31/55/11 32/56/11 28/52/11
f 27/53/11 29/57/11 33/58/11
f 27/53/11 33/58/11 34/59/11
f 34/59/11 30/54/11 27/53/11
f 38/60/18 35/61/18 36/62/19
f 36/62/19 37/63/19 38/60/18
f 35/61/18 38/60/18 39/64/20
f 39/64/20 40/65/20 35/61/18
f 40/65/20 39/64/20 41/66/21
f 41/66/21 42/67/21 40/65/20
f 42/67/21 41/66/21 32/68/22
f 32/68/22 31/69/22 42/67/21
f 44/70/23 43/71/23 34/72/24
f 34/72/24 33/73/24 44/70/23
f 43/71/23 44/70/23 45/74/25
f 45/74/25 46/75/26 43/71/23
f 46/75/26 45/74/25 47/76/27
f 47/76/27 48/77/28 46/75/26
f 48/77/28 47/76/27 37/63/19
f 37/63/19 36/62/19 48/77/28
f 40/65/17 49/78/17 35/61/17
f 42/67/17 49/78/17 40/65/17
f 46/75/17 49/78/17 43/71/17
f 48/77/17 49/78/17 46/75/17
f 36/62/17 49/78/17 48/77/17
f 35/61/17 49/78/17 36/62/17
f 49/78/17 42/67/17 31/69/17
f 31/69/17 30/79/17 49/78/17
f 43/71/17 49/78/17 30/79/17
f 30/79/17 34/72/17 43/71/17
f 20/80/29 19/81/30 39/82/30
f 39/82/30 38/83/29 20/80/29
f 19/81/31 22/84/32 41/85/32
f 41/85/32 39/82/31 19/81/31
f 24/86/33 23/87/34 45/88/35
f 45/88/35 44/89/33 24/86/33
f 23/90/36 25/91/37 47/92/37
f 47/92/37 45/93/36 23/90/36
f 25/91/37 26/94/38 37/95/38
f 37/95/38 47/92/37 25/91/37
f 26/94/38 20/96/29 38/97/29
f 38/97/29 37/95/38 26/94/38
f 22/84/32 28/98/2 32/99/2
f 32/99/2 41/85/32 22/84/32
f 29/100/8 24/86/33 44/89/33
f 44/89/33 33/101/8 29/100/8
f 53/102/16 50/103/16 51/104/16
f 51/104/16 52/105/16 53/102/16
f 50/103/16 54/106/16 55/107/16
f 55/107/16 51/104/16 50/103/16
f 54/106/16 56/108/16 57/109/16
f 57/109/16 55/107/16 54/106/16
f 56/108/16 58/110/16 59/111/16
f 59/111/16 57/109/16 56/108/16
f 58/110/16 60/112/16 61/113/16
f 61/113/16 59/111/16 58/110/16
f 60/112/16 62/114/16 63/115/16
f 63/115/16 61/113/16 60/112/16
f 62/114/16 64/116/16 65/117/16
f 65/117/16 63/115/16 62/114/16
f 64/116/16 66/118/16 67/119/16
f 67/119/16 65/117/16 64/116/16
f 66/118/16 68/120/16 69/121/16
f 69/121/16 67/119/16 66/118/16
f 68/120/16 70/122/16 71/123/16
f 71/123/16 69/121/16 68/120/16
f 70/122/16 72/124/16 73/125/16
f 73/125/16 71/123/16 70/122/16
f 72/124/16 53/102/16 52/105/16
f 52/105/16 73/125/16 72/124/16
f 52/126/39 51/127/39 74/128/39
f 74/128/39 75/129/39 52/126/39
f 51/127/40 55/130/40 76/131/40
f 76/131/40 74/128/40 51/127/40
f 55/130/41 57/99/41 77/96/41
f 77/96/41 76/131/41 55/130/41
f 57/132/42 59/133/42 78/134/42
f 78/134/42 77/135/42 57/132/42
f 59/133/43 61/136/43 79/137/43
f 79/137/43 78/134/43 59/133/43
f 61/136/44 63/138/44 80/139/44
f 80/139/44 79/137/44 61/136/44
f 63/140/45 65/141/45 81/142/45
f 81/142/45 80/143/45 63/140/45
f 65/141/46 67/144/46 82/145/46
f 82/145/46 81/142/46 65/141/46
f 67/144/47 69/146/47 83/147/47
f 83/147/47 82/145/47 67/144/47
f 69/148/48 71/149/48 84/150/48
f 84/150/48 83/151/48 69/148/48
f 71/149/49 73/152/49 85/153/49
f 85/153/49 84/150/49 71/149/49
f 73/152/50 52/154/50 75/155/50
f 75/155/50 85/153/50 73/152/50
f 75/156/16 74/157/16 86/158/16
f 86/158/16 87/159/16 75/156/16
f 74/157/16 76/160/16 88/161/16
f 88/161/16 86/158/16 74/157/16
f 76/160/16 77/162/16 89/163/16
f 89/163/16 88/161/16 76/160/16
f 77/162/16 78/164/16 90/165/16
f 90/165/16 89/163/16 77/162/16
f 78/164/16 79/166/16 91/167/16
f 91/167/16 90/165/16 78/164/16
f 79/166/16 80/168/16 92/169/16
f 92/169/16 91/167/16 79/166/16
f 80/168/16 81/170/16 93/171/16
f 93/171/16 92/169/16 80/168/16
f 81/170/16 82/172/16 94/173/16
f 94/173/16 93/171/16 81/170/16
f 82/172/16 83/174/16 95/175/16
f 95/175/16 94/173/16 82/172/16
f 83/174/16 84/176/16 96/177/16
f 96/177/16 95/175/16 83/174/16
f 84/176/16 85/178/16 97/179/16
f 97/179/16 96/177/16 84/176/16
f 85/178/16 75/156/16 87/159/16
f 87/159/16 97/179/16 85/178/16
f 87/180/51 86/181/39 98/182/39
f 98/182/39 99/183/51 87/180/51
f 86/181/40 88/184/40 100/185/40
f 100/185/40 98/182/40 86/181/40
f 88/184/41 89/186/52 101/187/52
f 101/187/52 100/185/41 88/184/41
f 89/188/52 90/189/42 102/190/42
f 102/190/42 101/191/52 89/188/52
f 90/189/43 91/192/43 103/193/43
f 103/193/43 102/190/43 90/189/43
f 91/192/44 92/194/44 104/195/44
f 104/195/44 103/193/44 91/192/44
f 92/196/45 93/197/45 105/198/45
f 105/198/45 104/199/45 92/196/45
f 93/197/46 94/200/46 106/201/46
f 106/201/46 105/198/46 93/197/46
f 94/200/47 95/202/47 107/203/47
f 107/203/47 106/201/47 94/200/47
f 95/204/48 96/205/48 108/206/48
f 108/206/48 107/207/48 95/204/48
f 96/205/49 97/208/49 109/209/49
f 109/209/49 108/206/49 96/205/49
f 97/208/50 87/210/51 99/211/51
f 99/211/51 109/209/50 97/208/50
f 98/212/17 110/213/17 99/214/17
f 100/215/17 110/213/17 98/212/17
f 101/216/17 110/213/17 100/215/17
f 102/217/17 110/213/17 101/216/17
f 103/218/17 110/213/17 102/217/17
f 104/219/17 110/213/17 103/218/17
f 105/220/17 110/213/17 104/219/17
f 106/221/17 110/213/17 105/220/17
f 107/222/17 110/213/17 106/221/17
f 108/223/17 110/213/17 107/222/17
f 109/224/17 110/213/17 108/223/17
f 99/214/17 110/213/17 109/224/17
f 111/225/16 112/226/16 113/227/16
f 114/228/16 112/226/16 111/225/16
f 115/229/16 112/226/16 116/230/16
f 117/231/16 112/226/16 115/229/16
f 118/232/16 112/226/16 117/231/16
f 113/227/16 112/226/16 118/232/16
f 112/226/16 114/228/16 119/233/16
f 119/233/16 120/234/16 112/226/16
f 116/230/16 112/226/16 120/234/16
f 120/234/16 121/235/16 116/230/16
f 124/236/11 120/237/11 119/238/11
f 124/236/11 119/238/11 122/239/11
f 122/239/11 123/240/11 124/236/11
f 126/241/11 121/242/11 120/237/11
f 126/241/11 120/237/11 124/236/11
f 124/236/11 125/243/11 126/241/11
f 130/244/19 127/245/27 128/246/28
f 128/246/28 129/247/19 130/244/19
f 132/248/26 128/246/28 127/245/27
f 127/245/27 131/249/53 132/248/26
f 134/250/54 132/248/26 131/249/53
f 131/249/53 133/251/55 134/250/54
f 122/252/24 134/250/54 133/251/55
f 133/251/55 123/253/24 122/252/24
f 125/254/56 135/255/57 136/256/57
f 136/256/57 126/257/56 125/254/56
f 138/258/58 136/256/57 135/255/57
f 135/255/57 137/259/58 138/258/58
f 140/260/18 138/258/58 137/259/58
f 137/259/58 139/261/18 140/260/18
f 129/247/19 140/260/18 139/261/18
f 139/261/18 130/244/19 129/247/19
f 131/249/17 127/245/17 141/262/17
f 133/251/17 131/249/17 141/262/17
f 137/259/17 135/255/17 141/262/17
f 139/261/17 137/259/17 141/262/17
f 130/244/17 139/261/17 141/262/17
f 127/245/17 130/244/17 141/262/17
f 123/253/17 133/251/17 141/262/17
f 141/262/17 124/263/17 123/253/17
f 124/263/17 141/262/17 135/255/17
f 135/255/17 125/254/17 124/263/17
f 132/264/59 111/265/59 113/266/37
f 113/266/37 128/267/37 132/264/59
f 134/268/33 114/269/33 111/270/35
f 111/270/35 132/271/35 134/268/33
f 138/272/31 115/273/31 116/274/32
f 116/274/32 136/275/32 138/272/31
f 140/276/29 117/277/29 115/273/60
f 115/273/60 138/272/60 140/276/29
f 129/278/38 118/279/38 117/155/29
f 117/155/29 140/280/29 129/278/38
f 128/267/37 113/266/37 118/279/38
f 118/279/38 129/278/38 128/267/37
f 122/281/8 119/282/8 114/269/33
f 114/269/33 134/268/33 122/281/8
f 136/275/32 116/274/32 121/52/2
f 121/52/2 126/283/2 136/275/32
f 145/284/61 142/285/61 143/286/16
f 143/286/16 144/287/16 145/284/61
f 147/288/16 146/289/16 142/285/61
f 142/285/61 145/284/61 147/288/16
f 149/290/16 148/291/16 146/289/16
f 146/289/16 147/288/16 149/290/16
f 151/292/16 150/293/16 148/291/16
f 148/291/16 149/290/16 151/292/16
f 153/294/16 152/295/16 150/293/16
f 150/293/16 151/292/16 153/294/16
f 155/296/16 154/297/16 152/295/16
f 152/295/16 153/294/16 155/296/16
f 157/298/16 156/299/16 154/297/16
f 154/297/16 155/296/16 157/298/16
f 159/300/16 158/301/16 156/299/16
f 156/299/16 157/298/16 159/300/16
f 161/302/16 160/303/16 158/301/16
f 158/301/16 159/300/16 161/302/16
f 163/304/61 162/305/61 160/303/16
f 160/303/16 161/302/16 163/304/61
f 165/306/16 164/307/16 162/305/61
f 162/305/61 163/304/61 165/306/16
f 144/287/16 143/286/16 164/307/16
f 164/307/16 165/306/16 144/287/16
f 167/308/48 145/309/48 144/310/48
f 144/310/48 166/311/48 167/308/48
f 168/312/47 147/313/47 145/314/47
f 145/314/47 167/315/47 168/312/47
f 169/316/46 149/317/46 147/313/46
f 147/313/46 168/312/46 169/316/46
f 170/318/45 151/319/45 149/317/45
f 149/317/45 169/316/45 170/318/45
f 171/320/44 153/321/44 151/322/44
f 151/322/44 170/323/44 171/320/44
f 172/324/43 155/325/43 153/321/43
f 153/321/43 171/320/43 172/324/43
f 173/326/42 157/327/42 155/325/42
f 155/325/42 172/324/42 173/326/42
f 174/328/41 159/329/41 157/330/41
f 157/330/41 173/331/41 174/328/41
f 175/332/40 161/333/40 159/329/40
f 159/329/40 174/328/40 175/332/40
f 176/334/39 163/335/39 161/333/39
f 161/333/39 175/332/39 176/334/39
f 177/336/50 165/337/50 163/338/50
f 163/338/50 176/339/50 177/336/50
f 166/311/49 144/310/49 165/337/49
f 165/337/49 177/336/49 166/311/49
f 179/340/16 167/341/16 166/342/16
f 166/342/16 178/343/16 179/340/16
f 180/344/16 168/345/16 167/341/16
f 167/341/16 179/340/16 180/344/16
f 181/346/16 169/347/16 168/345/16
f 168/345/16 180/344/16 181/346/16
f 182/348/16 170/349/16 169/347/16
f 169/347/16 181/346/16 182/348/16
f 183/350/16 171/351/16 170/349/16
f 170/349/16 182/348/16 183/350/16
f 184/352/16 172/353/16 171/351/16
f 171/351/16 183/350/16 184/352/16
f 185/354/16 173/355/16 172/353/16
f 172/353/16 184/352/16 185/354/16
f 186/356/16 174/357/16 173/355/16
f 173/355/16 185/354/16 186/356/16
f 187/358/16 175/359/16 174/357/16
f 174/357/16 186/356/16 187/358/16
f 188/360/16 176/361/16 175/359/16
f 175/359/16 187/358/16 188/360/16
f 189/362/16 177/363/16 176/361/16
f 176/361/16 188/360/16 189/362/16
f 178/343/16 166/342/16 177/363/16
f 177/363/16 189/362/16 178/343/16
f 191/364/48 179/365/48 178/366/62
f 178/366/62 190/367/62 191/364/48
f 192/368/47 180/369/47 179/211/47
f 179/211/47 191/370/47 192/368/47
f 193/371/63 181/372/63 180/369/46
f 180/369/46 192/368/46 193/371/63
f 194/373/45 182/374/45 181/372/63
f 181/372/63 193/371/63 194/373/45
f 195/375/44 183/376/44 182/377/44
f 182/377/44 194/378/64 195/375/44
f 196/379/43 184/380/43 183/376/43
f 183/376/43 195/375/43 196/379/43
f 197/381/42 185/382/42 184/380/42
f 184/380/42 196/379/42 197/381/42
f 198/383/41 186/384/41 185/385/41
f 185/385/41 197/386/41 198/383/41
f 199/387/40 187/388/40 186/384/40
f 186/384/40 198/383/40 199/387/40
f 200/389/39 188/390/39 187/388/39
f 187/388/39 199/387/39 200/389/39
f 201/391/50 189/392/50 188/393/50
f 188/393/50 200/394/50 201/391/50
f 190/367/62 178/366/62 189/392/49
f 189/392/49 201/391/65 190/367/62
f 191/395/17 190/396/17 202/397/17
f 192/398/17 191/395/17 202/397/17
f 193/399/17 192/398/17 202/397/17
f 194/400/17 193/399/17 202/397/17
f 195/401/17 194/400/17 202/397/17
f 196/402/17 195/401/17 202/397/17
f 197/403/17 196/402/17 202/397/17
f 198/404/17 197/403/17 202/397/17
f 199/405/17 198/404/17 202/397/17
f 200/406/17 199/405/17 202/397/17
f 201/407/17 200/406/17 202/397/17
f 190/396/17 201/407/17 202/397/17
f 206/3/2 203/408/2 204/409/1
f 204/409/1 205/4/3 206/3/2
f 210/410/6 207/411/6 208/412/4
f 208/412/4 209/413/4 210/410/6
f 214/414/66 211/415/67 212/7/8
f 212/7/8 213/330/8 214/414/66
f 213/416/11 212/417/11 203/418/11
f 203/418/11 206/419/11 213/416/11
f 216/420/12 207/421/6 210/17/6
f 210/17/6 215/20/12 216/420/12
f 204/409/1 216/420/13 215/20/13
f 215/20/13 205/4/3 204/409/1
f 218/381/14 211/415/67 214/414/66
f 214/414/66 217/422/14 218/381/14
f 208/412/4 218/423/15 217/424/15
f 217/424/15 209/413/4 208/412/4
f 203/425/17 219/426/17 204/427/17
f 212/428/17 219/426/17 203/425/17
f 207/429/17 219/426/17 208/430/17
f 211/431/17 219/426/17 212/428/17
f 216/432/17 219/426/17 207/429/17
f 204/427/17 219/426/17 216/432/17
f 218/433/17 219/426/17 211/431/17
f 208/430/17 219/426/17 218/433/17
f 205/434/16 220/435/16 206/425/16
f 206/425/16 220/435/16 213/428/16
f 209/436/16 220/435/16 210/437/16
f 213/428/16 220/435/16 214/438/16
f 210/437/16 220/435/16 215/439/16
f 215/439/16 220/435/16 205/434/16
f 214/438/16 220/435/16 217/440/16
f 217/440/16 220/435/16 209/436/16
f 221/441/17 222/442/17 223/443/17
f 224/70/17 222/442/17 221/441/17
f 225/444/17 222/442/17 226/445/17
f 227/446/17 222/442/17 225/444/17
f 228/447/17 222/442/17 227/446/17
f 223/443/17 222/442/17 228/447/17
f 222/442/17 224/70/17 229/73/17
f 229/73/17 230/448/17 222/442/17
f 226/445/17 222/442/17 230/448/17
f 230/448/17 231/449/17 226/445/17
f 234/450/11 230/451/11 229/22/11
f 234/450/11 229/22/11 232/452/11
f 232/452/11 233/453/11 234/450/11
f 236/454/11 231/455/11 230/451/11
f 236/454/11 230/451/11 234/450/11
f 234/450/11 235/456/11 236/454/11
f 240/457/68 237/458/69 238/459/69
f 238/459/69 239/460/68 240/457/68
f 242/461/70 238/459/69 237/458/69
f 237/458/69 241/462/70 242/461/70
f 244/46/71 242/461/70 241/462/70
f 241/462/70 243/463/71 244/46/71
f 232/51/72 244/46/71 243/463/71
f 243/463/71 233/464/72 232/51/72
f 235/465/73 245/466/74 246/467/74
f 246/467/74 236/468/73 235/465/73
f 248/469/75 246/467/74 245/466/74
f 245/466/74 247/470/76 248/469/75
f 250/471/77 248/469/75 247/470/76
f 247/470/76 249/472/77 250/471/77
f 239/460/68 250/471/77 249/472/77
f 249/472/77 240/457/68 239/460/68
f 241/462/16 237/458/16 251/473/16
f 243/463/16 241/462/16 251/473/16
f 247/470/16 245/466/16 251/473/16
f 249/472/16 247/470/16 251/473/16
f 240/457/16 249/472/16 251/473/16
f 237/458/16 240/457/16 251/473/16
f 233/464/16 243/463/16 251/473/16
f 251/473/16 234/474/16 233/464/16
f 234/474/16 251/473/16 245/466/16
f 245/466/16 235/465/16 234/474/16
f 242/272/30 221/475/30 223/476/29
f 223/476/29 238/276/29 242/272/30
f 244/275/32 224/477/32 221/475/31
f 221/475/31 242/272/31 244/275/32
f 248/478/35 225/479/34 226/480/33
f 226/480/33 246/481/33 248/478/35
f 250/482/37 227/483/37 225/484/36
f 225/484/36 248/485/36 250/482/37
f 239/486/38 228/487/38 227/483/37
f 227/483/37 250/482/37 239/486/38
f 238/282/29 223/488/29 228/487/38
f 228/487/38 239/486/38 238/282/29
f 232/283/2 229/281/2 224/477/32
f 224/477/32 244/275/32 232/283/2
f 246/481/33 226/480/33 231/140/8
f 231/140/8 236/489/8 246/481/33
f 255/490/17 252/491/17 253/492/17
f 253/492/17 254/493/17 255/490/17
f 257/494/17 256/495/17 252/491/17
f 252/491/17 255/490/17 257/494/17
f 259/496/17 258/497/17 256/495/17
f 256/495/17 257/494/17 259/496/17
f 261/498/17 260/499/17 258/497/17
f 258/497/17 259/496/17 261/498/17
f 263/500/17 262/501/17 260/499/17
f 260/499/17 261/498/17 263/500/17
f 265/502/17 264/503/17 262/501/17
f 262/501/17 263/500/17 265/502/17
f 267/504/17 266/505/17 264/503/17
f 264/503/17 265/502/17 267/504/17
f 269/506/17 268/507/17 266/505/17
f 266/505/17 267/504/17 269/506/17
f 271/508/17 270/509/17 268/507/17
f 268/507/17 269/506/17 271/508/17
f 273/510/17 272/511/17 270/509/17
f 270/509/17 271/508/17 273/510/17
f 275/512/17 274/513/17 272/511/17
f 272/511/17 273/510/17 275/512/17
f 254/493/17 253/492/17 274/513/17
f 274/513/17 275/512/17 254/493/17
f 277/514/39 255/515/39 254/516/39
f 254/516/39 276/517/39 277/514/39
f 278/518/40 257/519/40 255/515/40
f 255/515/40 277/514/40 278/518/40
f 279/126/41 259/129/41 257/519/41
f 257/519/41 278/518/41 279/126/41
f 280/520/42 261/133/42 259/132/42
f 259/132/42 279/521/42 280/520/42
f 281/522/43 263/136/43 261/133/43
f 261/133/43 280/520/43 281/522/43
f 282/523/44 265/138/44 263/136/44
f 263/136/44 281/522/44 282/523/44
f 283/524/45 267/525/45 265/526/45
f 265/526/45 282/146/45 283/524/45
f 284/527/46 269/528/46 267/525/46
f 267/525/46 283/524/46 284/527/46
f 285/529/47 271/530/47 269/528/47
f 269/528/47 284/527/47 285/529/47
f 286/531/48 273/532/48 271/533/48
f 271/533/48 285/534/48 286/531/48
f 287/535/49 275/536/49 273/532/49
f 273/532/49 286/531/49 287/535/49
f 276/537/50 254/326/50 275/536/50
f 275/536/50 287/535/50 276/537/50
f 289/538/17 277/539/17 276/540/17
f 276/540/17 288/541/17 289/538/17
f 290/542/17 278/543/17 277/539/17
f 277/539/17 289/538/17 290/542/17
f 291/544/17 279/545/17 278/543/17
f 278/543/17 290/542/17 291/544/17
f 292/546/17 280/547/17 279/545/17
f 279/545/17 291/544/17 292/546/17
f 293/350/17 281/548/17 280/547/17
f 280/547/17 292/546/17 293/350/17
f 294/549/17 282/550/17 281/548/17
f 281/548/17 293/350/17 294/549/17
f 295/551/17 283/552/17 282/550/17
f 282/550/17 294/549/17 295/551/17
f 296/553/17 284/554/17 283/552/17
f 283/552/17 295/551/17 296/553/17
f 297/555/17 285/556/17 284/554/17
f 284/554/17 296/553/17 297/555/17
f 298/557/17 286/558/17 285/556/17
f 285/556/17 297/555/17 298/557/17
f 299/179/17 287/559/17 286/558/17
f 286/558/17 298/557/17 299/179/17
f 288/541/17 276/540/17 287/559/17
f 287/559/17 299/179/17 288/541/17
f 301/560/39 289/561/39 288/562/51
f 288/562/51 300/563/51 301/560/39
f 302/564/40 290/565/40 289/561/40
f 289/561/40 301/560/40 302/564/40
f 303/566/52 291/393/52 290/565/41
f 290/565/41 302/564/41 303/566/52
f 304/567/42 292/189/42 291/202/52
f 291/202/52 303/568/52 304/567/42
f 305/569/43 293/192/43 292/189/43
f 292/189/43 304/567/43 305/569/43
f 306/570/44 294/194/44 293/192/44
f 293/192/44 305/569/44 306/570/44
f 307/571/45 295/197/45 294/196/45
f 294/196/45 306/572/45 307/571/45
f 308/573/46 296/200/46 295/197/46
f 295/197/46 307/571/46 308/573/46
f 309/568/47 297/202/47 296/200/47
f 296/200/47 308/573/47 309/568/47
f 310/206/48 298/574/48 297/575/48
f 297/575/48 309/207/48 310/206/48
f 311/209/49 299/576/49 298/574/49
f 298/574/49 310/206/49 311/209/49
f 300/211/51 288/203/51 299/576/50
f 299/576/50 311/209/50 300/211/51
f 301/577/16 300/578/16 312/579/16
f 302/580/16 301/577/16 312/579/16
f 303/581/16 302/580/16 312/579/16
f 304/582/16 303/581/16 312/579/16
f 305/583/16 304/582/16 312/579/16
f 306/584/16 305/583/16 312/579/16
f 307/585/16 306/584/16 312/579/16
f 308/586/16 307/585/16 312/579/16
f 309/587/16 308/586/16 312/579/16
f 310/588/16 309/587/16 312/579/16
f 311/589/16 310/588/16 312/579/16
f 300/578/16 311/589/16 312/579/16
f 313/590/17 314/591/17 315/592/17
f 316/593/17 313/590/17 315/592/17
f 317/594/17 318/595/17 315/592/17
f 319/596/17 317/594/17 315/592/17
f 320/597/17 319/596/17 315/592/17
f 314/591/17 320/597/17 315/592/17
f 322/598/17 316/593/17 315/592/17
f 315/592/17 321/599/17 322/598/17
f 321/599/17 315/592/17 318/595/17
f 318/595/17 323/600/17 321/599/17
f 322/238/11 321/237/11 324/601/11
f 322/238/11 324/601/11 325/602/11
f 325/602/11 326/603/11 322/238/11
f 321/237/11 323/242/11 327/604/11
f 321/237/11 327/604/11 328/605/11
f 328/605/11 324/601/11 321/237/11
f 332/606/77 329/607/78 330/608/68
f 330/608/68 331/609/68 332/606/77
f 329/607/78 332/606/77 333/610/79
f 333/610/79 334/611/79 329/607/78
f 334/611/79 333/610/79 335/612/80
f 335/612/80 336/613/80 334/611/79
f 336/613/80 335/612/80 326/18/73
f 326/18/73 325/614/73 336/613/80
f 338/615/81 337/616/81 328/617/82
f 328/617/82 327/233/82 338/615/81
f 337/616/81 338/615/81 339/618/70
f 339/618/70 340/619/70 337/616/81
f 340/619/70 339/618/70 341/620/69
f 341/620/69 342/621/69 340/619/70
f 342/621/69 341/620/69 331/609/68
f 331/609/68 330/608/68 342/621/69
f 334/611/16 343/622/16 329/607/16
f 336/613/16 343/622/16 334/611/16
f 340/619/16 343/622/16 337/616/16
f 342/621/16 343/622/16 340/619/16
f 330/608/16 343/622/16 342/621/16
f 329/607/16 343/622/16 330/608/16
f 343/622/16 336/613/16 325/614/16
f 325/614/16 324/623/16 343/622/16
f 337/616/16 343/622/16 324/623/16
f 324/623/16 328/617/16 337/616/16
f 314/624/83 313/625/59 333/626/59
f 333/626/59 332/627/37 314/624/83
f 313/101/35 316/628/33 335/629/33
f 335/629/33 333/100/35 313/101/35
f 318/630/32 317/631/31 339/632/31
f 339/632/31 338/633/32 318/630/32
f 317/631/60 319/634/29 341/635/29
f 341/635/29 339/632/60 317/631/60
f 319/636/29 320/637/38 331/638/38
f 331/638/38 341/331/29 319/636/29
f 320/637/38 314/624/83 332/627/37
f 332/627/37 331/638/38 320/637/38
f 316/628/33 322/382/8 326/639/8
f 326/639/8 335/629/33 316/628/33
f 323/640/2 318/630/32 338/633/32
f 338/633/32 327/9/2 323/640/2
f 347/641/17 344/642/17 345/643/17
f 345/643/17 346/644/17 347/641/17
f 344/642/17 348/645/17 349/646/17
f 349/646/17 345/643/17 344/642/17
f 348/645/17 350/647/17 351/648/17
f 351/648/17 349/646/17 348/645/17
f 350/647/17 352/649/17 353/650/17
f 353/650/17 351/648/17 350/647/17
f 352/649/17 354/651/17 355/652/17
f 355/652/17 353/650/17 352/649/17
f 354/651/17 356/653/17 357/654/17
f 357/654/17 355/652/17 354/651/17
f 356/653/17 358/655/17 359/656/17
f 359/656/17 357/654/17 356/653/17
f 358/655/17 360/657/17 361/658/17
f 361/658/17 359/656/17 358/655/17
f 360/657/17 362/659/17 363/660/17
f 363/660/17 361/658/17 360/657/17
f 362/659/17 364/661/17 365/662/17
f 365/662/17 363/660/17 362/659/17
f 364/661/17 366/663/17 367/664/17
f 367/664/17 365/662/17 364/661/17
f 366/663/17 347/641/17 346/644/17
f 346/644/17 367/664/17 366/663/17
f 346/149/48 345/148/48 368/308/48
f 368/308/48 369/311/48 346/149/48
f 345/665/47 349/666/47 370/667/47
f 370/667/47 368/668/47 345/665/47
f 349/666/46 351/669/46 371/670/46
f 371/670/46 370/667/46 349/666/46
f 351/669/45 353/671/45 372/423/45
f 372/423/45 371/670/45 351/669/45
f 353/322/44 355/321/44 373/672/44
f 373/672/44 372/673/44 353/322/44
f 355/321/43 357/325/43 374/674/43
f 374/674/43 373/672/43 355/321/43
f 357/325/42 359/327/42 375/675/42
f 375/675/42 374/674/42 357/325/42
f 359/334/41 361/676/41 376/677/41
f 376/677/41 375/335/41 359/334/41
f 361/676/40 363/678/40 377/679/40
f 377/679/40 376/677/40 361/676/40
f 363/678/39 365/680/39 378/681/39
f 378/681/39 377/679/39 363/678/39
f 365/154/50 367/152/50 379/336/50
f 379/336/50 378/339/50 365/154/50
f 367/152/49 346/149/49 369/311/49
f 369/311/49 379/336/49 367/152/49
f 369/682/17 368/683/17 380/684/17
f 380/684/17 381/685/17 369/682/17
f 368/683/17 370/686/17 382/687/17
f 382/687/17 380/684/17 368/683/17
f 370/686/17 371/688/17 383/689/17
f 383/689/17 382/687/17 370/686/17
f 371/688/17 372/690/17 384/691/17
f 384/691/17 383/689/17 371/688/17
f 372/690/17 373/692/17 385/693/17
f 385/693/17 384/691/17 372/690/17
f 373/692/17 374/694/17 386/695/17
f 386/695/17 385/693/17 373/692/17
f 374/694/17 375/696/17 387/697/17
f 387/697/17 386/695/17 374/694/17
f 375/696/17 376/698/17 388/699/17
f 388/699/17 387/697/17 375/696/17
f 376/698/17 377/700/17 389/701/17
f 389/701/17 388/699/17 376/698/17
f 377/700/17 378/702/17 390/703/17
f 390/703/17 389/701/17 377/700/17
f 378/702/17 379/704/17 391/362/17
f 391/362/17 390/703/17 378/702/17
f 379/704/17 369/682/17 381/685/17
f 381/685/17 391/362/17 379/704/17
f 381/705/62 380/706/48 392/364/48
f 392/364/48 393/367/62 381/705/62
f 380/211/47 382/369/47 394/201/47
f 394/201/47 392/191/47 380/211/47
f 382/369/46 383/372/63 395/198/63
f 395/198/63 394/201/46 382/369/46
f 383/372/63 384/374/45 396/199/45
f 396/199/45 395/198/63 383/372/63
f 384/318/44 385/707/44 397/708/44
f 397/708/44 396/709/64 384/318/44
f 385/707/43 386/710/43 398/711/43
f 398/711/43 397/708/43 385/707/43
f 386/710/42 387/378/42 399/377/42
f 399/377/42 398/711/42 386/710/42
f 387/186/41 388/184/41 400/383/41
f 400/383/41 399/386/41 387/186/41
f 388/184/40 389/712/40 401/387/40
f 401/387/40 400/383/40 388/184/40
f 389/712/39 390/180/39 402/389/39
f 402/389/39 401/387/39 389/712/39
f 390/713/50 391/714/50 403/391/50
f 403/391/50 402/394/50 390/713/50
f 391/714/49 381/705/62 393/367/62
f 393/367/62 403/391/65 391/714/49
f 392/715/16 404/716/16 393/717/16
f 394/718/16 404/716/16 392/715/16
f 395/719/16 404/716/16 394/718/16
f 396/720/16 404/716/16 395/719/16
f 397/721/16 404/716/16 396/720/16
f 398/396/16 404/716/16 397/721/16
f 399/722/16 404/716/16 398/396/16
f 400/723/16 404/716/16 399/722/16
f 401/724/16 404/716/16 400/723/16
f 402/725/16 404/716/16 401/724/16
f 403/726/16 404/716/16 402/725/16
f 393/717/16 404/716/16 403/726/16
f 408/727/2 405/728/2 406/729/2
f 406/729/2 407/730/2 408/727/2
f 412/731/84 409/732/85 410/733/85
f 410/733/85 411/734/84 412/731/84
f 416/735/8 413/729/8 414/736/8
f 414/736/8 415/737/8 416/735/8
f 413/730/11 408/738/11 407/739/11
f 407/739/11 414/727/11 413/730/11
f 405/740/86 417/741/86 418/742/86
f 418/742/86 406/743/86 405/740/86
f 409/732/87 416/739/87 415/738/87
f 415/738/87 410/733/87 409/732/87
f 420/744/88 412/731/84 411/734/84
f 411/734/84 419/745/88 420/744/88
f 422/746/89 420/744/88 419/745/88
f 419/745/88 421/747/89 422/746/89
f 424/748/90 422/746/89 421/747/89
f 421/747/89 423/749/90 424/748/90
f 417/741/91 424/748/90 423/749/90
f 423/749/90 418/742/91 417/741/91
