# Blender 4.3.2
# www.blender.org
mtllib light2bulbs.mtl
o Kight1.001
v 3.694385 0.361755 0.315118
v 3.694385 0.334600 0.342273
v 3.694385 0.297506 0.352213
v 3.694385 0.260412 0.342273
v 3.694385 0.233258 0.315118
v 3.694385 0.223318 0.278024
v 3.694385 0.233258 0.240931
v 3.694385 0.260412 0.213776
v 3.694385 0.297506 0.203838
v 3.694385 0.334600 0.213776
v 3.694385 0.361755 0.240931
v 3.694385 0.371694 0.278024
v 3.694385 0.361754 -0.121106
v 3.694385 0.334600 -0.148261
v 3.694385 0.297506 -0.158199
v 3.694385 0.260412 -0.148261
v 3.694385 0.233258 -0.121106
v 3.694385 0.223318 -0.084013
v 3.694385 0.233258 -0.046917
v 3.694385 0.260412 -0.019764
v 3.694385 0.297506 -0.009824
v 3.694385 0.334600 -0.019764
v 3.694385 0.361754 -0.046917
v 3.694385 0.371694 -0.084013
v -3.694385 0.361755 0.315118
v -3.694385 0.334600 0.342273
v -3.694385 0.297506 0.352213
v -3.694385 0.260412 0.342273
v -3.694385 0.233258 0.315118
v -3.694385 0.223318 0.278024
v -3.694385 0.233258 0.240931
v -3.694385 0.260412 0.213776
v -3.694385 0.297506 0.203838
v -3.694385 0.334600 0.213776
v -3.694385 0.361755 0.240931
v -3.694385 0.371694 0.278024
v -3.694385 0.361754 -0.121106
v -3.694385 0.334600 -0.148261
v -3.694385 0.297506 -0.158199
v -3.694385 0.260412 -0.148261
v -3.694385 0.233258 -0.121106
v -3.694385 0.223318 -0.084013
v -3.694385 0.233258 -0.046917
v -3.694385 0.260412 -0.019764
v -3.694385 0.297506 -0.009824
v -3.694385 0.334600 -0.019764
v -3.694385 0.361754 -0.046917
v -3.694385 0.371694 -0.084013
vn -0.0000 0.7071 0.7071
vn -0.0000 0.2588 0.9659
vn -0.0000 -0.2588 0.9659
vn -0.0000 -0.7071 0.7071
vn -0.0000 -0.9659 0.2588
vn -0.0000 -0.9659 -0.2588
vn -0.0000 -0.7071 -0.7071
vn -0.0000 -0.2588 -0.9659
vn -0.0000 0.2588 -0.9659
vn -0.0000 0.7071 -0.7071
vn -0.0000 0.9659 -0.2588
vn -0.0000 0.9659 0.2588
vt 0.103899 0.000000
vt 0.103899 1.000000
vt 0.099398 1.000000
vt 0.099398 0.000000
vt 0.014200 1.000000
vt 0.014200 0.000000
vt 0.018701 0.000000
vt 0.018701 1.000000
vt 0.023898 0.000000
vt 0.023898 1.000000
vt 0.028399 0.000000
vt 0.028399 1.000000
vt 0.070998 1.000000
vt 0.070998 0.000000
vt 0.075499 0.000000
vt 0.075499 1.000000
vt 0.080697 0.000000
vt 0.080697 1.000000
vt 0.085198 0.000000
vt 0.085198 1.000000
vt 0.042599 0.000000
vt 0.042599 1.000000
vt 0.038098 1.000000
vt 0.038098 0.000000
vt 0.032901 1.000000
vt 0.032901 0.000000
vt 0.028400 0.000000
vt 0.113597 0.000000
vt 0.113597 1.000000
vt 0.109096 1.000000
vt 0.109096 0.000000
vt 0.047100 0.000000
vt 0.047100 1.000000
vt 0.052298 0.000000
vt 0.052298 1.000000
vt 0.056799 0.000000
vt 0.056799 1.000000
vt 0.009699 1.000000
vt 0.009699 0.000000
vt 0.004501 1.000000
vt 0.004501 0.000000
vt 0.000000 1.000000
vt 0.000000 0.000000
vt 0.066497 1.000000
vt 0.066497 0.000000
vt 0.061300 1.000000
vt 0.061300 0.000000
vt 0.089699 0.000000
vt 0.089699 1.000000
vt 0.094897 0.000000
vt 0.094896 1.000000
vt 0.099397 1.000000
s 1
usemtl initialShadingGroup.002
f 1/1/1 25/2/1 26/3/1 2/4/1
f 2/5/2 26/6/2 27/7/2 3/8/2
f 3/8/3 27/7/3 28/9/3 4/10/3
f 4/10/4 28/9/4 29/11/4 5/12/4
f 5/13/5 29/14/5 30/15/5 6/16/5
f 6/16/6 30/15/6 31/17/6 7/18/6
f 7/18/7 31/17/7 32/19/7 8/20/7
f 8/21/8 32/22/8 33/23/8 9/24/8
f 9/24/9 33/23/9 34/25/9 10/26/9
f 10/26/10 34/25/10 35/12/10 11/27/10
f 11/28/11 35/29/11 36/30/11 12/31/11
f 12/31/12 36/30/12 25/2/12 1/1/12
f 14/32/10 38/33/10 37/22/10 13/21/10
f 15/34/9 39/35/9 38/33/9 14/32/9
f 16/36/8 40/37/8 39/35/8 15/34/8
f 17/38/7 41/39/7 40/6/7 16/5/7
f 18/40/6 42/41/6 41/39/6 17/38/6
f 19/42/5 43/43/5 42/41/5 18/40/5
f 20/44/4 44/45/4 43/14/4 19/13/4
f 21/46/3 45/47/3 44/45/3 20/44/3
f 22/37/2 46/36/2 45/47/2 21/46/2
f 23/48/1 47/49/1 46/20/1 22/19/1
f 24/50/12 48/51/12 47/49/12 23/48/12
f 13/4/11 37/52/11 48/51/11 24/50/11
