# Blender 4.4.3
# www.blender.org
mtllib LockBolt.mtl
o Lock
v 0.225625 -0.019313 0.057631
v 0.219666 -0.050553 0.057631
v 0.217056 -0.050389 0.047871
v 0.223138 -0.018505 0.047871
v 0.239166 0.009463 0.057631
v 0.236959 0.010864 0.047871
v 0.259439 0.033968 0.057631
v 0.257649 0.035875 0.047871
v 0.285168 0.052662 0.057631
v 0.283909 0.054953 0.047871
v 0.314738 0.064369 0.057631
v 0.314088 0.066902 0.047871
v 0.346291 0.068355 0.057631
v 0.346291 0.070971 0.047871
v 0.209925 -0.049941 0.040727
v 0.216343 -0.016297 0.040727
v 0.230926 0.014693 0.040727
v 0.252758 0.041083 0.040727
v 0.280467 0.061214 0.040727
v 0.312311 0.073823 0.040727
v 0.346291 0.078115 0.040727
v 0.200185 -0.049328 0.038112
v 0.207061 -0.013282 0.038112
v 0.222686 0.019922 0.038112
v 0.246077 0.048197 0.038112
v 0.275765 0.069767 0.038112
v 0.309884 0.083276 0.038112
v 0.346291 0.087875 0.038112
v 0.190445 -0.048715 0.040727
v 0.197779 -0.010266 0.040727
v 0.214445 0.025152 0.040727
v 0.239396 0.055312 0.040727
v 0.271063 0.078319 0.040727
v 0.307457 0.092729 0.040727
v 0.346291 0.097634 0.040727
v 0.183314 -0.048266 0.047871
v 0.190984 -0.008058 0.047871
v 0.208413 0.028980 0.047871
v 0.234505 0.060520 0.047871
v 0.267621 0.084580 0.047871
v 0.305680 0.099649 0.047871
v 0.346291 0.104779 0.047871
v 0.180704 -0.048102 0.057631
v 0.188497 -0.007250 0.057631
v 0.206205 0.030381 0.057631
v 0.232715 0.062426 0.057631
v 0.266361 0.086872 0.057631
v 0.305030 0.102182 0.057631
v 0.346291 0.107394 0.057631
v 0.183314 -0.048266 0.067391
v 0.190984 -0.008058 0.067391
v 0.208413 0.028980 0.067391
v 0.234505 0.060520 0.067391
v 0.267621 0.084580 0.067391
v 0.305680 0.099649 0.067391
v 0.346291 0.104779 0.067391
v 0.190445 -0.048715 0.074535
v 0.197779 -0.010266 0.074535
v 0.214445 0.025152 0.074535
v 0.239396 0.055312 0.074535
v 0.271063 0.078319 0.074535
v 0.307457 0.092729 0.074535
v 0.346291 0.097634 0.074535
v 0.200185 -0.049328 0.077150
v 0.207061 -0.013282 0.077150
v 0.222686 0.019922 0.077150
v 0.246077 0.048197 0.077150
v 0.275765 0.069767 0.077150
v 0.309884 0.083276 0.077150
v 0.346291 0.087875 0.077150
v 0.209925 -0.049941 0.074535
v 0.216343 -0.016297 0.074535
v 0.230926 0.014693 0.074535
v 0.252758 0.041083 0.074535
v 0.280467 0.061214 0.074535
v 0.312311 0.073823 0.074535
v 0.346291 0.078115 0.074535
v 0.217056 -0.050389 0.067391
v 0.223138 -0.018505 0.067391
v 0.236959 0.010864 0.067391
v 0.257649 0.035875 0.067391
v 0.283909 0.054953 0.067391
v 0.314088 0.066902 0.067391
v 0.346291 0.070971 0.067391
v 0.175949 -0.187792 0.057631
v 0.179871 -0.173152 0.057631
v 0.182487 -0.173152 0.047871
v 0.178213 -0.189100 0.047871
v 0.165232 -0.198509 0.057631
v 0.166540 -0.200774 0.047871
v 0.189631 -0.173152 0.040727
v 0.184401 -0.192672 0.040727
v 0.170112 -0.206961 0.040727
v 0.199391 -0.173152 0.038112
v 0.192853 -0.197552 0.038112
v 0.174992 -0.215413 0.038112
v 0.209150 -0.173152 0.040727
v 0.201305 -0.202431 0.040727
v 0.179871 -0.223865 0.040727
v 0.216295 -0.173152 0.047871
v 0.207493 -0.206004 0.047871
v 0.183444 -0.230052 0.047871
v 0.218910 -0.173152 0.057631
v 0.209757 -0.207311 0.057631
v 0.184751 -0.232317 0.057631
v 0.216295 -0.173152 0.067391
v 0.207493 -0.206004 0.067391
v 0.183444 -0.230052 0.067391
v 0.209150 -0.173152 0.074535
v 0.201305 -0.202431 0.074535
v 0.179871 -0.223865 0.074535
v 0.199391 -0.173152 0.077150
v 0.192853 -0.197552 0.077150
v 0.174992 -0.215413 0.077150
v 0.189631 -0.173152 0.074535
v 0.184401 -0.192672 0.074535
v 0.170112 -0.206961 0.074535
v 0.182487 -0.173152 0.067391
v 0.178213 -0.189100 0.067391
v 0.166540 -0.200774 0.067391
v 0.219288 -0.110627 0.057631
v 0.216675 -0.110627 0.047871
v 0.209538 -0.110627 0.040727
v 0.199788 -0.110627 0.038112
v 0.190038 -0.110627 0.040727
v 0.182900 -0.110627 0.047871
v 0.180288 -0.110627 0.057631
v 0.182900 -0.110627 0.067391
v 0.190038 -0.110627 0.074535
v 0.199788 -0.110627 0.077150
v 0.209538 -0.110627 0.074535
v 0.216675 -0.110627 0.067391
v 0.627600 0.068355 0.057631
v 0.632370 0.073293 0.057631
v 0.632370 0.075247 0.064922
v 0.627600 0.070971 0.067391
v 0.627600 0.070971 0.047871
v 0.632370 0.075247 0.050340
v 0.627600 0.078115 0.040727
v 0.632370 0.080584 0.045003
v 0.627600 0.087875 0.038112
v 0.632370 0.087875 0.043050
v 0.627600 0.097634 0.040727
v 0.632370 0.095165 0.045003
v 0.627600 0.104779 0.047871
v 0.632370 0.100503 0.050340
v 0.627600 0.107394 0.057631
v 0.632370 0.102456 0.057631
v 0.627600 0.104779 0.067391
v 0.632370 0.100503 0.064922
v 0.627600 0.097634 0.074535
v 0.632370 0.095165 0.070259
v 0.627600 0.087875 0.077150
v 0.632370 0.087875 0.072213
v 0.627600 0.078115 0.074535
v 0.632370 0.080584 0.070259
v 0.632370 0.087875 0.057631
v 0.153018 -0.204396 0.047871
v 0.153018 -0.201781 0.057631
v 0.153018 -0.211541 0.040727
v 0.153018 -0.221301 0.038112
v 0.153018 -0.231060 0.040727
v 0.153018 -0.238205 0.047871
v 0.153018 -0.240820 0.057631
v 0.153018 -0.238205 0.067391
v 0.153018 -0.231060 0.074535
v 0.153018 -0.221301 0.077150
v 0.153018 -0.211541 0.074535
v 0.153018 -0.204396 0.067391
v 0.080412 -0.025905 0.057631
v 0.082899 -0.025096 0.047871
v 0.088981 -0.056981 0.047871
v 0.086371 -0.057145 0.057631
v 0.066870 0.002872 0.057631
v 0.069078 0.004273 0.047871
v 0.046598 0.027377 0.057631
v 0.048388 0.029283 0.047871
v 0.020869 0.046071 0.057631
v 0.022128 0.048362 0.047871
v -0.008701 0.057778 0.057631
v -0.008051 0.060311 0.047871
v -0.040254 0.061764 0.057631
v -0.040254 0.064379 0.047871
v 0.089694 -0.022889 0.040727
v 0.096111 -0.056532 0.040727
v 0.075111 0.008101 0.040727
v 0.053279 0.034491 0.040727
v 0.025570 0.054623 0.040727
v -0.006274 0.067231 0.040727
v -0.040254 0.071524 0.040727
v 0.098976 -0.019873 0.038112
v 0.105852 -0.055919 0.038112
v 0.083351 0.013331 0.038112
v 0.059960 0.041606 0.038112
v 0.030272 0.063176 0.038112
v -0.003847 0.076684 0.038112
v -0.040254 0.081284 0.038112
v 0.108258 -0.016857 0.040727
v 0.115592 -0.055306 0.040727
v 0.091592 0.018560 0.040727
v 0.066641 0.048720 0.040727
v 0.034974 0.071728 0.040727
v -0.001420 0.086137 0.040727
v -0.040254 0.091043 0.040727
v 0.115053 -0.014649 0.047871
v 0.122723 -0.054858 0.047871
v 0.097624 0.022389 0.047871
v 0.071532 0.053929 0.047871
v 0.038416 0.077989 0.047871
v 0.000357 0.093057 0.047871
v -0.040254 0.098188 0.047871
v 0.117540 -0.013841 0.057631
v 0.125333 -0.054693 0.057631
v 0.099832 0.023790 0.057631
v 0.073322 0.055835 0.057631
v 0.039676 0.080280 0.057631
v 0.001007 0.095590 0.057631
v -0.040254 0.100803 0.057631
v 0.115053 -0.014649 0.067391
v 0.122723 -0.054858 0.067391
v 0.097624 0.022389 0.067391
v 0.071532 0.053929 0.067391
v 0.038416 0.077989 0.067391
v 0.000357 0.093057 0.067391
v -0.040254 0.098188 0.067391
v 0.108258 -0.016857 0.074535
v 0.115592 -0.055306 0.074535
v 0.091592 0.018560 0.074535
v 0.066641 0.048720 0.074535
v 0.034974 0.071728 0.074535
v -0.001420 0.086137 0.074535
v -0.040254 0.091043 0.074535
v 0.098976 -0.019873 0.077150
v 0.105852 -0.055919 0.077150
v 0.083351 0.013331 0.077150
v 0.059960 0.041606 0.077150
v 0.030272 0.063176 0.077150
v -0.003847 0.076684 0.077150
v -0.040254 0.081284 0.077150
v 0.089694 -0.022889 0.074535
v 0.096111 -0.056532 0.074535
v 0.075111 0.008101 0.074535
v 0.053279 0.034491 0.074535
v 0.025570 0.054623 0.074535
v -0.006274 0.067231 0.074535
v -0.040254 0.071524 0.074535
v 0.082899 -0.025096 0.067391
v 0.088981 -0.056981 0.067391
v 0.069078 0.004273 0.067391
v 0.048388 0.029283 0.067391
v 0.022128 0.048362 0.067391
v -0.008051 0.060311 0.067391
v -0.040254 0.064379 0.067391
v 0.130088 -0.187792 0.057631
v 0.127823 -0.189100 0.047871
v 0.123550 -0.173152 0.047871
v 0.126166 -0.173152 0.057631
v 0.140805 -0.198509 0.057631
v 0.139497 -0.200774 0.047871
v 0.121636 -0.192672 0.040727
v 0.116406 -0.173152 0.040727
v 0.135925 -0.206961 0.040727
v 0.113184 -0.197552 0.038112
v 0.106646 -0.173152 0.038112
v 0.131045 -0.215413 0.038112
v 0.104732 -0.202431 0.040727
v 0.096887 -0.173152 0.040727
v 0.126166 -0.223865 0.040727
v 0.098544 -0.206004 0.047871
v 0.089742 -0.173152 0.047871
v 0.122593 -0.230052 0.047871
v 0.096280 -0.207311 0.057631
v 0.087127 -0.173152 0.057631
v 0.121286 -0.232317 0.057631
v 0.098544 -0.206004 0.067391
v 0.089742 -0.173152 0.067391
v 0.122593 -0.230052 0.067391
v 0.104732 -0.202431 0.074535
v 0.096887 -0.173152 0.074535
v 0.126166 -0.223865 0.074535
v 0.113184 -0.197552 0.077150
v 0.106646 -0.173152 0.077150
v 0.131045 -0.215413 0.077150
v 0.121636 -0.192672 0.074535
v 0.116406 -0.173152 0.074535
v 0.135925 -0.206961 0.074535
v 0.127823 -0.189100 0.067391
v 0.123550 -0.173152 0.067391
v 0.139497 -0.200774 0.067391
v 0.089362 -0.110627 0.047871
v 0.086749 -0.110627 0.057631
v 0.096499 -0.110627 0.040727
v 0.106249 -0.110627 0.038112
v 0.115999 -0.110627 0.040727
v 0.123137 -0.110627 0.047871
v 0.125749 -0.110627 0.057631
v 0.123137 -0.110627 0.067391
v 0.115999 -0.110627 0.074535
v 0.106249 -0.110627 0.077150
v 0.096499 -0.110627 0.074535
v 0.089362 -0.110627 0.067391
v -0.321563 0.061764 0.057631
v -0.321563 0.064379 0.067391
v -0.326333 0.068656 0.064922
v -0.326333 0.066702 0.057631
v -0.326333 0.068656 0.050340
v -0.321563 0.064379 0.047871
v -0.326333 0.073993 0.045003
v -0.321563 0.071524 0.040727
v -0.326333 0.081284 0.043050
v -0.321563 0.081284 0.038112
v -0.326333 0.088574 0.045003
v -0.321563 0.091043 0.040727
v -0.326333 0.093911 0.050340
v -0.321563 0.098188 0.047871
v -0.326333 0.095865 0.057631
v -0.321563 0.100803 0.057631
v -0.326333 0.093911 0.064922
v -0.321563 0.098188 0.067391
v -0.326333 0.088574 0.070259
v -0.321563 0.091043 0.074535
v -0.326333 0.081284 0.072212
v -0.321563 0.081284 0.077150
v -0.326333 0.073993 0.070259
v -0.321563 0.071524 0.074535
v -0.326333 0.081284 0.057631
vn 0.8163 -0.2652 -0.5131
vn 0.9511 -0.3090 -0.0000
vn 0.9975 -0.0701 -0.0000
vn 0.8594 -0.0607 -0.5076
vn 0.7247 -0.4599 -0.5131
vn 0.8443 -0.5358 -0.0000
vn 0.5876 -0.6257 -0.5131
vn 0.6846 -0.7290 -0.0000
vn 0.4135 -0.7522 -0.5130
vn 0.4818 -0.8763 -0.0000
vn 0.2135 -0.8314 -0.5130
vn 0.2487 -0.9686 -0.0000
vn 0.0114 -0.8652 -0.5014
vn 0.0131 -0.9999 -0.0000
vn 0.4540 -0.1475 -0.8787
vn 0.4855 -0.0347 -0.8736
vn 0.4031 -0.2558 -0.8787
vn 0.3268 -0.3480 -0.8787
vn 0.2300 -0.4183 -0.8787
vn 0.1187 -0.4624 -0.8787
vn 0.0066 -0.4975 -0.8674
vn -0.0281 0.0091 -0.9996
vn -0.0174 0.0021 -0.9998
vn -0.0249 0.0158 -0.9996
vn -0.0202 0.0215 -0.9996
vn -0.0142 0.0259 -0.9996
vn -0.0073 0.0286 -0.9996
vn -0.0004 0.0034 -1.0000
vn -0.4962 0.1612 -0.8531
vn -0.5117 0.0399 -0.8582
vn -0.4406 0.2796 -0.8531
vn -0.3572 0.3804 -0.8531
vn -0.2514 0.4572 -0.8531
vn -0.1298 0.5054 -0.8531
vn -0.0079 0.5026 -0.8645
vn -0.8304 0.2698 -0.4874
vn -0.8678 0.0680 -0.4923
vn -0.7373 0.4679 -0.4874
vn -0.5978 0.6365 -0.4873
vn -0.4207 0.7652 -0.4873
vn -0.2172 0.8457 -0.4874
vn -0.0136 0.8668 -0.4984
vn -0.9511 0.3090 -0.0000
vn -0.9969 0.0784 -0.0000
vn -0.8443 0.5358 -0.0000
vn -0.6846 0.7290 -0.0000
vn -0.4818 0.8763 -0.0000
vn -0.2487 0.9686 -0.0000
vn -0.0158 0.9999 -0.0000
vn -0.8305 0.2698 0.4873
vn -0.8678 0.0680 0.4923
vn -0.7373 0.4679 0.4874
vn -0.5978 0.6365 0.4873
vn -0.4207 0.7652 0.4874
vn -0.2172 0.8458 0.4873
vn -0.0136 0.8668 0.4984
vn -0.4962 0.1612 0.8531
vn -0.5117 0.0399 0.8582
vn -0.4406 0.2796 0.8531
vn -0.3572 0.3803 0.8531
vn -0.2514 0.4572 0.8531
vn -0.1298 0.5054 0.8531
vn -0.0079 0.5026 0.8645
vn -0.0281 0.0091 0.9996
vn -0.0176 0.0021 0.9998
vn -0.0250 0.0158 0.9996
vn -0.0202 0.0215 0.9996
vn -0.0142 0.0259 0.9996
vn -0.0073 0.0286 0.9996
vn -0.0004 0.0034 1.0000
vn 0.4540 -0.1475 0.8787
vn 0.4855 -0.0347 0.8736
vn 0.4031 -0.2558 0.8787
vn 0.3268 -0.3480 0.8787
vn 0.2300 -0.4183 0.8787
vn 0.1187 -0.4624 0.8787
vn 0.0066 -0.4975 0.8674
vn 0.8163 -0.2652 0.5131
vn 0.8594 -0.0607 0.5076
vn 0.7247 -0.4599 0.5131
vn 0.5876 -0.6257 0.5130
vn 0.4135 -0.7522 0.5131
vn 0.2135 -0.8314 0.5131
vn 0.0114 -0.8652 0.5013
vn -0.7320 0.4226 -0.5344
vn -0.8660 0.5000 -0.0000
vn -0.9982 0.0597 -0.0000
vn -0.8607 0.0534 -0.5063
vn -0.4378 0.7222 -0.5356
vn -0.5198 0.8543 -0.0000
vn -0.3842 0.2218 -0.8962
vn -0.4867 0.0320 -0.8730
vn -0.2280 0.3788 -0.8970
vn 0.0594 -0.0343 -0.9976
vn 0.0189 -0.0052 -0.9998
vn 0.0355 -0.0602 -0.9976
vn 0.4750 -0.2743 -0.8361
vn 0.5144 -0.0483 -0.8562
vn 0.2799 -0.4725 -0.8357
vn 0.7636 -0.4408 -0.4718
vn 0.8683 -0.0819 -0.4892
vn 0.4488 -0.7591 -0.4714
vn 0.8660 -0.5000 -0.0000
vn 0.9955 -0.0944 -0.0000
vn 0.5087 -0.8609 -0.0000
vn 0.7636 -0.4408 0.4718
vn 0.8683 -0.0819 0.4892
vn 0.4488 -0.7591 0.4714
vn 0.4750 -0.2742 0.8362
vn 0.5144 -0.0483 0.8562
vn 0.2799 -0.4725 0.8357
vn 0.0594 -0.0343 0.9976
vn 0.0190 -0.0052 0.9998
vn 0.0355 -0.0602 0.9976
vn -0.3842 0.2218 0.8962
vn -0.4867 0.0319 0.8730
vn -0.2280 0.3788 0.8970
vn -0.7320 0.4226 0.5344
vn -0.8607 0.0534 0.5063
vn -0.4378 0.7222 0.5356
vn 0.8662 -0.0054 -0.4997
vn 1.0000 -0.0062 -0.0000
vn 0.5003 -0.0031 -0.8658
vn -0.0000 -0.0000 -1.0000
vn -0.5003 0.0033 -0.8659
vn -0.8662 0.0057 -0.4997
vn -1.0000 0.0066 -0.0000
vn -0.8662 0.0057 0.4997
vn -0.5003 0.0033 0.8659
vn -0.0000 -0.0000 1.0000
vn 0.5003 -0.0031 0.8659
vn 0.8662 -0.0054 0.4997
vn 0.7192 -0.6017 0.3474
vn 0.7192 -0.6948 -0.0000
vn 0.7192 -0.6017 -0.3474
vn 0.7192 -0.3474 -0.6017
vn 0.7192 -0.0000 -0.6948
vn 0.7192 0.3474 -0.6017
vn 0.7192 0.6017 -0.3474
vn 0.7192 0.6948 -0.0000
vn 0.7192 0.6017 0.3474
vn 0.7192 0.3474 0.6017
vn 0.7192 -0.0000 0.6948
vn 0.7192 -0.3474 0.6017
vn -0.0000 -1.0000 -0.0000
vn -0.0000 -0.9659 -0.2589
vn -0.0000 -0.7071 -0.7071
vn -0.0000 -0.5000 -0.8660
vn -0.0000 0.5000 -0.8660
vn -0.0000 0.8660 -0.5000
vn -0.0000 0.9659 -0.2588
vn -0.0000 0.9659 0.2588
vn -0.0000 0.8660 0.5000
vn -0.0000 0.5000 0.8660
vn -0.0000 -0.5000 0.8660
vn -0.0000 -0.7071 0.7071
vn -0.0000 -0.9659 0.2589
vn 1.0000 -0.0000 -0.0000
vn -0.0000 0.8435 -0.5372
vn -0.0000 1.0000 -0.0000
vn -0.0000 0.4403 -0.8978
vn -0.0000 -0.0714 -0.9974
vn -0.0000 -0.5499 -0.8352
vn -0.0000 -0.8821 -0.4711
vn -0.0000 -0.8821 0.4711
vn -0.0000 -0.5500 0.8352
vn -0.0000 -0.0714 0.9974
vn -0.0000 0.4402 0.8979
vn -0.0000 0.8434 0.5372
vn -0.9971 -0.0755 -0.0000
vn -0.9511 -0.3090 -0.0000
vn -0.8163 -0.2652 -0.5131
vn -0.8590 -0.0653 -0.5078
vn -0.8443 -0.5358 -0.0000
vn -0.7247 -0.4599 -0.5131
vn -0.6846 -0.7290 -0.0000
vn -0.5876 -0.6257 -0.5131
vn -0.4818 -0.8763 -0.0000
vn -0.4135 -0.7522 -0.5131
vn -0.2487 -0.9686 -0.0000
vn -0.2135 -0.8314 -0.5130
vn -0.0131 -0.9999 -0.0000
vn -0.0114 -0.8652 -0.5013
vn -0.4540 -0.1475 -0.8787
vn -0.4849 -0.0372 -0.8738
vn -0.4031 -0.2558 -0.8787
vn -0.3268 -0.3480 -0.8787
vn -0.2300 -0.4183 -0.8787
vn -0.1187 -0.4624 -0.8787
vn -0.0066 -0.4975 -0.8674
vn 0.0281 0.0091 -0.9996
vn 0.0181 0.0023 -0.9998
vn 0.0249 0.0158 -0.9996
vn 0.0202 0.0215 -0.9996
vn 0.0142 0.0259 -0.9996
vn 0.0073 0.0286 -0.9996
vn 0.0004 0.0034 -1.0000
vn 0.4962 0.1612 -0.8531
vn 0.5119 0.0427 -0.8580
vn 0.4405 0.2796 -0.8531
vn 0.3572 0.3804 -0.8531
vn 0.2514 0.4572 -0.8531
vn 0.1298 0.5054 -0.8531
vn 0.0079 0.5026 -0.8645
vn 0.8304 0.2698 -0.4874
vn 0.8676 0.0727 -0.4920
vn 0.7373 0.4679 -0.4874
vn 0.5978 0.6365 -0.4873
vn 0.4207 0.7652 -0.4873
vn 0.2172 0.8458 -0.4873
vn 0.0136 0.8668 -0.4984
vn 0.9511 0.3090 -0.0000
vn 0.9965 0.0837 -0.0000
vn 0.8443 0.5358 -0.0000
vn 0.6845 0.7290 -0.0000
vn 0.4818 0.8763 -0.0000
vn 0.2487 0.9686 -0.0000
vn 0.0158 0.9999 -0.0000
vn 0.8304 0.2698 0.4874
vn 0.8676 0.0727 0.4920
vn 0.7373 0.4679 0.4873
vn 0.5978 0.6365 0.4873
vn 0.4207 0.7652 0.4873
vn 0.2172 0.8458 0.4873
vn 0.0136 0.8668 0.4984
vn 0.4962 0.1612 0.8531
vn 0.5119 0.0427 0.8580
vn 0.4405 0.2796 0.8531
vn 0.3572 0.3803 0.8531
vn 0.2514 0.4572 0.8531
vn 0.1298 0.5054 0.8531
vn 0.0079 0.5026 0.8645
vn 0.0281 0.0091 0.9996
vn 0.0181 0.0023 0.9998
vn 0.0249 0.0158 0.9996
vn 0.0202 0.0215 0.9996
vn 0.0142 0.0259 0.9996
vn 0.0073 0.0286 0.9996
vn 0.0004 0.0034 1.0000
vn -0.4540 -0.1475 0.8787
vn -0.4849 -0.0372 0.8738
vn -0.4031 -0.2558 0.8787
vn -0.3268 -0.3480 0.8787
vn -0.2300 -0.4183 0.8787
vn -0.1187 -0.4624 0.8787
vn -0.0066 -0.4975 0.8674
vn -0.8163 -0.2652 0.5131
vn -0.8590 -0.0654 0.5078
vn -0.7247 -0.4599 0.5131
vn -0.5876 -0.6257 0.5131
vn -0.4135 -0.7522 0.5131
vn -0.2135 -0.8314 0.5131
vn -0.0114 -0.8652 0.5014
vn 0.9982 0.0597 -0.0000
vn 0.8660 0.5000 -0.0000
vn 0.7320 0.4226 -0.5344
vn 0.8607 0.0534 -0.5063
vn 0.5198 0.8543 -0.0000
vn 0.4378 0.7222 -0.5356
vn 0.3842 0.2218 -0.8962
vn 0.4867 0.0320 -0.8730
vn 0.2280 0.3788 -0.8970
vn -0.0594 -0.0343 -0.9976
vn -0.0189 -0.0052 -0.9998
vn -0.0355 -0.0602 -0.9976
vn -0.4750 -0.2743 -0.8361
vn -0.5144 -0.0483 -0.8562
vn -0.2799 -0.4725 -0.8357
vn -0.7636 -0.4408 -0.4718
vn -0.8683 -0.0819 -0.4892
vn -0.4488 -0.7591 -0.4714
vn -0.8660 -0.5000 -0.0000
vn -0.9955 -0.0944 -0.0000
vn -0.5087 -0.8609 -0.0000
vn -0.7636 -0.4408 0.4718
vn -0.8683 -0.0819 0.4892
vn -0.4488 -0.7591 0.4715
vn -0.4750 -0.2743 0.8361
vn -0.5144 -0.0483 0.8562
vn -0.2799 -0.4725 0.8357
vn -0.0594 -0.0343 0.9976
vn -0.0190 -0.0052 0.9998
vn -0.0355 -0.0602 0.9976
vn 0.3842 0.2218 0.8962
vn 0.4867 0.0319 0.8730
vn 0.2280 0.3788 0.8970
vn 0.7320 0.4226 0.5344
vn 0.8607 0.0534 0.5063
vn 0.4378 0.7222 0.5356
vn -0.8662 -0.0057 -0.4997
vn -1.0000 -0.0066 -0.0000
vn -0.4998 -0.0033 -0.8661
vn 0.0001 -0.0000 -1.0000
vn 0.5003 0.0035 -0.8658
vn 0.8662 0.0061 -0.4997
vn 1.0000 0.0070 -0.0000
vn 0.8662 0.0061 0.4997
vn 0.5003 0.0035 0.8658
vn 0.0001 -0.0000 1.0000
vn -0.5002 -0.0033 0.8659
vn -0.8662 -0.0057 0.4997
vn -0.7192 -0.6948 -0.0000
vn -0.7193 -0.6017 0.3474
vn -0.7193 -0.6016 0.3474
vn -0.7193 -0.6017 -0.3474
vn -0.7192 -0.3473 -0.6017
vn -0.7192 -0.3474 -0.6017
vn -0.7192 -0.0000 -0.6948
vn -0.7192 0.3474 -0.6017
vn -0.7193 0.6016 -0.3474
vn -0.7193 0.6017 -0.3474
vn -0.7192 0.6948 -0.0000
vn -0.7193 0.6017 0.3474
vn -0.7192 0.3474 0.6017
vn -0.7192 -0.0000 0.6948
vn -0.7192 -0.3474 0.6017
vn -0.0000 -0.9659 -0.2588
vn -0.0000 -0.7071 -0.7072
vn -0.0000 -0.7071 0.7072
vn -0.0000 -0.9659 0.2588
vn -1.0000 -0.0000 -0.0000
vt 0.694635 0.929551
vt 0.694635 0.934842
vt 0.675403 0.934842
vt 0.675403 0.929551
vt 0.713859 0.929551
vt 0.713859 0.934842
vt 0.733059 0.929551
vt 0.733059 0.934842
vt 0.752264 0.929551
vt 0.752264 0.934842
vt 0.771400 0.929551
vt 0.771400 0.934842
vt 0.790611 0.929551
vt 0.790611 0.934842
vt 0.694635 0.924234
vt 0.675403 0.924234
vt 0.713859 0.924234
vt 0.733059 0.924234
vt 0.752264 0.924234
vt 0.771400 0.924234
vt 0.790611 0.924234
vt 0.694635 0.918925
vt 0.675403 0.918925
vt 0.713859 0.918925
vt 0.733059 0.918925
vt 0.752264 0.918925
vt 0.771400 0.918925
vt 0.790611 0.918925
vt 0.694635 0.977716
vt 0.694635 0.983010
vt 0.675403 0.983010
vt 0.675403 0.977716
vt 0.713859 0.977716
vt 0.713859 0.983010
vt 0.733059 0.977716
vt 0.733059 0.983010
vt 0.752264 0.977716
vt 0.752264 0.983010
vt 0.771400 0.977716
vt 0.771400 0.983010
vt 0.790611 0.977716
vt 0.790611 0.983010
vt 0.694635 0.972399
vt 0.675403 0.972399
vt 0.713859 0.972399
vt 0.733059 0.972399
vt 0.752264 0.972399
vt 0.771400 0.972399
vt 0.790611 0.972399
vt 0.694635 0.966893
vt 0.675403 0.966893
vt 0.713859 0.966893
vt 0.733059 0.966893
vt 0.752264 0.966893
vt 0.771400 0.966893
vt 0.790611 0.966893
vt 0.694635 0.961370
vt 0.675403 0.961370
vt 0.713859 0.961370
vt 0.733059 0.961370
vt 0.752264 0.961370
vt 0.771400 0.961370
vt 0.790611 0.961370
vt 0.694635 0.955970
vt 0.675403 0.955970
vt 0.713859 0.955970
vt 0.733059 0.955970
vt 0.752264 0.955970
vt 0.771400 0.955970
vt 0.790611 0.955970
vt 0.694635 0.950717
vt 0.675403 0.950717
vt 0.713859 0.950717
vt 0.733059 0.950717
vt 0.752264 0.950717
vt 0.771400 0.950717
vt 0.790611 0.950717
vt 0.694635 0.945511
vt 0.675403 0.945511
vt 0.713859 0.945511
vt 0.733059 0.945511
vt 0.752264 0.945511
vt 0.771400 0.945511
vt 0.790611 0.945511
vt 0.694635 0.940198
vt 0.675403 0.940198
vt 0.713859 0.940198
vt 0.733059 0.940198
vt 0.752264 0.940198
vt 0.771400 0.940198
vt 0.790611 0.940198
vt 0.597448 0.972399
vt 0.597448 0.966893
vt 0.609915 0.966893
vt 0.609915 0.972399
vt 0.585202 0.972399
vt 0.585202 0.966893
vt 0.597448 0.977716
vt 0.609915 0.977716
vt 0.585202 0.977716
vt 0.597448 0.983010
vt 0.609915 0.983010
vt 0.585202 0.983010
vt 0.597448 0.924234
vt 0.597448 0.918925
vt 0.609915 0.918925
vt 0.609915 0.924234
vt 0.585202 0.924234
vt 0.585202 0.918925
vt 0.597448 0.929551
vt 0.609915 0.929551
vt 0.585202 0.929551
vt 0.597448 0.934842
vt 0.609915 0.934842
vt 0.585202 0.934842
vt 0.597448 0.940198
vt 0.609915 0.940198
vt 0.585202 0.940198
vt 0.597448 0.945511
vt 0.609915 0.945511
vt 0.585202 0.945511
vt 0.597448 0.950717
vt 0.609915 0.950717
vt 0.585202 0.950717
vt 0.597448 0.955970
vt 0.609915 0.955970
vt 0.585202 0.955970
vt 0.597448 0.961370
vt 0.609915 0.961370
vt 0.585202 0.961370
vt 0.643025 0.929551
vt 0.643025 0.934842
vt 0.643025 0.924234
vt 0.643025 0.918925
vt 0.643025 0.977716
vt 0.643025 0.983010
vt 0.643025 0.972399
vt 0.643025 0.966893
vt 0.643025 0.961370
vt 0.643025 0.955970
vt 0.643025 0.950717
vt 0.643025 0.945511
vt 0.643025 0.940198
vt 0.592673 0.827607
vt 0.588698 0.834493
vt 0.585247 0.830956
vt 0.587915 0.826270
vt 0.580592 0.833681
vt 0.581813 0.838470
vt 0.575199 0.833713
vt 0.573862 0.838471
vt 0.570513 0.831045
vt 0.566976 0.834496
vt 0.567789 0.826390
vt 0.563000 0.827611
vt 0.567756 0.820998
vt 0.562998 0.819661
vt 0.570425 0.816311
vt 0.566973 0.812774
vt 0.575079 0.813587
vt 0.573858 0.808798
vt 0.580472 0.813554
vt 0.581809 0.808796
vt 0.585158 0.816223
vt 0.588695 0.812771
vt 0.587883 0.820877
vt 0.592672 0.819656
vt 0.939577 0.934842
vt 0.939577 0.929551
vt 0.939577 0.924234
vt 0.939577 0.918925
vt 0.939577 0.983010
vt 0.939577 0.977716
vt 0.939577 0.972399
vt 0.939577 0.966893
vt 0.939577 0.961370
vt 0.939577 0.955970
vt 0.939577 0.950717
vt 0.939577 0.945511
vt 0.939577 0.940198
vt 0.577836 0.823634
vt 0.574327 0.972399
vt 0.574327 0.966893
vt 0.574327 0.977716
vt 0.574327 0.983010
vt 0.574327 0.924234
vt 0.574327 0.918925
vt 0.574327 0.929551
vt 0.574327 0.934842
vt 0.574327 0.940198
vt 0.574327 0.945511
vt 0.574327 0.950717
vt 0.574327 0.955970
vt 0.574327 0.961370
vt 0.277208 0.935279
vt 0.257975 0.935279
vt 0.257975 0.929989
vt 0.277208 0.929989
vt 0.238750 0.935279
vt 0.238750 0.929989
vt 0.219549 0.935279
vt 0.219549 0.929989
vt 0.200344 0.935279
vt 0.200344 0.929989
vt 0.181211 0.935279
vt 0.181211 0.929989
vt 0.161997 0.935279
vt 0.161997 0.929989
vt 0.257975 0.924671
vt 0.277208 0.924671
vt 0.238750 0.924671
vt 0.219549 0.924671
vt 0.200344 0.924671
vt 0.181211 0.924671
vt 0.161997 0.924671
vt 0.257975 0.919362
vt 0.277208 0.919362
vt 0.238750 0.919362
vt 0.219549 0.919362
vt 0.200344 0.919362
vt 0.181211 0.919362
vt 0.161997 0.919362
vt 0.277208 0.983447
vt 0.257975 0.983447
vt 0.257975 0.978153
vt 0.277208 0.978153
vt 0.238750 0.983447
vt 0.238750 0.978153
vt 0.219549 0.983447
vt 0.219549 0.978153
vt 0.200344 0.983447
vt 0.200344 0.978153
vt 0.181211 0.983447
vt 0.181211 0.978153
vt 0.161997 0.983447
vt 0.161997 0.978153
vt 0.257975 0.972836
vt 0.277208 0.972836
vt 0.238750 0.972836
vt 0.219549 0.972836
vt 0.200344 0.972836
vt 0.181211 0.972836
vt 0.161997 0.972836
vt 0.257975 0.967330
vt 0.277208 0.967330
vt 0.238750 0.967330
vt 0.219549 0.967330
vt 0.200344 0.967330
vt 0.181211 0.967330
vt 0.161997 0.967330
vt 0.257975 0.961807
vt 0.277208 0.961807
vt 0.238750 0.961807
vt 0.219549 0.961807
vt 0.200344 0.961807
vt 0.181211 0.961807
vt 0.161997 0.961807
vt 0.257975 0.956407
vt 0.277208 0.956407
vt 0.238750 0.956407
vt 0.219549 0.956407
vt 0.200344 0.956407
vt 0.181211 0.956407
vt 0.161997 0.956407
vt 0.257975 0.951154
vt 0.277208 0.951154
vt 0.238750 0.951154
vt 0.219549 0.951154
vt 0.200344 0.951154
vt 0.181211 0.951154
vt 0.161997 0.951154
vt 0.257975 0.945948
vt 0.277208 0.945948
vt 0.238750 0.945948
vt 0.219549 0.945948
vt 0.200344 0.945948
vt 0.181211 0.945948
vt 0.161997 0.945948
vt 0.257975 0.940635
vt 0.277208 0.940635
vt 0.238750 0.940635
vt 0.219549 0.940635
vt 0.200344 0.940635
vt 0.181211 0.940635
vt 0.161997 0.940635
vt 0.339209 0.967330
vt 0.351680 0.967330
vt 0.351680 0.972836
vt 0.339209 0.972836
vt 0.363923 0.967330
vt 0.363923 0.972836
vt 0.351680 0.978153
vt 0.339209 0.978153
vt 0.363923 0.978153
vt 0.351680 0.983447
vt 0.339209 0.983447
vt 0.363923 0.983447
vt 0.339209 0.919362
vt 0.351680 0.919362
vt 0.351680 0.924671
vt 0.339209 0.924671
vt 0.363923 0.919362
vt 0.363923 0.924671
vt 0.351680 0.929989
vt 0.339209 0.929989
vt 0.363923 0.929989
vt 0.351680 0.935279
vt 0.339209 0.935279
vt 0.363923 0.935279
vt 0.351680 0.940635
vt 0.339209 0.940635
vt 0.363923 0.940635
vt 0.351680 0.945948
vt 0.339209 0.945948
vt 0.363923 0.945948
vt 0.351680 0.951154
vt 0.339209 0.951154
vt 0.363923 0.951154
vt 0.351680 0.956407
vt 0.339209 0.956407
vt 0.363923 0.956407
vt 0.351680 0.961807
vt 0.339209 0.961807
vt 0.363923 0.961807
vt 0.306103 0.929989
vt 0.306103 0.935279
vt 0.306103 0.924671
vt 0.306103 0.919362
vt 0.306103 0.978153
vt 0.306103 0.983447
vt 0.306103 0.972836
vt 0.306103 0.967330
vt 0.306103 0.961807
vt 0.306103 0.956407
vt 0.306103 0.951154
vt 0.306103 0.945948
vt 0.306103 0.940635
vt 0.748377 0.800894
vt 0.753166 0.802114
vt 0.749191 0.809000
vt 0.745653 0.805549
vt 0.748408 0.795501
vt 0.753165 0.794163
vt 0.745738 0.790815
vt 0.749189 0.787277
vt 0.741083 0.788092
vt 0.742303 0.783303
vt 0.735690 0.788061
vt 0.734352 0.783303
vt 0.731005 0.790730
vt 0.727467 0.787279
vt 0.728281 0.795385
vt 0.723492 0.794165
vt 0.728250 0.800778
vt 0.723493 0.802116
vt 0.730920 0.805464
vt 0.727469 0.809001
vt 0.735575 0.808187
vt 0.734355 0.812976
vt 0.740968 0.808218
vt 0.742306 0.812976
vt 0.013031 0.935279
vt 0.013031 0.929989
vt 0.013031 0.924671
vt 0.013031 0.919362
vt 0.013031 0.983447
vt 0.013031 0.978153
vt 0.013031 0.972836
vt 0.013031 0.967330
vt 0.013031 0.961807
vt 0.013031 0.956407
vt 0.013031 0.951154
vt 0.013031 0.945948
vt 0.013031 0.940635
vt 0.738329 0.798139
vt 0.374802 0.967330
vt 0.374802 0.972836
vt 0.374802 0.978153
vt 0.374802 0.983447
vt 0.374802 0.919362
vt 0.374802 0.924671
vt 0.374802 0.929989
vt 0.374802 0.935279
vt 0.374802 0.940635
vt 0.374802 0.945948
vt 0.374802 0.951154
vt 0.374802 0.956407
vt 0.374802 0.961807
s 1
usemtl blinn1SG.001
f 4/1/1 1/2/2 2/3/3
f 2/3/3 3/4/4 4/1/1
f 6/5/5 5/6/6 1/2/2
f 1/2/2 4/1/1 6/5/5
f 8/7/7 7/8/8 5/6/6
f 5/6/6 6/5/5 8/7/7
f 10/9/9 9/10/10 7/8/8
f 7/8/8 8/7/7 10/9/9
f 12/11/11 11/12/12 9/10/10
f 9/10/10 10/9/9 12/11/11
f 14/13/13 13/14/14 11/12/12
f 11/12/12 12/11/11 14/13/13
f 16/15/15 4/1/1 3/4/4
f 3/4/4 15/16/16 16/15/15
f 17/17/17 6/5/5 4/1/1
f 4/1/1 16/15/15 17/17/17
f 18/18/18 8/7/7 6/5/5
f 6/5/5 17/17/17 18/18/18
f 19/19/19 10/9/9 8/7/7
f 8/7/7 18/18/18 19/19/19
f 20/20/20 12/11/11 10/9/9
f 10/9/9 19/19/19 20/20/20
f 21/21/21 14/13/13 12/11/11
f 12/11/11 20/20/20 21/21/21
f 23/22/22 16/15/15 15/16/16
f 15/16/16 22/23/23 23/22/22
f 24/24/24 17/17/17 16/15/15
f 16/15/15 23/22/22 24/24/24
f 25/25/25 18/18/18 17/17/17
f 17/17/17 24/24/24 25/25/25
f 26/26/26 19/19/19 18/18/18
f 18/18/18 25/25/25 26/26/26
f 27/27/27 20/20/20 19/19/19
f 19/19/19 26/26/26 27/27/27
f 28/28/28 21/21/21 20/20/20
f 20/20/20 27/27/27 28/28/28
f 30/29/29 23/30/22 22/31/23
f 22/31/23 29/32/30 30/29/29
f 31/33/31 24/34/24 23/30/22
f 23/30/22 30/29/29 31/33/31
f 32/35/32 25/36/25 24/34/24
f 24/34/24 31/33/31 32/35/32
f 33/37/33 26/38/26 25/36/25
f 25/36/25 32/35/32 33/37/33
f 34/39/34 27/40/27 26/38/26
f 26/38/26 33/37/33 34/39/34
f 35/41/35 28/42/28 27/40/27
f 27/40/27 34/39/34 35/41/35
f 37/43/36 30/29/29 29/32/30
f 29/32/30 36/44/37 37/43/36
f 38/45/38 31/33/31 30/29/29
f 30/29/29 37/43/36 38/45/38
f 39/46/39 32/35/32 31/33/31
f 31/33/31 38/45/38 39/46/39
f 40/47/40 33/37/33 32/35/32
f 32/35/32 39/46/39 40/47/40
f 41/48/41 34/39/34 33/37/33
f 33/37/33 40/47/40 41/48/41
f 42/49/42 35/41/35 34/39/34
f 34/39/34 41/48/41 42/49/42
f 44/50/43 37/43/36 36/44/37
f 36/44/37 43/51/44 44/50/43
f 45/52/45 38/45/38 37/43/36
f 37/43/36 44/50/43 45/52/45
f 46/53/46 39/46/39 38/45/38
f 38/45/38 45/52/45 46/53/46
f 47/54/47 40/47/40 39/46/39
f 39/46/39 46/53/46 47/54/47
f 48/55/48 41/48/41 40/47/40
f 40/47/40 47/54/47 48/55/48
f 49/56/49 42/49/42 41/48/41
f 41/48/41 48/55/48 49/56/49
f 51/57/50 44/50/43 43/51/44
f 43/51/44 50/58/51 51/57/50
f 52/59/52 45/52/45 44/50/43
f 44/50/43 51/57/50 52/59/52
f 53/60/53 46/53/46 45/52/45
f 45/52/45 52/59/52 53/60/53
f 54/61/54 47/54/47 46/53/46
f 46/53/46 53/60/53 54/61/54
f 55/62/55 48/55/48 47/54/47
f 47/54/47 54/61/54 55/62/55
f 56/63/56 49/56/49 48/55/48
f 48/55/48 55/62/55 56/63/56
f 58/64/57 51/57/50 50/58/51
f 50/58/51 57/65/58 58/64/57
f 59/66/59 52/59/52 51/57/50
f 51/57/50 58/64/57 59/66/59
f 60/67/60 53/60/53 52/59/52
f 52/59/52 59/66/59 60/67/60
f 61/68/61 54/61/54 53/60/53
f 53/60/53 60/67/60 61/68/61
f 62/69/62 55/62/55 54/61/54
f 54/61/54 61/68/61 62/69/62
f 63/70/63 56/63/56 55/62/55
f 55/62/55 62/69/62 63/70/63
f 65/71/64 58/64/57 57/65/58
f 57/65/58 64/72/65 65/71/64
f 66/73/66 59/66/59 58/64/57
f 58/64/57 65/71/64 66/73/66
f 67/74/67 60/67/60 59/66/59
f 59/66/59 66/73/66 67/74/67
f 68/75/68 61/68/61 60/67/60
f 60/67/60 67/74/67 68/75/68
f 69/76/69 62/69/62 61/68/61
f 61/68/61 68/75/68 69/76/69
f 70/77/70 63/70/63 62/69/62
f 62/69/62 69/76/69 70/77/70
f 72/78/71 65/71/64 64/72/65
f 64/72/65 71/79/72 72/78/71
f 73/80/73 66/73/66 65/71/64
f 65/71/64 72/78/71 73/80/73
f 74/81/74 67/74/67 66/73/66
f 66/73/66 73/80/73 74/81/74
f 75/82/75 68/75/68 67/74/67
f 67/74/67 74/81/74 75/82/75
f 76/83/76 69/76/69 68/75/68
f 68/75/68 75/82/75 76/83/76
f 77/84/77 70/77/70 69/76/69
f 69/76/69 76/83/76 77/84/77
f 79/85/78 72/78/71 71/79/72
f 71/79/72 78/86/79 79/85/78
f 80/87/80 73/80/73 72/78/71
f 72/78/71 79/85/78 80/87/80
f 81/88/81 74/81/74 73/80/73
f 73/80/73 80/87/80 81/88/81
f 82/89/82 75/82/75 74/81/74
f 74/81/74 81/88/81 82/89/82
f 83/90/83 76/83/76 75/82/75
f 75/82/75 82/89/82 83/90/83
f 84/91/84 77/84/77 76/83/76
f 76/83/76 83/90/83 84/91/84
f 1/2/2 79/85/78 78/86/79
f 78/86/79 2/3/3 1/2/2
f 5/6/6 80/87/80 79/85/78
f 79/85/78 1/2/2 5/6/6
f 7/8/8 81/88/81 80/87/80
f 80/87/80 5/6/6 7/8/8
f 9/10/10 82/89/82 81/88/81
f 81/88/81 7/8/8 9/10/10
f 11/12/12 83/90/83 82/89/82
f 82/89/82 9/10/10 11/12/12
f 13/14/14 84/91/84 83/90/83
f 83/90/83 11/12/12 13/14/14
f 88/92/85 85/93/86 86/94/87
f 86/94/87 87/95/88 88/92/85
f 90/96/89 89/97/90 85/93/86
f 85/93/86 88/92/85 90/96/89
f 92/98/91 88/92/85 87/95/88
f 87/95/88 91/99/92 92/98/91
f 93/100/93 90/96/89 88/92/85
f 88/92/85 92/98/91 93/100/93
f 95/101/94 92/98/91 91/99/92
f 91/99/92 94/102/95 95/101/94
f 96/103/96 93/100/93 92/98/91
f 92/98/91 95/101/94 96/103/96
f 98/104/97 95/105/94 94/106/95
f 94/106/95 97/107/98 98/104/97
f 99/108/99 96/109/96 95/105/94
f 95/105/94 98/104/97 99/108/99
f 101/110/100 98/104/97 97/107/98
f 97/107/98 100/111/101 101/110/100
f 102/112/102 99/108/99 98/104/97
f 98/104/97 101/110/100 102/112/102
f 104/113/103 101/110/100 100/111/101
f 100/111/101 103/114/104 104/113/103
f 105/115/105 102/112/102 101/110/100
f 101/110/100 104/113/103 105/115/105
f 107/116/106 104/113/103 103/114/104
f 103/114/104 106/117/107 107/116/106
f 108/118/108 105/115/105 104/113/103
f 104/113/103 107/116/106 108/118/108
f 110/119/109 107/116/106 106/117/107
f 106/117/107 109/120/110 110/119/109
f 111/121/111 108/118/108 107/116/106
f 107/116/106 110/119/109 111/121/111
f 113/122/112 110/119/109 109/120/110
f 109/120/110 112/123/113 113/122/112
f 114/124/114 111/121/111 110/119/109
f 110/119/109 113/122/112 114/124/114
f 116/125/115 113/122/112 112/123/113
f 112/123/113 115/126/116 116/125/115
f 117/127/117 114/124/114 113/122/112
f 113/122/112 116/125/115 117/127/117
f 119/128/118 116/125/115 115/126/116
f 115/126/116 118/129/119 119/128/118
f 120/130/120 117/127/117 116/125/115
f 116/125/115 119/128/118 120/130/120
f 85/93/86 119/128/118 118/129/119
f 118/129/119 86/94/87 85/93/86
f 89/97/90 120/130/120 119/128/118
f 119/128/118 85/93/86 89/97/90
f 122/131/121 3/4/4 2/3/3
f 2/3/3 121/132/122 122/131/121
f 123/133/123 15/16/16 3/4/4
f 3/4/4 122/131/121 123/133/123
f 124/134/124 22/23/23 15/16/16
f 15/16/16 123/133/123 124/134/124
f 125/135/125 29/32/30 22/31/23
f 22/31/23 124/136/124 125/135/125
f 126/137/126 36/44/37 29/32/30
f 29/32/30 125/135/125 126/137/126
f 127/138/127 43/51/44 36/44/37
f 36/44/37 126/137/126 127/138/127
f 128/139/128 50/58/51 43/51/44
f 43/51/44 127/138/127 128/139/128
f 129/140/129 57/65/58 50/58/51
f 50/58/51 128/139/128 129/140/129
f 130/141/130 64/72/65 57/65/58
f 57/65/58 129/140/129 130/141/130
f 131/142/131 71/79/72 64/72/65
f 64/72/65 130/141/130 131/142/131
f 132/143/132 78/86/79 71/79/72
f 71/79/72 131/142/131 132/143/132
f 121/132/122 2/3/3 78/86/79
f 78/86/79 132/143/132 121/132/122
f 126/137/126 87/95/88 86/94/87
f 86/94/87 127/138/127 126/137/126
f 125/135/125 91/99/92 87/95/88
f 87/95/88 126/137/126 125/135/125
f 124/136/124 94/102/95 91/99/92
f 91/99/92 125/135/125 124/136/124
f 123/133/123 97/107/98 94/106/95
f 94/106/95 124/134/124 123/133/123
f 122/131/121 100/111/101 97/107/98
f 97/107/98 123/133/123 122/131/121
f 121/132/122 103/114/104 100/111/101
f 100/111/101 122/131/121 121/132/122
f 132/143/132 106/117/107 103/114/104
f 103/114/104 121/132/122 132/143/132
f 131/142/131 109/120/110 106/117/107
f 106/117/107 132/143/132 131/142/131
f 130/141/130 112/123/113 109/120/110
f 109/120/110 131/142/131 130/141/130
f 129/140/129 115/126/116 112/123/113
f 112/123/113 130/141/130 129/140/129
f 128/139/128 118/129/119 115/126/116
f 115/126/116 129/140/129 128/139/128
f 127/138/127 86/94/87 118/129/119
f 118/129/119 128/139/128 127/138/127
f 136/144/133 133/145/134 134/146/134
f 134/146/134 135/147/133 136/144/133
f 138/148/135 134/146/134 133/145/134
f 133/145/134 137/149/135 138/148/135
f 140/150/136 138/148/135 137/149/135
f 137/149/135 139/151/136 140/150/136
f 142/152/137 140/150/136 139/151/136
f 139/151/136 141/153/137 142/152/137
f 144/154/138 142/152/137 141/153/137
f 141/153/137 143/155/138 144/154/138
f 146/156/139 144/154/138 143/155/138
f 143/155/138 145/157/139 146/156/139
f 148/158/140 146/156/139 145/157/139
f 145/157/139 147/159/140 148/158/140
f 150/160/141 148/158/140 147/159/140
f 147/159/140 149/161/141 150/160/141
f 152/162/142 150/160/141 149/161/141
f 149/161/141 151/163/142 152/162/142
f 154/164/143 152/162/142 151/163/142
f 151/163/142 153/165/143 154/164/143
f 156/166/144 154/164/143 153/165/143
f 153/165/143 155/167/144 156/166/144
f 135/147/133 156/166/144 155/167/144
f 155/167/144 136/144/133 135/147/133
f 133/168/145 13/14/14 14/13/13
f 14/13/13 137/169/146 133/168/145
f 137/169/147 14/13/13 21/21/21
f 21/21/21 139/170/148 137/169/147
f 139/170/148 21/21/21 28/28/28
f 28/28/28 141/171/124 139/170/148
f 141/172/124 28/42/28 35/41/35
f 35/41/35 143/173/149 141/172/124
f 143/173/149 35/41/35 42/49/42
f 42/49/42 145/174/150 143/173/149
f 145/174/150 42/49/42 49/56/49
f 49/56/49 147/175/151 145/174/150
f 147/175/152 49/56/49 56/63/56
f 56/63/56 149/176/153 147/175/152
f 149/176/153 56/63/56 63/70/63
f 63/70/63 151/177/154 149/176/153
f 151/177/154 63/70/63 70/77/70
f 70/77/70 153/178/130 151/177/154
f 153/178/130 70/77/70 77/84/77
f 77/84/77 155/179/155 153/178/130
f 155/179/155 77/84/77 84/91/84
f 84/91/84 136/180/156 155/179/155
f 136/180/157 84/91/84 13/14/14
f 13/14/14 133/168/145 136/180/157
f 134/146/158 138/148/158 157/181/158
f 138/148/158 140/150/158 157/181/158
f 140/150/158 142/152/158 157/181/158
f 142/152/158 144/154/158 157/181/158
f 144/154/158 146/156/158 157/181/158
f 146/156/158 148/158/158 157/181/158
f 148/158/158 150/160/158 157/181/158
f 150/160/158 152/162/158 157/181/158
f 152/162/158 154/164/158 157/181/158
f 154/164/158 156/166/158 157/181/158
f 156/166/158 135/147/158 157/181/158
f 135/147/158 134/146/158 157/181/158
f 90/96/89 158/182/159 159/183/160
f 159/183/160 89/97/90 90/96/89
f 93/100/93 160/184/161 158/182/159
f 158/182/159 90/96/89 93/100/93
f 96/103/96 161/185/162 160/184/161
f 160/184/161 93/100/93 96/103/96
f 99/108/99 162/186/163 161/187/162
f 161/187/162 96/109/96 99/108/99
f 102/112/102 163/188/164 162/186/163
f 162/186/163 99/108/99 102/112/102
f 105/115/105 164/189/145 163/188/164
f 163/188/164 102/112/102 105/115/105
f 108/118/108 165/190/165 164/189/145
f 164/189/145 105/115/105 108/118/108
f 111/121/111 166/191/166 165/190/165
f 165/190/165 108/118/108 111/121/111
f 114/124/114 167/192/167 166/191/166
f 166/191/166 111/121/111 114/124/114
f 117/127/117 168/193/168 167/192/167
f 167/192/167 114/124/114 117/127/117
f 120/130/120 169/194/169 168/193/168
f 168/193/168 117/127/117 120/130/120
f 89/97/90 159/183/160 169/194/169
f 169/194/169 120/130/120 89/97/90
f 173/195/170 170/196/171 171/197/172
f 171/197/172 172/198/173 173/195/170
f 170/196/171 174/199/174 175/200/175
f 175/200/175 171/197/172 170/196/171
f 174/199/174 176/201/176 177/202/177
f 177/202/177 175/200/175 174/199/174
f 176/201/176 178/203/178 179/204/179
f 179/204/179 177/202/177 176/201/176
f 178/203/178 180/205/180 181/206/181
f 181/206/181 179/204/179 178/203/178
f 180/205/180 182/207/182 183/208/183
f 183/208/183 181/206/181 180/205/180
f 172/198/173 171/197/172 184/209/184
f 184/209/184 185/210/185 172/198/173
f 171/197/172 175/200/175 186/211/186
f 186/211/186 184/209/184 171/197/172
f 175/200/175 177/202/177 187/212/187
f 187/212/187 186/211/186 175/200/175
f 177/202/177 179/204/179 188/213/188
f 188/213/188 187/212/187 177/202/177
f 179/204/179 181/206/181 189/214/189
f 189/214/189 188/213/188 179/204/179
f 181/206/181 183/208/183 190/215/190
f 190/215/190 189/214/189 181/206/181
f 185/210/185 184/209/184 191/216/191
f 191/216/191 192/217/192 185/210/185
f 184/209/184 186/211/186 193/218/193
f 193/218/193 191/216/191 184/209/184
f 186/211/186 187/212/187 194/219/194
f 194/219/194 193/218/193 186/211/186
f 187/212/187 188/213/188 195/220/195
f 195/220/195 194/219/194 187/212/187
f 188/213/188 189/214/189 196/221/196
f 196/221/196 195/220/195 188/213/188
f 189/214/189 190/215/190 197/222/197
f 197/222/197 196/221/196 189/214/189
f 192/223/192 191/224/191 198/225/198
f 198/225/198 199/226/199 192/223/192
f 191/224/191 193/227/193 200/228/200
f 200/228/200 198/225/198 191/224/191
f 193/227/193 194/229/194 201/230/201
f 201/230/201 200/228/200 193/227/193
f 194/229/194 195/231/195 202/232/202
f 202/232/202 201/230/201 194/229/194
f 195/231/195 196/233/196 203/234/203
f 203/234/203 202/232/202 195/231/195
f 196/233/196 197/235/197 204/236/204
f 204/236/204 203/234/203 196/233/196
f 199/226/199 198/225/198 205/237/205
f 205/237/205 206/238/206 199/226/199
f 198/225/198 200/228/200 207/239/207
f 207/239/207 205/237/205 198/225/198
f 200/228/200 201/230/201 208/240/208
f 208/240/208 207/239/207 200/228/200
f 201/230/201 202/232/202 209/241/209
f 209/241/209 208/240/208 201/230/201
f 202/232/202 203/234/203 210/242/210
f 210/242/210 209/241/209 202/232/202
f 203/234/203 204/236/204 211/243/211
f 211/243/211 210/242/210 203/234/203
f 206/238/206 205/237/205 212/244/212
f 212/244/212 213/245/213 206/238/206
f 205/237/205 207/239/207 214/246/214
f 214/246/214 212/244/212 205/237/205
f 207/239/207 208/240/208 215/247/215
f 215/247/215 214/246/214 207/239/207
f 208/240/208 209/241/209 216/248/216
f 216/248/216 215/247/215 208/240/208
f 209/241/209 210/242/210 217/249/217
f 217/249/217 216/248/216 209/241/209
f 210/242/210 211/243/211 218/250/218
f 218/250/218 217/249/217 210/242/210
f 213/245/213 212/244/212 219/251/219
f 219/251/219 220/252/220 213/245/213
f 212/244/212 214/246/214 221/253/221
f 221/253/221 219/251/219 212/244/212
f 214/246/214 215/247/215 222/254/222
f 222/254/222 221/253/221 214/246/214
f 215/247/215 216/248/216 223/255/223
f 223/255/223 222/254/222 215/247/215
f 216/248/216 217/249/217 224/256/224
f 224/256/224 223/255/223 216/248/216
f 217/249/217 218/250/218 225/257/225
f 225/257/225 224/256/224 217/249/217
f 220/252/220 219/251/219 226/258/226
f 226/258/226 227/259/227 220/252/220
f 219/251/219 221/253/221 228/260/228
f 228/260/228 226/258/226 219/251/219
f 221/253/221 222/254/222 229/261/229
f 229/261/229 228/260/228 221/253/221
f 222/254/222 223/255/223 230/262/230
f 230/262/230 229/261/229 222/254/222
f 223/255/223 224/256/224 231/263/231
f 231/263/231 230/262/230 223/255/223
f 224/256/224 225/257/225 232/264/232
f 232/264/232 231/263/231 224/256/224
f 227/259/227 226/258/226 233/265/233
f 233/265/233 234/266/234 227/259/227
f 226/258/226 228/260/228 235/267/235
f 235/267/235 233/265/233 226/258/226
f 228/260/228 229/261/229 236/268/236
f 236/268/236 235/267/235 228/260/228
f 229/261/229 230/262/230 237/269/237
f 237/269/237 236/268/236 229/261/229
f 230/262/230 231/263/231 238/270/238
f 238/270/238 237/269/237 230/262/230
f 231/263/231 232/264/232 239/271/239
f 239/271/239 238/270/238 231/263/231
f 234/266/234 233/265/233 240/272/240
f 240/272/240 241/273/241 234/266/234
f 233/265/233 235/267/235 242/274/242
f 242/274/242 240/272/240 233/265/233
f 235/267/235 236/268/236 243/275/243
f 243/275/243 242/274/242 235/267/235
f 236/268/236 237/269/237 244/276/244
f 244/276/244 243/275/243 236/268/236
f 237/269/237 238/270/238 245/277/245
f 245/277/245 244/276/244 237/269/237
f 238/270/238 239/271/239 246/278/246
f 246/278/246 245/277/245 238/270/238
f 241/273/241 240/272/240 247/279/247
f 247/279/247 248/280/248 241/273/241
f 240/272/240 242/274/242 249/281/249
f 249/281/249 247/279/247 240/272/240
f 242/274/242 243/275/243 250/282/250
f 250/282/250 249/281/249 242/274/242
f 243/275/243 244/276/244 251/283/251
f 251/283/251 250/282/250 243/275/243
f 244/276/244 245/277/245 252/284/252
f 252/284/252 251/283/251 244/276/244
f 245/277/245 246/278/246 253/285/253
f 253/285/253 252/284/252 245/277/245
f 248/280/248 247/279/247 170/196/171
f 170/196/171 173/195/170 248/280/248
f 247/279/247 249/281/249 174/199/174
f 174/199/174 170/196/171 247/279/247
f 249/281/249 250/282/250 176/201/176
f 176/201/176 174/199/174 249/281/249
f 250/282/250 251/283/251 178/203/178
f 178/203/178 176/201/176 250/282/250
f 251/283/251 252/284/252 180/205/180
f 180/205/180 178/203/178 251/283/251
f 252/284/252 253/285/253 182/207/182
f 182/207/182 180/205/180 252/284/252
f 257/286/254 254/287/255 255/288/256
f 255/288/256 256/289/257 257/286/254
f 254/287/255 258/290/258 259/291/259
f 259/291/259 255/288/256 254/287/255
f 256/289/257 255/288/256 260/292/260
f 260/292/260 261/293/261 256/289/257
f 255/288/256 259/291/259 262/294/262
f 262/294/262 260/292/260 255/288/256
f 261/293/261 260/292/260 263/295/263
f 263/295/263 264/296/264 261/293/261
f 260/292/260 262/294/262 265/297/265
f 265/297/265 263/295/263 260/292/260
f 264/298/264 263/299/263 266/300/266
f 266/300/266 267/301/267 264/298/264
f 263/299/263 265/302/265 268/303/268
f 268/303/268 266/300/266 263/299/263
f 267/301/267 266/300/266 269/304/269
f 269/304/269 270/305/270 267/301/267
f 266/300/266 268/303/268 271/306/271
f 271/306/271 269/304/269 266/300/266
f 270/305/270 269/304/269 272/307/272
f 272/307/272 273/308/273 270/305/270
f 269/304/269 271/306/271 274/309/274
f 274/309/274 272/307/272 269/304/269
f 273/308/273 272/307/272 275/310/275
f 275/310/275 276/311/276 273/308/273
f 272/307/272 274/309/274 277/312/277
f 277/312/277 275/310/275 272/307/272
f 276/311/276 275/310/275 278/313/278
f 278/313/278 279/314/279 276/311/276
f 275/310/275 277/312/277 280/315/280
f 280/315/280 278/313/278 275/310/275
f 279/314/279 278/313/278 281/316/281
f 281/316/281 282/317/282 279/314/279
f 278/313/278 280/315/280 283/318/283
f 283/318/283 281/316/281 278/313/278
f 282/317/282 281/316/281 284/319/284
f 284/319/284 285/320/285 282/317/282
f 281/316/281 283/318/283 286/321/286
f 286/321/286 284/319/284 281/316/281
f 285/320/285 284/319/284 287/322/287
f 287/322/287 288/323/288 285/320/285
f 284/319/284 286/321/286 289/324/289
f 289/324/289 287/322/287 284/319/284
f 288/323/288 287/322/287 254/287/255
f 254/287/255 257/286/254 288/323/288
f 287/322/287 289/324/289 258/290/258
f 258/290/258 254/287/255 287/322/287
f 173/195/170 172/198/173 290/325/290
f 290/325/290 291/326/291 173/195/170
f 172/198/173 185/210/185 292/327/292
f 292/327/292 290/325/290 172/198/173
f 185/210/185 192/217/192 293/328/293
f 293/328/293 292/327/292 185/210/185
f 192/223/192 199/226/199 294/329/294
f 294/329/294 293/330/293 192/223/192
f 199/226/199 206/238/206 295/331/295
f 295/331/295 294/329/294 199/226/199
f 206/238/206 213/245/213 296/332/296
f 296/332/296 295/331/295 206/238/206
f 213/245/213 220/252/220 297/333/297
f 297/333/297 296/332/296 213/245/213
f 220/252/220 227/259/227 298/334/298
f 298/334/298 297/333/297 220/252/220
f 227/259/227 234/266/234 299/335/299
f 299/335/299 298/334/298 227/259/227
f 234/266/234 241/273/241 300/336/300
f 300/336/300 299/335/299 234/266/234
f 241/273/241 248/280/248 301/337/301
f 301/337/301 300/336/300 241/273/241
f 248/280/248 173/195/170 291/326/291
f 291/326/291 301/337/301 248/280/248
f 257/286/254 256/289/257 295/331/295
f 295/331/295 296/332/296 257/286/254
f 256/289/257 261/293/261 294/329/294
f 294/329/294 295/331/295 256/289/257
f 261/293/261 264/296/264 293/330/293
f 293/330/293 294/329/294 261/293/261
f 264/298/264 267/301/267 292/327/292
f 292/327/292 293/328/293 264/298/264
f 267/301/267 270/305/270 290/325/290
f 290/325/290 292/327/292 267/301/267
f 270/305/270 273/308/273 291/326/291
f 291/326/291 290/325/290 270/305/270
f 273/308/273 276/311/276 301/337/301
f 301/337/301 291/326/291 273/308/273
f 276/311/276 279/314/279 300/336/300
f 300/336/300 301/337/301 276/311/276
f 279/314/279 282/317/282 299/335/299
f 299/335/299 300/336/300 279/314/279
f 282/317/282 285/320/285 298/334/298
f 298/334/298 299/335/299 282/317/282
f 285/320/285 288/323/288 297/333/297
f 297/333/297 298/334/298 285/320/285
f 288/323/288 257/286/254 296/332/296
f 296/332/296 297/333/297 288/323/288
f 305/338/302 302/339/302 303/340/303
f 303/340/303 304/341/304 305/338/302
f 302/339/302 305/338/302 306/342/305
f 306/342/305 307/343/305 302/339/302
f 307/343/305 306/342/305 308/344/306
f 308/344/306 309/345/307 307/343/305
f 309/345/307 308/344/306 310/346/308
f 310/346/308 311/347/308 309/345/307
f 311/347/308 310/346/308 312/348/309
f 312/348/309 313/349/309 311/347/308
f 313/349/309 312/348/309 314/350/310
f 314/350/310 315/351/311 313/349/309
f 315/351/311 314/350/310 316/352/312
f 316/352/312 317/353/312 315/351/311
f 317/353/312 316/352/312 318/354/313
f 318/354/313 319/355/313 317/353/312
f 319/355/313 318/354/313 320/356/314
f 320/356/314 321/357/314 319/355/313
f 321/357/314 320/356/314 322/358/315
f 322/358/315 323/359/315 321/357/314
f 323/359/315 322/358/315 324/360/316
f 324/360/316 325/361/316 323/359/315
f 325/361/316 324/360/316 304/341/304
f 304/341/304 303/340/303 325/361/316
f 183/208/183 182/207/182 302/362/145
f 302/362/145 307/363/317 183/208/183
f 190/215/190 183/208/183 307/363/318
f 307/363/318 309/364/148 190/215/190
f 197/222/197 190/215/190 309/364/148
f 309/364/148 311/365/124 197/222/197
f 204/236/204 197/235/197 311/366/124
f 311/366/124 313/367/149 204/236/204
f 211/243/211 204/236/204 313/367/149
f 313/367/149 315/368/150 211/243/211
f 218/250/218 211/243/211 315/368/150
f 315/368/150 317/369/151 218/250/218
f 225/257/225 218/250/218 317/369/152
f 317/369/152 319/370/153 225/257/225
f 232/264/232 225/257/225 319/370/153
f 319/370/153 321/371/154 232/264/232
f 239/271/239 232/264/232 321/371/154
f 321/371/154 323/372/130 239/271/239
f 246/278/246 239/271/239 323/372/130
f 323/372/130 325/373/155 246/278/246
f 253/285/253 246/278/246 325/373/155
f 325/373/155 303/374/319 253/285/253
f 182/207/182 253/285/253 303/374/320
f 303/374/320 302/362/145 182/207/182
f 305/338/321 326/375/321 306/342/321
f 306/342/321 326/375/321 308/344/321
f 308/344/321 326/375/321 310/346/321
f 310/346/321 326/375/321 312/348/321
f 312/348/321 326/375/321 314/350/321
f 314/350/321 326/375/321 316/352/321
f 316/352/321 326/375/321 318/354/321
f 318/354/321 326/375/321 320/356/321
f 320/356/321 326/375/321 322/358/321
f 322/358/321 326/375/321 324/360/321
f 324/360/321 326/375/321 304/341/321
f 304/341/321 326/375/321 305/338/321
f 159/376/160 158/377/159 259/291/259
f 259/291/259 258/290/258 159/376/160
f 158/377/159 160/378/161 262/294/262
f 262/294/262 259/291/259 158/377/159
f 160/378/161 161/379/162 265/297/265
f 265/297/265 262/294/262 160/378/161
f 161/380/162 162/381/163 268/303/268
f 268/303/268 265/302/265 161/380/162
f 162/381/163 163/382/164 271/306/271
f 271/306/271 268/303/268 162/381/163
f 163/382/164 164/383/145 274/309/274
f 274/309/274 271/306/271 163/382/164
f 164/383/145 165/384/165 277/312/277
f 277/312/277 274/309/274 164/383/145
f 165/384/165 166/385/166 280/315/280
f 280/315/280 277/312/277 165/384/165
f 166/385/166 167/386/167 283/318/283
f 283/318/283 280/315/280 166/385/166
f 167/386/167 168/387/168 286/321/286
f 286/321/286 283/318/283 167/386/167
f 168/387/168 169/388/169 289/324/289
f 289/324/289 286/321/286 168/387/168
f 169/388/169 159/376/160 258/290/258
f 258/290/258 289/324/289 169/388/169
