# Blender 4.4.3
# www.blender.org
mtllib LockFrame.mtl
o Lock.001
v 0.174043 -0.168189 0.000000
v 0.174043 -0.168189 0.008177
v 0.174043 -0.039081 0.000000
v 0.156763 -0.168189 0.000000
v 0.160516 -0.168189 0.008405
v 0.156763 -0.164436 0.012158
v 0.156763 -0.164436 0.056960
v 0.160516 -0.168189 0.057707
v 0.170300 -0.168189 0.012158
v 0.005331 -0.168189 0.008405
v -0.160516 -0.168189 0.008405
v 0.005331 -0.164436 0.012158
v 0.005331 -0.168189 0.000000
v -0.156763 -0.168189 0.000000
v -0.174043 -0.168189 0.000000
v -0.174043 -0.039081 0.008177
v -0.174043 -0.043062 0.012158
v -0.174043 -0.168189 0.008177
v -0.174043 -0.039081 0.000000
v -0.156763 -0.039081 0.000000
v -0.156763 -0.039081 0.007628
v -0.160149 -0.039081 0.012158
v -0.170290 -0.039081 0.012158
v -0.156768 -0.042836 0.056960
v -0.156767 -0.042433 0.014553
v -0.160518 -0.039081 0.057707
v -0.170290 -0.039081 0.057707
v -0.156763 -0.043062 0.012158
v -0.156763 -0.164436 0.012158
v -0.156804 -0.134787 0.036032
v -0.152791 -0.041612 0.012158
v -0.140601 -0.033092 0.008405
v -0.138232 -0.036217 0.012158
v -0.020852 -0.132360 0.012158
v -0.125456 0.003187 0.012158
v -0.016756 -0.128263 0.008061
v -0.020852 -0.082973 0.012158
v 0.027418 -0.128263 0.008061
v 0.031515 -0.132360 0.012158
v -0.125456 -0.018632 0.012158
v -0.129209 -0.017413 0.008405
v -0.129209 0.001967 0.008405
v -0.140601 0.017647 0.008405
v -0.129209 -0.017413 0.000000
v -0.129209 0.001967 -0.000000
v -0.140601 0.017647 -0.000000
v -0.159033 0.023636 0.008405
v -0.159033 0.023636 -0.000000
v -0.280479 0.023636 -0.000000
v -0.284232 0.023636 0.008405
v -0.295538 0.023636 -0.000000
v -0.158438 0.027388 0.012158
v -0.295538 0.023636 0.008177
v -0.280479 0.027388 0.012158
v -0.284235 0.023636 0.057707
v -0.291786 0.023636 0.012158
v -0.295538 0.027388 0.056960
v -0.295538 0.027388 0.014716
v -0.291786 0.023636 0.057707
v -0.295538 0.027616 0.012158
v -0.295538 0.155017 0.012158
v -0.295538 0.155245 0.014716
v -0.295538 0.122074 0.037330
v -0.280555 0.122074 0.037330
v -0.295538 0.060559 0.037330
v -0.280555 0.122074 0.058029
v -0.295538 0.122074 0.058029
v -0.280555 0.115854 0.073046
v -0.295538 0.115854 0.073046
v -0.295538 0.155245 0.056960
v -0.291786 0.158998 0.057707
v -0.291786 0.145310 0.090751
v -0.295538 0.142438 0.087879
v -0.291786 0.112265 0.104439
v -0.295538 0.111519 0.100686
v -0.295538 0.100837 0.079267
v -0.295538 0.081796 0.079267
v -0.280555 0.081796 0.079267
v -0.280555 0.100837 0.079267
v -0.280489 0.071115 0.100681
v -0.280489 0.111518 0.100681
v -0.284237 0.112265 0.104439
v -0.284236 0.145310 0.090751
v -0.280487 0.142435 0.087876
v -0.284235 0.158998 0.057707
v -0.280487 0.155241 0.056959
v -0.284232 0.158998 0.008405
v -0.280479 0.155245 0.012158
v -0.280555 0.060559 0.037330
v -0.180064 0.060842 0.012158
v -0.180064 0.110228 0.012158
v 0.284232 0.158998 0.008405
v 0.280479 0.155245 0.012158
v 0.280479 0.122074 0.058029
v 0.284232 0.158998 0.057707
v 0.280479 0.155245 0.056960
v 0.280479 0.027388 0.012158
v 0.180064 0.060842 0.012158
v 0.180064 0.110228 0.012158
v -0.127696 0.110228 0.012158
v -0.020852 0.110228 0.012158
v 0.031515 0.110228 0.012158
v 0.127697 0.110228 0.012158
v 0.280479 0.122074 0.037330
v 0.295629 0.122074 0.037330
v 0.280479 0.060559 0.037330
v 0.295629 0.122074 0.058029
v 0.295629 0.115854 0.073046
v 0.295547 0.155250 0.056961
v 0.295548 0.142442 0.087883
v 0.291790 0.158998 0.057707
v 0.291791 0.145310 0.090751
v 0.295551 0.111520 0.100692
v 0.291792 0.112265 0.104439
v 0.295630 0.100837 0.079267
v 0.295551 0.071113 0.100692
v 0.295548 0.040192 0.087883
v 0.295630 0.081796 0.079267
v 0.291792 0.070368 0.104439
v 0.291791 0.037323 0.090751
v 0.284232 0.037323 0.090751
v 0.284232 0.070368 0.104439
v 0.284232 0.112265 0.104439
v 0.280479 0.142438 0.087879
v 0.280479 0.111519 0.100686
v 0.284232 0.145310 0.090751
v 0.280479 0.071114 0.100686
v 0.280479 0.081796 0.079267
v 0.280479 0.100837 0.079267
v 0.280479 0.115854 0.073046
v 0.295630 0.066779 0.073046
v 0.280479 0.066779 0.073046
v 0.280479 0.060559 0.058029
v 0.280479 0.040195 0.087879
v 0.295630 0.060559 0.058029
v 0.295630 0.060559 0.037330
v 0.295548 0.027384 0.014713
v 0.295548 0.027384 0.056961
v 0.291790 0.023636 0.057707
v 0.291790 0.023636 0.012158
v 0.284232 0.023636 0.057707
v 0.284232 0.023636 0.008405
v 0.280479 0.027388 0.056960
v 0.295538 0.023636 -0.000000
v 0.159033 0.023636 0.008405
v 0.295538 0.023636 0.008177
v 0.280479 0.023636 -0.000000
v 0.159033 0.023636 -0.000000
v 0.140601 0.017647 0.008405
v 0.140601 0.017647 -0.000000
v 0.129209 0.001967 -0.000000
v 0.129209 0.001967 0.008405
v 0.129209 -0.017413 0.008405
v 0.125456 0.003187 0.012158
v 0.138281 0.020839 0.012158
v 0.158438 0.027388 0.012158
v 0.127696 0.060842 0.012158
v 0.131793 0.064939 0.008061
v 0.175967 0.064939 0.008061
v 0.175967 0.106132 0.008061
v 0.131793 0.064939 -0.000000
v 0.175967 0.064939 -0.000000
v 0.175967 0.106132 -0.000000
v 0.131793 0.106132 0.008061
v 0.131793 0.106132 -0.000000
v 0.125456 -0.018633 0.012158
v 0.031515 -0.082973 0.012158
v 0.031515 0.060842 0.012158
v 0.027418 0.064939 0.008061
v 0.027418 0.106132 0.008061
v -0.020852 0.060842 0.012158
v -0.016756 0.064939 0.008061
v -0.016756 0.106132 0.008061
v -0.016756 0.064939 -0.000000
v -0.016756 0.106132 -0.000000
v 0.027418 0.106132 -0.000000
v 0.027418 0.064939 -0.000000
v 0.027418 -0.087070 0.008061
v -0.016756 -0.087070 0.008061
v -0.016756 -0.087070 0.000000
v 0.027418 -0.087070 0.000000
v 0.027418 -0.128263 0.000000
v -0.016756 -0.128263 0.000000
v 0.140601 -0.033092 0.008405
v 0.138232 -0.036217 0.012158
v 0.153262 -0.041311 0.012158
v 0.156763 -0.039081 0.008756
v 0.174043 -0.039081 0.008177
v 0.156763 -0.039081 0.000000
v 0.160704 -0.039081 0.012158
v 0.140601 -0.033092 0.000000
v 0.156763 -0.042473 0.012158
v 0.156763 -0.042834 0.014840
v 0.156763 -0.134787 0.036032
v 0.156763 -0.072483 0.036032
v 0.174219 -0.072483 0.036032
v 0.174219 -0.134787 0.036032
v 0.156763 -0.134787 0.058013
v 0.174219 -0.134787 0.058013
v 0.156763 -0.128182 0.073959
v 0.156763 -0.151629 0.087879
v 0.160516 -0.154501 0.090751
v 0.156763 -0.120710 0.100686
v 0.160516 -0.121457 0.104439
v 0.156763 -0.086560 0.100686
v 0.156763 -0.112235 0.080564
v 0.174219 -0.112235 0.080564
v 0.156763 -0.095035 0.080564
v 0.174219 -0.128182 0.073959
v 0.174064 -0.151637 0.087887
v 0.174062 -0.164446 0.056962
v 0.170300 -0.168189 0.057707
v 0.170301 -0.154501 0.090751
v 0.174062 -0.164446 0.014833
v 0.174043 -0.164208 0.012158
v 0.174043 -0.043062 0.012158
v 0.174062 -0.042824 0.014833
v 0.170300 -0.039081 0.012158
v 0.174062 -0.042824 0.056962
v 0.170300 -0.039081 0.057707
v 0.160516 -0.039081 0.057707
v 0.160516 -0.052769 0.090751
v 0.156763 -0.042834 0.056960
v 0.156763 -0.072483 0.058013
v 0.156763 -0.079088 0.073959
v 0.156763 -0.055641 0.087879
v 0.160516 -0.085814 0.104439
v 0.170303 -0.121457 0.104439
v 0.170303 -0.085814 0.104439
v 0.170301 -0.052769 0.090751
v 0.174064 -0.055633 0.087887
v 0.174068 -0.086558 0.100699
v 0.174219 -0.095035 0.080564
v 0.174219 -0.079088 0.073959
v 0.174068 -0.120713 0.100699
v 0.174219 -0.072483 0.058013
v 0.129209 -0.017413 0.000000
v 0.295538 0.158998 -0.000000
v 0.295538 0.027616 0.012158
v 0.295538 0.158998 0.008177
v 0.295538 0.155017 0.012158
v 0.295547 0.155250 0.014713
v 0.291790 0.158998 0.012158
v 0.280479 0.158998 -0.000000
v -0.280479 0.158998 -0.000000
v -0.295538 0.158998 -0.000000
v -0.295538 0.158998 0.008177
v -0.291786 0.158998 0.012158
v -0.127696 0.060842 0.012158
v -0.138281 0.020839 0.012158
v -0.131793 0.064939 0.008061
v -0.131793 0.106132 0.008061
v -0.175967 0.106132 0.008061
v -0.131793 0.064939 -0.000000
v -0.131793 0.106132 -0.000000
v -0.175967 0.106132 -0.000000
v -0.175967 0.064939 0.008061
v -0.175967 0.064939 -0.000000
v -0.295538 0.060559 0.058029
v -0.280555 0.060559 0.058029
v -0.295538 0.066779 0.073046
v -0.280555 0.066779 0.073046
v -0.280487 0.027392 0.056959
v -0.284236 0.037323 0.090751
v -0.280487 0.040199 0.087876
v -0.284237 0.070368 0.104439
v -0.291786 0.037323 0.090751
v -0.291786 0.070368 0.104439
v -0.295538 0.071114 0.100686
v -0.295538 0.040195 0.087879
v -0.140601 -0.033092 0.000000
v -0.156805 -0.072483 0.036032
v -0.174043 -0.134787 0.058013
v -0.156804 -0.134787 0.058013
v -0.174043 -0.134787 0.036032
v -0.174043 -0.072483 0.036032
v -0.174043 -0.164436 0.014840
v -0.174043 -0.164436 0.056960
v -0.170290 -0.168189 0.057707
v -0.174043 -0.151629 0.087879
v -0.170290 -0.168189 0.012158
v -0.160518 -0.168189 0.057707
v -0.174043 -0.164208 0.012158
v -0.174043 -0.042834 0.014840
v -0.174043 -0.042834 0.056960
v -0.174043 -0.072483 0.058013
v -0.156805 -0.072483 0.058013
v -0.156805 -0.079088 0.073959
v -0.174043 -0.079088 0.073959
v -0.156805 -0.095035 0.080564
v -0.174043 -0.055641 0.087879
v -0.174043 -0.095035 0.080564
v -0.174043 -0.112235 0.080564
v -0.156805 -0.112235 0.080564
v -0.174043 -0.086560 0.100686
v -0.170290 -0.085814 0.104439
v -0.170290 -0.121457 0.104439
v -0.174043 -0.120710 0.100686
v -0.170290 -0.154501 0.090751
v -0.174043 -0.128182 0.073959
v -0.156804 -0.128182 0.073959
v -0.156768 -0.164434 0.056960
v -0.156768 -0.151627 0.087877
v -0.160518 -0.154501 0.090751
v -0.160519 -0.121457 0.104439
v -0.156769 -0.120709 0.100683
v -0.160519 -0.085814 0.104439
v -0.156769 -0.086561 0.100683
v -0.156768 -0.055643 0.087877
v -0.160518 -0.052769 0.090751
v -0.170290 -0.052769 0.090751
vn -0.0000 -1.0000 -0.0000
vn 1.0000 -0.0000 -0.0000
vn -0.7138 -0.6907 0.1158
vn -0.7071 -0.7071 -0.0000
vn -0.0000 -0.7071 0.7071
vn -0.0000 -0.9858 0.1677
vn -1.0000 -0.0000 -0.0000
vn -0.2385 0.9711 -0.0000
vn -0.0000 1.0000 -0.0000
vn -0.2132 0.9770 -0.0000
vn -0.2131 0.9770 -0.0000
vn 0.6620 0.5630 0.4948
vn -0.0000 0.9855 0.1698
vn 0.7058 0.7084 0.0041
vn 0.7127 0.6898 0.1275
vn 0.7127 0.6898 0.1274
vn 0.7061 0.7081 0.0031
vn 0.7511 0.6388 -0.1665
vn 0.0002 0.9856 0.1693
vn -0.0000 -0.0000 1.0000
vn 1.0000 0.0007 0.0008
vn 1.0000 -0.0000 0.0017
vn 1.0000 0.0007 0.0009
vn 1.0000 -0.0004 0.0011
vn -0.2707 0.6884 0.6729
vn -0.2706 0.6887 0.6726
vn -0.2645 0.7244 0.6366
vn -0.4444 0.5497 0.7074
vn -0.4430 0.5509 0.7072
vn 0.7072 -0.0000 0.7070
vn -0.0000 0.7071 0.7071
vn -0.6554 0.2130 0.7246
vn -0.6554 -0.2129 0.7246
vn -0.6554 -0.2130 0.7246
vn -0.4063 -0.5567 0.7246
vn -0.8090 -0.5878 -0.0000
vn -0.3090 -0.9511 -0.0000
vn -0.0423 -0.9991 -0.0000
vn -0.0424 -0.9991 -0.0000
vn -0.0309 -0.7043 0.7092
vn -0.0000 -0.7072 0.7070
vn 0.7143 -0.6902 0.1157
vn 0.7072 -0.7070 0.0001
vn 0.7070 -0.7072 0.0001
vn -0.6770 -0.6383 0.3662
vn -0.6770 -0.6383 0.3665
vn -0.7085 -0.7048 0.0357
vn -0.7138 -0.6899 0.1205
vn -0.7079 -0.7061 0.0170
vn -0.0000 -0.9852 -0.1716
vn -0.0000 -0.9239 -0.3827
vn -0.7072 0.6532 0.2706
vn -0.7138 0.6899 0.1205
vn -0.7079 0.7061 0.0170
vn -0.7071 0.6532 0.2706
vn -0.7139 0.1248 0.6890
vn -0.7071 0.2706 0.6532
vn -0.7072 0.2706 0.6532
vn -0.0000 0.1797 -0.9837
vn -0.0000 -0.1797 -0.9837
vn -0.0000 -0.3827 -0.9239
vn 1.0000 0.0007 -0.0028
vn 1.0000 0.0005 -0.0029
vn 1.0000 -0.0005 -0.0029
vn 1.0000 -0.0007 -0.0028
vn 1.0000 -0.0015 -0.0018
vn 0.7148 -0.1247 0.6881
vn 0.7148 0.1246 0.6881
vn 0.7078 0.2703 0.6527
vn 1.0000 -0.0017 -0.0015
vn 0.7143 0.6902 0.1157
vn 0.7078 0.6526 0.2704
vn 1.0000 -0.0021 -0.0005
vn 1.0000 -0.0021 -0.0003
vn 0.7071 0.7071 0.0002
vn 0.7070 0.7072 0.0002
vn 1.0000 -0.0010 0.0016
vn 1.0000 -0.0013 0.0014
vn 1.0000 0.0008 0.0020
vn 1.0000 0.0011 0.0016
vn -0.7138 0.6907 0.1158
vn -0.7071 0.7071 -0.0000
vn 1.0000 0.0025 0.0004
vn 1.0000 0.0025 0.0006
vn 1.0000 0.0011 -0.0019
vn 1.0000 0.0021 0.0018
vn 1.0000 0.0018 0.0022
vn 0.7130 0.6908 0.1206
vn 0.7062 0.6541 0.2709
vn 0.7128 0.1251 0.6902
vn 0.7062 0.2710 0.6541
vn 1.0000 0.0008 0.0033
vn 0.7128 0.1250 0.6902
vn 0.7128 -0.1250 0.6902
vn 1.0000 0.0006 0.0034
vn 1.0000 -0.0008 0.0033
vn 1.0000 -0.0006 0.0034
vn 1.0000 -0.0021 0.0018
vn 0.7062 -0.2710 0.6541
vn -0.0000 -0.3827 0.9239
vn -0.0000 -0.1797 0.9837
vn -0.0000 0.1797 0.9837
vn -0.7139 -0.1248 0.6890
vn -0.7139 0.1248 0.6891
vn -0.7071 0.2706 0.6533
vn -0.0000 0.3827 0.9239
vn -0.7071 0.6533 0.2706
vn -0.0000 0.9239 0.3827
vn -0.0000 0.9858 0.1677
vn -0.7139 -0.1248 0.6891
vn -0.0000 0.3827 -0.9239
vn -0.0000 0.9239 -0.3827
vn -0.0000 0.9852 -0.1716
vn 1.0000 -0.0008 -0.0026
vn 1.0000 -0.0011 -0.0020
vn 1.0000 -0.0025 0.0006
vn 1.0000 -0.0025 0.0004
vn 1.0000 -0.0018 0.0023
vn 0.7071 -0.7069 0.0169
vn 0.7130 -0.6908 0.1206
vn 0.7063 -0.6541 0.2709
vn 0.7078 -0.7055 0.0355
vn -0.0000 -0.9239 0.3827
vn -0.7070 -0.7072 -0.0000
vn -0.7071 -0.6533 0.2706
vn 0.0424 -0.9991 -0.0000
vn 0.0309 -0.7043 0.7092
vn 0.0423 -0.9991 -0.0000
vn 0.3090 -0.9511 -0.0000
vn 0.8090 -0.5878 -0.0000
vn 0.6554 0.2129 0.7246
vn 0.6554 -0.2129 0.7246
vn 0.6554 -0.2130 0.7246
vn 0.4063 -0.5567 0.7246
vn 0.4064 -0.5566 0.7246
vn 0.7071 -0.0000 0.7071
vn -0.7071 -0.0000 0.7071
vn 0.6554 0.2130 0.7246
vn 0.4360 0.5406 0.7195
vn 0.4365 0.5402 0.7195
vn 0.2326 0.6780 0.6973
vn 0.2326 0.6781 0.6972
vn 0.2194 0.9756 -0.0000
vn 0.2346 0.9721 -0.0000
vn 0.3475 0.9377 -0.0000
vn -0.5204 0.6047 0.6029
vn 0.2288 0.6894 0.6873
vn 0.2197 0.9756 -0.0000
vn -0.6978 0.7163 -0.0000
vn -0.6979 0.7162 -0.0002
vn -0.6490 0.7540 0.1015
vn -0.7139 -0.1359 0.6869
vn -0.7071 -0.2706 0.6533
vn -0.7139 0.1366 0.6868
vn -0.7139 -0.1363 0.6868
vn -0.0000 0.1951 -0.9808
vn -0.0000 -0.1951 -0.9808
vn 1.0000 -0.0043 0.0038
vn 1.0000 -0.0039 0.0046
vn 1.0000 -0.0012 0.0070
vn 1.0000 -0.0053 0.0009
vn 1.0000 -0.0053 0.0013
vn 0.7051 -0.6551 0.2713
vn 0.7119 -0.6917 0.1209
vn 0.7119 -0.6918 0.1209
vn 0.7062 -0.7079 0.0163
vn 1.0000 -0.0025 -0.0039
vn 1.0000 -0.0025 -0.0040
vn 1.0000 -0.0000 -0.0030
vn 0.6803 -0.6397 0.3576
vn 0.7070 -0.7063 0.0361
vn 1.0000 -0.0000 -0.0025
vn 0.6803 0.6397 0.3576
vn 0.6803 0.6397 0.3579
vn 0.7070 0.7063 0.0361
vn 1.0000 0.0035 -0.0026
vn 0.7062 0.7079 0.0163
vn -0.0000 0.9850 0.1728
vn 0.7119 0.6918 0.1209
vn -0.0000 0.9850 0.1725
vn -0.7091 0.6950 0.1188
vn -0.7091 0.6950 0.1189
vn -0.0000 0.1951 0.9808
vn -0.0000 -0.1951 0.9808
vn 0.7051 0.6551 0.2713
vn 0.7116 0.1366 0.6892
vn 0.7052 0.2715 0.6550
vn 0.7051 0.2715 0.6551
vn 0.7116 0.1364 0.6892
vn 0.7116 -0.1371 0.6891
vn 1.0000 0.0039 0.0046
vn 1.0000 0.0043 0.0038
vn 1.0000 0.0016 0.0069
vn 1.0000 0.0012 0.0070
vn 1.0000 -0.0016 0.0068
vn 0.7051 -0.2714 0.6551
vn 1.0000 0.0053 0.0012
vn 1.0000 0.0053 0.0009
vn 1.0000 0.0029 -0.0032
vn 0.6803 -0.6397 0.3579
vn 0.8090 0.5878 -0.0000
vn 1.0000 -0.0000 -0.0011
vn 0.6778 -0.6382 0.3652
vn 0.6778 -0.6382 0.3649
vn 1.0000 -0.0000 -0.0015
vn 0.6778 0.6382 0.3649
vn 0.6778 0.6382 0.3652
vn 0.7078 0.7055 0.0355
vn 1.0000 0.0016 -0.0013
vn 0.7071 0.7069 0.0169
vn -0.7085 0.7048 0.0357
vn -0.6769 0.6382 0.3666
vn -0.6770 0.6383 0.3662
vn 1.0000 0.0021 -0.0004
vn 1.0000 0.0021 -0.0003
vn 1.0000 0.0015 -0.0019
vn 0.7079 -0.6526 0.2703
vn 1.0000 0.0017 -0.0015
vn 0.7078 -0.2703 0.6526
vn -0.7072 -0.2706 0.6532
vn -0.7071 -0.2706 0.6532
vn -0.8090 0.5878 -0.0000
vn -0.3475 0.9377 -0.0000
vn 1.0000 -0.0006 0.0010
vn 1.0000 0.0013 -0.0003
vn -0.7138 -0.6899 0.1206
vn -0.7086 -0.7047 0.0366
vn -0.7079 -0.7061 0.0165
vn -0.6787 -0.6399 0.3603
vn -0.6787 -0.6398 0.3606
vn -0.7079 0.7061 0.0165
vn -0.7138 0.6899 0.1206
vn -0.7086 0.7047 0.0366
vn -0.6787 0.6399 0.3603
vn -0.0000 -0.1957 -0.9807
vn -0.7139 0.1360 0.6869
vn -0.7139 -0.1366 0.6867
vn -0.7139 -0.1366 0.6868
vn 1.0000 0.0010 -0.0009
vn 1.0000 0.0009 -0.0010
vn 1.0000 0.0003 -0.0017
vn 1.0000 0.0012 -0.0001
vn 0.7141 -0.6904 0.1157
vn 0.7076 -0.6528 0.2704
vn 0.7145 -0.1365 0.6862
vn 0.7076 -0.2704 0.6528
vn 1.0000 0.0004 -0.0016
vn 1.0000 -0.0003 -0.0017
vn 1.0000 -0.0004 -0.0016
vn 0.7145 0.1365 0.6862
vn 1.0000 -0.0009 -0.0011
vn 1.0000 -0.0010 -0.0009
vn 0.7076 0.2704 0.6529
vn 0.7076 0.6528 0.2704
vn 1.0000 -0.0013 -0.0003
vn 1.0000 -0.0013 -0.0002
vn 0.7076 -0.7067 0.0003
vn 0.7071 -0.7071 -0.0000
vn -0.6787 0.6398 0.3606
vt 0.327358 0.615447
vt 0.327358 0.603045
vt 0.347874 0.602700
vt 0.763759 0.615447
vt 0.949982 0.615447
vt 0.763759 0.627242
vt 0.353565 0.615447
vt 0.333035 0.597008
vt 0.353565 0.529059
vt 0.353565 0.597008
vt 0.422862 0.000004
vt 0.649484 0.000004
vt 0.644004 0.005484
vt 0.347874 0.527926
vt 0.583234 0.602700
vt 0.583234 0.615447
vt 0.834765 0.602700
vt 0.180668 0.000004
vt 0.422862 0.005484
vt 0.829074 0.615447
vt 0.855281 0.615447
vt 0.660843 0.748879
vt 0.474622 0.760674
vt 0.655102 0.743138
vt 0.660843 0.760674
vt 0.474622 0.748879
vt 0.855281 0.603045
vt 0.182321 0.189834
vt 0.182321 0.217278
vt 0.170207 0.189834
vt 0.163012 0.195213
vt 0.169333 0.217278
vt 0.163012 0.189834
vt 0.163012 0.211318
vt 0.090670 0.211318
vt 0.090670 0.195798
vt 0.091857 0.189841
vt 0.159207 0.189841
vt 0.186148 0.182733
vt 0.186148 0.005484
vt 0.191949 0.184851
vt 0.388736 0.908934
vt 0.213669 0.908934
vt 0.345971 0.874499
vt 0.212761 0.905479
vt 0.186148 0.188546
vt 0.213210 0.192729
vt 0.209751 0.197292
vt 0.384625 0.052327
vt 0.384625 0.124448
vt 0.231867 0.250272
vt 0.231867 0.218408
vt 0.390607 0.058309
vt 0.455116 0.058309
vt 0.461099 0.052327
vt 0.226386 0.220188
vt 0.226386 0.248491
vt 0.209751 0.271388
vt 0.000000 0.000004
vt 0.012957 0.000004
vt 0.012957 0.017565
vt 0.857714 0.066079
vt 0.845591 0.066079
vt 0.845591 0.038125
vt 0.857714 0.038125
vt 0.000000 0.017565
vt 0.012957 0.045978
vt 0.000000 0.045978
vt 0.012957 0.238977
vt 0.000000 0.233192
vt 0.000000 0.256407
vt 0.012606 0.256407
vt 0.183702 0.285614
vt 0.005480 0.285614
vt 0.000000 0.280134
vt 0.182834 0.280134
vt 0.018742 0.250622
vt 0.088957 0.238983
vt 0.018742 0.233192
vt 0.088957 0.250622
vt 0.018742 0.256407
vt 0.087806 0.256407
vt 0.022686 0.256407
vt 0.798708 0.023560
vt 0.798708 0.207321
vt 0.795018 0.023232
vt 0.804449 0.213062
vt 0.762401 0.071076
vt 0.795018 0.207649
vt 0.106956 0.256407
vt 0.106956 0.278390
vt 0.076587 0.278390
vt 0.934319 0.240282
vt 0.934319 0.261894
vt 0.845591 0.261894
vt 0.762401 0.159805
vt 0.076587 0.256407
vt 0.732544 0.071076
vt 0.054554 0.278390
vt 0.054554 0.256407
vt 0.734086 0.023232
vt 0.710884 0.080048
vt 0.834680 0.880473
vt 0.884217 0.880473
vt 0.885336 0.886099
vt 0.948663 0.886099
vt 0.838986 0.886099
vt 0.689490 0.041704
vt 0.701912 0.101709
vt 0.765298 0.496136
vt 0.818897 0.496136
vt 0.814239 0.502223
vt 0.764087 0.502223
vt 0.671017 0.086301
vt 0.701912 0.129172
vt 0.721364 0.255349
vt 0.721364 0.277498
vt 0.693217 0.277498
vt 0.693217 0.255349
vt 0.671017 0.277498
vt 0.543148 0.888358
vt 0.558554 0.857471
vt 0.586018 0.857471
vt 0.671017 0.255349
vt 0.601424 0.888358
vt 0.607678 0.848498
vt 0.698552 0.477813
vt 0.764086 0.477813
vt 0.765298 0.483891
vt 0.818897 0.483890
vt 0.646018 0.869888
vt 0.814233 0.477809
vt 0.884217 0.869155
vt 0.834680 0.869155
vt 0.838990 0.863536
vt 0.885337 0.863535
vt 0.616650 0.826838
vt 0.664489 0.825295
vt 0.958124 0.869149
vt 0.952499 0.863523
vt 0.616650 0.796981
vt 0.664495 0.760674
vt 0.830152 0.477809
vt 0.000000 0.477809
vt 0.005480 0.472329
vt 0.527922 0.796981
vt 0.480077 0.760674
vt 0.152121 0.334468
vt 0.152121 0.406589
vt 0.824672 0.472329
vt 0.884217 0.016969
vt 0.958124 0.016969
vt 0.952499 0.022595
vt 0.665562 0.890300
vt 0.701869 0.842456
vt 0.731726 0.842456
vt 0.730183 0.890300
vt 0.885336 0.022595
vt 0.824672 0.285614
vt 0.678031 0.334468
vt 0.665562 0.705883
vt 0.678031 0.406589
vt 0.601557 0.406589
vt 0.228595 0.406589
vt 0.384625 0.406589
vt 0.461099 0.406589
vt 0.000000 0.278635
vt 0.030369 0.256407
vt 0.185516 0.093591
vt 0.163663 0.093591
vt 0.163663 0.004863
vt 0.701869 0.753727
vt 0.030369 0.278635
vt 0.098526 0.005410
vt 0.100067 0.053262
vt 0.070210 0.053262
vt 0.052402 0.256407
vt 0.143127 0.023884
vt 0.121727 0.062234
vt 0.884217 0.005638
vt 0.834680 0.005637
vt 0.838980 0.000004
vt 0.885334 0.000005
vt 0.995502 0.447036
vt 0.995499 0.497171
vt 0.989406 0.501821
vt 0.161603 0.068485
vt 0.989408 0.448244
vt 0.995502 0.381521
vt 0.130699 0.083894
vt 0.161603 0.126767
vt 0.130699 0.111358
vt 0.143127 0.171368
vt 0.995499 0.331386
vt 0.989408 0.380313
vt 0.989406 0.326736
vt 0.977150 0.326736
vt 0.977150 0.380313
vt 0.977150 0.448244
vt 0.971065 0.447034
vt 0.977150 0.501821
vt 0.971065 0.497165
vt 0.838986 0.022595
vt 0.834680 0.016969
vt 0.971065 0.381523
vt 0.762358 0.784360
vt 0.793253 0.768952
vt 0.793253 0.827231
vt 0.762358 0.811823
vt 0.774780 0.871827
vt 0.627374 0.216892
vt 0.649771 0.216892
vt 0.649771 0.245039
vt 0.627374 0.245039
vt 0.649771 0.267239
vt 0.753386 0.833484
vt 0.627374 0.267239
vt 0.052402 0.278635
vt 0.627374 0.194692
vt 0.649771 0.194692
vt 0.753386 0.762699
vt 0.799795 0.255351
vt 0.799795 0.277579
vt 0.777762 0.277579
vt 0.774780 0.724355
vt 0.731726 0.753727
vt 0.777762 0.255351
vt 0.037588 0.189841
vt 0.070210 0.141990
vt 0.100067 0.141990
vt 0.747393 0.277579
vt 0.098526 0.189841
vt 0.121727 0.133018
vt 0.677329 0.000005
vt 0.742448 0.000005
vt 0.743597 0.005797
vt 0.794531 0.005796
vt 0.790110 0.000004
vt 0.673390 0.005797
vt 0.743597 0.017447
vt 0.667606 0.017447
vt 0.742447 0.023232
vt 0.790104 0.023232
vt 0.794531 0.017447
vt 0.730183 0.705883
vt 0.673390 0.023232
vt 0.654651 0.000020
vt 0.667255 0.000020
vt 0.654651 0.023232
vt 0.667606 0.210424
vt 0.647319 0.280134
vt 0.830152 0.280134
vt 0.654651 0.210424
vt 0.667606 0.238834
vt 0.654651 0.238834
vt 0.667606 0.256393
vt 0.654651 0.256393
vt 0.070920 0.068792
vt 0.083044 0.068792
vt 0.083044 0.096747
vt 0.603766 0.220189
vt 0.603766 0.248491
vt 0.598286 0.250272
vt 0.617015 0.276050
vt 0.620402 0.271388
vt 0.646451 0.285614
vt 0.601557 0.334468
vt 0.607540 0.340451
vt 0.672049 0.340451
vt 0.452206 0.352078
vt 0.452206 0.363705
vt 0.392790 0.363705
vt 0.672049 0.400607
vt 0.911056 0.287185
vt 0.922683 0.287185
vt 0.922683 0.350899
vt 0.911056 0.350899
vt 0.392790 0.352078
vt 0.840851 0.359910
vt 0.829224 0.359910
vt 0.829224 0.296195
vt 0.840851 0.296195
vt 0.392790 0.340451
vt 0.452206 0.340451
vt 0.607540 0.400607
vt 0.598286 0.218408
vt 0.461099 0.124448
vt 0.461099 0.334468
vt 0.384625 0.334468
vt 0.455116 0.340451
vt 0.455116 0.400607
vt 0.390607 0.340451
vt 0.390607 0.400607
vt 0.611007 0.363705
vt 0.611007 0.352078
vt 0.670423 0.352078
vt 0.670423 0.363705
vt 0.927422 0.287185
vt 0.939049 0.287185
vt 0.939049 0.350900
vt 0.845591 0.317713
vt 0.857218 0.317713
vt 0.857218 0.381428
vt 0.845591 0.381428
vt 0.452206 0.375332
vt 0.392790 0.375332
vt 0.927422 0.350900
vt 0.455116 0.118465
vt 0.390607 0.118465
vt 0.840851 0.423626
vt 0.829224 0.423626
vt 0.158207 0.363705
vt 0.158207 0.352078
vt 0.217623 0.352078
vt 0.158207 0.375332
vt 0.217623 0.363705
vt 0.217623 0.375332
vt 0.714660 0.078466
vt 0.726287 0.078466
vt 0.726287 0.142181
vt 0.714660 0.142181
vt 0.620402 0.197292
vt 0.616942 0.192729
vt 0.638892 0.185289
vt 0.644004 0.188546
vt 0.684907 0.227905
vt 0.690304 0.234157
vt 0.683990 0.255317
vt 0.671017 0.227905
vt 0.671017 0.202266
vt 0.649760 0.188546
vt 0.644004 0.183593
vt 0.684351 0.202266
vt 0.381880 1.000000
vt 0.424645 0.965564
vt 0.557796 1.000000
vt 0.694559 0.227905
vt 0.690304 0.227905
vt 0.557275 0.996131
vt 0.514510 0.965564
vt 0.843492 0.112461
vt 0.818313 0.112461
vt 0.818313 0.022595
vt 0.843492 0.022595
vt 0.448435 0.083920
vt 0.448435 0.109531
vt 0.416186 0.109531
vt 0.381880 0.935378
vt 0.424645 0.933860
vt 0.416186 0.083920
vt 0.392790 0.109531
vt 0.400352 0.890782
vt 0.434172 0.910859
vt 0.444949 0.872309
vt 0.347874 0.477809
vt 0.353565 0.482165
vt 0.998848 0.109080
vt 0.998849 0.158719
vt 0.992824 0.163330
vt 0.998848 0.054254
vt 0.992824 0.110278
vt 0.457173 0.901332
vt 0.494206 0.872309
vt 0.731027 0.120760
vt 0.756870 0.120760
vt 0.756870 0.144369
vt 0.731027 0.095296
vt 0.481982 0.901332
vt 0.731027 0.144369
vt 0.787633 0.742214
vt 0.821465 0.722125
vt 0.844466 0.731652
vt 0.392790 0.083920
vt 0.769158 0.697608
vt 0.811938 0.699124
vt 0.333033 0.477809
vt 0.333035 0.527926
vt 0.327328 0.529056
vt 0.327328 0.592951
vt 0.327325 0.482153
vt 0.769158 0.636842
vt 0.811938 0.667419
vt 0.944241 0.632983
vt 0.327358 0.597008
vt 0.769500 0.632983
vt 0.949982 0.627242
vt 0.690304 0.255317
vt 0.690304 0.249380
vt 0.944583 0.636842
vt 0.694548 0.255349
vt 0.762561 0.233858
vt 0.762561 0.249380
vt 0.761380 0.255349
vt 0.814982 0.233858
vt 0.761377 0.227905
vt 0.557275 0.935378
vt 0.514510 0.933860
vt 0.504983 0.910859
vt 0.538803 0.890782
vt 0.810426 0.227905
vt 0.992824 0.053055
vt 0.992824 0.000004
vt 0.998848 0.004615
vt 0.977111 0.110278
vt 0.977111 0.053056
vt 0.977114 0.000004
vt 0.814982 0.249381
vt 0.810439 0.255351
vt 0.971065 0.054250
vt 0.971072 0.004602
vt 0.971065 0.109084
vt 0.892276 0.722125
vt 0.926108 0.742214
vt 0.881503 0.760694
vt 0.869275 0.731652
vt 0.832238 0.760694
vt 0.971072 0.158732
vt 0.731027 0.071687
vt 0.756870 0.071687
vt 0.756870 0.095296
vt 0.416186 0.058309
vt 0.392790 0.058309
vt 0.901804 0.699124
vt 0.944583 0.697608
vt 0.901804 0.667419
vt 0.448435 0.058309
vt 0.977114 0.163330
vt 0.671017 0.184194
vt 0.684351 0.184194
vt 0.070920 0.096747
vt 0.671017 0.255317
vt 0.016366 0.195248
vt 0.016366 0.000004
vt 0.028161 0.195248
vt 0.033902 0.189506
vt 0.673390 0.000020
vt 0.028161 0.000004
vt 0.033902 0.005745
vt 0.952499 0.000019
vt 0.958466 0.000019
vt 0.952499 0.005638
vt 0.037588 0.005410
vt 0.948668 0.000005
vt 0.970724 0.000019
vt 0.970724 0.022595
vt 0.970724 0.863523
vt 0.970724 0.886099
vt 0.958466 0.886099
vt 0.816244 0.017819
vt 0.816244 0.213062
vt 0.804449 0.017819
vt 0.952499 0.880473
vt 0.952499 0.886099
vt 0.185516 0.004863
vt 0.747393 0.255351
vt 0.971065 0.331393
vt 0.228595 0.334468
vt 0.213138 0.276050
vt 0.222612 0.340451
vt 0.222612 0.400607
vt 0.894689 0.287185
vt 0.906316 0.287185
vt 0.906316 0.350900
vt 0.158104 0.400607
vt 0.217623 0.340451
vt 0.158207 0.340451
vt 0.894689 0.350900
vt 0.611007 0.340451
vt 0.670423 0.340451
vt 0.172823 0.268090
vt 0.172823 0.279717
vt 0.109108 0.279717
vt 0.109108 0.268090
vt 0.158104 0.340451
vt 0.845590 0.240282
vt 0.867412 0.283926
vt 0.889395 0.283926
vt 0.889395 0.314296
vt 0.867412 0.314296
vt 0.527922 0.826838
vt 0.867412 0.261894
vt 0.889395 0.261894
vt 0.480083 0.825295
vt 0.536894 0.848498
vt 0.139896 0.238984
vt 0.087805 0.233204
vt 0.135464 0.233205
vt 0.498554 0.869888
vt 0.697339 0.483891
vt 0.643740 0.483890
vt 0.648404 0.477809
vt 0.697339 0.496136
vt 0.643740 0.496136
vt 0.698550 0.502223
vt 0.648399 0.502223
vt 0.710884 0.150833
vt 0.689490 0.189177
vt 0.671017 0.144580
vt 0.139896 0.250622
vt 0.135469 0.256407
vt 0.732544 0.159805
vt 0.734086 0.207649
vt 0.743564 0.255349
vt 0.743564 0.277498
vt 0.168972 0.146072
vt 0.182321 0.146072
vt 0.182321 0.164165
vt 0.168972 0.164165
vt 0.256105 0.874499
vt 0.870455 0.223033
vt 0.845591 0.223033
vt 0.845591 0.133168
vt 0.926938 0.261894
vt 0.926938 0.287185
vt 0.894689 0.261894
vt 0.345971 0.842794
vt 0.480035 0.739269
vt 0.522800 0.708702
vt 0.612665 0.708702
vt 0.870455 0.133168
vt 0.480035 0.678516
vt 0.522800 0.676998
vt 0.855281 0.482165
vt 0.855281 0.529059
vt 0.849590 0.527927
vt 0.849590 0.597008
vt 0.498507 0.633920
vt 0.855281 0.592940
vt 0.834769 0.527927
vt 0.855281 0.597008
vt 0.480363 0.743138
vt 0.655431 0.739269
vt 0.158752 0.217278
vt 0.091856 0.217278
vt 0.612665 0.676998
vt 0.655431 0.678516
vt 0.163012 0.217278
vt 0.165237 0.242799
vt 0.165237 0.268090
vt 0.141841 0.268090
vt 0.197486 0.242799
vt 0.141841 0.242799
vt 0.603138 0.653997
vt 0.141841 0.217278
vt 0.165449 0.217278
vt 0.165449 0.242799
vt 0.636958 0.633920
vt 0.580137 0.644470
vt 0.592361 0.615447
vt 0.555328 0.644470
vt 0.190914 0.217278
vt 0.190914 0.242799
vt 0.971065 0.322122
vt 0.971065 0.272459
vt 0.977093 0.273658
vt 0.977093 0.216407
vt 0.543104 0.615447
vt 0.971065 0.217606
vt 0.977093 0.163330
vt 0.971065 0.167943
vt 0.532327 0.653997
vt 0.950334 0.261894
vt 0.214522 0.217278
vt 0.214522 0.242799
vt 0.950334 0.287185
vt 0.370261 0.799718
vt 0.336444 0.819793
vt 0.313443 0.810266
vt 0.388733 0.844313
vt 0.829081 0.529059
vt 0.829082 0.482168
vt 0.834769 0.477809
vt 0.992788 0.216407
vt 0.992789 0.163330
vt 0.998812 0.167947
vt 0.998811 0.217607
vt 0.325666 0.781247
vt 0.288634 0.810266
vt 0.276411 0.781247
vt 0.992788 0.273658
vt 0.998811 0.272458
vt 0.265633 0.819793
vt 0.231816 0.799718
vt 0.998812 0.322119
vt 0.992789 0.326736
vt 0.038188 0.211318
vt 0.038188 0.195798
vt 0.042753 0.189842
vt 0.977093 0.326736
vt 0.042749 0.217278
vt 0.256105 0.842794
vt 0.213344 0.844313
vt 0.849590 0.477809
vt 0.829074 0.597008
vt 0.197486 0.268090
s 1
usemtl blinn1SG.001
f 1/1/1 2/2/1 5/3/1
f 1/4/2 3/5/2 2/6/2
f 4/7/1 1/1/1 5/3/1
f 2/2/1 9/8/1 5/3/1
f 7/9/3 6/10/4 5/3/4
f 10/11/5 5/12/5 6/13/5
f 5/3/4 8/14/3 7/9/3
f 8/14/6 5/3/1 9/8/1
f 4/7/1 5/3/1 10/15/1
f 13/16/1 10/15/1 11/17/1
f 11/18/5 10/11/5 12/19/5
f 6/13/5 12/19/5 10/11/5
f 10/15/1 13/16/1 4/7/1
f 11/17/1 14/20/1 13/16/1
f 14/20/1 11/17/1 15/21/1
f 16/22/7 15/23/7 17/24/7
f 19/25/7 15/23/7 16/22/7
f 15/23/7 18/26/7 17/24/7
f 15/21/1 11/17/1 18/27/1
f 20/28/8 19/29/9 21/30/10
f 21/30/11 19/29/9 22/31/9
f 19/29/9 16/32/9 22/31/9
f 28/33/12 21/30/12 22/31/12
f 16/32/9 23/34/9 22/31/9
f 22/31/9 23/34/9 27/35/13
f 22/31/14 26/36/15 24/37/16
f 24/37/16 25/38/17 22/31/14
f 25/38/17 28/33/18 22/31/14
f 27/35/13 26/36/19 22/31/9
f 28/39/20 29/40/20 31/41/20
f 29/42/21 28/43/22 30/44/23
f 28/43/22 25/45/24 30/44/23
f 31/41/25 21/46/26 28/39/27
f 31/41/25 33/47/28 32/48/29
f 32/48/29 21/46/26 31/41/25
f 33/47/20 31/41/20 34/49/20
f 34/49/20 31/41/20 29/40/20
f 37/50/20 35/51/20 34/49/20
f 40/52/20 34/49/20 35/51/20
f 12/19/20 34/49/20 29/40/20
f 37/50/30 34/49/30 36/53/30
f 38/54/31 36/53/31 34/49/31
f 33/47/20 34/49/20 40/52/20
f 34/49/31 39/55/31 38/54/31
f 12/19/20 39/55/20 34/49/20
f 33/47/28 40/52/32 41/56/32
f 42/57/33 41/56/32 40/52/32
f 40/52/32 35/51/34 42/57/33
f 43/58/35 42/57/33 35/51/34
f 45/59/36 42/60/36 43/61/36
f 44/62/7 41/63/7 42/64/7
f 42/64/7 45/65/7 44/62/7
f 43/61/36 46/66/36 45/59/36
f 46/66/37 43/61/37 47/67/38
f 47/67/39 48/68/39 46/66/37
f 48/68/39 47/67/39 50/69/1
f 50/69/1 49/70/1 48/68/39
f 51/71/1 50/69/1 53/72/1
f 49/70/1 50/69/1 51/71/1
f 52/73/40 54/74/41 50/75/41
f 50/75/41 47/76/40 52/73/40
f 50/69/1 56/77/1 53/72/1
f 55/78/42 50/69/43 54/79/44
f 56/77/1 50/69/1 55/78/6
f 55/78/6 59/80/6 56/77/1
f 60/81/45 53/72/46 56/77/47
f 56/77/47 59/80/48 57/82/48
f 57/82/48 58/83/49 56/77/47
f 56/77/47 58/83/49 60/81/45
f 61/84/7 60/85/7 62/86/7
f 53/87/7 60/85/7 61/84/7
f 62/86/7 60/85/7 63/88/7
f 60/85/7 58/89/7 63/88/7
f 63/90/1 64/91/1 66/92/50
f 64/93/20 63/94/20 65/95/20
f 58/89/7 65/96/7 63/88/7
f 66/92/50 67/97/50 63/90/1
f 62/86/7 63/88/7 67/98/7
f 67/97/50 66/92/50 68/99/51
f 68/99/51 69/100/51 67/97/50
f 70/101/7 67/98/7 69/102/7
f 67/98/7 70/101/7 62/86/7
f 72/103/52 71/104/53 70/105/53
f 62/106/54 70/105/53 71/104/53
f 70/105/53 73/107/55 72/103/52
f 69/102/7 73/108/7 70/101/7
f 73/108/7 69/102/7 76/109/7
f 74/110/56 72/111/57 73/112/58
f 73/112/58 75/113/56 74/110/56
f 76/109/7 75/114/7 73/108/7
f 75/114/7 76/109/7 77/115/7
f 78/116/59 77/117/59 76/118/60
f 76/118/60 79/119/60 78/116/59
f 79/119/60 76/118/60 69/120/61
f 80/121/62 78/122/63 79/123/64
f 69/120/61 68/124/61 79/119/60
f 81/125/65 79/123/64 68/126/66
f 79/123/64 81/125/65 80/121/62
f 80/127/67 81/128/68 82/129/68
f 83/130/69 82/129/68 81/128/68
f 68/126/66 84/131/70 81/125/65
f 81/128/68 84/132/69 83/130/69
f 85/133/71 83/134/72 84/135/72
f 84/135/72 86/136/71 85/133/71
f 66/137/73 86/138/74 84/131/70
f 84/131/70 68/126/66 66/137/73
f 87/139/75 85/133/71 86/136/71
f 86/136/71 88/140/76 87/139/75
f 64/141/77 88/142/78 86/138/74
f 86/138/74 66/137/73 64/141/77
f 92/143/31 87/144/31 88/145/31
f 88/142/78 64/141/77 89/146/79
f 89/146/79 54/147/80 88/142/78
f 90/148/20 91/149/20 88/145/20
f 54/74/20 90/148/20 88/145/20
f 88/145/20 91/149/20 93/150/20
f 88/145/31 93/150/31 92/143/31
f 95/151/81 92/152/82 93/153/82
f 93/154/7 104/155/7 94/156/7
f 94/156/7 96/157/7 93/154/7
f 93/153/82 96/158/81 95/151/81
f 97/159/20 93/150/20 98/160/20
f 104/155/7 93/154/7 97/161/7
f 99/162/20 98/160/20 93/150/20
f 103/163/20 99/162/20 93/150/20
f 91/149/20 100/164/20 93/150/20
f 100/164/20 101/165/20 93/150/20
f 101/165/20 102/166/20 93/150/20
f 102/166/20 103/163/20 93/150/20
f 104/167/1 105/71/1 107/168/50
f 105/169/20 104/170/20 106/171/20
f 97/161/7 106/172/7 104/155/7
f 107/168/50 94/173/50 104/167/1
f 109/174/83 107/175/84 105/176/85
f 94/173/50 107/168/50 108/177/51
f 110/178/86 108/179/87 107/175/84
f 107/175/84 109/174/83 110/178/86
f 111/180/88 112/181/89 110/182/89
f 110/182/89 109/183/88 111/180/88
f 113/184/90 110/185/91 112/186/91
f 108/179/87 110/178/86 113/187/92
f 112/186/91 114/188/93 113/184/90
f 116/189/94 113/184/90 114/188/93
f 113/187/92 115/190/95 108/179/87
f 115/190/95 113/187/92 116/191/96
f 118/192/97 116/191/96 117/193/98
f 117/194/99 116/189/94 119/195/94
f 116/191/96 118/192/97 115/190/95
f 114/188/93 119/195/94 116/189/94
f 119/195/94 120/196/99 117/194/99
f 121/197/100 120/196/100 119/195/101
f 119/195/101 122/198/101 121/197/100
f 123/199/102 122/198/101 119/195/101
f 119/195/101 114/188/102 123/199/102
f 122/198/103 123/199/104 125/200/104
f 123/199/104 126/201/105 124/202/105
f 124/202/105 125/200/104 123/199/104
f 112/186/106 126/201/106 123/199/102
f 123/199/102 114/188/102 112/186/106
f 96/158/81 124/203/107 126/204/107
f 126/204/108 112/181/108 111/180/109
f 111/180/109 95/151/109 126/204/108
f 126/204/107 95/151/81 96/158/81
f 125/200/104 127/205/110 122/198/103
f 128/206/7 127/207/7 125/208/7
f 129/209/7 125/208/7 124/210/7
f 125/208/7 129/209/7 128/206/7
f 118/211/59 128/212/59 129/213/60
f 129/213/60 115/214/60 118/211/59
f 115/214/60 129/213/60 130/215/61
f 124/210/7 130/216/7 129/209/7
f 130/215/61 108/217/61 115/214/60
f 108/177/51 130/218/51 94/173/50
f 96/157/7 94/156/7 130/216/7
f 130/216/7 124/210/7 96/157/7
f 128/212/59 118/211/59 131/219/111
f 131/219/111 132/220/111 128/212/59
f 127/207/7 128/206/7 132/221/7
f 132/222/112 131/223/112 135/224/113
f 134/225/7 132/221/7 133/226/7
f 135/224/113 133/227/113 132/222/112
f 132/221/7 134/225/7 127/207/7
f 137/228/114 136/229/115 135/230/116
f 133/227/113 135/224/113 136/231/9
f 138/232/117 135/230/116 131/233/118
f 135/230/116 138/232/117 137/228/114
f 137/234/119 138/235/120 139/236/120
f 131/233/118 117/193/98 138/232/117
f 120/237/121 139/236/120 138/235/120
f 138/235/120 117/238/121 120/237/121
f 139/236/120 140/239/122 137/234/119
f 140/239/1 139/236/6 141/240/6
f 141/240/6 139/236/6 120/237/123
f 141/240/6 142/241/1 140/239/1
f 142/241/124 141/240/3 143/242/3
f 134/243/125 143/242/3 141/240/3
f 141/240/3 121/244/125 134/243/125
f 120/237/123 121/244/123 141/240/6
f 133/226/7 143/245/7 134/225/7
f 143/245/7 133/226/7 106/172/7
f 143/242/3 97/246/124 142/241/124
f 106/172/7 97/161/7 143/245/7
f 144/247/1 146/248/1 142/241/1
f 147/249/1 144/247/1 142/241/1
f 147/249/1 142/241/1 145/250/126
f 145/251/127 142/252/41 97/159/41
f 146/248/1 140/239/1 142/241/1
f 145/250/126 148/253/128 147/249/1
f 148/253/128 145/250/126 149/254/129
f 149/254/129 150/255/129 148/253/128
f 150/255/130 149/254/130 152/256/130
f 152/256/130 151/257/130 150/255/130
f 151/258/2 152/259/2 153/260/2
f 153/261/131 152/262/132 154/263/133
f 155/264/134 154/263/133 152/262/132
f 152/262/132 149/265/135 155/264/134
f 156/266/127 155/264/134 149/265/135
f 155/264/20 156/266/20 157/267/20
f 154/263/20 155/264/20 157/267/20
f 157/267/20 156/266/20 97/159/20
f 103/163/30 157/267/136 158/268/136
f 159/269/31 158/268/31 157/267/31
f 97/159/20 98/160/20 157/267/20
f 157/267/31 98/160/31 159/269/31
f 154/263/20 157/267/20 103/163/20
f 162/270/7 159/271/7 160/272/7
f 160/273/137 159/269/137 98/160/137
f 161/274/9 158/275/9 159/276/9
f 159/276/9 162/277/9 161/274/9
f 160/272/7 163/278/7 162/270/7
f 163/279/1 160/280/1 164/281/1
f 164/281/1 165/282/1 163/279/1
f 158/278/2 161/283/2 165/284/2
f 165/284/2 164/270/2 158/278/2
f 99/162/41 103/163/41 164/285/41
f 158/268/136 164/285/30 103/163/30
f 164/285/41 160/273/41 99/162/41
f 98/160/137 99/162/137 160/273/137
f 149/265/135 145/251/127 156/266/127
f 97/159/41 156/266/127 145/251/127
f 154/263/133 166/286/138 153/261/131
f 166/286/20 154/263/20 39/55/20
f 39/55/20 154/263/20 167/287/20
f 167/287/20 154/263/20 35/51/20
f 35/51/20 154/263/20 168/288/20
f 103/163/20 102/166/20 154/263/20
f 102/166/20 168/288/20 154/263/20
f 168/288/20 171/289/20 35/51/20
f 171/289/31 168/288/31 169/290/31
f 170/291/137 169/290/137 168/288/137
f 168/288/137 102/166/137 170/291/137
f 101/165/20 35/51/20 171/289/20
f 101/165/30 171/289/30 172/292/30
f 169/290/31 172/292/31 171/289/31
f 172/292/30 173/293/30 101/165/30
f 175/294/2 173/295/2 172/296/2
f 172/296/2 174/297/2 175/294/2
f 174/298/9 172/299/9 169/300/9
f 173/301/1 175/302/1 176/303/1
f 176/303/1 170/304/1 173/301/1
f 170/271/7 176/305/7 177/306/7
f 177/306/7 169/272/7 170/271/7
f 169/300/9 177/307/9 174/298/9
f 173/293/41 170/291/41 102/166/41
f 102/166/41 101/165/41 173/293/41
f 35/51/20 37/50/20 167/287/20
f 39/55/137 167/287/137 178/308/137
f 179/309/5 178/308/5 167/287/5
f 167/287/5 37/50/5 179/309/5
f 181/310/1 178/311/1 179/280/1
f 180/312/2 179/313/2 36/314/2
f 36/53/30 179/309/30 37/50/30
f 179/280/1 180/279/1 181/310/1
f 178/315/7 181/312/7 182/316/7
f 182/316/7 38/317/7 178/315/7
f 38/318/9 182/319/9 183/320/9
f 36/314/2 183/316/2 180/312/2
f 183/320/9 36/321/9 38/318/9
f 178/308/137 38/54/137 39/55/137
f 184/322/139 153/261/131 166/286/138
f 166/286/138 185/323/140 184/322/139
f 185/323/20 166/286/20 39/55/20
f 186/324/20 185/323/20 39/55/20
f 185/323/140 186/324/141 187/325/142
f 187/325/142 184/322/139 185/323/140
f 187/326/143 190/327/9 188/328/9
f 189/329/144 187/326/143 188/328/9
f 187/326/143 189/329/144 191/330/145
f 190/331/146 187/325/146 192/332/146
f 187/325/142 186/324/141 192/332/147
f 191/330/145 184/333/145 187/326/148
f 192/332/20 186/324/20 6/13/20
f 6/334/7 194/335/7 192/336/7
f 193/337/149 190/327/150 192/338/151
f 192/336/7 194/335/7 193/339/7
f 193/339/7 194/335/7 195/340/7
f 196/341/20 195/342/20 194/343/20
f 194/343/20 197/344/20 196/341/20
f 197/345/9 194/346/9 198/347/113
f 7/348/7 198/349/7 194/335/7
f 194/335/7 6/334/7 7/348/7
f 198/347/113 199/350/113 197/345/9
f 199/350/113 198/347/113 200/351/112
f 201/352/7 200/353/7 198/349/7
f 198/349/7 7/348/7 201/352/7
f 200/353/7 201/352/7 203/354/7
f 8/14/3 202/355/125 201/356/125
f 201/356/125 7/9/3 8/14/3
f 203/357/152 201/358/153 202/359/153
f 205/360/154 203/357/152 204/361/155
f 202/359/153 204/361/155 203/357/152
f 203/354/7 206/362/7 200/353/7
f 206/362/7 203/354/7 205/363/7
f 206/364/156 207/365/156 209/366/111
f 207/365/156 206/364/156 208/367/157
f 205/363/7 208/368/7 206/362/7
f 209/366/111 200/369/111 206/364/156
f 210/370/158 209/371/159 207/372/160
f 200/351/112 209/373/112 199/350/113
f 209/371/159 210/370/158 211/374/161
f 211/374/161 199/375/162 209/371/159
f 213/376/163 212/377/164 211/378/165
f 214/379/166 211/378/165 212/377/164
f 211/378/165 210/380/163 213/376/163
f 199/375/162 211/374/161 214/381/167
f 214/381/167 197/382/168 199/375/162
f 214/381/167 216/383/169 197/382/168
f 215/384/170 214/379/166 9/8/171
f 215/385/172 216/383/169 214/381/167
f 212/377/164 9/8/171 214/379/166
f 188/386/2 216/383/169 215/385/172
f 216/387/173 188/328/174 218/388/175
f 216/383/169 217/389/176 197/382/168
f 218/388/175 217/390/177 216/387/173
f 190/327/9 218/388/9 188/328/9
f 218/388/9 190/327/9 221/391/178
f 218/388/175 220/392/179 219/393/179
f 219/393/179 217/390/177 218/388/175
f 221/391/178 220/392/180 218/388/9
f 220/392/180 221/391/178 222/394/108
f 222/394/107 221/391/181 223/395/182
f 193/337/149 223/395/182 221/391/181
f 221/391/181 190/327/150 193/337/149
f 223/396/7 224/397/7 225/398/7
f 224/397/7 223/396/7 193/339/7
f 225/398/7 226/399/7 223/396/7
f 223/395/182 226/400/107 222/394/107
f 227/401/154 222/402/105 226/403/105
f 226/403/105 205/360/154 227/401/154
f 208/368/7 205/363/7 226/399/7
f 226/399/7 225/398/7 208/368/7
f 227/401/183 204/361/184 228/404/184
f 204/361/155 227/401/154 205/360/154
f 228/404/184 229/405/183 227/401/183
f 227/401/183 229/405/183 230/406/106
f 230/406/106 222/402/106 227/401/183
f 222/394/108 230/407/108 220/392/180
f 220/392/179 230/407/185 231/408/185
f 232/409/186 231/410/187 230/406/188
f 230/406/188 229/405/189 232/409/186
f 235/411/190 232/409/186 229/405/189
f 234/412/191 231/413/192 232/414/193
f 232/414/193 233/415/194 234/412/191
f 233/415/194 232/414/193 235/416/195
f 235/416/195 207/372/160 233/415/194
f 207/372/160 235/416/195 210/370/158
f 210/417/196 235/411/190 228/404/190
f 229/405/189 228/404/190 235/411/190
f 225/418/61 234/419/61 233/420/157
f 224/421/50 236/350/50 234/373/51
f 234/373/51 225/422/51 224/421/50
f 231/413/192 234/412/191 236/423/197
f 219/424/198 236/423/197 196/425/199
f 195/426/1 196/345/1 236/350/50
f 236/350/50 224/421/50 195/426/1
f 236/423/197 219/424/198 231/413/192
f 208/367/157 233/420/157 207/365/156
f 233/420/157 208/367/157 225/418/61
f 231/408/185 219/393/179 220/392/179
f 228/404/184 204/361/184 202/359/100
f 228/404/190 213/427/196 210/417/196
f 202/359/100 213/427/100 228/404/184
f 193/339/7 195/340/7 224/397/7
f 196/425/199 217/389/176 219/424/198
f 217/389/176 196/425/199 197/382/168
f 9/8/171 2/2/200 215/384/170
f 2/6/2 3/5/2 215/385/172
f 3/5/2 188/386/2 215/385/172
f 8/14/6 212/377/6 213/376/123
f 213/376/123 202/355/123 8/14/6
f 9/8/1 212/377/6 8/14/6
f 184/333/201 191/330/201 237/428/201
f 237/428/201 153/429/201 184/333/201
f 153/260/2 237/430/2 151/258/2
f 3/431/9 189/329/144 188/328/9
f 39/55/20 6/13/20 186/324/20
f 144/432/2 238/433/2 146/434/2
f 146/434/2 238/433/2 239/435/202
f 140/239/122 146/248/203 239/436/204
f 238/433/2 240/437/2 239/435/202
f 240/437/2 241/438/205 239/435/202
f 239/435/202 241/438/205 137/228/114
f 239/436/204 137/234/119 140/239/122
f 241/439/206 240/440/207 243/441/208
f 137/228/114 241/438/205 136/229/115
f 241/438/205 242/442/209 136/229/115
f 243/441/208 242/443/210 241/439/206
f 109/183/88 242/443/210 243/441/208
f 243/441/208 111/180/88 109/183/88
f 95/151/109 111/180/109 243/441/9
f 243/441/9 92/152/9 95/151/109
f 92/152/9 243/441/9 240/440/9
f 242/442/209 105/176/85 136/229/115
f 105/176/85 242/442/209 109/174/83
f 238/444/9 92/152/9 240/440/9
f 244/445/9 92/152/9 238/444/9
f 92/152/9 244/445/9 245/446/9
f 245/446/9 246/447/9 87/139/9
f 245/446/9 87/139/9 92/152/9
f 246/447/9 247/448/9 87/139/9
f 246/449/7 51/450/7 247/451/7
f 247/451/7 51/450/7 61/84/7
f 248/452/211 247/448/212 61/453/213
f 247/448/9 248/452/9 87/139/9
f 248/452/9 71/104/109 85/133/109
f 71/104/53 248/452/211 62/106/54
f 85/133/109 87/139/9 248/452/9
f 61/453/213 62/106/54 248/452/211
f 106/171/20 136/454/20 105/169/20
f 136/231/9 106/455/9 133/227/113
f 127/205/110 134/456/153 121/197/153
f 117/193/98 131/233/118 118/192/97
f 121/197/153 122/198/103 127/205/110
f 249/457/20 35/51/20 101/165/20
f 101/165/20 100/164/20 249/457/20
f 35/51/20 249/457/20 250/458/20
f 250/458/20 249/457/20 52/73/20
f 54/74/20 52/73/20 249/457/20
f 90/148/31 249/457/31 251/459/31
f 252/460/137 251/459/137 249/457/137
f 249/457/137 100/164/137 252/460/137
f 249/457/20 90/148/20 54/74/20
f 255/461/1 252/462/1 253/463/1
f 253/464/41 252/460/41 100/164/41
f 254/465/7 251/314/7 252/313/7
f 252/313/7 255/466/7 254/465/7
f 253/463/1 256/467/1 255/461/1
f 256/295/2 253/468/2 257/469/2
f 257/469/2 258/296/2 256/295/2
f 258/470/9 257/471/9 251/472/9
f 251/472/9 254/473/9 258/470/9
f 91/149/136 90/148/136 257/474/136
f 251/459/31 257/474/31 90/148/31
f 257/474/136 253/464/136 91/149/136
f 100/164/41 91/149/41 253/464/41
f 35/51/34 250/458/35 43/58/35
f 47/76/40 43/58/35 250/458/35
f 250/458/35 52/73/40 47/76/40
f 65/95/20 89/475/20 64/93/20
f 259/476/113 260/477/113 89/478/9
f 89/478/9 65/479/9 259/476/113
f 54/147/80 89/146/79 260/480/214
f 260/477/113 259/476/113 261/481/112
f 261/481/112 262/482/112 260/477/113
f 263/483/215 260/480/214 262/484/216
f 260/480/214 263/483/215 54/147/80
f 264/485/217 55/78/42 263/486/42
f 54/79/44 263/486/42 55/78/42
f 263/486/42 265/487/217 264/485/217
f 262/484/216 265/488/218 263/483/215
f 265/488/218 262/484/216 78/122/63
f 78/122/63 80/121/62 265/488/218
f 266/489/67 264/490/219 265/491/219
f 265/491/219 80/127/67 266/489/67
f 266/489/101 268/492/101 267/493/100
f 267/493/100 264/490/100 266/489/101
f 266/489/101 82/129/102 74/110/102
f 82/129/68 266/489/67 80/127/67
f 74/110/102 268/492/101 266/489/101
f 267/493/220 268/492/103 269/494/110
f 75/113/56 269/494/110 268/492/103
f 268/492/103 74/110/56 75/113/56
f 269/494/110 270/495/221 267/493/220
f 261/496/7 270/497/7 269/498/7
f 269/498/7 77/115/7 261/496/7
f 77/115/7 269/498/7 75/114/7
f 59/80/48 267/499/125 270/500/125
f 270/497/7 261/496/7 259/501/7
f 259/501/7 57/502/7 270/497/7
f 270/500/125 57/82/48 59/80/48
f 264/485/123 267/499/123 59/80/6
f 59/80/6 55/78/6 264/485/123
f 77/117/59 78/116/59 262/503/111
f 262/503/111 261/504/111 77/117/59
f 57/502/7 259/501/7 65/96/7
f 72/103/108 83/134/108 85/133/109
f 85/133/109 71/104/109 72/103/108
f 74/110/102 82/129/102 83/130/106
f 83/130/106 72/111/106 74/110/102
f 65/96/7 58/89/7 57/502/7
f 51/450/7 53/87/7 61/84/7
f 41/505/222 44/506/222 271/507/222
f 271/507/222 32/508/222 41/505/222
f 32/508/223 271/507/223 20/28/8
f 41/56/32 32/48/29 33/47/28
f 12/19/20 6/13/20 39/55/20
f 20/28/8 21/30/10 32/508/223
f 25/45/24 272/509/224 30/44/23
f 275/510/20 30/511/20 272/512/20
f 273/513/113 274/514/113 30/461/9
f 30/461/9 275/515/9 273/513/113
f 29/42/21 30/44/23 274/516/225
f 277/517/7 275/518/7 276/519/7
f 272/512/20 276/520/20 275/510/20
f 278/521/7 273/522/7 275/518/7
f 275/518/7 277/517/7 278/521/7
f 280/523/125 278/524/226 279/525/226
f 281/526/227 279/525/226 278/524/226
f 273/522/7 278/521/7 280/527/7
f 278/524/226 277/528/228 281/526/227
f 281/526/1 11/17/1 282/529/6
f 11/17/1 281/526/1 18/27/1
f 282/529/6 279/525/6 281/526/1
f 281/526/227 277/528/228 283/530/229
f 283/530/229 18/27/230 281/526/227
f 17/24/7 283/531/7 284/532/7
f 18/26/7 283/531/7 17/24/7
f 284/532/7 283/531/7 276/519/7
f 283/531/7 277/517/7 276/519/7
f 284/533/231 285/534/232 27/35/232
f 27/35/232 23/34/233 284/533/231
f 286/535/7 285/536/7 284/532/7
f 284/532/7 276/519/7 286/535/7
f 17/537/234 284/533/231 23/34/233
f 286/538/50 287/539/50 288/540/51
f 287/539/50 286/538/50 276/541/1
f 288/540/51 289/542/51 286/538/50
f 285/536/7 286/535/7 289/543/7
f 289/542/61 288/544/61 290/545/235
f 290/545/235 292/546/157 289/542/61
f 289/543/7 291/547/7 285/536/7
f 291/547/7 289/543/7 292/548/7
f 295/549/7 292/548/7 293/550/7
f 294/551/156 293/552/156 292/546/157
f 292/546/157 290/545/235 294/551/156
f 292/548/7 295/549/7 291/547/7
f 291/553/105 295/554/154 296/555/236
f 297/556/237 296/555/236 295/554/154
f 293/550/7 298/557/7 295/549/7
f 295/554/154 298/558/238 297/556/237
f 299/559/153 297/556/237 298/558/238
f 298/558/238 280/560/153 299/559/153
f 300/561/7 280/527/7 298/557/7
f 298/557/7 293/550/7 300/561/7
f 280/527/7 300/561/7 273/522/7
f 274/514/113 273/513/113 300/562/112
f 301/563/111 300/564/111 293/552/156
f 300/562/112 301/565/112 274/514/113
f 303/566/239 301/567/240 294/568/241
f 293/552/156 294/551/156 301/563/111
f 302/569/242 274/516/225 301/567/240
f 301/567/240 303/566/239 302/569/242
f 302/570/243 303/571/244 304/572/244
f 305/573/245 304/574/246 303/575/246
f 303/575/246 306/576/245 305/573/245
f 294/568/241 306/577/247 303/566/239
f 306/577/247 294/568/241 290/578/248
f 290/578/248 308/579/249 306/577/247
f 307/580/250 305/573/245 306/576/245
f 306/576/245 308/581/250 307/580/250
f 288/582/251 309/583/252 308/579/249
f 308/581/250 309/584/253 310/585/253
f 308/579/249 290/578/248 288/582/251
f 310/585/253 307/580/250 308/581/250
f 311/586/108 310/587/108 26/36/19
f 26/36/15 310/587/254 309/588/254
f 296/555/183 307/580/183 310/585/106
f 310/585/106 311/589/106 296/555/183
f 285/534/232 291/590/107 311/586/107
f 311/586/107 27/35/232 285/534/232
f 26/36/19 27/35/13 311/586/108
f 296/555/236 311/589/105 291/553/105
f 309/583/252 288/582/251 287/591/255
f 287/591/255 24/592/256 309/583/252
f 309/588/254 24/37/16 26/36/15
f 305/573/184 307/580/183 296/555/183
f 299/559/100 304/574/100 305/573/184
f 305/573/184 297/556/184 299/559/100
f 296/555/183 297/556/184 305/573/184
f 304/572/244 282/529/243 302/570/243
f 279/525/6 282/529/6 304/572/123
f 304/572/123 299/593/123 279/525/6
f 274/516/225 302/569/242 29/42/21
f 29/594/257 302/570/243 282/529/243
f 279/525/226 299/593/125 280/523/125
f 24/592/256 287/591/255 272/509/224
f 276/541/1 272/595/1 287/539/50
f 282/529/243 11/17/258 29/594/257
f 272/509/224 25/45/24 24/592/256
f 12/19/5 29/40/5 11/18/5
f 23/34/233 16/32/259 17/537/234
