# Blender 4.4.3
# www.blender.org
mtllib LockHolder.mtl
o Lock.002
v 0.481368 0.065757 0.078702
v 0.470348 0.050589 0.078702
v 0.506929 0.074177 0.078601
v 0.481368 0.074177 0.078702
v 0.481669 0.065337 0.087819
v 0.481404 0.074177 0.087820
v 0.481669 0.083016 0.087819
v 0.470724 0.099060 0.087734
v 0.503316 0.074177 0.087753
v 0.481368 0.082597 0.078702
v 0.470348 0.097765 0.078702
v 0.506929 0.126967 0.072487
v 0.452517 0.103559 0.078702
v 0.452517 0.105305 0.087654
v 0.434310 0.099060 0.087734
v 0.503117 0.128568 0.081601
v 0.452517 0.130911 0.081330
v 0.401917 0.128568 0.081601
v 0.452517 0.148488 0.067754
v 0.463542 0.151598 0.063986
v 0.463661 0.149677 0.054898
v 0.452517 0.146056 0.059174
v 0.470462 0.159860 0.056079
v 0.470549 0.170875 0.049018
v 0.502888 0.156176 0.060485
v 0.470549 0.159157 0.046081
v 0.506929 0.155025 0.051122
v 0.470549 0.170875 0.038980
v 0.506929 0.175007 0.037155
v 0.463661 0.180355 0.045148
v 0.463661 0.180355 0.035575
v 0.470549 0.170875 -0.002229
v 0.506929 0.175007 -0.002229
v 0.506929 0.203817 -0.002229
v 0.506929 0.203817 0.038537
v 0.452517 0.203817 -0.002229
v 0.452517 0.203817 0.038992
v 0.398105 0.203817 -0.002229
v 0.398105 0.203817 0.038431
v 0.398105 0.175007 -0.002229
v 0.434485 0.170875 -0.002229
v 0.398105 0.175007 0.037155
v 0.434485 0.170875 0.038980
v 0.434485 0.159157 0.046081
v 0.398105 0.155025 0.051122
v 0.398105 0.173459 0.043123
v 0.402144 0.156176 0.060485
v 0.398150 0.153331 0.057802
v 0.401995 0.174566 0.047149
v 0.434485 0.170875 0.049018
v 0.434572 0.159860 0.056079
v 0.402247 0.201184 0.043075
v 0.452517 0.200023 0.043040
v 0.441372 0.180355 0.045148
v 0.452517 0.183976 0.034668
v 0.452517 0.183976 0.044081
v 0.441372 0.180355 0.035575
v 0.452517 0.183976 -0.002229
v 0.441372 0.180355 -0.002229
v 0.463661 0.180355 -0.002229
v 0.502887 0.201246 0.043052
v 0.506929 0.173506 0.043241
v 0.503039 0.174566 0.047149
v 0.506884 0.153330 0.057801
v 0.507002 0.127060 0.077781
v 0.507148 0.074177 0.083715
v 0.507002 0.021294 0.077781
v 0.506884 -0.004976 0.057801
v 0.503117 0.019786 0.081601
v 0.506929 0.021387 0.072487
v 0.452517 0.044795 0.078702
v 0.452517 0.019535 0.072374
v 0.470549 -0.010803 0.046081
v 0.463661 -0.001323 0.054898
v 0.506929 -0.006671 0.051122
v 0.470549 -0.022521 0.038980
v 0.506929 -0.026653 0.037155
v 0.506929 -0.025152 0.043241
v 0.503039 -0.026212 0.047149
v 0.506929 -0.055463 0.038537
v 0.502888 -0.007822 0.060485
v 0.470549 -0.022521 0.049018
v 0.470462 -0.011506 0.056079
v 0.463542 -0.003244 0.063986
v 0.452517 -0.000134 0.067754
v 0.452517 0.017443 0.081330
v 0.452517 0.043050 0.087654
v 0.434310 0.049294 0.087734
v 0.401917 0.019786 0.081601
v 0.441492 -0.003244 0.063986
v 0.423364 0.065337 0.087819
v 0.402144 -0.007822 0.060485
v 0.398031 0.021294 0.077781
v 0.397886 0.074177 0.083715
v 0.401717 0.074177 0.087753
v 0.398031 0.127060 0.077781
v 0.423364 0.083016 0.087819
v 0.434686 0.097765 0.078702
v 0.423629 0.074177 0.087820
v 0.423665 0.082597 0.078702
v 0.398105 0.074177 0.078601
v 0.423665 0.065757 0.078702
v 0.423665 0.074177 0.078702
v 0.398105 0.126967 0.072487
v 0.452517 0.128819 0.072374
v 0.441372 0.149677 0.054898
v 0.441492 0.151598 0.063986
v 0.398105 0.021387 0.072487
v 0.434686 0.050589 0.078702
v 0.398105 -0.006671 0.051122
v 0.441372 -0.001323 0.054898
v 0.452517 0.002298 0.059174
v 0.434485 -0.010803 0.046081
v 0.434572 -0.011506 0.056079
v 0.401995 -0.026212 0.047149
v 0.434485 -0.022521 0.049018
v 0.434485 -0.022521 0.038980
v 0.441372 -0.032001 0.045148
v 0.402248 -0.052830 0.043075
v 0.452517 -0.051669 0.043040
v 0.398105 -0.055463 0.038431
v 0.398105 -0.025105 0.043123
v 0.398105 -0.055463 0.033676
v 0.398150 -0.004977 0.057802
v 0.398105 -0.026653 0.037155
v 0.398105 -0.055463 -0.002229
v 0.398105 -0.026653 -0.002229
v 0.434485 -0.022521 -0.002229
v 0.441372 -0.032001 0.035575
v 0.441372 -0.032001 -0.002229
v 0.452517 -0.035622 0.034668
v 0.452517 -0.035622 -0.002229
v 0.463661 -0.032001 0.035575
v 0.463661 -0.032001 -0.002229
v 0.470549 -0.022521 -0.002229
v 0.506929 -0.026653 -0.002229
v 0.506929 -0.055463 -0.002229
v 0.452517 -0.055463 0.038992
v 0.452517 -0.055463 -0.002229
v 0.502887 -0.052893 0.043052
v 0.463661 -0.032001 0.045148
v 0.452517 -0.035622 0.044081
v 0.470724 0.049294 0.087734
vn -0.8150 0.5733 0.0846
vn -0.8150 0.5733 0.0845
vn -0.0413 0.1627 -0.9858
vn -0.0618 0.0914 -0.9939
vn -0.0648 -0.0000 -0.9979
vn -0.0040 -0.0000 -1.0000
vn -0.9998 -0.0000 0.0181
vn -0.9997 -0.0153 0.0181
vn -0.9997 -0.0154 0.0181
vn 0.0697 0.0915 0.9934
vn 0.0032 -0.0000 1.0000
vn 0.0695 -0.0915 0.9934
vn -0.9997 0.0157 0.0177
vn 0.0717 -0.0000 0.9974
vn 0.0456 0.1603 0.9860
vn -0.8150 -0.5733 0.0845
vn -0.8150 -0.5733 0.0846
vn -0.9997 0.0154 0.0181
vn -0.0618 -0.0914 -0.9939
vn -0.0413 -0.1627 -0.9858
vn -0.0284 -0.3818 -0.9238
vn -0.0000 -0.2111 -0.9775
vn -0.3128 -0.9354 0.1647
vn -0.0000 0.2087 0.9780
vn 0.0331 0.3764 0.9259
vn -0.0456 0.1603 0.9860
vn -0.0000 0.4115 0.9114
vn 0.3128 -0.9354 0.1647
vn 0.3129 -0.9354 0.1647
vn -0.0331 0.3764 0.9259
vn -0.0000 0.6311 0.7757
vn 0.0176 0.6302 0.7762
vn -0.3571 0.9064 -0.2257
vn -0.8239 0.5602 -0.0859
vn -0.0145 0.6079 0.7939
vn -0.0245 0.3645 0.9309
vn -0.0138 0.6093 0.7928
vn -1.0000 0.0011 -0.0043
vn -1.0000 0.0011 -0.0044
vn -1.0000 0.0010 -0.0040
vn -0.0120 -0.6299 -0.7766
vn 0.0201 -0.5996 -0.8001
vn 0.0193 -0.6020 -0.7983
vn 0.0368 -0.5531 -0.8323
vn 0.1129 -0.9936 -0.0000
vn -0.8090 -0.5878 -0.0000
vn 1.0000 -0.0000 -0.0000
vn -0.0000 1.0000 -0.0000
vn 1.0000 0.0005 0.0011
vn -1.0000 -0.0000 -0.0000
vn -1.0000 0.0004 0.0010
vn -0.1129 -0.9936 -0.0000
vn -0.0368 -0.5531 -0.8323
vn -0.0201 -0.5996 -0.8001
vn -0.0192 -0.6020 -0.7983
vn -1.0000 0.0012 0.0028
vn -1.0000 0.0014 0.0022
vn -0.7195 0.1087 0.6859
vn -0.7214 0.2381 0.6503
vn -0.7207 0.2556 0.6444
vn -0.7029 0.4275 0.5685
vn -0.7027 0.4262 0.5697
vn -1.0000 0.0006 -0.0013
vn 0.0145 0.6079 0.7939
vn 0.0246 0.3643 0.9309
vn 0.0246 0.3664 0.9301
vn 0.0174 0.1817 0.9832
vn 0.0138 0.6093 0.7928
vn 0.0001 0.0988 0.9951
vn 0.0159 0.1470 0.9890
vn 0.0059 0.8055 0.5926
vn -0.0004 0.8047 0.5936
vn -0.0004 0.8047 0.5937
vn 0.0060 0.8054 0.5927
vn 0.3090 -0.9511 -0.0000
vn 0.0001 0.0989 0.9951
vn 0.8090 -0.5878 -0.0000
vn 0.8090 -0.5877 -0.0000
vn -0.3090 -0.9511 -0.0000
vn -0.0157 0.1473 0.9890
vn -0.0172 0.1819 0.9832
vn 0.7157 0.2399 0.6559
vn 0.7139 0.1087 0.6918
vn 0.7139 0.1087 0.6917
vn 0.7148 0.2579 0.6500
vn -0.0246 0.3662 0.9302
vn -0.0069 0.8042 0.5943
vn -0.0069 0.8042 0.5944
vn 0.7001 0.4271 0.5722
vn 0.7008 0.4282 0.5706
vn 1.0000 0.0013 0.0022
vn 1.0000 0.0006 -0.0013
vn 0.9998 -0.0013 -0.0221
vn 0.7253 0.2204 0.6522
vn 1.0000 0.0012 0.0028
vn 0.9999 -0.0008 -0.0167
vn 0.9996 -0.0000 -0.0280
vn 0.7211 -0.0000 0.6928
vn 0.7253 0.2200 0.6523
vn 0.7253 -0.2204 0.6522
vn 0.9998 0.0013 -0.0221
vn 0.9999 0.0008 -0.0167
vn 1.0000 -0.0006 -0.0013
vn 0.7008 -0.4282 0.5706
vn 0.7253 -0.2201 0.6523
vn -0.0284 0.3818 -0.9238
vn -0.0000 0.2111 -0.9775
vn -0.0000 0.4146 -0.9100
vn -0.0120 0.6299 -0.7766
vn 0.0193 0.6020 -0.7983
vn 0.0201 0.5996 -0.8001
vn 1.0000 -0.0013 0.0022
vn 0.0368 0.5531 -0.8323
vn 1.0000 -0.0012 0.0027
vn 1.0000 -0.0004 0.0010
vn 0.7157 -0.2399 0.6559
vn 0.7001 -0.4271 0.5722
vn 0.7139 -0.1087 0.6917
vn 0.7150 -0.2578 0.6499
vn -0.0245 -0.3645 0.9309
vn -0.0246 -0.3661 0.9302
vn -0.0138 -0.6093 0.7928
vn -0.0145 -0.6079 0.7939
vn 0.0331 -0.3764 0.9259
vn -1.0000 -0.0011 -0.0044
vn -1.0000 -0.0017 -0.0040
vn -0.8239 -0.5602 -0.0859
vn 0.0176 -0.6302 0.7762
vn -0.3571 -0.9064 -0.2257
vn -0.0000 -0.4115 0.9114
vn -0.0000 -0.6311 0.7757
vn -0.0000 -0.2087 0.9780
vn -0.0456 -0.1603 0.9860
vn -0.0331 -0.3764 0.9259
vn -0.0176 -0.6303 0.7762
vn 0.0138 -0.6093 0.7928
vn -0.0697 -0.0916 0.9934
vn -0.0717 -0.0000 0.9974
vn -0.7027 -0.4262 0.5697
vn -0.7253 -0.2200 0.6523
vn -0.7253 -0.2203 0.6522
vn -0.7211 -0.0000 0.6928
vn -0.7253 0.2203 0.6522
vn -0.7253 0.2200 0.6523
vn -0.0697 0.0916 0.9934
vn 0.8150 -0.5733 0.0846
vn 0.8150 -0.5733 0.0845
vn -0.0038 -0.0000 1.0000
vn 0.9997 0.0154 0.0181
vn 0.9998 -0.0000 0.0181
vn 0.0619 -0.0916 -0.9939
vn 0.0647 -0.0000 -0.9979
vn 0.0284 -0.3818 -0.9238
vn 0.0619 0.0914 -0.9939
vn -0.0000 -1.0000 -0.0000
vn 0.0414 -0.1627 -0.9858
vn -0.0000 -0.6321 -0.7749
vn -0.0000 -0.4146 -0.9100
vn 0.0120 -0.6299 -0.7766
vn -0.9999 -0.0008 -0.0167
vn -0.9998 -0.0013 -0.0221
vn -0.9996 -0.0000 -0.0280
vn 0.8239 0.5602 -0.0859
vn 0.3571 0.9064 -0.2257
vn -0.0176 0.6303 0.7762
vn 0.9997 -0.0157 0.0177
vn 0.9997 -0.0153 0.0181
vn 0.0284 0.3818 -0.9238
vn 0.0648 0.0001 -0.9979
vn 0.0619 0.0915 -0.9939
vn 0.0414 0.1627 -0.9858
vn 0.8150 0.5733 0.0846
vn 0.8150 0.5733 0.0845
vn 0.3128 0.9354 0.1647
vn -0.0000 0.6321 -0.7749
vn -0.9999 0.0009 -0.0167
vn -0.9998 0.0013 -0.0221
vn -1.0000 -0.0014 0.0022
vn -0.0192 0.6020 -0.7983
vn 0.0120 0.6299 -0.7766
vn 0.3571 -0.9064 -0.2257
vn -0.0201 0.5996 -0.8001
vn 0.8239 -0.5602 -0.0859
vn 0.0144 -0.6079 0.7939
vn 0.0246 -0.3664 0.9301
vn 0.0246 -0.3643 0.9309
vn 1.0000 -0.0012 -0.0047
vn 1.0000 -0.0011 -0.0044
vn 1.0000 -0.0010 -0.0041
vn 0.8090 0.5878 -0.0000
vn 0.8090 0.5877 -0.0000
vn 0.0174 -0.1817 0.9832
vn 0.0159 -0.1470 0.9890
vn 0.0001 -0.0988 0.9951
vn -0.0004 -0.8047 0.5936
vn 0.0060 -0.8054 0.5926
vn -0.7214 -0.2381 0.6503
vn -0.7195 -0.1087 0.6859
vn -0.7196 -0.1087 0.6859
vn -0.7206 -0.2557 0.6444
vn -1.0000 -0.0010 0.0023
vn -0.7029 -0.4275 0.5686
vn -1.0000 -0.0002 0.0005
vn -1.0000 -0.0006 -0.0013
vn -0.1129 0.9936 -0.0000
vn -0.0368 0.5531 -0.8323
vn 0.3090 0.9511 -0.0000
vn -0.3090 0.9511 -0.0000
vn -0.8090 0.5878 -0.0000
vn 0.1129 0.9936 -0.0000
vn -0.0069 -0.8042 0.5944
vn -0.0069 -0.8042 0.5943
vn -0.0172 -0.1819 0.9832
vn -0.0157 -0.1473 0.9890
vn 0.0001 -0.0989 0.9951
vn 0.0456 -0.1603 0.9860
vn -0.3128 0.9354 0.1647
vn 1.0000 0.0017 -0.0040
vn 1.0000 0.0011 -0.0044
vt 0.113231 0.217278
vt 0.112731 0.232425
vt 0.094423 0.232425
vt 0.358678 0.671180
vt 0.335568 0.654390
vt 0.322740 0.615447
vt 0.322740 0.654390
vt 0.176818 0.106341
vt 0.163663 0.106341
vt 0.163663 0.094194
vt 0.176816 0.093588
vt 0.039378 0.664512
vt 0.039787 0.678174
vt 0.039378 0.691836
vt 0.176816 0.119094
vt 0.005922 0.678174
vt 0.056295 0.639717
vt 0.687884 0.222796
vt 0.687383 0.207649
vt 0.705568 0.207791
vt 0.163663 0.118489
vt 0.706192 0.222796
vt 0.309911 0.654390
vt 0.286802 0.671180
vt 0.242311 0.615447
vt 0.277975 0.698347
vt 0.735816 0.207924
vt 0.735816 0.222796
vt 0.084434 0.630065
vt 0.006229 0.594111
vt 0.112574 0.639717
vt 0.084434 0.590489
vt 0.766064 0.207791
vt 0.162639 0.594111
vt 0.084434 0.563324
vt 0.067395 0.558517
vt 0.101223 0.102437
vt 0.085843 0.102639
vt 0.093078 0.083778
vt 0.087841 0.114149
vt 0.107599 0.083778
vt 0.056699 0.545748
vt 0.056565 0.528723
vt 0.006584 0.551441
vt 0.108439 0.097219
vt 0.122860 0.098232
vt 0.112677 0.114121
vt 0.070920 0.114296
vt 0.207711 0.681368
vt 0.193267 0.670874
vt 0.199563 0.615447
vt 0.175414 0.670874
vt 0.098198 0.114121
vt 0.169118 0.615447
vt 0.856501 0.396591
vt 0.916565 0.396591
vt 0.919348 0.452073
vt 0.934656 0.452073
vt 0.928754 0.462577
vt 0.914154 0.462577
vt 0.856502 0.452073
vt 0.896384 0.355035
vt 0.953193 0.355035
vt 0.953193 0.396591
vt 0.326083 0.478465
vt 0.326083 0.537265
vt 0.247601 0.537265
vt 0.894391 0.396591
vt 0.247601 0.477809
vt 0.169118 0.537265
vt 0.728599 0.543125
vt 0.728599 0.601776
vt 0.687042 0.601776
vt 0.169118 0.478617
vt 0.687042 0.544966
vt 0.916565 0.562554
vt 0.856501 0.562554
vt 0.856502 0.507072
vt 0.919348 0.507072
vt 0.169118 0.781247
vt 0.175414 0.725820
vt 0.193267 0.725820
vt 0.199563 0.781248
vt 0.684808 0.536358
vt 0.658218 0.524820
vt 0.168530 0.477809
vt 0.168530 0.524730
vt 0.162518 0.523019
vt 0.168461 0.555838
vt 0.162288 0.551441
vt 0.655776 0.515184
vt 0.112169 0.545748
vt 0.112304 0.528723
vt 0.162128 0.481879
vt 0.084434 0.483674
vt 0.101659 0.514072
vt 0.084434 0.477809
vt 0.912772 0.479573
vt 0.927127 0.479573
vt 0.928754 0.496568
vt 0.914154 0.496568
vt 0.084434 0.508475
vt 0.934656 0.507072
vt 0.856501 0.496568
vt 0.856501 0.479573
vt 0.856501 0.462577
vt 0.067210 0.514072
vt 0.006584 0.481783
vt 0.000338 0.524656
vt 0.000338 0.477809
vt 0.006350 0.523019
vt 0.000407 0.555840
vt 0.876237 0.326211
vt 0.866604 0.323767
vt 0.837783 0.285874
vt 0.000225 0.596441
vt 0.887606 0.352870
vt 0.845420 0.285739
vt 0.829224 0.209593
vt 0.000000 0.678174
vt 0.000225 0.759908
vt 0.836601 0.209593
vt 0.837783 0.133312
vt 0.845420 0.133447
vt 0.866604 0.095419
vt 0.000407 0.800509
vt 0.006229 0.762238
vt 0.403168 0.615447
vt 0.367505 0.698347
vt 0.405991 0.698347
vt 0.437769 0.681368
vt 0.445916 0.615447
vt 0.452212 0.670874
vt 0.876237 0.092975
vt 0.470065 0.670874
vt 0.476361 0.615447
vt 0.887606 0.066316
vt 0.896384 0.064151
vt 0.000338 0.831692
vt 0.006584 0.804908
vt 0.894391 0.022595
vt 0.000338 0.878539
vt 0.006350 0.833329
vt 0.056565 0.827625
vt 0.056699 0.810601
vt 0.125475 0.001013
vt 0.139896 -0.000000
vt 0.150138 0.016902
vt 0.845591 0.022594
vt 0.862511 0.022741
vt 0.875893 0.034453
vt 0.135659 0.016902
vt 0.067395 0.797832
vt 0.860513 0.034251
vt 0.882269 0.053111
vt 0.084434 0.765860
vt 0.084434 0.793025
vt 0.084434 0.726283
vt 0.112574 0.716632
vt 0.162639 0.762238
vt 0.101474 0.797832
vt 0.162288 0.804908
vt 0.129491 0.691836
vt 0.162947 0.678174
vt 0.168644 0.759908
vt 0.168868 0.678174
vt 0.168644 0.596441
vt 0.129491 0.664512
vt 0.765440 0.222796
vt 0.784248 0.207649
vt 0.783748 0.222796
vt 0.129081 0.678174
vt 0.122264 0.095781
vt 0.109110 0.096387
vt 0.109108 0.083634
vt 0.309911 0.742304
vt 0.322740 0.781247
vt 0.242311 0.781248
vt 0.335568 0.742304
vt 0.322740 0.742304
vt 0.122264 0.083634
vt 0.286802 0.725514
vt 0.213228 0.698347
vt 0.239489 0.698347
vt 0.207711 0.715327
vt 0.617747 0.494003
vt 0.617882 0.486366
vt 0.541601 0.485183
vt 0.101223 0.065120
vt 0.085843 0.064918
vt 0.070920 0.053261
vt 0.087841 0.053408
vt 0.101474 0.558517
vt 0.109110 0.070880
vt 0.122264 0.071486
vt 0.403168 0.781247
vt 0.358678 0.725514
vt 0.034551 0.217420
vt 0.035175 0.232425
vt 0.016867 0.232425
vt 0.016366 0.217278
vt 0.064799 0.217553
vt 0.064799 0.232425
vt 0.432252 0.698347
vt 0.541601 0.477807
vt 0.465455 0.494003
vt 0.465320 0.486366
vt 0.424983 0.524820
vt 0.445916 0.781247
vt 0.437769 0.715326
vt 0.867748 0.053111
vt 0.875893 0.071770
vt 0.860513 0.071972
vt 0.452212 0.725820
vt 0.862511 0.083482
vt 0.845591 0.083629
vt 0.112170 0.810601
vt 0.162518 0.833329
vt 0.112304 0.827625
vt 0.806733 0.000002
vt 0.821155 0.001015
vt 0.810970 0.016904
vt 0.796492 0.016904
vt 0.888176 0.184801
vt 0.872868 0.184801
vt 0.878770 0.174297
vt 0.162127 0.874470
vt 0.101659 0.842277
vt 0.084434 0.872674
vt 0.168531 0.878539
vt 0.168531 0.831618
vt 0.354602 0.549985
vt 0.354602 0.543126
vt 0.398393 0.536358
vt 0.168461 0.800511
vt 0.396159 0.544966
vt 0.427425 0.515184
vt 0.951023 0.240282
vt 0.890960 0.240282
vt 0.470065 0.725820
vt 0.476361 0.781247
vt 0.354602 0.601776
vt 0.396159 0.601776
vt 0.951023 0.184801
vt 0.893370 0.174297
vt 0.951023 0.174297
vt 0.894752 0.157301
vt 0.951023 0.157301
vt 0.893370 0.140305
vt 0.951023 0.140305
vt 0.888176 0.129801
vt 0.951023 0.129801
vt 0.890959 0.074320
vt 0.951023 0.074320
vt 0.953193 0.022595
vt 0.953193 0.064151
vt 0.463711 0.555903
vt 0.463711 0.497103
vt 0.542194 0.496447
vt 0.542194 0.555903
vt 0.620676 0.504114
vt 0.620676 0.555903
vt 0.084434 0.878539
vt 0.006584 0.874566
vt 0.620676 0.497255
vt 0.067210 0.842277
vt 0.084434 0.847874
vt 0.880397 0.157301
vt 0.878770 0.140305
vt 0.872868 0.129801
vt 0.056295 0.716632
vt 0.095047 0.217420
vt 0.671017 0.047846
vt 0.671017 0.033367
vt 0.686906 0.023183
vt 0.687919 0.037604
s 1
usemtl blinn1SG.001
f 5/1/1 1/2/2 2/3/1
f 2/4/3 1/5/4 3/6/5
f 3/6/5 1/5/4 4/7/6
f 6/8/7 4/9/7 1/10/8
f 1/10/8 5/11/9 6/8/7
f 7/12/10 6/13/11 5/14/12
f 4/9/7 6/8/7 7/15/13
f 5/14/12 9/16/14 7/12/10
f 8/17/15 7/12/10 9/16/14
f 10/18/16 7/19/16 8/20/17
f 7/15/13 10/21/18 4/9/7
f 8/20/17 11/22/17 10/18/16
f 3/6/5 10/23/19 11/24/20
f 3/6/5 4/7/6 10/23/19
f 12/25/21 11/24/20 13/26/22
f 11/24/20 12/25/21 3/6/5
f 14/27/23 13/28/23 11/22/23
f 11/22/23 8/20/23 14/27/23
f 14/29/24 8/17/15 16/30/25
f 15/31/26 14/29/24 17/32/27
f 13/28/28 14/27/29 15/33/28
f 16/30/25 17/32/27 14/29/24
f 18/34/30 17/32/27 19/35/31
f 17/32/27 18/34/30 15/31/26
f 20/36/32 19/35/31 17/32/27
f 17/32/27 16/30/25 20/36/32
f 20/37/33 21/38/33 22/39/33
f 21/38/34 20/37/34 23/40/34
f 22/39/33 19/41/33 20/37/33
f 23/42/35 20/36/32 16/30/25
f 24/43/36 23/42/35 25/44/37
f 26/45/38 23/46/39 24/47/40
f 16/30/25 25/44/37 23/42/35
f 23/40/34 26/48/34 21/38/34
f 12/25/21 21/49/41 26/50/42
f 27/51/43 26/50/42 28/52/44
f 26/50/42 27/51/43 12/25/21
f 24/47/40 28/53/39 26/45/38
f 28/52/44 29/54/44 27/51/43
f 33/55/45 29/56/45 28/57/45
f 28/57/46 24/58/46 30/59/46
f 30/59/46 31/60/46 28/57/46
f 32/61/46 28/57/46 31/60/46
f 28/57/45 32/61/45 33/55/45
f 29/62/47 33/63/47 34/64/47
f 35/65/48 34/66/48 36/67/48
f 34/64/47 35/68/47 29/62/49
f 36/67/48 37/69/48 35/65/48
f 37/69/48 36/67/48 38/70/48
f 39/71/50 38/72/50 40/73/50
f 38/70/48 39/74/48 37/69/48
f 40/73/50 42/75/51 39/71/50
f 42/76/52 40/77/52 41/78/52
f 41/78/52 43/79/52 42/76/52
f 42/80/53 43/81/53 44/82/54
f 44/82/54 45/83/55 42/80/53
f 46/84/56 42/75/51 45/85/57
f 39/71/50 42/75/51 46/84/56
f 39/86/58 46/87/59 49/88/60
f 46/87/59 48/89/61 47/90/62
f 47/90/62 49/88/60 46/87/59
f 45/85/57 48/91/63 46/84/56
f 51/92/64 50/93/65 49/88/66
f 52/94/67 49/88/66 50/93/65
f 49/88/60 52/94/58 39/86/58
f 49/88/66 47/90/68 51/92/64
f 53/95/69 52/94/67 54/96/70
f 52/94/71 53/95/72 37/97/73
f 50/93/65 54/96/70 52/94/67
f 37/97/73 39/86/74 52/94/71
f 55/98/75 56/99/75 54/100/75
f 54/100/75 57/101/75 55/98/75
f 54/96/70 56/102/76 53/95/69
f 57/101/77 54/100/77 50/103/77
f 59/104/77 57/101/77 43/79/77
f 50/103/77 43/79/77 57/101/77
f 58/105/75 55/98/75 57/101/75
f 57/101/75 59/104/75 58/105/75
f 43/79/78 41/78/78 59/104/78
f 55/98/79 58/105/79 60/106/79
f 60/106/79 31/60/79 55/98/79
f 31/60/46 60/106/46 32/61/46
f 31/60/79 30/59/79 56/99/79
f 56/99/79 55/98/79 31/60/79
f 56/102/76 30/107/80 61/108/81
f 61/108/81 53/95/69 56/102/76
f 62/109/82 35/110/83 61/108/84
f 61/108/84 63/111/85 62/109/82
f 63/111/86 61/108/81 30/107/80
f 53/95/72 61/108/87 35/110/88
f 25/44/37 63/111/86 24/43/36
f 63/111/85 25/44/89 64/112/90
f 30/107/80 24/43/36 63/111/86
f 64/112/90 62/109/82 63/111/85
f 27/113/91 64/114/92 65/115/93
f 65/116/94 64/112/90 25/44/89
f 64/114/92 27/113/91 29/62/49
f 29/62/49 62/117/95 64/114/92
f 12/118/96 65/115/93 66/119/97
f 66/120/98 65/116/94 16/30/99
f 25/44/89 16/30/99 65/116/94
f 65/115/93 12/118/96 27/113/91
f 16/30/99 9/16/98 66/120/98
f 67/121/100 66/120/98 9/16/98
f 3/122/97 66/119/97 67/123/101
f 66/119/97 3/122/97 12/118/96
f 70/124/102 67/123/101 68/125/103
f 68/126/104 67/121/100 69/127/105
f 9/16/98 69/127/105 67/121/100
f 67/123/101 70/124/102 3/122/97
f 3/6/5 70/128/106 2/4/3
f 71/129/107 2/4/3 70/128/106
f 70/128/106 72/130/108 71/129/107
f 72/130/108 70/128/106 74/131/109
f 70/128/106 75/132/110 73/133/111
f 73/133/111 74/131/109 70/128/106
f 68/125/103 75/134/112 70/124/102
f 76/135/113 73/133/111 75/132/110
f 75/132/110 77/136/113 76/135/113
f 78/137/114 77/138/115 75/134/112
f 75/134/112 68/125/103 78/137/114
f 78/139/116 68/126/104 81/140/117
f 80/141/47 77/138/115 78/137/114
f 80/142/118 78/139/116 79/143/119
f 81/140/117 79/143/119 78/139/116
f 82/144/120 79/143/121 81/140/122
f 81/140/122 83/145/123 82/144/120
f 83/145/123 81/140/122 69/127/124
f 69/127/105 81/140/117 68/126/104
f 83/146/125 73/147/125 76/148/126
f 73/149/127 83/150/127 84/151/127
f 76/148/126 82/152/125 83/146/125
f 69/127/124 84/153/128 83/145/123
f 74/154/129 84/151/129 85/155/129
f 84/151/127 74/154/127 73/149/127
f 86/156/130 85/157/131 84/153/128
f 84/153/128 69/127/124 86/156/130
f 86/156/130 87/158/132 88/159/133
f 87/158/132 86/156/130 69/127/124
f 88/159/133 89/160/134 86/156/130
f 85/157/131 86/156/130 89/160/134
f 89/160/134 90/161/135 85/157/131
f 90/161/135 89/160/134 92/162/136
f 89/160/134 88/159/133 91/163/137
f 91/163/137 95/164/138 89/160/134
f 92/162/139 89/160/140 93/165/141
f 94/166/142 93/165/141 89/160/140
f 89/160/140 95/164/142 94/166/142
f 96/167/143 94/166/142 95/164/142
f 95/164/142 18/34/144 96/167/143
f 18/34/30 95/164/138 97/168/145
f 97/168/145 95/164/138 91/163/137
f 98/169/146 15/33/147 97/170/147
f 97/170/147 100/171/147 98/169/146
f 91/163/137 99/172/148 97/168/145
f 100/173/149 97/174/149 99/175/150
f 97/168/145 15/31/26 18/34/30
f 100/176/151 101/177/152 104/178/153
f 102/179/154 101/177/152 100/176/151
s 0
f 100/176/155 103/180/48 102/179/48
s 1
f 99/175/150 103/181/150 100/173/149
f 104/178/153 98/182/156 100/176/151
f 22/183/157 105/184/158 104/178/153
f 98/182/156 104/178/153 105/184/158
f 104/178/153 106/185/159 22/183/157
f 106/185/159 104/178/153 45/83/55
f 48/91/63 45/85/57 104/186/160
f 104/186/160 96/187/161 48/91/63
f 96/187/161 104/186/160 101/188/162
f 107/189/163 106/190/163 44/191/163
f 45/83/55 44/82/54 106/185/159
f 19/41/164 22/39/164 106/190/164
f 106/190/164 107/189/164 19/41/164
f 44/191/163 51/192/163 107/189/163
f 107/193/165 51/92/64 47/90/68
f 19/35/31 107/193/165 18/34/30
f 47/90/68 18/34/30 107/193/165
f 105/184/158 13/26/22 98/182/156
f 105/184/158 22/183/157 21/49/41
f 21/49/41 12/25/21 105/184/158
f 13/26/22 105/184/158 12/25/21
f 103/181/150 99/175/150 91/194/166
f 91/194/166 102/195/167 103/181/150
f 108/196/168 101/177/169 102/179/170
f 102/179/170 109/197/171 108/196/168
f 88/198/172 109/199/172 102/200/173
f 102/200/173 91/201/173 88/198/172
f 72/130/108 108/196/168 109/197/171
f 109/197/171 71/129/107 72/130/108
f 87/202/174 71/203/174 109/199/174
f 109/199/174 88/198/174 87/202/174
f 108/196/168 72/130/108 112/204/175
f 94/205/162 101/188/162 108/206/176
f 93/207/177 108/206/176 110/208/178
f 110/209/179 108/196/168 111/210/180
f 112/204/175 111/210/180 108/196/168
f 108/206/176 93/207/177 94/205/162
f 74/131/109 112/204/175 72/130/108
f 85/155/129 112/211/129 74/154/129
f 90/212/181 111/213/181 112/211/181
f 112/211/181 85/155/181 90/212/181
f 111/210/180 113/214/182 110/209/179
f 114/215/183 113/216/183 111/213/183
f 111/213/183 90/212/183 114/215/183
f 92/162/136 114/217/184 90/161/135
f 114/217/184 92/162/136 115/218/185
f 115/218/185 116/219/186 114/217/184
f 113/220/187 114/221/188 116/222/189
f 116/222/189 117/223/188 113/220/187
f 117/224/190 116/225/191 118/226/190
f 119/227/192 118/228/193 116/219/186
f 116/219/186 115/218/185 119/227/192
f 118/228/193 119/227/192 120/229/194
f 120/229/195 119/227/196 121/230/196
f 122/231/197 121/230/198 119/227/199
f 119/227/199 115/218/200 122/231/197
f 123/232/50 121/233/50 122/234/201
f 124/235/202 122/231/197 115/218/200
f 122/234/201 125/236/203 123/232/50
f 125/236/203 122/234/201 124/237/204
f 127/238/205 125/239/205 117/224/205
f 113/214/182 117/240/206 125/241/206
f 125/241/206 110/209/179 113/214/182
f 124/237/204 110/208/178 125/236/203
f 126/242/50 123/232/50 125/236/203
f 125/236/50 127/243/50 126/242/50
f 117/224/205 128/244/205 127/238/205
f 129/245/190 130/246/190 128/244/190
f 128/244/191 117/224/190 129/245/190
f 131/247/207 132/248/207 130/246/207
f 130/246/207 129/245/207 131/247/207
f 133/249/208 134/250/208 132/248/208
f 132/248/208 131/247/208 133/249/208
f 134/250/209 133/249/209 76/251/209
f 76/251/209 135/252/209 134/250/209
f 77/253/210 136/254/210 135/252/210
f 135/252/210 76/251/210 77/253/210
f 80/141/47 137/255/47 136/256/47
f 136/256/47 77/138/115 80/141/47
f 137/257/155 80/258/155 138/259/155
f 138/259/155 139/260/155 137/257/155
f 139/260/155 138/259/155 123/261/155
f 123/261/155 126/262/155 139/260/155
f 138/263/195 80/142/211 140/264/212
f 121/230/196 138/263/195 120/229/195
f 140/264/212 120/229/195 138/263/195
f 123/261/155 138/259/155 121/265/155
f 140/264/213 141/266/214 142/267/215
f 141/266/214 140/264/213 79/143/121
f 142/267/215 120/229/194 140/264/213
f 79/143/119 140/264/118 80/142/118
f 131/247/208 142/268/208 141/269/208
f 142/268/207 131/247/207 129/245/207
f 129/245/207 118/226/207 142/268/207
f 120/229/194 142/267/215 118/228/193
f 79/143/121 82/144/120 141/266/214
f 133/249/209 141/269/209 82/270/209
f 141/269/208 133/249/208 131/247/208
f 82/270/209 76/251/209 133/249/209
f 118/226/190 129/245/190 117/224/190
f 110/208/178 124/237/204 93/207/177
f 93/165/141 124/235/202 92/162/139
f 115/218/200 92/162/139 124/235/202
f 101/188/162 94/205/162 96/187/161
f 15/33/28 98/169/28 13/28/28
f 48/89/61 96/167/143 18/34/144
f 69/127/124 143/271/216 87/158/132
f 71/203/217 87/202/217 143/272/217
f 143/272/217 2/3/217 71/203/217
f 2/3/1 143/272/1 5/1/1
f 9/16/14 5/14/12 143/271/216
f 143/271/216 69/127/124 9/16/14
f 29/62/49 35/68/47 62/117/95
f 35/110/88 37/97/73 53/95/72
f 43/273/218 50/274/219 51/275/219
f 51/275/219 44/276/219 43/273/218
f 18/34/144 47/90/62 48/89/61
f 9/16/14 16/30/25 8/17/15
