# This file uses centimeters as units for non-parametric coordinates.

mtllib cabinet.mtl
g default
v -2.200000 3.637616 5.872581
v -2.200000 19.729550 5.872581
v -2.200000 19.729550 -5.872581
v -2.200000 3.637616 -5.872581
v -3.483949 21.029550 7.111013
v 3.483945 21.029550 7.111013
v 3.483945 21.029550 -7.111013
v -3.483949 21.029550 -7.111013
v 3.213089 20.889546 6.810754
v -3.213092 20.889546 6.810754
v -3.213092 20.889546 -6.810754
v 3.213089 20.889546 -6.810754
v 3.050146 20.749547 6.595059
v -3.050149 20.749547 6.595059
v -3.050149 20.749547 -6.595059
v 3.050146 20.749547 -6.595059
v 2.934318 20.609548 6.479230
v -2.934320 20.609548 6.479230
v -2.934320 20.609548 -6.479230
v 2.934318 20.609548 -6.479230
v 2.856797 20.469546 6.449890
v -2.856799 20.469546 6.449890
v -2.856799 20.469546 -6.449890
v 2.856797 20.469546 -6.449890
v 3.483944 20.889546 7.111008
v -3.483946 20.889546 7.111008
v -3.483946 20.889546 -7.111008
v 3.483944 20.889546 -7.111008
v -3.040006 1.099408 -6.712586
v 3.040003 1.099408 -6.712586
v 3.040003 1.099408 6.712586
v -3.040006 1.099408 6.712586
v -3.040006 1.499408 -6.712586
v -3.100000 1.439415 -6.772581
v 3.099998 1.439415 -6.772581
v 3.040003 1.499408 -6.712586
v 3.099998 1.159403 -6.772581
v -3.100000 1.159403 -6.772581
v 3.099998 1.439415 6.772581
v 3.040003 1.499408 6.712586
v 3.099998 1.159403 6.772581
v -3.100000 1.439415 6.772581
v -3.040006 1.499408 6.712586
v -3.100000 1.159403 6.772581
v 2.854819 1.499408 6.527401
v 2.799998 1.499408 6.362940
v 2.690357 1.499408 6.472581
v 2.845433 20.441535 6.454430
v 2.690357 20.329549 6.472581
v 2.799998 20.219909 6.362940
v 2.799998 20.329549 6.350373
v -2.854821 1.499408 6.527401
v -2.690359 1.499408 6.472581
v -2.800000 1.499408 6.362940
v -2.828823 20.400592 6.461066
v -2.800000 20.329549 6.362940
v -2.690359 20.329549 6.472581
v 2.845433 20.441535 -6.454430
v 2.799998 20.329549 -6.305693
v 2.799998 20.219909 -6.362940
v 2.690357 20.329549 -6.472581
v 2.854819 1.499408 -6.527401
v 2.690357 1.499408 -6.472581
v 2.799998 1.499408 -6.362940
v -2.828823 20.400592 -6.461066
v -2.690359 20.329549 -6.472581
v -2.800000 20.329549 -6.362940
v -2.854821 1.499408 -6.527401
v -2.800000 1.499408 -6.362940
v -2.690359 1.499408 -6.472581
v 2.740004 3.637616 5.872581
v 2.799998 3.577621 5.932575
v 2.740004 19.729550 5.872581
v 2.799998 19.789544 5.932575
v 2.740004 19.729550 -5.872581
v 2.799998 19.789544 -5.932575
v 2.799998 3.577621 -5.932575
v 2.740004 3.637616 -5.872581
v 1.460857 1.139834 5.098109
v 3.013111 1.139834 5.140146
v 2.980580 1.139833 6.654885
v 1.511267 1.139834 6.681332
v 2.286552 0.310393 6.015364
v 3.013111 0.310393 6.020165
v 2.980580 0.310393 6.654885
v 2.295102 0.310393 6.681332
v 2.941753 0.393609 6.616364
v 2.958609 0.393609 5.898911
v 2.183199 0.393609 5.892823
v 2.191724 0.393609 6.629979
v 2.916169 0.542854 6.590982
v 2.920770 0.542854 5.794163
v 2.097012 0.542854 5.791473
v 2.100490 0.542854 6.594686
v 2.907245 0.692099 6.582128
v 2.907246 0.692099 5.685186
v 2.003175 0.692099 5.685186
v 2.003175 0.692099 6.582129
v 2.916169 0.841343 6.590982
v 2.920770 0.841343 5.549375
v 1.874914 0.841343 5.544747
v 1.880548 0.841343 6.594686
v 2.941753 0.990589 6.616364
v 2.958609 0.990589 5.369545
v 1.694316 0.990589 5.349730
v 1.718165 0.990589 6.629979
v 2.128522 0.000000 5.858315
v 3.177256 0.000000 5.865247
v 3.129078 -0.000000 6.805272
v 2.141169 0.000000 6.843387
v 2.208379 0.310393 5.937677
v 2.128522 0.231561 5.858315
v 3.177256 0.231561 5.865247
v 3.094308 0.310393 5.943533
v 3.129078 0.231561 6.805272
v 3.054037 0.310393 6.729277
v 2.141169 0.231561 6.843387
v 2.218956 0.310393 6.761495
v -1.460860 1.139834 5.098110
v -3.013113 1.139834 5.140147
v -2.980584 1.139833 6.654886
v -1.511270 1.139834 6.681333
v -2.286555 0.310393 6.015365
v -3.013113 0.310393 6.020166
v -2.980584 0.310393 6.654886
v -2.295104 0.310393 6.681333
v -2.941756 0.393609 6.616364
v -2.958612 0.393609 5.898912
v -2.183201 0.393609 5.892824
v -2.191727 0.393609 6.629980
v -2.916172 0.542854 6.590983
v -2.920773 0.542854 5.794164
v -2.097015 0.542854 5.791474
v -2.100493 0.542854 6.594687
v -2.907248 0.692099 6.582129
v -2.907248 0.692099 5.685187
v -2.003178 0.692099 5.685187
v -2.003178 0.692099 6.582130
v -2.916172 0.841343 6.590983
v -2.920773 0.841343 5.549376
v -1.874916 0.841343 5.544748
v -1.880551 0.841343 6.594687
v -2.941756 0.990589 6.616364
v -2.958612 0.990589 5.369546
v -1.694318 0.990589 5.349730
v -1.718168 0.990589 6.629980
v -2.128525 0.000000 5.858316
v -3.177258 0.000000 5.865248
v -3.129080 -0.000000 6.805273
v -2.141172 0.000000 6.843388
v -2.208382 0.310393 5.937678
v -2.128525 0.231561 5.858316
v -3.177258 0.231561 5.865248
v -3.094311 0.310393 5.943534
v -3.129080 0.231561 6.805273
v -3.054039 0.310393 6.729278
v -2.141172 0.231561 6.843388
v -2.218958 0.310393 6.761496
v 1.460857 1.139834 -5.098109
v 3.013111 1.139834 -5.140145
v 2.980581 1.139833 -6.654883
v 1.511267 1.139834 -6.681331
v 2.286552 0.310393 -6.015363
v 3.013111 0.310393 -6.020164
v 2.980581 0.310393 -6.654883
v 2.295102 0.310393 -6.681331
v 2.941753 0.393609 -6.616363
v 2.958609 0.393609 -5.898910
v 2.183199 0.393609 -5.892821
v 2.191724 0.393609 -6.629977
v 2.916170 0.542854 -6.590981
v 2.920770 0.542854 -5.794162
v 2.097012 0.542854 -5.791472
v 2.100490 0.542854 -6.594684
v 2.907245 0.692099 -6.582126
v 2.907245 0.692099 -5.685185
v 2.003175 0.692099 -5.685185
v 2.003175 0.692099 -6.582129
v 2.916170 0.841343 -6.590981
v 2.920770 0.841343 -5.549373
v 1.874914 0.841343 -5.544745
v 1.880548 0.841343 -6.594684
v 2.941753 0.990589 -6.616363
v 2.958609 0.990589 -5.369544
v 1.694316 0.990589 -5.349729
v 1.718165 0.990589 -6.629977
v 2.128522 0.000000 -5.858314
v 3.177255 0.000000 -5.865245
v 3.129078 -0.000000 -6.805270
v 2.141169 0.000000 -6.843387
v 2.208379 0.310393 -5.937676
v 2.128522 0.231561 -5.858314
v 3.177255 0.231561 -5.865245
v 3.094308 0.310393 -5.943532
v 3.129078 0.231561 -6.805270
v 3.054037 0.310393 -6.729276
v 2.141169 0.231561 -6.843387
v 2.218956 0.310393 -6.761493
v -1.460859 1.139834 -5.098109
v -3.013114 1.139834 -5.140146
v -2.980583 1.139833 -6.654885
v -1.511270 1.139834 -6.681332
v -2.286554 0.310393 -6.015364
v -3.013114 0.310393 -6.020165
v -2.980583 0.310393 -6.654885
v -2.295104 0.310393 -6.681332
v -2.941755 0.393609 -6.616364
v -2.958612 0.393609 -5.898911
v -2.183201 0.393609 -5.892823
v -2.191727 0.393609 -6.629979
v -2.916172 0.542854 -6.590982
v -2.920773 0.542854 -5.794163
v -2.097015 0.542854 -5.791473
v -2.100492 0.542854 -6.594686
v -2.907247 0.692099 -6.582128
v -2.907248 0.692099 -5.685186
v -2.003178 0.692099 -5.685186
v -2.003178 0.692099 -6.582129
v -2.916172 0.841343 -6.590982
v -2.920773 0.841343 -5.549375
v -1.874917 0.841343 -5.544747
v -1.880550 0.841343 -6.594686
v -2.941755 0.990589 -6.616364
v -2.958612 0.990589 -5.369545
v -1.694318 0.990589 -5.349730
v -1.718168 0.990589 -6.629979
v -2.128525 0.000000 -5.858315
v -3.177258 0.000000 -5.865247
v -3.129080 -0.000000 -6.805272
v -2.141172 0.000000 -6.843387
v -2.208382 0.310393 -5.937677
v -2.128525 0.231561 -5.858315
v -3.177258 0.231561 -5.865247
v -3.094311 0.310393 -5.943533
v -3.129080 0.231561 -6.805272
v -3.054039 0.310393 -6.729277
v -2.141172 0.231561 -6.843387
v -2.218959 0.310393 -6.761495
v 2.159319 3.637616 -0.000000
v 2.159319 19.729550 -0.000000
v 2.159319 3.637616 -5.872582
v 2.159319 19.729550 -5.872582
v 2.439318 19.614202 -5.757234
v 2.323969 19.729550 -5.872582
v 2.323969 3.637616 -5.872582
v 2.439318 3.752964 -5.757234
v 2.439318 19.614202 -0.115349
v 2.323969 19.729550 -0.000000
v 2.439318 3.752964 -0.115349
v 2.323969 3.637616 -0.000000
v 2.439318 19.150212 -0.567857
v 2.439318 19.150212 -5.304726
v 2.439318 4.216953 -5.304726
v 2.439318 4.216953 -0.567857
v 2.256631 19.150212 -0.567857
v 2.256631 19.150212 -5.304726
v 2.256631 4.216953 -5.304726
v 2.256631 4.216953 -0.567857
v 2.256631 18.981782 -0.730645
v 2.256631 18.981782 -5.141938
v 2.256631 5.300666 -5.141938
v 2.256631 5.300666 -0.730645
v 2.454115 12.141225 -2.936291
v 2.320629 18.981782 -0.730645
v 2.454115 18.848296 -0.864130
v 2.320629 18.981782 -5.141938
v 2.454115 18.848296 -5.008452
v 2.320629 5.300666 -5.141938
v 2.454115 5.434152 -5.008452
v 2.320629 5.300666 -0.730645
v 2.454115 5.434152 -0.864130
v 2.779878 12.137485 -0.348228
v 2.700344 12.368030 -0.252732
v 2.756583 12.346087 -0.261821
v 2.779878 12.293105 -0.283765
v 2.700344 12.313931 -0.171774
v 2.756583 12.297143 -0.188569
v 2.779878 12.256597 -0.229116
v 2.700344 12.232974 -0.117680
v 2.756583 12.223891 -0.139624
v 2.779878 12.201947 -0.192601
v 2.700344 12.137485 -0.098685
v 2.756583 12.137485 -0.122437
v 2.779878 12.137485 -0.179778
v 2.700344 12.041989 -0.117680
v 2.756583 12.051078 -0.139624
v 2.779878 12.073022 -0.192601
v 2.700344 11.961032 -0.171774
v 2.756583 11.977820 -0.188569
v 2.779878 12.018367 -0.229116
v 2.700344 11.906936 -0.252732
v 2.756583 11.928876 -0.261821
v 2.779878 11.981858 -0.283765
v 2.700344 11.887942 -0.348228
v 2.756583 11.911693 -0.348228
v 2.779878 11.969035 -0.348228
v 2.700344 11.906936 -0.443723
v 2.756583 11.928876 -0.434634
v 2.779878 11.981858 -0.412690
v 2.700344 11.961032 -0.524681
v 2.756583 11.977820 -0.507886
v 2.779878 12.018367 -0.467339
v 2.700344 12.041989 -0.578775
v 2.756583 12.051078 -0.556831
v 2.779878 12.073022 -0.503855
v 2.700344 12.137485 -0.597770
v 2.756583 12.137485 -0.574019
v 2.779878 12.137485 -0.516677
v 2.700344 12.232974 -0.578775
v 2.756583 12.223891 -0.556831
v 2.779878 12.201947 -0.503855
v 2.700344 12.313931 -0.524681
v 2.756583 12.297143 -0.507886
v 2.779878 12.256597 -0.467339
v 2.700344 12.368030 -0.443724
v 2.756583 12.346087 -0.434634
v 2.779878 12.293105 -0.412690
v 2.700344 12.387021 -0.348228
v 2.756583 12.363276 -0.348228
v 2.779878 12.305934 -0.348228
v 2.533012 12.235005 -0.307831
v 2.674225 12.368030 -0.252732
v 2.533012 12.212123 -0.273584
v 2.674225 12.313931 -0.171774
v 2.533012 12.177876 -0.250701
v 2.674225 12.232974 -0.117680
v 2.533012 12.137485 -0.242666
v 2.674225 12.137485 -0.098685
v 2.533012 12.097087 -0.250701
v 2.674225 12.041989 -0.117680
v 2.533012 12.062840 -0.273584
v 2.674225 11.961032 -0.171774
v 2.533012 12.039958 -0.307831
v 2.674225 11.906936 -0.252732
v 2.533012 12.031917 -0.348228
v 2.674225 11.887942 -0.348228
v 2.533012 12.039958 -0.388624
v 2.674225 11.906936 -0.443723
v 2.533012 12.062840 -0.422871
v 2.674225 11.961032 -0.524681
v 2.533012 12.097087 -0.445754
v 2.674225 12.041989 -0.578775
v 2.533012 12.137485 -0.453790
v 2.674225 12.137485 -0.597770
v 2.533012 12.177876 -0.445754
v 2.674225 12.232974 -0.578775
v 2.533012 12.212123 -0.422871
v 2.674225 12.313931 -0.524681
v 2.533012 12.235005 -0.388625
v 2.674225 12.368030 -0.443724
v 2.533012 12.243047 -0.348228
v 2.674225 12.387021 -0.348228
v 2.328852 12.212123 -0.273584
v 2.328852 12.235005 -0.307831
v 2.328852 12.177876 -0.250701
v 2.328852 12.137485 -0.242666
v 2.328852 12.097087 -0.250701
v 2.328852 12.062840 -0.273584
v 2.328852 12.039958 -0.307831
v 2.328852 12.031917 -0.348228
v 2.328852 12.039958 -0.388624
v 2.328852 12.062840 -0.422871
v 2.328852 12.097087 -0.445754
v 2.328852 12.137485 -0.453790
v 2.328852 12.177876 -0.445754
v 2.328852 12.212123 -0.422871
v 2.328852 12.235005 -0.388625
v 2.328852 12.243047 -0.348228
v 2.159319 3.637616 5.872581
v 2.159319 19.729550 5.872581
v 2.159319 3.637616 0.000000
v 2.159319 19.729550 -0.000000
v 2.439318 19.614202 0.115348
v 2.323969 19.729550 -0.000000
v 2.323969 3.637616 0.000000
v 2.439318 3.752964 0.115349
v 2.439318 19.614202 5.757233
v 2.323969 19.729550 5.872581
v 2.439318 3.752964 5.757233
v 2.323969 3.637616 5.872581
v 2.439318 19.150212 5.304725
v 2.439318 19.150212 0.567856
v 2.439318 4.216953 0.567856
v 2.439318 4.216953 5.304725
v 2.256631 19.150212 5.304725
v 2.256631 19.150212 0.567856
v 2.256631 4.216953 0.567856
v 2.256631 4.216953 5.304725
v 2.256631 18.981782 5.141937
v 2.256631 18.981782 0.730644
v 2.256631 5.300666 0.730644
v 2.256631 5.300666 5.141937
v 2.454115 12.141225 2.936291
v 2.320629 18.981782 5.141937
v 2.454115 18.848296 5.008451
v 2.320629 18.981782 0.730644
v 2.454115 18.848296 0.864130
v 2.320629 5.300666 0.730644
v 2.454115 5.434152 0.864130
v 2.320629 5.300666 5.141937
v 2.454115 5.434152 5.008451
v 2.779878 12.137485 0.348228
v 2.700344 12.368030 0.252732
v 2.756583 12.346087 0.261821
v 2.779878 12.293105 0.283765
v 2.700344 12.313931 0.171774
v 2.756583 12.297143 0.188569
v 2.779878 12.256597 0.229116
v 2.700344 12.232974 0.117680
v 2.756583 12.223891 0.139624
v 2.779878 12.201947 0.192601
v 2.700344 12.137485 0.098685
v 2.756583 12.137485 0.122437
v 2.779878 12.137485 0.179778
v 2.700344 12.041989 0.117680
v 2.756583 12.051078 0.139624
v 2.779878 12.073022 0.192601
v 2.700344 11.961032 0.171774
v 2.756583 11.977820 0.188569
v 2.779878 12.018367 0.229116
v 2.700344 11.906936 0.252732
v 2.756583 11.928876 0.261821
v 2.779878 11.981858 0.283765
v 2.700344 11.887942 0.348228
v 2.756583 11.911693 0.348228
v 2.779878 11.969035 0.348228
v 2.700344 11.906936 0.443723
v 2.756583 11.928876 0.434634
v 2.779878 11.981858 0.412690
v 2.700344 11.961032 0.524681
v 2.756583 11.977820 0.507886
v 2.779878 12.018367 0.467339
v 2.700344 12.041989 0.578775
v 2.756583 12.051078 0.556831
v 2.779878 12.073022 0.503855
v 2.700344 12.137485 0.597770
v 2.756583 12.137485 0.574019
v 2.779878 12.137485 0.516677
v 2.700344 12.232974 0.578775
v 2.756583 12.223891 0.556831
v 2.779878 12.201947 0.503855
v 2.700344 12.313931 0.524681
v 2.756583 12.297143 0.507886
v 2.779878 12.256597 0.467339
v 2.700344 12.368030 0.443723
v 2.756583 12.346087 0.434634
v 2.779878 12.293105 0.412690
v 2.700344 12.387021 0.348228
v 2.756583 12.363276 0.348228
v 2.779878 12.305934 0.348228
v 2.533012 12.235005 0.307831
v 2.674225 12.368030 0.252732
v 2.533012 12.212123 0.273584
v 2.674225 12.313931 0.171774
v 2.533012 12.177876 0.250701
v 2.674225 12.232974 0.117680
v 2.533012 12.137485 0.242666
v 2.674225 12.137485 0.098685
v 2.533012 12.097087 0.250701
v 2.674225 12.041989 0.117680
v 2.533012 12.062840 0.273584
v 2.674225 11.961032 0.171774
v 2.533012 12.039958 0.307831
v 2.674225 11.906936 0.252732
v 2.533012 12.031917 0.348228
v 2.674225 11.887942 0.348228
v 2.533012 12.039958 0.388624
v 2.674225 11.906936 0.443723
v 2.533012 12.062840 0.422871
v 2.674225 11.961032 0.524681
v 2.533012 12.097087 0.445754
v 2.674225 12.041989 0.578775
v 2.533012 12.137485 0.453790
v 2.674225 12.137485 0.597770
v 2.533012 12.177876 0.445754
v 2.674225 12.232974 0.578775
v 2.533012 12.212123 0.422871
v 2.674225 12.313931 0.524681
v 2.533012 12.235005 0.388624
v 2.674225 12.368030 0.443723
v 2.533012 12.243047 0.348228
v 2.674225 12.387021 0.348228
v 2.328852 12.212123 0.273584
v 2.328852 12.235005 0.307831
v 2.328852 12.177876 0.250701
v 2.328852 12.137485 0.242666
v 2.328852 12.097087 0.250701
v 2.328852 12.062840 0.273584
v 2.328852 12.039958 0.307831
v 2.328852 12.031917 0.348228
v 2.328852 12.039958 0.388624
v 2.328852 12.062840 0.422871
v 2.328852 12.097087 0.445754
v 2.328852 12.137485 0.453790
v 2.328852 12.177876 0.445754
v 2.328852 12.212123 0.422871
v 2.328852 12.235005 0.388624
v 2.328852 12.243047 0.348228
vt 0.277639 0.380541
vt 0.277639 0.005114
vt 0.531362 0.005114
vt 0.531362 0.380541
vt 0.275453 0.380541
vt 0.275453 0.005114
vt 0.533548 0.005114
vt 0.533548 0.380541
vt 0.275682 0.381958
vt 0.275905 0.383333
vt 0.533318 0.381958
vt 0.533096 0.383333
vt 0.533680 0.386124
vt 0.275320 0.386124
vt 0.535990 0.388915
vt 0.273011 0.388915
vt 0.540290 0.391706
vt 0.268710 0.391706
vt 0.232482 0.387695
vt 0.232482 0.706216
vt 0.000000 0.706216
vt 0.000000 0.387695
vt 0.395162 0.684807
vt 0.395162 0.403299
vt 0.397934 0.403299
vt 0.397934 0.684807
vt 0.400431 0.684807
vt 0.400431 0.403299
vt 0.403203 0.403299
vt 0.403203 0.684807
vt 0.007215 0.379298
vt 0.265111 0.379298
vt 0.265698 0.382097
vt 0.006628 0.382097
vt 0.265202 0.378738
vt 0.268013 0.384896
vt 0.004312 0.384896
vt 0.007124 0.378738
vt 0.272326 0.387695
vt 0.000000 0.387695
vt 0.262228 0.376499
vt 0.009204 0.376499
vt 0.263373 0.374307
vt 0.265565 0.376499
vt 0.006761 0.376499
vt 0.008953 0.374307
vt 0.263373 0.000041
vt 0.265565 0.000041
vt 0.006761 0.000041
vt 0.008953 0.000041
vt 0.254769 0.365703
vt 0.017557 0.365703
vt 0.254769 0.041589
vt 0.017557 0.041589
vt 0.018756 0.364504
vt 0.253569 0.364504
vt 0.253569 0.042789
vt 0.018756 0.042789
vt 0.507674 0.391706
vt 0.507674 0.675937
vt 0.501798 0.675937
vt 0.501798 0.391706
vt 0.508933 0.392965
vt 0.508933 0.674678
vt 0.500539 0.392965
vt 0.500539 0.674678
vt 0.997675 0.000041
vt 0.997675 0.284272
vt 0.991800 0.284272
vt 0.991800 0.000041
vt 0.998934 0.283013
vt 0.998934 0.001300
vt 0.990541 0.283013
vt 0.990541 0.001300
vt 0.980874 0.021482
vt 0.980874 0.051939
vt 0.977873 0.051164
vt 0.977873 0.026095
vt 0.974872 0.050654
vt 0.974872 0.029710
vt 0.971871 0.050476
vt 0.971871 0.032441
vt 0.968870 0.050654
vt 0.968870 0.034632
vt 0.965870 0.051164
vt 0.965870 0.036739
vt 0.964196 0.051939
vt 0.964196 0.039177
vt 0.942660 0.245536
vt 0.942660 0.265051
vt 0.937852 0.265051
vt 0.937852 0.245536
vt 0.944296 0.247161
vt 0.944296 0.263474
vt 0.905775 0.053116
vt 0.905775 0.073554
vt 0.900970 0.073554
vt 0.900970 0.053116
vt 0.907410 0.071908
vt 0.907410 0.054815
vt 0.980874 0.167264
vt 0.977873 0.162651
vt 0.977873 0.137582
vt 0.980874 0.136808
vt 0.974872 0.159036
vt 0.974872 0.138092
vt 0.971871 0.156305
vt 0.971871 0.138270
vt 0.968870 0.154114
vt 0.968870 0.138092
vt 0.965870 0.152008
vt 0.965870 0.137582
vt 0.964196 0.149570
vt 0.964196 0.136808
vt 0.953197 0.258259
vt 0.948390 0.258259
vt 0.948390 0.238743
vt 0.953197 0.238743
vt 0.954834 0.240321
vt 0.954834 0.256633
vt 0.141794 0.247455
vt 0.136990 0.247455
vt 0.136990 0.227017
vt 0.141794 0.227017
vt 0.143430 0.228663
vt 0.143430 0.245756
vt 0.949261 0.197937
vt 0.946260 0.193325
vt 0.946260 0.168256
vt 0.949261 0.167481
vt 0.943259 0.189709
vt 0.943259 0.168766
vt 0.940258 0.186979
vt 0.940258 0.168944
vt 0.937257 0.184787
vt 0.937257 0.168766
vt 0.934257 0.182681
vt 0.934257 0.168256
vt 0.932583 0.180243
vt 0.932583 0.167481
vt 0.147066 0.266445
vt 0.142258 0.266445
vt 0.142258 0.246930
vt 0.147066 0.246930
vt 0.148702 0.248507
vt 0.148702 0.264820
vt 0.937388 0.041930
vt 0.932583 0.041930
vt 0.932583 0.021492
vt 0.937388 0.021492
vt 0.939023 0.023139
vt 0.939023 0.040231
vt 0.970336 0.158938
vt 0.970336 0.189394
vt 0.967335 0.188619
vt 0.967335 0.163550
vt 0.964334 0.188109
vt 0.964334 0.167166
vt 0.961334 0.187931
vt 0.961334 0.169897
vt 0.958333 0.188109
vt 0.958333 0.172088
vt 0.955332 0.188619
vt 0.955332 0.174194
vt 0.953659 0.189394
vt 0.953659 0.176632
vt 0.932122 0.246076
vt 0.932122 0.265592
vt 0.927315 0.265592
vt 0.927315 0.246076
vt 0.933759 0.247701
vt 0.933759 0.264014
vt 0.911044 0.073045
vt 0.911044 0.093483
vt 0.906239 0.093483
vt 0.906239 0.073045
vt 0.912679 0.091837
vt 0.912679 0.074744
vt 0.237097 0.391706
vt 0.375019 0.391706
vt 0.375019 0.673215
vt 0.237097 0.673215
vt 0.780977 0.319752
vt 0.901546 0.319752
vt 0.901546 0.585979
vt 0.780977 0.585979
vt 0.902736 0.318562
vt 0.779787 0.318562
vt 0.902736 0.587169
vt 0.779787 0.587169
vt 0.026570 0.325208
vt 0.156932 0.325208
vt 0.162427 0.331299
vt 0.021075 0.331299
vt 0.029875 0.320832
vt 0.153627 0.320832
vt 0.156932 0.048880
vt 0.162427 0.042789
vt 0.026570 0.048880
vt 0.021075 0.042789
vt 0.032225 0.318483
vt 0.151277 0.318483
vt 0.153627 0.053255
vt 0.029875 0.053255
vt 0.151277 0.055605
vt 0.032225 0.055605
vt 0.780977 0.588359
vt 0.901546 0.588359
vt 0.784649 0.592031
vt 0.902736 0.587169
vt 0.779787 0.587169
vt 0.787911 0.593118
vt 0.785736 0.595292
vt 0.894613 0.593118
vt 0.785736 0.847652
vt 0.897874 0.592031
vt 0.784649 0.850913
vt 0.896787 0.595292
vt 0.901546 0.854586
vt 0.780977 0.854586
vt 0.787911 0.849826
vt 0.896787 0.847652
vt 0.894613 0.849826
vt 0.897874 0.850913
vt 0.779787 0.855775
vt 0.902736 0.855775
vt 0.281442 0.003114
vt 0.279248 0.002470
vt 0.281699 0.000019
vt 0.274237 0.003095
vt 0.273979 0.000000
vt 0.276430 0.002451
vt 0.031613 0.288087
vt 0.031613 0.055605
vt 0.129395 0.055605
vt 0.129395 0.288087
vt 0.790325 0.825599
vt 0.790325 0.593118
vt 0.888106 0.593118
vt 0.888106 0.825599
vt 0.943121 0.238811
vt 0.943258 0.218053
vt 0.961865 0.219007
vt 0.962619 0.238561
vt 0.900970 0.107459
vt 0.931695 0.108291
vt 0.931052 0.138274
vt 0.901968 0.138797
vt 0.917948 0.216216
vt 0.917850 0.201319
vt 0.919421 0.199654
vt 0.919541 0.217819
vt 0.904835 0.201986
vt 0.903310 0.200480
vt 0.921168 0.219456
vt 0.921026 0.197953
vt 0.904293 0.216041
vt 0.902650 0.217602
vt 0.901752 0.198941
vt 0.900970 0.219197
vt 0.922046 0.225583
vt 0.941544 0.225833
vt 0.940790 0.245388
vt 0.922183 0.246341
vt 0.931695 0.138339
vt 0.930698 0.169677
vt 0.901614 0.169153
vt 0.900970 0.139171
vt 0.939023 0.207533
vt 0.940616 0.205930
vt 0.940496 0.224095
vt 0.938925 0.222430
vt 0.925369 0.207709
vt 0.923725 0.206147
vt 0.942243 0.204293
vt 0.942101 0.225796
vt 0.924385 0.223270
vt 0.925911 0.221763
vt 0.922827 0.224808
vt 0.922046 0.204552
vt 0.983695 0.232153
vt 0.964196 0.231903
vt 0.964951 0.212348
vt 0.983558 0.211395
vt 0.932583 0.167501
vt 0.933581 0.136163
vt 0.962665 0.136687
vt 0.963308 0.166669
vt 0.946341 0.214858
vt 0.944748 0.216461
vt 0.944868 0.198296
vt 0.946440 0.199960
vt 0.959996 0.214682
vt 0.961640 0.216244
vt 0.943121 0.218098
vt 0.943263 0.196595
vt 0.960979 0.199121
vt 0.959454 0.200627
vt 0.962537 0.197583
vt 0.963319 0.217839
vt 0.920469 0.219386
vt 0.920332 0.240145
vt 0.901725 0.239191
vt 0.900970 0.219637
vt 0.979115 0.137023
vt 0.948390 0.136191
vt 0.949034 0.106209
vt 0.978117 0.105685
vt 0.134941 0.210637
vt 0.135039 0.225535
vt 0.133468 0.227199
vt 0.133348 0.209035
vt 0.148053 0.224868
vt 0.149579 0.226374
vt 0.131721 0.207397
vt 0.131863 0.228900
vt 0.148596 0.210813
vt 0.150239 0.209252
vt 0.151137 0.227912
vt 0.151918 0.207657
vt 0.547519 0.751126
vt 0.547519 0.378355
vt 0.654039 0.378355
vt 0.654039 0.751126
vt 0.657109 0.753343
vt 0.544778 0.752532
vt 0.544224 0.753897
vt 0.657334 0.753897
vt 0.658868 0.756669
vt 0.542690 0.756669
vt 0.542251 0.378355
vt 0.542251 0.005584
vt 0.648770 0.005584
vt 0.648770 0.378355
vt 0.651840 0.003367
vt 0.539509 0.004178
vt 0.652065 0.002813
vt 0.538956 0.002813
vt 0.537421 0.000041
vt 0.653599 0.000041
vt 0.916777 0.454999
vt 0.916777 0.317078
vt 0.919548 0.317078
vt 0.919548 0.454999
vt 0.914279 0.317078
vt 0.914279 0.454999
vt 0.911508 0.454999
vt 0.911508 0.317078
vt 0.131721 0.178327
vt 0.131721 0.055605
vt 0.137263 0.055605
vt 0.137263 0.178327
vt 0.147801 0.055605
vt 0.147801 0.178328
vt 0.142258 0.178328
vt 0.142258 0.055605
vt 0.237097 0.991735
vt 0.237097 0.673215
vt 0.334879 0.673215
vt 0.334879 0.991735
vt 0.663873 0.959487
vt 0.663873 0.640966
vt 0.761654 0.640966
vt 0.761654 0.959487
vt 0.148379 0.178309
vt 0.148379 0.207819
vt 0.145382 0.203664
vt 0.145382 0.179089
vt 0.142384 0.200402
vt 0.142384 0.179603
vt 0.139387 0.197940
vt 0.139387 0.179782
vt 0.136390 0.195985
vt 0.136390 0.179603
vt 0.133392 0.194153
vt 0.133392 0.179089
vt 0.131721 0.192077
vt 0.131721 0.178309
vt 0.980003 0.126790
vt 0.980003 0.106032
vt 0.984586 0.106032
vt 0.984586 0.126790
vt 0.905556 0.073554
vt 0.905556 0.093116
vt 0.900971 0.093116
vt 0.900970 0.073554
vt 0.980855 0.211416
vt 0.977857 0.210636
vt 0.977857 0.186061
vt 0.980855 0.181906
vt 0.974860 0.210122
vt 0.974860 0.189323
vt 0.971863 0.209943
vt 0.971863 0.191786
vt 0.968865 0.210122
vt 0.968865 0.193740
vt 0.965868 0.210636
vt 0.965868 0.195572
vt 0.964196 0.211416
vt 0.964196 0.197649
vt 0.958928 0.247402
vt 0.963511 0.247402
vt 0.963511 0.268161
vt 0.958928 0.268161
vt 0.979319 0.267560
vt 0.974734 0.267560
vt 0.974734 0.247998
vt 0.979319 0.247998
vt 0.900970 0.169489
vt 0.903968 0.170269
vt 0.903968 0.194843
vt 0.900970 0.198999
vt 0.906965 0.170783
vt 0.906965 0.191582
vt 0.909963 0.170962
vt 0.909963 0.189119
vt 0.912960 0.170783
vt 0.912960 0.187165
vt 0.915958 0.170269
vt 0.915958 0.185332
vt 0.917629 0.169489
vt 0.917629 0.183256
vt 0.984586 0.266146
vt 0.980003 0.266146
vt 0.980003 0.245387
vt 0.984586 0.245387
vt 0.136990 0.247455
vt 0.141575 0.247455
vt 0.141575 0.267017
vt 0.136990 0.267017
vt 0.922046 0.204395
vt 0.922046 0.174886
vt 0.925043 0.179041
vt 0.925043 0.203615
vt 0.928041 0.182302
vt 0.928041 0.203102
vt 0.931038 0.184765
vt 0.931038 0.202923
vt 0.934035 0.186720
vt 0.934035 0.203102
vt 0.937033 0.188552
vt 0.937033 0.203615
vt 0.938704 0.190628
vt 0.938704 0.204395
vt 0.952973 0.071668
vt 0.952973 0.092427
vt 0.948390 0.092427
vt 0.948390 0.071668
vt 0.964196 0.268035
vt 0.964196 0.248473
vt 0.968782 0.248473
vt 0.968782 0.268035
vt 0.945042 0.071643
vt 0.945042 0.125596
vt 0.939956 0.117021
vt 0.939956 0.073393
vt 0.945042 0.124163
vt 0.939956 0.116346
vt 0.934871 0.110375
vt 0.934871 0.074596
vt 0.934871 0.110218
vt 0.929785 0.105589
vt 0.929785 0.075023
vt 0.929785 0.105589
vt 0.924699 0.101967
vt 0.924699 0.074596
vt 0.924699 0.101876
vt 0.919613 0.098514
vt 0.919613 0.073393
vt 0.919613 0.098306
vt 0.916777 0.094338
vt 0.916777 0.071643
vt 0.916777 0.094174
vt 0.960849 0.073906
vt 0.955763 0.072156
vt 0.955763 0.028528
vt 0.960849 0.019953
vt 0.950677 0.070953
vt 0.950677 0.035174
vt 0.955763 0.029203
vt 0.960849 0.021386
vt 0.945591 0.070526
vt 0.945591 0.039960
vt 0.950677 0.035332
vt 0.940505 0.070953
vt 0.940505 0.043582
vt 0.945591 0.039960
vt 0.935419 0.072156
vt 0.935419 0.047036
vt 0.940505 0.043674
vt 0.932583 0.073906
vt 0.932583 0.051211
vt 0.935419 0.047243
vt 0.932583 0.051375
vt 0.981924 0.106055
vt 0.976838 0.104305
vt 0.976838 0.060677
vt 0.981924 0.052103
vt 0.971752 0.103103
vt 0.971752 0.067323
vt 0.976838 0.061353
vt 0.981924 0.053535
vt 0.966666 0.102675
vt 0.966666 0.072109
vt 0.971752 0.067481
vt 0.961581 0.103103
vt 0.961581 0.075731
vt 0.966666 0.072109
vt 0.956495 0.104305
vt 0.956495 0.079185
vt 0.961581 0.075823
vt 0.953659 0.106055
vt 0.953659 0.083361
vt 0.956495 0.079392
vt 0.953659 0.083524
vt 0.929236 0.021468
vt 0.929236 0.075421
vt 0.924150 0.066846
vt 0.924150 0.023218
vt 0.929236 0.073988
vt 0.924150 0.066171
vt 0.919064 0.060201
vt 0.919064 0.024421
vt 0.919064 0.060043
vt 0.913978 0.055415
vt 0.913978 0.024849
vt 0.913978 0.055415
vt 0.908892 0.051793
vt 0.908892 0.024421
vt 0.908892 0.051701
vt 0.903806 0.048339
vt 0.903806 0.023218
vt 0.903806 0.048131
vt 0.900970 0.044163
vt 0.900970 0.021468
vt 0.900970 0.043999
vt 0.658604 0.322446
vt 0.774845 0.322446
vt 0.774845 0.640966
vt 0.658604 0.640966
vt 0.768538 0.320137
vt 0.770846 0.322446
vt 0.653335 0.322446
vt 0.655643 0.320137
vt 0.768538 0.002752
vt 0.770846 0.000444
vt 0.655643 0.002752
vt 0.653335 0.000444
vt 0.537421 0.710227
vt 0.537421 0.391706
vt 0.540680 0.391706
vt 0.540680 0.710227
vt 0.937852 0.433319
vt 0.937852 0.317078
vt 0.941111 0.317078
vt 0.941111 0.433319
vt 0.532152 0.710227
vt 0.532152 0.391706
vt 0.535411 0.391706
vt 0.535411 0.710227
vt 0.927315 0.433319
vt 0.927315 0.317078
vt 0.930574 0.317078
vt 0.930574 0.433319
vt 0.664698 0.310853
vt 0.759484 0.310853
vt 0.759484 0.012036
vt 0.664698 0.012036
vt 0.962544 0.317078
vt 0.962544 0.410839
vt 0.958928 0.410839
vt 0.958928 0.317078
vt 0.514693 0.391706
vt 0.514693 0.687292
vt 0.511077 0.687292
vt 0.511077 0.391706
vt 0.967813 0.317078
vt 0.967813 0.410838
vt 0.964196 0.410838
vt 0.964196 0.317078
vt 0.003616 0.000041
vt 0.003616 0.295628
vt 0.000000 0.295628
vt 0.000000 0.000041
vt 1.000000 0.591214
vt 0.906239 0.591214
vt 0.909461 0.587880
vt 0.996778 0.587880
vt 1.000000 0.295627
vt 0.996778 0.317078
vt 0.906239 0.295627
vt 0.909461 0.317078
vt 0.669142 0.287225
vt 0.671827 0.284540
vt 0.755188 0.284540
vt 0.757873 0.287225
vt 0.669142 0.012036
vt 0.671827 0.014721
vt 0.755188 0.014721
vt 0.757873 0.012036
vt 0.131721 0.316152
vt 0.131721 0.228833
vt 0.132988 0.228833
vt 0.132988 0.316152
vt 0.405700 0.674104
vt 0.405700 0.403299
vt 0.406967 0.403299
vt 0.406967 0.674104
vt 0.974734 0.404393
vt 0.974734 0.317078
vt 0.976001 0.317078
vt 0.976001 0.404393
vt 0.943121 0.587878
vt 0.943121 0.317078
vt 0.944388 0.317078
vt 0.944388 0.587878
vt 0.713507 0.149631
vt 0.905914 0.102271
vt 0.906542 0.099054
vt 0.904731 0.101786
vt 0.907193 0.102267
vt 0.908373 0.101773
vt 0.909274 0.100865
vt 0.909759 0.099682
vt 0.909754 0.098403
vt 0.909260 0.097223
vt 0.908353 0.096322
vt 0.907169 0.095837
vt 0.905890 0.095842
vt 0.904711 0.096336
vt 0.903810 0.097243
vt 0.903324 0.098427
vt 0.903329 0.099706
vt 0.903823 0.100885
vt 0.903385 0.103776
vt 0.905433 0.104625
vt 0.905678 0.103454
vt 0.904060 0.102789
vt 0.907649 0.104625
vt 0.907428 0.103449
vt 0.909696 0.103778
vt 0.909042 0.102776
vt 0.911264 0.102211
vt 0.910276 0.101536
vt 0.912112 0.100163
vt 0.910941 0.099918
vt 0.912113 0.097947
vt 0.910937 0.098168
vt 0.911265 0.095899
vt 0.910263 0.096554
vt 0.909698 0.094332
vt 0.909023 0.095320
vt 0.907651 0.093484
vt 0.907405 0.094655
vt 0.905434 0.093483
vt 0.905656 0.094659
vt 0.903387 0.094331
vt 0.904041 0.095333
vt 0.901819 0.095898
vt 0.902807 0.096573
vt 0.900971 0.097945
vt 0.902142 0.098191
vt 0.900970 0.100161
vt 0.902146 0.099940
vt 0.901818 0.102209
vt 0.902820 0.101555
vt 0.976139 0.242551
vt 0.975251 0.242915
vt 0.977459 0.246482
vt 0.978816 0.245698
vt 0.980118 0.244653
vt 0.976963 0.242124
vt 0.974314 0.243212
vt 0.976074 0.247061
vt 0.973342 0.243440
vt 0.974679 0.247477
vt 0.972346 0.243597
vt 0.973278 0.247758
vt 0.971334 0.243683
vt 0.971874 0.247922
vt 0.970316 0.243698
vt 0.970466 0.247976
vt 0.969300 0.243639
vt 0.969051 0.247924
vt 0.968295 0.243509
vt 0.967628 0.247760
vt 0.967311 0.243306
vt 0.966194 0.247473
vt 0.966359 0.243031
vt 0.964751 0.247042
vt 0.965452 0.242685
vt 0.963308 0.246433
vt 0.964608 0.242273
vt 0.961889 0.245595
vt 0.963844 0.241801
vt 0.960546 0.244466
vt 0.963185 0.241278
vt 0.959338 0.242993
vt 0.977698 0.241640
vt 0.981347 0.243281
vt 0.979134 0.246123
vt 0.977721 0.246945
vt 0.976283 0.247551
vt 0.974836 0.247986
vt 0.973388 0.248280
vt 0.971939 0.248451
vt 0.970485 0.248509
vt 0.969024 0.248456
vt 0.967553 0.248287
vt 0.966068 0.247990
vt 0.964569 0.247542
vt 0.963064 0.246906
vt 0.961578 0.246026
vt 0.960172 0.244841
vt 0.958928 0.243345
vt 0.981742 0.243640
vt 0.980487 0.245030
vt 0.975084 0.238727
vt 0.974331 0.238960
vt 0.973576 0.239158
vt 0.972819 0.239315
vt 0.972058 0.239425
vt 0.971295 0.239482
vt 0.970533 0.239487
vt 0.969774 0.239436
vt 0.969020 0.239330
vt 0.968275 0.239169
vt 0.967538 0.238957
vt 0.966808 0.238697
vt 0.966081 0.238397
vt 0.965345 0.238068
vt 0.964584 0.237729
vt 0.976612 0.238219
vt 0.975841 0.238475
vt 0.774518 0.000041
vt 0.890759 0.000041
vt 0.890759 0.318562
vt 0.774518 0.318562
vt 0.494559 0.711400
vt 0.496867 0.713708
vt 0.379356 0.713708
vt 0.381664 0.711400
vt 0.494559 0.394015
vt 0.496867 0.391706
vt 0.381664 0.394015
vt 0.379356 0.391706
vt 0.521614 0.710227
vt 0.521614 0.391706
vt 0.524874 0.391706
vt 0.524874 0.710227
vt 0.922046 0.433319
vt 0.922046 0.317078
vt 0.925305 0.317078
vt 0.925305 0.433319
vt 0.526883 0.710227
vt 0.526883 0.391706
vt 0.530142 0.391706
vt 0.530142 0.710227
vt 0.932583 0.433319
vt 0.932583 0.317078
vt 0.935843 0.317078
vt 0.935843 0.433319
vt 0.390719 0.702116
vt 0.485504 0.702116
vt 0.485504 0.403299
vt 0.390719 0.403299
vt 0.957275 0.317078
vt 0.957275 0.410839
vt 0.953659 0.410839
vt 0.953659 0.317078
vt 0.272327 0.000041
vt 0.272327 0.295628
vt 0.268710 0.295628
vt 0.268710 0.000041
vt 0.973081 0.317078
vt 0.973081 0.410838
vt 0.969465 0.410838
vt 0.969465 0.317078
vt 0.519962 0.391706
vt 0.519962 0.687292
vt 0.516346 0.687292
vt 0.516346 0.391706
vt 0.989462 0.295627
vt 0.895702 0.295627
vt 0.898924 0.292294
vt 0.986240 0.292294
vt 0.989462 0.000041
vt 0.986240 0.021492
vt 0.895702 0.000041
vt 0.898924 0.021492
vt 0.163334 0.317977
vt 0.166019 0.315292
vt 0.249380 0.315292
vt 0.252065 0.317977
vt 0.163334 0.042789
vt 0.166019 0.045474
vt 0.249380 0.045474
vt 0.252065 0.042789
vt 0.268710 0.382947
vt 0.268710 0.295628
vt 0.269977 0.295628
vt 0.269977 0.382947
vt 0.410969 0.674104
vt 0.410969 0.403299
vt 0.412236 0.403299
vt 0.412236 0.674104
vt 0.000000 0.382943
vt 0.000000 0.295628
vt 0.001267 0.295628
vt 0.001267 0.382943
vt 0.948390 0.587878
vt 0.948390 0.317078
vt 0.949657 0.317078
vt 0.949657 0.587878
vt 0.207699 0.180383
vt 0.937527 0.130061
vt 0.936344 0.129576
vt 0.938155 0.126844
vt 0.938806 0.130057
vt 0.939986 0.129563
vt 0.940886 0.128655
vt 0.941372 0.127472
vt 0.941367 0.126193
vt 0.940873 0.125013
vt 0.939965 0.124112
vt 0.938782 0.123627
vt 0.937503 0.123632
vt 0.936324 0.124126
vt 0.935423 0.125033
vt 0.934937 0.126217
vt 0.934942 0.127495
vt 0.935436 0.128675
vt 0.934998 0.131566
vt 0.935673 0.130579
vt 0.937291 0.131244
vt 0.937046 0.132415
vt 0.939041 0.131239
vt 0.939262 0.132415
vt 0.940655 0.130566
vt 0.941309 0.131567
vt 0.941889 0.129326
vt 0.942877 0.130001
vt 0.942554 0.127708
vt 0.943725 0.127953
vt 0.942550 0.125958
vt 0.943726 0.125737
vt 0.941876 0.124344
vt 0.942878 0.123689
vt 0.940636 0.123110
vt 0.941311 0.122122
vt 0.939018 0.122444
vt 0.939264 0.121274
vt 0.937269 0.122449
vt 0.937047 0.121273
vt 0.935654 0.123123
vt 0.935000 0.122121
vt 0.934420 0.124363
vt 0.933432 0.123688
vt 0.933755 0.125981
vt 0.932584 0.125735
vt 0.933759 0.127730
vt 0.932583 0.127951
vt 0.934433 0.129345
vt 0.933431 0.129999
vt 0.918182 0.246193
vt 0.920859 0.249340
vt 0.919502 0.250124
vt 0.917294 0.246557
vt 0.919006 0.245766
vt 0.922161 0.248295
vt 0.918117 0.250703
vt 0.916357 0.246854
vt 0.916722 0.251119
vt 0.915385 0.247082
vt 0.915321 0.251401
vt 0.914389 0.247240
vt 0.913917 0.251564
vt 0.913377 0.247326
vt 0.912509 0.251619
vt 0.912359 0.247340
vt 0.911094 0.251566
vt 0.911343 0.247282
vt 0.909671 0.251402
vt 0.910338 0.247151
vt 0.908237 0.251115
vt 0.909354 0.246948
vt 0.906794 0.250685
vt 0.908402 0.246673
vt 0.905351 0.250076
vt 0.907495 0.246327
vt 0.903932 0.249238
vt 0.906651 0.245915
vt 0.902589 0.248108
vt 0.905887 0.245443
vt 0.901380 0.246636
vt 0.905228 0.244921
vt 0.919741 0.245282
vt 0.923390 0.246924
vt 0.921177 0.249765
vt 0.919764 0.250587
vt 0.918326 0.251193
vt 0.916879 0.251628
vt 0.915431 0.251922
vt 0.913981 0.252093
vt 0.912528 0.252151
vt 0.911067 0.252098
vt 0.909595 0.251930
vt 0.908110 0.251633
vt 0.906612 0.251185
vt 0.905107 0.250548
vt 0.903621 0.249668
vt 0.902214 0.248483
vt 0.900970 0.246987
vt 0.923785 0.247282
vt 0.922529 0.248672
vt 0.916374 0.242602
vt 0.917127 0.242370
vt 0.915619 0.242801
vt 0.914862 0.242958
vt 0.914100 0.243067
vt 0.913338 0.243125
vt 0.912575 0.243129
vt 0.911816 0.243078
vt 0.911063 0.242972
vt 0.910318 0.242812
vt 0.909581 0.242600
vt 0.908851 0.242340
vt 0.908123 0.242039
vt 0.907388 0.241710
vt 0.906627 0.241371
vt 0.917884 0.242117
vt 0.918655 0.241862
vn 0.000000 0.000000 1.000000
vn 0.000000 0.000000 1.000000
vn 0.000000 0.000000 1.000000
vn 0.000000 0.000000 1.000000
vn 0.000000 1.000000 0.000000
vn 0.000000 1.000000 0.000000
vn 0.000000 1.000000 0.000000
vn 0.000000 1.000000 0.000000
vn 0.000000 0.000000 -1.000000
vn 0.000000 0.000000 -1.000000
vn 0.000000 0.000000 -1.000000
vn 0.000000 0.000000 -1.000000
vn -0.013522 -0.999890 -0.006157
vn 0.013522 -0.999890 -0.006157
vn 0.013522 -0.999890 0.006157
vn -0.013522 -0.999890 0.006157
vn -1.000000 0.000000 0.000000
vn -1.000000 0.000000 0.000000
vn -1.000000 0.000000 0.000000
vn -1.000000 0.000000 0.000000
vn 1.000000 0.000000 0.000000
vn 1.000000 0.000000 0.000000
vn 1.000000 0.000000 0.000000
vn 1.000000 0.000000 0.000000
vn 0.000000 -0.000041 1.000000
vn 0.000000 -0.000041 1.000000
vn 0.000000 -0.000041 1.000000
vn 0.000000 -0.000041 1.000000
vn -1.000000 -0.000021 0.000000
vn -1.000000 -0.000021 0.000000
vn -1.000000 -0.000021 0.000000
vn -1.000000 -0.000021 0.000000
vn 0.000000 -0.000041 -1.000000
vn 0.000000 -0.000041 -1.000000
vn 0.000000 -0.000041 -1.000000
vn 0.000000 -0.000041 -1.000000
vn 1.000000 -0.000011 0.000000
vn 1.000000 -0.000011 0.000000
vn 1.000000 -0.000011 0.000000
vn 1.000000 -0.000011 0.000000
vn 0.000000 -0.797026 0.603946
vn 0.000000 -0.797026 0.603946
vn 0.000000 -0.838805 0.544431
vn 0.000000 -0.838805 0.544431
vn -0.684443 -0.729066 0.000000
vn -0.684443 -0.729066 0.000000
vn -0.651687 -0.758488 0.000000
vn -0.651687 -0.758488 0.000000
vn 0.000000 -0.797026 -0.603945
vn 0.000000 -0.797026 -0.603945
vn 0.000000 -0.838805 -0.544431
vn 0.000000 -0.838805 -0.544431
vn 0.684444 -0.729066 0.000000
vn 0.684444 -0.729066 0.000000
vn 0.651687 -0.758488 0.000000
vn 0.651687 -0.758488 0.000000
vn 0.000000 -0.530167 0.847893
vn 0.000000 -0.530167 0.847893
vn -0.811417 -0.584467 0.000000
vn -0.811417 -0.584467 0.000000
vn 0.000000 -0.530168 -0.847892
vn 0.000000 -0.530169 -0.847892
vn 0.811419 -0.584465 0.000000
vn 0.811419 -0.584465 0.000000
vn 0.000000 -0.162063 0.986780
vn 0.000000 -0.186275 0.982498
vn -0.885372 -0.464883 0.000000
vn -0.885414 -0.464804 0.000000
vn 0.000000 -0.186179 -0.982516
vn 0.000000 -0.161816 -0.986821
vn 0.879722 -0.475489 0.000000
vn 0.879719 -0.475495 0.000000
vn 0.000000 -1.000000 0.000003
vn 0.000000 -1.000000 0.000003
vn 0.000000 -1.000000 0.000003
vn 0.000000 -1.000000 0.000003
vn 0.000000 -1.000000 -0.000002
vn 0.000000 -1.000000 -0.000002
vn 0.000000 -1.000000 -0.000002
vn 0.000000 -1.000000 -0.000002
vn -0.707100 0.707114 0.000000
vn -0.707100 0.707114 0.000000
vn -0.707100 0.707114 0.000000
vn -0.707100 0.707114 0.000000
vn 0.000000 0.707123 -0.707091
vn 0.000000 0.707123 -0.707091
vn 0.000000 0.707123 -0.707091
vn 0.000000 0.707123 -0.707091
vn 0.707098 0.707115 0.000000
vn 0.707098 0.707115 0.000000
vn 0.707098 0.707115 0.000000
vn 0.707098 0.707115 0.000000
vn 0.707109 -0.707104 0.000000
vn 0.707109 -0.707104 0.000000
vn 0.000000 -0.707105 -0.707109
vn 0.000000 -0.707105 -0.707109
vn -0.707111 -0.707102 0.000000
vn -0.707111 -0.707102 0.000000
vn 0.000000 0.707123 0.707091
vn 0.000000 0.707123 0.707091
vn 0.000000 0.707123 0.707091
vn 0.000000 0.707123 0.707091
vn 0.000000 -0.707105 0.707109
vn 0.000000 -0.707105 0.707109
vn 0.000000 0.000000 -1.000000
vn 0.000000 0.000000 -1.000000
vn 0.000000 0.000000 -1.000000
vn 0.000000 0.000000 -1.000000
vn 1.000000 0.000000 0.000000
vn 1.000000 0.000000 0.000000
vn 1.000000 0.000000 0.000000
vn 1.000000 0.000000 0.000000
vn 0.000000 0.000000 1.000000
vn 0.000000 0.000000 1.000000
vn 0.000000 0.000000 1.000000
vn 0.000000 0.000000 1.000000
vn -1.000000 0.000000 0.000000
vn -1.000000 0.000000 0.000000
vn -1.000000 0.000000 0.000000
vn -1.000000 0.000000 0.000000
vn 0.000000 1.000000 0.000001
vn 0.000000 1.000000 0.000000
vn 0.000000 1.000000 0.000002
vn 0.000000 1.000000 -0.000017
vn 0.000000 1.000000 0.000000
vn 0.000000 1.000000 0.000000
vn 0.926639 -0.375951 0.000000
vn 0.926638 -0.375955 0.000000
vn 0.975667 -0.219257 0.000000
vn 0.973378 -0.229205 0.000000
vn 0.000000 1.000000 -0.000000
vn 0.000000 1.000000 -0.000000
vn 0.000000 1.000000 0.000000
vn 0.000000 1.000000 -0.000000
vn 0.000000 0.159988 0.987119
vn 0.000000 0.159989 0.987119
vn 0.000000 0.160000 0.987117
vn 0.000000 0.159996 0.987118
vn 0.000000 0.159995 -0.987118
vn 0.000000 0.159979 -0.987120
vn 0.000000 0.160000 -0.987117
vn 0.000000 0.159996 -0.987118
vn 0.000000 1.000000 -0.000001
vn 0.000000 1.000000 0.000000
vn 0.000000 1.000000 0.000000
vn 0.000000 1.000000 -0.000003
vn -0.926641 -0.375948 0.000000
vn -0.926639 -0.375953 0.000000
vn -0.926639 -0.375953 0.000000
vn -0.926638 -0.375956 0.000000
vn 0.000000 1.000000 0.000009
vn 0.000000 1.000000 0.000000
vn 0.707106 0.000000 0.707108
vn 0.707106 0.000000 0.707108
vn 0.707218 -0.001267 0.706994
vn 0.707444 -0.003847 0.706759
vn -0.707105 0.000000 0.707108
vn -0.707105 0.000000 0.707108
vn -0.707105 0.000000 0.707108
vn -0.707105 0.000000 0.707108
vn 0.708661 -0.004341 -0.705536
vn 0.707761 -0.001823 -0.706450
vn 0.707106 0.000000 -0.707108
vn 0.707106 0.000000 -0.707108
vn -0.707105 0.000000 -0.707108
vn -0.707105 0.000000 -0.707108
vn -0.707105 0.000000 -0.707108
vn -0.707105 0.000000 -0.707108
vn 0.684233 -0.393684 0.613871
vn 0.684233 -0.393684 0.613871
vn -0.438824 -0.784140 0.438814
vn -0.438824 -0.784140 0.438814
vn -0.438824 -0.784140 0.438814
vn 0.776530 -0.369792 -0.510153
vn 0.776530 -0.369792 -0.510153
vn -0.438827 -0.784145 -0.438803
vn -0.438827 -0.784145 -0.438803
vn -0.438827 -0.784145 -0.438803
vn 0.707114 0.707100 0.000000
vn 0.707114 0.707100 0.000000
vn 0.707114 0.707100 0.000000
vn 0.707114 0.707100 0.000000
vn 0.707102 0.000000 -0.707112
vn 0.707102 0.000000 -0.707112
vn 0.707102 0.000000 -0.707112
vn 0.707102 0.000000 -0.707111
vn 0.707108 -0.707105 0.000000
vn 0.707108 -0.707105 0.000000
vn 0.707108 -0.707105 0.000000
vn 0.707108 -0.707105 0.000000
vn 0.707102 0.000000 0.707111
vn 0.707102 0.000000 0.707111
vn 0.707102 0.000000 0.707111
vn 0.707102 0.000000 0.707111
vn 0.000000 0.000000 -1.000000
vn 0.000000 0.000000 -1.000000
vn 0.000000 0.000000 -1.000000
vn 0.000000 0.000000 -1.000000
vn 0.000000 -1.000000 0.000000
vn 0.000000 -1.000000 0.000000
vn 0.000000 -1.000000 0.000000
vn 0.000000 -1.000000 0.000000
vn 0.000000 0.000000 1.000000
vn 0.000000 0.000000 1.000000
vn 0.000000 0.000000 1.000000
vn 0.000000 0.000000 1.000000
vn 0.000000 1.000000 0.000000
vn 0.000000 1.000000 0.000000
vn 0.000000 1.000000 0.000000
vn 0.000000 1.000000 0.000000
vn 1.000000 -0.000000 0.000000
vn 1.000000 0.000000 0.000000
vn 1.000000 -0.000000 0.000000
vn 1.000000 -0.000000 0.000000
vn 1.000000 0.000000 0.000000
vn 1.000000 0.000000 0.000000
vn 1.000000 0.000000 0.000000
vn 1.000000 0.000000 0.000000
vn -0.000000 -1.000000 0.000000
vn -0.000000 -1.000000 0.000000
vn -0.000000 -1.000000 0.000000
vn -0.000000 -1.000000 0.000000
vn 0.000000 1.000000 0.000000
vn 0.000000 1.000000 0.000000
vn 0.000000 1.000000 0.000000
vn 0.000000 1.000000 0.000000
vn 0.011647 -0.847694 -0.530358
vn 0.011647 -0.847694 -0.530358
vn 0.009843 -0.824902 -0.565191
vn 0.010541 -0.833862 -0.551873
vn 0.957359 -0.288393 0.017121
vn 0.957359 -0.288393 0.017121
vn 0.966638 -0.255760 0.014068
vn 0.961906 -0.272929 0.015673
vn 0.014276 -0.280903 0.959630
vn 0.014276 -0.280903 0.959630
vn 0.012939 -0.264150 0.964395
vn 0.011660 -0.248086 0.968668
vn -0.565587 -0.824558 0.014668
vn -0.565587 -0.824558 0.014668
vn -0.585420 -0.810620 0.013379
vn -0.600269 -0.799703 0.012393
vn 0.965047 0.261547 0.016670
vn 0.936747 0.349327 0.021838
vn 0.858645 0.511611 0.031362
vn 0.858645 0.511611 0.031362
vn 0.004468 -0.643594 -0.765354
vn 0.004376 -0.712810 -0.701343
vn 0.004101 -0.824655 -0.565621
vn 0.004101 -0.824655 -0.565621
vn -0.758469 -0.651668 0.007306
vn -0.820843 -0.571111 0.006987
vn -0.630989 -0.775754 0.007679
vn -0.630989 -0.775754 0.007679
vn 0.017028 0.335311 0.941954
vn 0.013255 0.254868 0.966885
vn 0.024303 0.491015 0.870812
vn 0.024303 0.491015 0.870812
vn 0.993243 0.115902 0.005928
vn 0.989133 0.146783 0.008426
vn 0.002350 -0.578752 -0.815500
vn 0.002957 -0.575451 -0.817831
vn -0.852040 -0.523459 0.004276
vn -0.848151 -0.529745 0.003234
vn 0.006643 0.140185 0.990103
vn 0.004840 0.112987 0.993585
vn 0.999398 -0.034608 0.002463
vn 0.999989 -0.004029 0.002534
vn 0.001605 -0.652322 -0.757940
vn 0.001531 -0.638016 -0.770021
vn -0.801526 -0.597957 0.002002
vn -0.788032 -0.615631 0.002086
vn 0.002025 -0.003565 0.999992
vn 0.001978 -0.030672 0.999528
vn 0.984562 -0.174868 0.007681
vn 0.988774 -0.149286 0.006332
vn 0.005417 -0.757400 -0.652929
vn 0.004747 -0.743689 -0.668509
vn -0.702040 -0.712112 0.005990
vn -0.684864 -0.728638 0.006937
vn 0.005151 -0.143219 0.989678
vn 0.006189 -0.166318 0.986053
vn -0.707049 0.707107 0.009078
vn -0.707049 0.707107 0.009078
vn -0.707049 0.707107 0.009078
vn -0.707049 0.707107 0.009078
vn 0.004673 0.707109 -0.707089
vn 0.004673 0.707109 -0.707089
vn 0.004673 0.707109 -0.707089
vn 0.004673 0.707109 -0.707089
vn 0.706179 0.707108 0.036193
vn 0.706179 0.707108 0.036193
vn 0.706179 0.707108 0.036193
vn 0.706179 0.707108 0.036193
vn 0.027260 0.707107 0.706581
vn 0.027260 0.707107 0.706581
vn 0.027260 0.707107 0.706581
vn 0.027260 0.707107 0.706581
vn 0.006609 0.000000 -0.999978
vn 0.006609 0.000000 -0.999978
vn 0.006609 0.000000 -0.999978
vn 0.006609 0.000000 -0.999978
vn 0.998689 0.000000 0.051185
vn 0.998689 0.000000 0.051185
vn 0.998689 0.000000 0.051185
vn 0.998689 0.000000 0.051185
vn 0.038552 0.000000 0.999257
vn 0.038552 0.000000 0.999257
vn 0.038552 0.000000 0.999257
vn 0.038552 0.000000 0.999257
vn -0.999918 0.000000 0.012838
vn -0.999918 0.000000 0.012838
vn -0.999918 0.000000 0.012838
vn -0.999918 0.000000 0.012838
vn 0.000000 1.000000 -0.000003
vn 0.000000 1.000000 -0.000003
vn 0.000000 1.000000 -0.000003
vn 0.000000 1.000000 -0.000003
vn 0.000000 1.000000 0.000002
vn 0.000000 1.000000 0.000002
vn 0.000000 1.000000 0.000002
vn 0.000000 1.000000 0.000002
vn 0.000000 -1.000000 -0.000000
vn 0.000000 -1.000000 -0.000000
vn 0.000000 -1.000000 -0.000000
vn 0.000000 -1.000000 -0.000000
vn -0.000000 1.000000 0.000000
vn -0.000000 1.000000 0.000000
vn -0.000000 1.000000 0.000000
vn -0.000000 1.000000 0.000000
vn -0.011647 -0.847693 -0.530359
vn -0.010541 -0.833861 -0.551873
vn -0.009843 -0.824901 -0.565191
vn -0.011647 -0.847693 -0.530359
vn -0.957359 -0.288392 0.017121
vn -0.961907 -0.272928 0.015672
vn -0.966638 -0.255759 0.014067
vn -0.957359 -0.288392 0.017121
vn -0.014276 -0.280903 0.959630
vn -0.011660 -0.248087 0.968668
vn -0.012939 -0.264150 0.964395
vn -0.014276 -0.280903 0.959630
vn 0.565588 -0.824558 0.014668
vn 0.600269 -0.799703 0.012393
vn 0.585421 -0.810620 0.013379
vn 0.565588 -0.824558 0.014668
vn -0.965047 0.261545 0.016670
vn -0.858645 0.511610 0.031361
vn -0.858645 0.511611 0.031361
vn -0.936747 0.349325 0.021838
vn -0.004469 -0.643594 -0.765354
vn -0.004101 -0.824656 -0.565620
vn -0.004101 -0.824656 -0.565620
vn -0.004376 -0.712810 -0.701343
vn 0.758469 -0.651668 0.007306
vn 0.630987 -0.775755 0.007679
vn 0.630987 -0.775755 0.007679
vn 0.820844 -0.571110 0.006987
vn -0.017028 0.335311 0.941954
vn -0.024303 0.491015 0.870812
vn -0.024303 0.491015 0.870812
vn -0.013256 0.254868 0.966885
vn -0.993243 0.115902 0.005927
vn -0.989133 0.146782 0.008425
vn -0.002350 -0.578752 -0.815500
vn -0.002957 -0.575451 -0.817831
vn 0.852041 -0.523458 0.004276
vn 0.848152 -0.529743 0.003234
vn -0.006643 0.140184 0.990103
vn -0.004841 0.112987 0.993585
vn -0.999398 -0.034610 0.002462
vn -0.999989 -0.004030 0.002533
vn -0.001605 -0.652321 -0.757941
vn -0.001531 -0.638015 -0.770022
vn 0.801525 -0.597958 0.002002
vn 0.788031 -0.615632 0.002086
vn -0.002025 -0.003565 0.999992
vn -0.001978 -0.030672 0.999528
vn -0.984562 -0.174868 0.007680
vn -0.988774 -0.149287 0.006331
vn -0.005417 -0.757400 -0.652928
vn -0.004747 -0.743689 -0.668509
vn 0.702039 -0.712113 0.005990
vn 0.684863 -0.728639 0.006937
vn -0.005151 -0.143219 0.989678
vn -0.006189 -0.166318 0.986053
vn 0.707051 0.707104 0.009077
vn 0.707051 0.707104 0.009077
vn 0.707051 0.707104 0.009077
vn 0.707051 0.707104 0.009077
vn -0.004673 0.707109 -0.707089
vn -0.004673 0.707109 -0.707089
vn -0.004673 0.707109 -0.707089
vn -0.004673 0.707109 -0.707089
vn -0.706181 0.707105 0.036194
vn -0.706181 0.707105 0.036194
vn -0.706181 0.707105 0.036194
vn -0.706181 0.707105 0.036194
vn -0.027260 0.707107 0.706581
vn -0.027260 0.707107 0.706581
vn -0.027260 0.707107 0.706581
vn -0.027260 0.707107 0.706581
vn -0.006609 0.000000 -0.999978
vn -0.006609 0.000000 -0.999978
vn -0.006609 0.000000 -0.999978
vn -0.006609 0.000000 -0.999978
vn -0.998689 0.000000 0.051184
vn -0.998689 0.000000 0.051184
vn -0.998689 0.000000 0.051184
vn -0.998689 0.000000 0.051184
vn -0.038552 0.000000 0.999257
vn -0.038552 0.000000 0.999257
vn -0.038552 0.000000 0.999257
vn -0.038552 0.000000 0.999257
vn 0.999918 0.000000 0.012837
vn 0.999918 0.000000 0.012837
vn 0.999918 0.000000 0.012837
vn 0.999918 0.000000 0.012837
vn 0.000000 1.000000 -0.000004
vn 0.000000 1.000000 -0.000004
vn -0.000000 1.000000 -0.000004
vn -0.000000 1.000000 -0.000004
vn -0.000000 1.000000 0.000003
vn -0.000000 1.000000 0.000003
vn -0.000000 1.000000 0.000002
vn -0.000000 1.000000 0.000002
vn -0.000000 -1.000000 0.000000
vn -0.000000 -1.000000 0.000000
vn -0.000000 -1.000000 0.000000
vn -0.000000 -1.000000 0.000000
vn 0.000000 1.000000 -0.000000
vn 0.000000 1.000000 -0.000000
vn 0.000000 1.000000 -0.000000
vn 0.000000 1.000000 -0.000000
vn 0.011647 -0.847693 0.530360
vn 0.010541 -0.833861 0.551874
vn 0.009843 -0.824901 0.565192
vn 0.011647 -0.847693 0.530360
vn 0.957359 -0.288392 -0.017121
vn 0.961907 -0.272928 -0.015672
vn 0.966638 -0.255759 -0.014067
vn 0.957359 -0.288392 -0.017121
vn 0.014276 -0.280903 -0.959630
vn 0.011660 -0.248087 -0.968668
vn 0.012939 -0.264150 -0.964395
vn 0.014276 -0.280903 -0.959630
vn -0.565588 -0.824558 -0.014668
vn -0.600269 -0.799702 -0.012393
vn -0.585421 -0.810619 -0.013379
vn -0.565588 -0.824558 -0.014668
vn 0.965047 0.261546 -0.016669
vn 0.858645 0.511610 -0.031361
vn 0.858645 0.511610 -0.031361
vn 0.936747 0.349326 -0.021838
vn 0.004469 -0.643592 0.765356
vn 0.004101 -0.824657 0.565619
vn 0.004101 -0.824657 0.565619
vn 0.004376 -0.712810 0.701344
vn -0.758469 -0.651668 -0.007306
vn -0.630987 -0.775755 -0.007679
vn -0.630987 -0.775755 -0.007679
vn -0.820844 -0.571110 -0.006987
vn 0.017028 0.335310 -0.941954
vn 0.024303 0.491014 -0.870812
vn 0.024303 0.491015 -0.870812
vn 0.013254 0.254867 -0.966885
vn 0.993243 0.115903 -0.005927
vn 0.989133 0.146783 -0.008425
vn 0.002350 -0.578751 0.815501
vn 0.002957 -0.575450 0.817832
vn -0.852041 -0.523458 -0.004276
vn -0.848152 -0.529744 -0.003234
vn 0.006642 0.140183 -0.990103
vn 0.004841 0.112985 -0.993585
vn 0.999398 -0.034610 -0.002462
vn 0.999989 -0.004030 -0.002533
vn 0.001605 -0.652323 0.757939
vn 0.001531 -0.638017 0.770021
vn -0.801525 -0.597958 -0.002002
vn -0.788031 -0.615632 -0.002086
vn 0.002026 -0.003565 -0.999992
vn 0.001978 -0.030671 -0.999528
vn 0.984562 -0.174868 -0.007680
vn 0.988774 -0.149287 -0.006331
vn 0.005417 -0.757399 0.652929
vn 0.004747 -0.743689 0.668509
vn -0.702039 -0.712113 -0.005990
vn -0.684863 -0.728639 -0.006937
vn 0.005151 -0.143218 -0.989678
vn 0.006188 -0.166318 -0.986053
vn -0.707052 0.707104 -0.009077
vn -0.707052 0.707104 -0.009077
vn -0.707052 0.707104 -0.009077
vn -0.707052 0.707104 -0.009077
vn 0.004673 0.707113 0.707085
vn 0.004673 0.707113 0.707085
vn 0.004673 0.707113 0.707085
vn 0.004673 0.707113 0.707085
vn 0.706182 0.707105 -0.036194
vn 0.706182 0.707105 -0.036194
vn 0.706182 0.707105 -0.036194
vn 0.706182 0.707105 -0.036194
vn 0.027261 0.707109 -0.706579
vn 0.027261 0.707109 -0.706578
vn 0.027261 0.707109 -0.706579
vn 0.027261 0.707109 -0.706578
vn 0.006609 0.000000 0.999978
vn 0.006609 0.000000 0.999978
vn 0.006609 0.000000 0.999978
vn 0.006609 0.000000 0.999978
vn 0.998689 0.000000 -0.051184
vn 0.998689 0.000000 -0.051184
vn 0.998689 0.000000 -0.051184
vn 0.998689 0.000000 -0.051184
vn 0.038554 0.000000 -0.999257
vn 0.038554 0.000000 -0.999256
vn 0.038554 0.000000 -0.999257
vn 0.038554 0.000000 -0.999257
vn -0.999918 0.000000 -0.012837
vn -0.999918 0.000000 -0.012837
vn -0.999918 0.000000 -0.012837
vn -0.999918 0.000000 -0.012837
vn 0.000000 1.000000 0.000004
vn 0.000000 1.000000 0.000004
vn 0.000000 1.000000 0.000004
vn 0.000000 1.000000 0.000004
vn 0.000000 1.000000 -0.000003
vn 0.000000 1.000000 -0.000003
vn 0.000000 1.000000 -0.000002
vn 0.000000 1.000000 -0.000002
vn 0.000000 -1.000000 -0.000000
vn 0.000000 -1.000000 -0.000000
vn 0.000000 -1.000000 -0.000000
vn 0.000000 -1.000000 -0.000000
vn -0.000000 1.000000 0.000000
vn -0.000000 1.000000 0.000000
vn -0.000000 1.000000 0.000000
vn -0.000000 1.000000 0.000000
vn -0.011647 -0.847694 0.530358
vn -0.011647 -0.847694 0.530358
vn -0.009843 -0.824902 0.565191
vn -0.010541 -0.833862 0.551873
vn -0.957359 -0.288393 -0.017121
vn -0.957359 -0.288393 -0.017121
vn -0.966638 -0.255760 -0.014068
vn -0.961906 -0.272929 -0.015673
vn -0.014276 -0.280903 -0.959630
vn -0.014276 -0.280903 -0.959630
vn -0.012939 -0.264150 -0.964395
vn -0.011660 -0.248086 -0.968668
vn 0.565587 -0.824558 -0.014668
vn 0.565587 -0.824558 -0.014668
vn 0.585420 -0.810620 -0.013379
vn 0.600269 -0.799703 -0.012393
vn -0.965047 0.261547 -0.016670
vn -0.936747 0.349327 -0.021838
vn -0.858645 0.511611 -0.031362
vn -0.858645 0.511611 -0.031362
vn -0.004468 -0.643594 0.765354
vn -0.004376 -0.712810 0.701343
vn -0.004101 -0.824655 0.565621
vn -0.004101 -0.824655 0.565621
vn 0.758469 -0.651668 -0.007306
vn 0.820843 -0.571111 -0.006987
vn 0.630989 -0.775754 -0.007679
vn 0.630989 -0.775754 -0.007679
vn -0.017028 0.335311 -0.941954
vn -0.013255 0.254868 -0.966885
vn -0.024303 0.491015 -0.870812
vn -0.024303 0.491015 -0.870812
vn -0.993243 0.115902 -0.005928
vn -0.989133 0.146783 -0.008426
vn -0.002350 -0.578752 0.815500
vn -0.002957 -0.575451 0.817831
vn 0.852040 -0.523459 -0.004276
vn 0.848151 -0.529745 -0.003234
vn -0.006643 0.140185 -0.990103
vn -0.004840 0.112987 -0.993585
vn -0.999398 -0.034608 -0.002463
vn -0.999989 -0.004029 -0.002534
vn -0.001605 -0.652322 0.757940
vn -0.001531 -0.638016 0.770021
vn 0.801526 -0.597957 -0.002002
vn 0.788032 -0.615631 -0.002086
vn -0.002025 -0.003565 -0.999992
vn -0.001978 -0.030672 -0.999528
vn -0.984562 -0.174868 -0.007681
vn -0.988774 -0.149286 -0.006332
vn -0.005417 -0.757400 0.652929
vn -0.004747 -0.743689 0.668509
vn 0.702040 -0.712112 -0.005990
vn 0.684864 -0.728638 -0.006937
vn -0.005151 -0.143219 -0.989678
vn -0.006189 -0.166318 -0.986053
vn 0.707049 0.707107 -0.009078
vn 0.707049 0.707107 -0.009078
vn 0.707049 0.707107 -0.009078
vn 0.707049 0.707107 -0.009078
vn -0.004673 0.707109 0.707089
vn -0.004673 0.707109 0.707089
vn -0.004673 0.707109 0.707089
vn -0.004673 0.707109 0.707089
vn -0.706179 0.707108 -0.036193
vn -0.706179 0.707108 -0.036193
vn -0.706179 0.707108 -0.036193
vn -0.706179 0.707108 -0.036193
vn -0.027260 0.707107 -0.706581
vn -0.027260 0.707107 -0.706581
vn -0.027260 0.707107 -0.706581
vn -0.027260 0.707107 -0.706581
vn -0.006609 0.000000 0.999978
vn -0.006609 0.000000 0.999978
vn -0.006609 0.000000 0.999978
vn -0.006609 0.000000 0.999978
vn -0.998689 0.000000 -0.051185
vn -0.998689 0.000000 -0.051185
vn -0.998689 0.000000 -0.051185
vn -0.998689 0.000000 -0.051185
vn -0.038552 0.000000 -0.999257
vn -0.038552 0.000000 -0.999257
vn -0.038552 0.000000 -0.999257
vn -0.038552 0.000000 -0.999257
vn 0.999918 0.000000 -0.012838
vn 0.999918 0.000000 -0.012838
vn 0.999918 0.000000 -0.012838
vn 0.999918 0.000000 -0.012838
vn 0.000000 1.000000 0.000003
vn -0.000000 1.000000 0.000003
vn -0.000000 1.000000 0.000003
vn 0.000000 1.000000 0.000003
vn -0.000000 1.000000 -0.000002
vn -0.000000 1.000000 -0.000002
vn -0.000000 1.000000 -0.000002
vn -0.000000 1.000000 -0.000002
vn -1.000000 0.000000 -0.000000
vn -1.000000 0.000000 -0.000000
vn -1.000000 0.000000 -0.000000
vn -1.000000 0.000000 -0.000000
vn 0.707108 0.707106 0.000000
vn 0.707108 0.707106 0.000000
vn 0.707108 0.707106 0.000000
vn 0.707108 0.707106 0.000000
vn 0.707107 0.000000 -0.707107
vn 0.707107 0.000000 -0.707107
vn 0.707107 0.000000 -0.707107
vn 0.707107 0.000000 -0.707107
vn 0.707105 -0.707109 0.000000
vn 0.707105 -0.707109 0.000000
vn 0.707105 -0.707109 0.000000
vn 0.707105 -0.707109 0.000000
vn 0.707107 0.000000 0.707107
vn 0.707107 0.000000 0.707107
vn 0.707107 0.000000 0.707107
vn 0.707107 0.000000 0.707107
vn 0.000003 -0.000000 -1.000000
vn 0.000003 -0.000000 -1.000000
vn 0.000003 -0.000000 -1.000000
vn 0.000003 -0.000000 -1.000000
vn 0.000000 1.000000 -0.000000
vn 0.000000 1.000000 -0.000000
vn 0.000000 1.000000 -0.000000
vn 0.000000 1.000000 -0.000000
vn 0.000000 0.000000 1.000000
vn 0.000000 0.000000 1.000000
vn 0.000000 0.000000 1.000000
vn 0.000000 0.000000 1.000000
vn 0.000000 -1.000000 0.000000
vn 0.000000 -1.000000 0.000000
vn 0.000000 -1.000000 0.000000
vn 0.000000 -1.000000 0.000000
vn 1.000000 0.000000 0.000000
vn 1.000000 0.000000 0.000000
vn 1.000000 0.000000 0.000000
vn 1.000000 0.000000 0.000000
vn 1.000000 0.000000 0.000000
vn 1.000000 0.000000 0.000000
vn 1.000000 0.000000 0.000000
vn 1.000000 0.000000 0.000000
vn 1.000000 -0.000000 0.000000
vn 1.000000 -0.000000 0.000000
vn 1.000000 -0.000000 0.000000
vn 1.000000 -0.000000 0.000000
vn 1.000000 0.000000 0.000000
vn 1.000000 0.000000 0.000000
vn 1.000000 0.000000 0.000000
vn 1.000000 0.000000 0.000000
vn 0.000000 -1.000000 0.000000
vn 0.000000 -1.000000 0.000000
vn 0.000000 -1.000000 0.000000
vn 0.000000 -1.000000 0.000000
vn 0.000000 0.000000 1.000000
vn 0.000000 0.000000 1.000000
vn 0.000000 0.000000 1.000000
vn 0.000000 0.000000 1.000000
vn 0.000000 1.000000 0.000000
vn 0.000000 1.000000 0.000000
vn 0.000000 1.000000 0.000000
vn 0.000000 1.000000 0.000000
vn 0.000000 0.000000 -1.000000
vn 0.000000 0.000000 -1.000000
vn 0.000000 0.000000 -1.000000
vn 0.000000 0.000000 -1.000000
vn 1.000000 -0.000000 0.000000
vn 1.000000 -0.000000 0.000000
vn 1.000000 -0.000000 0.000000
vn 1.000000 -0.000000 0.000000
vn 1.000000 0.000000 0.000000
vn 1.000000 0.000000 0.000000
vn 1.000000 0.000000 0.000000
vn 1.000000 0.000000 0.000000
vn 1.000000 0.000000 0.000000
vn 1.000000 0.000000 0.000000
vn 1.000000 0.000000 0.000000
vn 1.000000 0.000000 0.000000
vn 1.000000 0.000000 0.000000
vn 1.000000 0.000000 0.000000
vn 1.000000 0.000000 0.000000
vn 1.000000 0.000000 0.000000
vn 0.707107 0.707107 0.000000
vn 0.707107 0.707107 0.000000
vn 0.707107 0.707107 0.000000
vn 0.707107 0.707107 0.000000
vn 0.707107 0.000000 0.707107
vn 0.707107 0.000000 0.707107
vn 0.707107 0.000000 0.707107
vn 0.707107 0.000000 0.707107
vn 0.707106 -0.000000 -0.707108
vn 0.707106 -0.000000 -0.707108
vn 0.707106 -0.000000 -0.707108
vn 0.707106 -0.000000 -0.707108
vn 0.707107 -0.707107 0.000000
vn 0.707107 -0.707107 0.000000
vn 0.707107 -0.707107 0.000000
vn 0.707107 -0.707107 0.000000
vn 0.000000 1.000000 0.000000
vn 0.000000 1.000000 0.000000
vn 0.000000 1.000000 0.000000
vn 0.000000 1.000000 0.000000
vn 0.000000 -0.000000 -1.000000
vn 0.000000 -0.000000 -1.000000
vn 0.000000 -0.000000 -1.000000
vn 0.000000 -0.000000 -1.000000
vn 0.000000 -1.000000 0.000000
vn 0.000000 -1.000000 0.000000
vn 0.000000 -1.000000 0.000000
vn 0.000000 -1.000000 0.000000
vn 0.000000 0.000000 1.000000
vn 0.000000 0.000000 1.000000
vn 0.000000 0.000000 1.000000
vn 0.000000 0.000000 1.000000
vn 1.000000 0.000000 0.000000
vn 1.000000 0.000000 0.000000
vn 1.000000 -0.000000 0.000000
vn 1.000000 -0.000000 0.000000
vn 1.000000 0.000000 0.000000
vn 0.979680 0.141827 0.141821
vn 1.000000 -0.000000 0.000000
vn 0.979683 0.185288 0.076751
vn 0.979680 0.076754 0.185298
vn 0.979680 0.000001 0.200569
vn 0.979681 -0.076749 0.185297
vn 0.979680 -0.141823 0.141824
vn 0.979682 -0.185292 0.076745
vn 0.979681 -0.200562 -0.000000
vn 0.979682 -0.185292 -0.076745
vn 0.979680 -0.141823 -0.141824
vn 0.979681 -0.076749 -0.185297
vn 0.979680 -0.000000 -0.200569
vn 0.979680 0.076753 -0.185298
vn 0.979680 0.141826 -0.141821
vn 0.979683 0.185287 -0.076751
vn 0.979679 0.200571 0.000000
vn 0.268916 0.889847 0.368588
vn 0.268919 0.681051 0.681066
vn 0.389011 0.651415 0.651405
vn 0.389008 0.851110 0.352540
vn 0.926470 0.347720 0.144030
vn 0.926468 0.266141 0.266131
vn 0.268935 0.368586 0.889842
vn 0.389030 0.352555 0.851094
vn 0.926465 0.144036 0.347731
vn 0.268954 0.000000 0.963153
vn 0.389056 0.000000 0.921214
vn 0.926462 -0.000000 0.376387
vn 0.268946 -0.368580 0.889841
vn 0.389046 -0.352531 0.851097
vn 0.926464 -0.144032 0.347735
vn 0.268925 -0.681047 0.681069
vn 0.389017 -0.651407 0.651410
vn 0.926469 -0.266133 0.266135
vn 0.268922 -0.889848 0.368581
vn 0.389016 -0.851112 0.352526
vn 0.926470 -0.347722 0.144020
vn 0.268930 -0.963160 0.000000
vn 0.389025 -0.921227 0.000000
vn 0.926471 -0.376365 -0.000000
vn 0.268922 -0.889847 -0.368582
vn 0.389016 -0.851112 -0.352527
vn 0.926471 -0.347722 -0.144020
vn 0.268926 -0.681046 -0.681069
vn 0.389019 -0.651406 -0.651410
vn 0.926469 -0.266134 -0.266135
vn 0.268947 -0.368581 -0.889840
vn 0.389047 -0.352533 -0.851095
vn 0.926464 -0.144032 -0.347735
vn 0.268954 -0.000000 -0.963153
vn 0.389056 0.000000 -0.921214
vn 0.926462 -0.000000 -0.376387
vn 0.268935 0.368585 -0.889842
vn 0.389030 0.352555 -0.851094
vn 0.926465 0.144035 -0.347731
vn 0.268920 0.681050 -0.681067
vn 0.389012 0.651414 -0.651406
vn 0.926469 0.266139 -0.266131
vn 0.268916 0.889847 -0.368588
vn 0.389009 0.851110 -0.352540
vn 0.926470 0.347719 -0.144030
vn 0.268912 0.963165 -0.000000
vn 0.389000 0.921238 -0.000000
vn 0.926473 0.376361 -0.000000
vn -0.713934 0.646906 0.267975
vn -0.713933 0.495121 0.495131
vn -0.713933 0.495121 0.495131
vn -0.713934 0.646908 0.267971
vn -0.713932 0.700215 -0.000000
vn -0.713932 0.700215 0.000000
vn -0.713932 0.267972 0.646909
vn -0.713932 0.267970 0.646910
vn -0.713938 0.000002 0.700209
vn -0.713938 0.000001 0.700209
vn -0.713930 -0.267960 0.646917
vn -0.713930 -0.267959 0.646917
vn -0.713933 -0.495125 0.495126
vn -0.713934 -0.495125 0.495127
vn -0.713933 -0.646910 0.267968
vn -0.713933 -0.646912 0.267964
vn -0.713930 -0.700217 0.000000
vn -0.713930 -0.700217 0.000000
vn -0.713932 -0.646911 -0.267968
vn -0.713932 -0.646913 -0.267964
vn -0.713933 -0.495125 -0.495126
vn -0.713933 -0.495125 -0.495127
vn -0.713930 -0.267960 -0.646916
vn -0.713930 -0.267959 -0.646917
vn -0.713938 0.000001 -0.700209
vn -0.713938 -0.000000 -0.700209
vn -0.713932 0.267973 -0.646909
vn -0.713932 0.267971 -0.646910
vn -0.713932 0.495122 -0.495131
vn -0.713932 0.495122 -0.495131
vn -0.713934 0.646907 -0.267975
vn -0.713934 0.646909 -0.267970
vn 0.000000 0.923879 0.382685
vn 0.000000 0.707098 0.707116
vn 0.000000 0.382696 0.923874
vn 0.000000 0.000001 1.000000
vn 0.000000 -0.382685 0.923879
vn 0.000000 -0.707101 0.707113
vn 0.000000 -0.923879 0.382685
vn 0.000000 -1.000000 0.000000
vn 0.000000 -0.923878 -0.382686
vn 0.000000 -0.707102 -0.707111
vn 0.000000 -0.382685 -0.923879
vn 0.000000 0.000000 -1.000000
vn 0.000000 0.382695 -0.923875
vn 0.000000 0.707098 -0.707116
vn 0.000000 0.923879 -0.382685
vn 0.000000 1.000000 0.000000
vn 0.000000 0.831468 0.555573
vn 0.000000 0.831468 0.555573
vn 0.000000 0.831468 0.555573
vn 0.000000 0.831468 0.555573
vn 0.000000 0.555580 0.831463
vn 0.000000 0.555580 0.831463
vn 0.000000 0.555580 0.831463
vn 0.000000 0.555580 0.831463
vn 0.000000 0.195113 0.980781
vn 0.000000 0.195113 0.980781
vn 0.000000 0.195113 0.980781
vn 0.000000 0.195113 0.980781
vn 0.000000 -0.195083 0.980787
vn 0.000000 -0.195083 0.980787
vn 0.000000 -0.195083 0.980787
vn 0.000000 -0.195083 0.980787
vn 0.000000 -0.555581 0.831463
vn 0.000000 -0.555581 0.831463
vn 0.000000 -0.555581 0.831463
vn 0.000000 -0.555581 0.831463
vn 0.000000 -0.831480 0.555554
vn 0.000000 -0.831480 0.555554
vn 0.000000 -0.831480 0.555554
vn 0.000000 -0.831480 0.555554
vn 0.000000 -0.980757 0.195233
vn 0.000000 -0.980757 0.195233
vn 0.000000 -0.980757 0.195233
vn 0.000000 -0.980757 0.195233
vn 0.000000 -0.980757 -0.195233
vn 0.000000 -0.980757 -0.195233
vn 0.000000 -0.980757 -0.195233
vn 0.000000 -0.980757 -0.195233
vn 0.000000 -0.831480 -0.555554
vn 0.000000 -0.831480 -0.555554
vn 0.000000 -0.831480 -0.555554
vn 0.000000 -0.831480 -0.555554
vn 0.000000 -0.555580 -0.831463
vn 0.000000 -0.555580 -0.831463
vn 0.000000 -0.555580 -0.831463
vn 0.000000 -0.555580 -0.831463
vn 0.000000 -0.195086 -0.980786
vn 0.000000 -0.195086 -0.980786
vn 0.000000 -0.195086 -0.980786
vn 0.000000 -0.195086 -0.980786
vn 0.000000 0.195110 -0.980781
vn 0.000000 0.195110 -0.980781
vn 0.000000 0.195110 -0.980781
vn 0.000000 0.195110 -0.980781
vn 0.000000 0.555582 -0.831462
vn 0.000000 0.555582 -0.831462
vn 0.000000 0.555582 -0.831462
vn 0.000000 0.555582 -0.831462
vn 0.000000 0.831467 -0.555575
vn 0.000000 0.831467 -0.555575
vn 0.000000 0.831467 -0.555575
vn 0.000000 0.831467 -0.555575
vn 0.000000 0.980757 -0.195232
vn 0.000000 0.980757 -0.195232
vn 0.000000 0.980757 -0.195232
vn 0.000000 0.980757 -0.195232
vn 0.000000 0.980757 0.195233
vn 0.000000 0.980757 0.195233
vn 0.000000 0.980757 0.195233
vn 0.000000 0.980757 0.195233
vn -1.000000 -0.000000 0.000000
vn -1.000000 -0.000000 0.000000
vn -1.000000 -0.000000 0.000000
vn -1.000000 -0.000000 0.000000
vn 0.707108 0.707106 0.000000
vn 0.707108 0.707106 0.000000
vn 0.707108 0.707106 0.000000
vn 0.707108 0.707106 0.000000
vn 0.707107 -0.000000 -0.707106
vn 0.707107 -0.000000 -0.707106
vn 0.707107 -0.000000 -0.707106
vn 0.707107 -0.000000 -0.707106
vn 0.707105 -0.707109 0.000000
vn 0.707105 -0.707109 0.000000
vn 0.707105 -0.707109 0.000000
vn 0.707105 -0.707109 0.000000
vn 0.707107 0.000000 0.707107
vn 0.707107 0.000000 0.707107
vn 0.707107 0.000000 0.707107
vn 0.707107 0.000000 0.707107
vn 0.000000 -0.000000 -1.000000
vn 0.000000 -0.000000 -1.000000
vn 0.000000 -0.000000 -1.000000
vn 0.000000 -0.000000 -1.000000
vn 0.000000 1.000000 0.000000
vn 0.000000 1.000000 0.000000
vn 0.000000 1.000000 0.000000
vn 0.000000 1.000000 0.000000
vn 0.000000 0.000000 1.000000
vn 0.000000 0.000000 1.000000
vn 0.000000 0.000000 1.000000
vn 0.000000 0.000000 1.000000
vn 0.000000 -1.000000 0.000000
vn 0.000000 -1.000000 0.000000
vn 0.000000 -1.000000 0.000000
vn 0.000000 -1.000000 0.000000
vn 1.000000 -0.000000 0.000000
vn 1.000000 -0.000000 0.000000
vn 1.000000 -0.000000 0.000000
vn 1.000000 -0.000000 0.000000
vn 1.000000 0.000000 0.000000
vn 1.000000 0.000000 0.000000
vn 1.000000 0.000000 0.000000
vn 1.000000 0.000000 0.000000
vn 1.000000 -0.000000 0.000000
vn 1.000000 -0.000000 0.000000
vn 1.000000 -0.000000 0.000000
vn 1.000000 -0.000000 0.000000
vn 1.000000 0.000000 0.000000
vn 1.000000 0.000000 0.000000
vn 1.000000 0.000000 0.000000
vn 1.000000 0.000000 0.000000
vn 0.000000 -1.000000 0.000000
vn 0.000000 -1.000000 0.000000
vn 0.000000 -1.000000 0.000000
vn 0.000000 -1.000000 0.000000
vn 0.000000 0.000000 1.000000
vn 0.000000 0.000000 1.000000
vn 0.000000 0.000000 1.000000
vn 0.000000 0.000000 1.000000
vn 0.000000 1.000000 0.000000
vn 0.000000 1.000000 0.000000
vn 0.000000 1.000000 0.000000
vn 0.000000 1.000000 0.000000
vn 0.000000 0.000000 -1.000000
vn 0.000000 0.000000 -1.000000
vn 0.000000 0.000000 -1.000000
vn 0.000000 0.000000 -1.000000
vn 1.000000 0.000001 0.000000
vn 1.000000 0.000001 0.000000
vn 1.000000 0.000001 0.000000
vn 1.000000 0.000001 0.000000
vn 1.000000 0.000000 0.000000
vn 1.000000 0.000000 0.000000
vn 1.000000 0.000000 0.000000
vn 1.000000 0.000000 0.000000
vn 1.000000 0.000000 0.000000
vn 1.000000 0.000000 0.000000
vn 1.000000 0.000000 0.000000
vn 1.000000 0.000000 0.000000
vn 1.000000 0.000000 0.000000
vn 1.000000 0.000000 0.000000
vn 1.000000 0.000000 0.000000
vn 1.000000 0.000000 0.000000
vn 0.707107 0.707106 0.000000
vn 0.707107 0.707106 0.000000
vn 0.707107 0.707106 0.000000
vn 0.707107 0.707106 0.000000
vn 0.707107 0.000000 0.707106
vn 0.707107 0.000000 0.707106
vn 0.707107 0.000000 0.707106
vn 0.707107 0.000000 0.707106
vn 0.707107 -0.000000 -0.707107
vn 0.707107 -0.000000 -0.707107
vn 0.707107 -0.000000 -0.707107
vn 0.707107 -0.000000 -0.707107
vn 0.707107 -0.707107 0.000000
vn 0.707107 -0.707107 0.000000
vn 0.707107 -0.707107 0.000000
vn 0.707107 -0.707107 0.000000
vn 0.000000 1.000000 0.000000
vn 0.000000 1.000000 0.000000
vn 0.000000 1.000000 0.000000
vn 0.000000 1.000000 0.000000
vn 0.000000 -0.000000 -1.000000
vn 0.000000 -0.000000 -1.000000
vn 0.000000 -0.000000 -1.000000
vn 0.000000 -0.000000 -1.000000
vn 0.000000 -1.000000 0.000000
vn 0.000000 -1.000000 0.000000
vn 0.000000 -1.000000 0.000000
vn 0.000000 -1.000000 0.000000
vn 0.000000 0.000000 1.000000
vn 0.000000 0.000000 1.000000
vn 0.000000 0.000000 1.000000
vn 0.000000 0.000000 1.000000
vn 1.000000 0.000000 0.000000
vn 1.000000 0.000000 0.000000
vn 1.000000 0.000000 0.000000
vn 1.000000 0.000000 0.000000
vn 1.000000 0.000000 0.000000
vn 0.979680 0.141827 -0.141821
vn 0.979682 0.185289 -0.076751
vn 1.000000 -0.000000 0.000000
vn 0.979680 0.076754 -0.185298
vn 0.979680 0.000002 -0.200569
vn 0.979681 -0.076750 -0.185297
vn 0.979679 -0.141826 -0.141824
vn 0.979682 -0.185294 -0.076745
vn 0.979681 -0.200563 -0.000000
vn 0.979682 -0.185293 0.076745
vn 0.979680 -0.141824 0.141824
vn 0.979681 -0.076749 0.185297
vn 0.979680 -0.000000 0.200569
vn 0.979680 0.076753 0.185298
vn 0.979680 0.141827 0.141821
vn 0.979682 0.185289 0.076751
vn 0.979679 0.200572 0.000000
vn 0.268916 0.889847 -0.368588
vn 0.389008 0.851110 -0.352540
vn 0.389011 0.651415 -0.651406
vn 0.268919 0.681052 -0.681067
vn 0.926469 0.347721 -0.144030
vn 0.926469 0.266140 -0.266131
vn 0.389029 0.352555 -0.851094
vn 0.268934 0.368586 -0.889842
vn 0.926465 0.144036 -0.347731
vn 0.389056 0.000001 -0.921214
vn 0.268954 0.000001 -0.963153
vn 0.926462 0.000001 -0.376387
vn 0.389045 -0.352531 -0.851097
vn 0.268946 -0.368580 -0.889841
vn 0.926464 -0.144031 -0.347735
vn 0.389017 -0.651406 -0.651410
vn 0.268925 -0.681047 -0.681069
vn 0.926469 -0.266135 -0.266135
vn 0.389016 -0.851112 -0.352527
vn 0.268922 -0.889848 -0.368582
vn 0.926470 -0.347725 -0.144020
vn 0.389026 -0.921227 -0.000000
vn 0.268930 -0.963160 -0.000000
vn 0.926471 -0.376366 -0.000000
vn 0.389016 -0.851112 0.352526
vn 0.268922 -0.889848 0.368581
vn 0.926470 -0.347724 0.144020
vn 0.389018 -0.651407 0.651410
vn 0.268925 -0.681047 0.681069
vn 0.926469 -0.266134 0.266135
vn 0.389046 -0.352532 0.851096
vn 0.268946 -0.368581 0.889841
vn 0.926464 -0.144033 0.347735
vn 0.389056 -0.000000 0.921214
vn 0.268954 -0.000000 0.963153
vn 0.926462 0.000000 0.376388
vn 0.389029 0.352554 0.851095
vn 0.268934 0.368585 0.889842
vn 0.926465 0.144035 0.347731
vn 0.389010 0.651415 0.651406
vn 0.268919 0.681051 0.681067
vn 0.926468 0.266141 0.266131
vn 0.389008 0.851110 0.352539
vn 0.268916 0.889847 0.368587
vn 0.926469 0.347723 0.144030
vn 0.389000 0.921238 0.000000
vn 0.268912 0.963165 0.000000
vn 0.926472 0.376363 0.000000
vn -0.713934 0.646906 -0.267975
vn -0.713934 0.646908 -0.267971
vn -0.713933 0.495122 -0.495131
vn -0.713933 0.495122 -0.495131
vn -0.713932 0.700215 -0.000000
vn -0.713932 0.700215 0.000000
vn -0.713933 0.267969 -0.646910
vn -0.713932 0.267972 -0.646909
vn -0.713938 -0.000001 -0.700209
vn -0.713938 0.000001 -0.700209
vn -0.713930 -0.267958 -0.646917
vn -0.713930 -0.267959 -0.646917
vn -0.713934 -0.495125 -0.495127
vn -0.713934 -0.495125 -0.495127
vn -0.713933 -0.646912 -0.267964
vn -0.713933 -0.646910 -0.267968
vn -0.713930 -0.700217 -0.000000
vn -0.713930 -0.700217 0.000000
vn -0.713932 -0.646913 0.267964
vn -0.713933 -0.646911 0.267968
vn -0.713934 -0.495125 0.495127
vn -0.713934 -0.495125 0.495126
vn -0.713931 -0.267958 0.646917
vn -0.713931 -0.267959 0.646917
vn -0.713938 -0.000001 0.700209
vn -0.713938 0.000000 0.700209
vn -0.713932 0.267970 0.646910
vn -0.713932 0.267973 0.646909
vn -0.713933 0.495122 0.495131
vn -0.713933 0.495122 0.495131
vn -0.713935 0.646907 0.267971
vn -0.713935 0.646905 0.267975
vn 0.000000 0.707099 -0.707114
vn 0.000000 0.923878 -0.382686
vn 0.000000 0.382695 -0.923875
vn 0.000000 0.000001 -1.000000
vn 0.000000 -0.382684 -0.923879
vn 0.000000 -0.707101 -0.707113
vn 0.000000 -0.923879 -0.382685
vn 0.000000 -1.000000 0.000000
vn 0.000000 -0.923879 0.382685
vn 0.000000 -0.707101 0.707113
vn 0.000000 -0.382685 0.923879
vn 0.000000 0.000000 1.000000
vn 0.000000 0.382695 0.923875
vn 0.000000 0.707098 0.707116
vn 0.000000 0.923879 0.382685
vn 0.000000 1.000000 0.000000
vn 0.000000 0.831468 -0.555573
vn 0.000000 0.831468 -0.555573
vn 0.000000 0.831468 -0.555573
vn 0.000000 0.831468 -0.555573
vn 0.000000 0.555580 -0.831463
vn 0.000000 0.555580 -0.831463
vn 0.000000 0.555580 -0.831463
vn 0.000000 0.555580 -0.831463
vn 0.000000 0.195113 -0.980781
vn 0.000000 0.195113 -0.980781
vn 0.000000 0.195113 -0.980781
vn 0.000000 0.195113 -0.980781
vn 0.000000 -0.195084 -0.980787
vn 0.000000 -0.195084 -0.980787
vn 0.000000 -0.195084 -0.980787
vn 0.000000 -0.195084 -0.980787
vn 0.000000 -0.555579 -0.831464
vn 0.000000 -0.555579 -0.831464
vn 0.000000 -0.555579 -0.831464
vn 0.000000 -0.555579 -0.831464
vn 0.000000 -0.831480 -0.555554
vn 0.000000 -0.831480 -0.555554
vn 0.000000 -0.831480 -0.555554
vn 0.000000 -0.831480 -0.555554
vn 0.000000 -0.980757 -0.195233
vn 0.000000 -0.980757 -0.195233
vn 0.000000 -0.980757 -0.195233
vn 0.000000 -0.980757 -0.195233
vn 0.000000 -0.980757 0.195233
vn 0.000000 -0.980757 0.195233
vn 0.000000 -0.980757 0.195233
vn 0.000000 -0.980757 0.195233
vn 0.000000 -0.831480 0.555554
vn 0.000000 -0.831480 0.555554
vn 0.000000 -0.831480 0.555554
vn 0.000000 -0.831480 0.555554
vn 0.000000 -0.555580 0.831463
vn 0.000000 -0.555580 0.831463
vn 0.000000 -0.555580 0.831463
vn 0.000000 -0.555580 0.831463
vn 0.000000 -0.195086 0.980786
vn 0.000000 -0.195086 0.980786
vn 0.000000 -0.195086 0.980786
vn 0.000000 -0.195086 0.980786
vn 0.000000 0.195112 0.980781
vn 0.000000 0.195112 0.980781
vn 0.000000 0.195112 0.980781
vn 0.000000 0.195112 0.980781
vn 0.000000 0.555580 0.831463
vn 0.000000 0.555580 0.831463
vn 0.000000 0.555580 0.831463
vn 0.000000 0.555580 0.831463
vn 0.000000 0.831467 0.555574
vn 0.000000 0.831467 0.555574
vn 0.000000 0.831467 0.555574
vn 0.000000 0.831467 0.555574
vn 0.000000 0.980757 0.195233
vn 0.000000 0.980757 0.195233
vn 0.000000 0.980757 0.195233
vn 0.000000 0.980757 0.195233
vn 0.000000 0.980757 -0.195233
vn 0.000000 0.980757 -0.195233
vn 0.000000 0.980757 -0.195233
vn 0.000000 0.980757 -0.195233
s off
g polySurface16
usemtl blinn1SG
f 57/321/1 53/322/2 47/323/3 49/324/4
f 5/179/5 6/180/6 7/181/7 8/182/8
f 70/331/9 66/332/10 61/333/11 63/334/12
s 1
f 29/183/13 30/184/14 31/185/15 32/186/16
s off
f 67/1/17 69/2/18 54/3/19 56/4/20
f 4/19/21 3/20/22 2/21/23 1/22/24
f 26/341/25 25/342/26 6/343/27 5/344/28
f 27/23/29 26/24/30 5/25/31 8/26/32
f 28/345/33 27/346/34 8/347/35 7/348/36
f 25/27/37 28/28/38 7/29/39 6/30/40
s 2
f 14/195/41 13/196/42 9/192/43 10/191/44
s 3
f 15/16/45 14/15/46 10/17/47 11/18/48
s 4
f 16/203/49 15/204/50 11/199/51 12/197/52
s 5
f 13/37/53 16/36/54 12/39/55 9/40/56
s 2
f 18/201/57 17/202/58 13/196/42 14/195/41
s 3
f 19/14/59 18/13/60 14/15/46 15/16/45
s 4
f 20/205/61 19/206/62 15/204/50 16/203/49
s 5
f 17/34/63 20/33/64 16/36/54 13/37/53
s 2
f 22/327/65 21/328/66 17/329/58 18/330/57
s 3
f 23/10/67 22/12/68 18/13/60 19/14/59
s 4
f 24/337/69 23/338/70 19/339/62 20/340/61
s 5
f 21/31/71 24/32/72 20/33/64 17/34/63
s 6
f 10/191/73 9/192/74 25/193/75 26/194/76
f 11/199/77 10/191/73 26/194/76 27/200/78
f 12/197/79 11/199/77 27/200/78 28/198/80
f 9/192/74 12/197/79 28/198/80 25/193/75
s off
f 33/71/81 34/68/82 42/67/83 43/72/84
f 34/225/85 33/220/86 36/219/87 35/226/88
f 35/59/89 36/63/90 40/64/91 39/60/92
s 1
f 30/65/14 37/62/93 41/61/94 31/66/15
f 37/187/95 30/184/14 29/183/13 38/188/96
f 38/69/97 29/73/13 32/74/16 44/70/98
s off
f 39/210/99 40/208/100 43/207/101 42/211/102
s 1
f 31/185/15 41/189/103 44/190/104 32/186/16
s off
f 34/349/105 35/350/106 37/351/107 38/352/108
f 35/59/109 39/60/110 41/61/111 37/62/112
f 39/353/113 42/354/114 44/355/115 41/356/116
f 42/67/117 34/68/118 38/69/119 44/70/120
s 7
f 43/207/121 40/208/122 52/209/123
f 52/209/123 40/208/122 53/212/124
f 53/212/124 40/208/122 47/214/125
f 45/216/126 47/214/125 40/208/122
s 5
f 24/32/72 21/31/71 58/35/127
f 21/31/71 48/38/128 58/35/127
f 58/35/127 48/38/128 59/41/129
f 48/38/128 51/42/130 59/41/129
s 7
f 33/220/131 43/207/121 68/217/132
f 68/217/132 43/207/121 69/215/133
f 69/215/133 43/207/121 54/213/134
f 52/209/123 54/213/134 43/207/121
s 2
f 21/328/66 22/327/65 48/325/135
f 22/327/65 55/326/136 48/325/135
f 55/326/136 57/321/137 48/325/135
f 57/321/137 49/324/138 48/325/135
s 4
f 23/338/70 24/337/69 65/336/139
f 24/337/69 58/335/140 65/336/139
f 65/336/139 58/335/140 66/332/141
f 58/335/140 61/333/142 66/332/141
s 7
f 40/208/122 36/219/143 45/216/126
f 45/216/126 36/219/143 46/218/144
f 46/218/144 36/219/143 64/222/145
f 62/224/146 64/222/145 36/219/143
s 3
f 22/12/68 23/10/67 55/11/147
f 55/11/147 23/10/67 56/4/148
f 23/10/67 65/9/149 56/4/148
f 65/9/149 67/1/150 56/4/148
s 7
f 36/219/143 33/220/131 62/224/146
f 62/224/146 33/220/131 63/223/151
f 63/223/151 33/220/131 70/221/152
f 68/217/132 70/221/152 33/220/131
s 9
f 47/49/153 46/50/154 50/46/155 49/45/156
s off
f 54/3/157 53/7/158 57/8/159 56/4/160
s 10
f 61/44/161 60/43/162 64/47/163 63/48/164
s off
f 67/1/165 66/5/166 70/6/167 69/2/168
s 7
f 45/216/126 46/218/144 47/214/125
s 9
f 48/38/169 49/45/156 50/46/155 51/42/170
s 7
f 52/209/123 53/212/124 54/213/134
s off
f 55/227/171 56/228/172 57/229/173
s 10
f 58/35/174 59/41/175 60/43/162 61/44/161
s 7
f 62/224/146 63/223/151 64/222/145
s off
f 65/230/176 66/231/177 67/232/178
s 7
f 68/217/132 69/215/133 70/221/152
s off
f 71/58/179 72/54/180 77/53/181 78/57/182
f 72/54/183 71/58/184 73/55/185 74/52/186
f 74/52/187 73/55/188 75/56/189 76/51/190
f 76/51/191 75/56/192 78/57/193 77/53/194
f 1/357/195 2/358/196 73/359/197 71/360/198
f 2/233/199 3/234/200 75/235/201 73/236/202
f 3/361/203 4/362/204 78/363/205 75/364/206
f 4/237/207 1/238/208 71/239/209 78/240/210
s 5
f 51/42/130 50/46/211 59/41/129
f 59/41/129 50/46/211 60/43/212
f 60/43/212 50/46/211 76/51/213
f 74/52/214 76/51/213 50/46/211
f 60/43/212 76/51/213 64/47/215
f 76/51/213 77/53/216 64/47/215
f 50/46/211 46/50/217 74/52/214
f 74/52/214 46/50/217 72/54/218
f 64/47/215 77/53/216 46/50/217
f 77/53/216 72/54/218 46/50/217
s off
f 107/241/219 108/242/220 109/243/221 110/244/222
f 79/245/223 82/248/224 81/247/225 80/246/226
s 11
f 79/454/227 80/457/228 104/458/229 105/455/230
s 12
f 80/75/231 81/76/232 103/77/233 104/78/234
s 13
f 81/365/235 82/366/236 106/367/237 103/368/238
s 14
f 82/453/239 79/454/240 105/455/241 106/456/242
s 12
f 88/86/243 87/85/244 85/87/245 84/88/246
s 11
f 89/468/247 88/470/248 84/473/249 83/471/250
s 14
f 90/469/251 89/468/252 83/471/253 86/472/254
s 13
f 87/376/255 90/375/256 86/377/257 85/378/258
s 12
f 92/84/259 91/83/260 87/85/244 88/86/243
s 11
f 93/465/261 92/467/262 88/470/248 89/468/247
s 14
f 94/466/263 93/465/264 89/468/252 90/469/251
s 13
f 91/374/265 94/373/266 90/375/256 87/376/255
s 12
f 96/82/267 95/81/268 91/83/260 92/84/259
s 11
f 97/462/269 96/464/270 92/467/262 93/465/261
s 14
f 98/463/271 97/462/272 93/465/264 94/466/263
s 13
f 95/372/273 98/371/274 94/373/266 91/374/265
s 12
f 100/80/275 99/79/276 95/81/268 96/82/267
s 11
f 101/459/277 100/461/278 96/464/270 97/462/269
s 14
f 102/460/279 101/459/280 97/462/272 98/463/271
s 13
f 99/370/281 102/369/282 98/371/274 95/372/273
s 12
f 104/78/234 103/77/233 99/79/276 100/80/275
s 11
f 105/455/230 104/458/229 100/461/278 101/459/277
s 14
f 106/456/242 105/455/241 101/459/280 102/460/279
s 13
f 103/368/238 106/367/237 102/369/282 99/370/281
s off
f 111/99/283 112/96/284 117/95/285 118/100/286
f 112/255/287 111/252/288 114/251/289 113/256/290
f 113/89/291 114/93/292 116/94/293 115/90/294
f 115/259/295 116/254/296 118/258/297 117/260/298
f 112/379/299 113/380/300 108/381/301 107/382/302
f 113/89/303 115/90/304 109/91/305 108/92/306
f 115/383/307 117/384/308 110/385/309 109/386/310
f 117/95/311 112/96/312 107/97/313 110/98/314
s 19
f 83/249/315 84/250/316 114/251/317 111/252/318
f 84/250/316 85/253/319 116/254/320 114/251/317
f 85/253/319 86/257/321 118/258/322 116/254/320
f 86/257/321 83/249/315 111/252/318 118/258/322
s off
f 147/261/323 150/262/324 149/263/325 148/264/326
f 119/265/327 120/268/328 121/267/329 122/266/330
s 20
f 119/477/331 145/476/332 144/480/333 120/481/334
s 21
f 120/101/335 144/102/336 143/103/337 121/104/338
s 22
f 121/387/339 143/388/340 146/389/341 122/390/342
s 23
f 122/474/343 146/475/344 145/476/345 119/477/346
s 21
f 128/111/347 124/113/348 125/114/349 127/112/350
s 20
f 129/489/351 123/492/352 124/494/353 128/493/354
s 23
f 130/488/355 126/491/356 123/492/357 129/489/358
s 22
f 127/397/359 125/399/360 126/400/361 130/398/362
s 21
f 132/109/363 128/111/347 127/112/350 131/110/364
s 20
f 133/486/365 129/489/351 128/493/354 132/490/366
s 23
f 134/485/367 130/488/355 129/489/358 133/486/368
s 22
f 131/395/369 127/397/359 130/398/362 134/396/370
s 21
f 136/107/371 132/109/363 131/110/364 135/108/372
s 20
f 137/483/373 133/486/365 132/490/366 136/487/374
s 23
f 138/482/375 134/485/367 133/486/368 137/483/376
s 22
f 135/393/377 131/395/369 134/396/370 138/394/378
s 21
f 140/105/379 136/107/371 135/108/372 139/106/380
s 20
f 141/479/381 137/483/373 136/487/374 140/484/382
s 23
f 142/478/383 138/482/375 137/483/376 141/479/384
s 22
f 139/391/385 135/393/377 138/394/378 142/392/386
s 21
f 144/102/336 140/105/379 139/106/380 143/103/337
s 20
f 145/476/332 141/479/381 140/484/382 144/480/333
s 23
f 146/475/344 142/478/383 141/479/384 145/476/345
s 22
f 143/388/340 139/391/385 142/392/386 146/389/341
s off
f 151/125/387 158/126/388 157/121/389 152/124/390
f 152/275/391 153/276/392 154/271/393 151/270/394
f 153/115/395 155/118/396 156/119/397 154/120/398
f 155/279/399 157/280/400 158/274/401 156/277/402
f 152/401/403 147/402/404 148/403/405 153/404/406
f 153/115/407 148/116/408 149/117/409 155/118/410
f 155/405/411 149/406/412 150/407/413 157/408/414
f 157/121/415 150/122/416 147/123/417 152/124/418
s 28
f 123/269/419 151/270/420 154/271/421 124/272/422
f 124/272/422 154/271/421 156/277/423 125/278/424
f 125/278/424 156/277/423 158/274/425 126/273/426
f 126/273/426 158/274/425 151/270/420 123/269/419
s off
f 187/281/427 190/282/428 189/283/429 188/284/430
f 159/285/431 160/288/432 161/287/433 162/286/434
s 29
f 159/498/435 185/497/436 184/501/437 160/502/438
s 30
f 160/127/439 184/128/440 183/129/441 161/130/442
s 31
f 161/409/443 183/410/444 186/411/445 162/412/446
s 32
f 162/495/447 186/496/448 185/497/449 159/498/450
s 30
f 168/137/451 164/139/452 165/140/453 167/138/454
s 29
f 169/510/455 163/513/456 164/515/457 168/514/458
s 32
f 170/509/459 166/512/460 163/513/461 169/510/462
s 31
f 167/419/463 165/421/464 166/422/465 170/420/466
s 30
f 172/135/467 168/137/451 167/138/454 171/136/468
s 29
f 173/507/469 169/510/455 168/514/458 172/511/470
s 32
f 174/506/471 170/509/459 169/510/462 173/507/472
s 31
f 171/417/473 167/419/463 170/420/466 174/418/474
s 30
f 176/133/475 172/135/467 171/136/468 175/134/476
s 29
f 177/504/477 173/507/469 172/511/470 176/508/478
s 32
f 178/503/479 174/506/471 173/507/472 177/504/480
s 31
f 175/415/481 171/417/473 174/418/474 178/416/482
s 30
f 180/131/483 176/133/475 175/134/476 179/132/484
s 29
f 181/500/485 177/504/477 176/508/478 180/505/486
s 32
f 182/499/487 178/503/479 177/504/480 181/500/488
s 31
f 179/413/489 175/415/481 178/416/482 182/414/490
s 30
f 184/128/440 180/131/483 179/132/484 183/129/441
s 29
f 185/497/436 181/500/485 180/505/486 184/501/437
s 32
f 186/496/448 182/499/487 181/500/488 185/497/449
s 31
f 183/410/444 179/413/489 182/414/490 186/411/445
s off
f 191/151/491 198/152/492 197/147/493 192/150/494
f 192/295/495 193/296/496 194/291/497 191/290/498
f 193/141/499 195/144/500 196/145/501 194/146/502
f 195/299/503 197/300/504 198/294/505 196/297/506
f 192/423/507 187/424/508 188/425/509 193/426/510
f 193/141/511 188/142/512 189/143/513 195/144/514
f 195/427/515 189/428/516 190/429/517 197/430/518
f 197/147/519 190/148/520 187/149/521 192/150/522
s 37
f 163/289/523 191/290/524 194/291/525 164/292/526
f 164/292/526 194/291/525 196/297/527 165/298/528
f 165/298/528 196/297/527 198/294/529 166/293/530
f 166/293/530 198/294/529 191/290/524 163/289/523
s off
f 227/301/531 228/302/532 229/303/533 230/304/534
f 199/305/535 202/308/536 201/307/537 200/306/538
s 38
f 199/517/539 200/520/540 224/521/541 225/518/542
s 39
f 200/153/543 201/154/544 223/155/545 224/156/546
s 40
f 201/431/547 202/432/548 226/433/549 223/434/550
s 41
f 202/516/551 199/517/552 225/518/553 226/519/554
s 39
f 208/164/555 207/163/556 205/165/557 204/166/558
s 38
f 209/531/559 208/533/560 204/536/561 203/534/562
s 41
f 210/532/563 209/531/564 203/534/565 206/535/566
s 40
f 207/442/567 210/441/568 206/443/569 205/444/570
s 39
f 212/162/571 211/161/572 207/163/556 208/164/555
s 38
f 213/528/573 212/530/574 208/533/560 209/531/559
s 41
f 214/529/575 213/528/576 209/531/564 210/532/563
s 40
f 211/440/577 214/439/578 210/441/568 207/442/567
s 39
f 216/160/579 215/159/580 211/161/572 212/162/571
s 38
f 217/525/581 216/527/582 212/530/574 213/528/573
s 41
f 218/526/583 217/525/584 213/528/576 214/529/575
s 40
f 215/438/585 218/437/586 214/439/578 211/440/577
s 39
f 220/158/587 219/157/588 215/159/580 216/160/579
s 38
f 221/522/589 220/524/590 216/527/582 217/525/581
s 41
f 222/523/591 221/522/592 217/525/584 218/526/583
s 40
f 219/436/593 222/435/594 218/437/586 215/438/585
s 39
f 224/156/546 223/155/545 219/157/588 220/158/587
s 38
f 225/518/542 224/521/541 220/524/590 221/522/589
s 41
f 226/519/554 225/518/553 221/522/592 222/523/591
s 40
f 223/434/550 226/433/549 222/435/594 219/436/593
s off
f 231/177/595 232/174/596 237/173/597 238/178/598
f 232/315/599 231/312/600 234/311/601 233/316/602
f 233/167/603 234/171/604 236/172/605 235/168/606
f 235/319/607 236/314/608 238/318/609 237/320/610
f 232/445/611 233/446/612 228/447/613 227/448/614
f 233/167/615 235/168/616 229/169/617 228/170/618
f 235/449/619 237/450/620 230/451/621 229/452/622
f 237/173/623 232/174/624 227/175/625 230/176/626
s 46
f 203/309/627 204/310/628 234/311/629 231/312/630
f 204/310/628 205/313/631 236/314/632 234/311/629
f 205/313/631 206/317/633 238/318/634 236/314/632
f 206/317/633 203/309/627 231/312/630 238/318/634
s off
f 241/537/635 239/538/636 240/539/637 242/540/638
f 243/541/639 244/542/640 248/543/641 247/544/642
f 244/542/643 243/541/644 246/545/645 245/546/646
f 245/546/647 246/545/648 249/547/649 250/548/650
f 247/544/651 248/543/652 250/548/653 249/547/654
f 241/549/655 242/550/656 244/551/657 245/552/658
f 242/553/659 240/554/660 248/555/661 244/556/662
f 240/557/663 239/558/664 250/559/665 248/560/666
f 239/561/667 241/562/668 245/563/669 250/564/670
f 243/541/671 247/544/672 251/565/673 252/566/674
f 246/545/675 243/541/676 252/566/677 253/567/678
f 249/547/679 246/545/680 253/567/681 254/568/682
f 247/544/683 249/547/684 254/568/685 251/565/686
f 252/569/687 251/570/688 255/571/689 256/572/690
f 253/573/691 252/574/692 256/575/693 257/576/694
f 254/577/695 253/578/696 257/579/697 258/580/698
f 251/581/699 254/582/700 258/583/701 255/584/702
f 256/585/703 255/586/704 259/587/705 260/588/706
f 257/589/707 256/585/708 260/588/709 261/590/710
f 258/591/711 257/589/712 261/590/713 262/592/714
f 255/586/715 258/591/716 262/592/717 259/587/718
f 264/593/719 265/594/720 267/595/721 266/596/722
f 265/594/723 264/593/724 270/597/725 271/598/726
f 266/596/727 267/595/728 269/599/729 268/600/730
f 268/600/731 269/599/732 271/598/733 270/597/734
f 260/601/735 259/602/736 264/603/737 266/604/738
f 261/605/739 260/606/740 266/607/741 268/608/742
f 262/609/743 261/610/744 268/611/745 270/612/746
f 259/613/747 262/614/748 270/615/749 264/616/750
s 47
f 267/595/751 265/594/752 263/617/753
f 269/599/754 267/595/751 263/617/753
f 271/598/755 269/599/754 263/617/753
f 265/594/752 271/598/755 263/617/753
s 48
f 278/618/756 272/619/757 275/620/758
f 281/621/759 272/619/757 278/618/756
f 284/622/760 272/619/757 281/621/759
f 287/623/761 272/619/757 284/622/760
f 290/624/762 272/619/757 287/623/761
f 293/625/763 272/619/757 290/624/762
f 296/626/764 272/619/757 293/625/763
f 299/627/765 272/619/757 296/626/764
f 302/628/766 272/619/757 299/627/765
f 305/629/767 272/619/757 302/628/766
f 308/630/768 272/619/757 305/629/767
f 311/631/769 272/619/757 308/630/768
f 314/632/770 272/619/757 311/631/769
f 317/633/771 272/619/757 314/632/770
f 320/634/772 272/619/757 317/633/771
f 275/620/758 272/619/757 320/634/772
s 49
f 273/635/773 276/636/774 277/637/775 274/638/776
s 48
f 274/638/777 277/637/778 278/618/756 275/620/758
s 49
f 276/636/774 279/639/779 280/640/780 277/637/775
s 48
f 277/637/778 280/640/781 281/621/759 278/618/756
s 49
f 279/639/779 282/641/782 283/642/783 280/640/780
s 48
f 280/640/781 283/642/784 284/622/760 281/621/759
s 49
f 282/641/782 285/643/785 286/644/786 283/642/783
s 48
f 283/642/784 286/644/787 287/623/761 284/622/760
s 49
f 285/643/785 288/645/788 289/646/789 286/644/786
s 48
f 286/644/787 289/646/790 290/624/762 287/623/761
s 49
f 288/645/788 291/647/791 292/648/792 289/646/789
s 48
f 289/646/790 292/648/793 293/625/763 290/624/762
s 49
f 291/647/791 294/649/794 295/650/795 292/648/792
s 48
f 292/648/793 295/650/796 296/626/764 293/625/763
s 49
f 294/649/794 297/651/797 298/652/798 295/650/795
s 48
f 295/650/796 298/652/799 299/627/765 296/626/764
s 49
f 297/651/797 300/653/800 301/654/801 298/652/798
s 48
f 298/652/799 301/654/802 302/628/766 299/627/765
s 49
f 300/653/800 303/655/803 304/656/804 301/654/801
s 48
f 301/654/802 304/656/805 305/629/767 302/628/766
s 49
f 303/655/803 306/657/806 307/658/807 304/656/804
s 48
f 304/656/805 307/658/808 308/630/768 305/629/767
s 49
f 306/657/806 309/659/809 310/660/810 307/658/807
s 48
f 307/658/808 310/660/811 311/631/769 308/630/768
s 49
f 309/659/809 312/661/812 313/662/813 310/660/810
s 48
f 310/660/811 313/662/814 314/632/770 311/631/769
s 49
f 312/661/812 315/663/815 316/664/816 313/662/813
s 48
f 313/662/814 316/664/817 317/633/771 314/632/770
s 49
f 315/663/815 318/665/818 319/666/819 316/664/816
s 48
f 316/664/817 319/666/820 320/634/772 317/633/771
f 275/620/758 320/634/772 319/666/820 274/638/777
s 49
f 274/638/776 319/666/819 318/665/818 273/635/773
s 50
f 321/667/821 323/668/822 324/669/823 322/670/824
f 322/670/824 352/671/825 351/672/826 321/667/821
f 323/668/822 325/673/827 326/674/828 324/669/823
f 325/673/827 327/675/829 328/676/830 326/674/828
f 327/675/829 329/677/831 330/678/832 328/676/830
f 329/677/831 331/679/833 332/680/834 330/678/832
f 331/679/833 333/681/835 334/682/836 332/680/834
f 333/681/835 335/683/837 336/684/838 334/682/836
f 335/683/837 337/685/839 338/686/840 336/684/838
f 337/685/839 339/687/841 340/688/842 338/686/840
f 339/687/841 341/689/843 342/690/844 340/688/842
f 341/689/843 343/691/845 344/692/846 342/690/844
f 343/691/845 345/693/847 346/694/848 344/692/846
f 345/693/847 347/695/849 348/696/850 346/694/848
f 347/695/849 349/697/851 350/698/852 348/696/850
f 349/699/851 351/672/826 352/671/825 350/700/852
s 49
f 273/701/773 322/670/853 324/669/854 276/702/774
f 276/702/774 324/669/854 326/674/855 279/703/779
f 279/703/779 326/674/855 328/676/856 282/704/782
f 282/704/782 328/676/856 330/678/857 285/705/785
f 285/705/785 330/678/857 332/680/858 288/706/788
f 288/706/788 332/680/858 334/682/859 291/707/791
f 291/707/791 334/682/859 336/684/860 294/708/794
f 294/708/794 336/684/860 338/686/861 297/709/797
f 297/709/797 338/686/861 340/688/862 300/710/800
f 300/710/800 340/688/862 342/690/863 303/711/803
f 303/711/803 342/690/863 344/692/864 306/712/806
f 306/712/806 344/692/864 346/694/865 309/713/809
f 309/713/809 346/694/865 348/696/866 312/714/812
f 312/714/812 348/696/866 350/698/867 315/715/815
f 315/716/815 350/700/867 352/671/868 318/717/818
f 318/717/818 352/671/868 322/670/853 273/701/773
s off
f 321/667/869 354/718/870 353/719/871 323/668/872
f 323/668/873 353/719/874 355/720/875 325/673/876
f 325/673/877 355/720/878 356/721/879 327/675/880
f 327/675/881 356/721/882 357/722/883 329/677/884
f 329/677/885 357/722/886 358/723/887 331/679/888
f 331/679/889 358/723/890 359/724/891 333/681/892
f 333/681/893 359/724/894 360/725/895 335/683/896
f 335/683/897 360/725/898 361/726/899 337/685/900
f 337/685/901 361/726/902 362/727/903 339/687/904
f 339/687/905 362/727/906 363/728/907 341/689/908
f 341/689/909 363/728/910 364/729/911 343/691/912
f 343/691/913 364/729/914 365/730/915 345/693/916
f 345/693/917 365/730/918 366/731/919 347/695/920
f 347/695/921 366/731/922 367/732/923 349/697/924
f 349/699/925 367/733/926 368/734/927 351/672/928
f 351/672/929 368/734/930 354/718/931 321/667/932
f 371/735/933 369/736/934 370/737/935 372/738/936
f 373/739/937 374/740/938 378/741/939 377/742/940
f 374/740/941 373/739/942 376/743/943 375/744/944
f 375/744/945 376/743/946 379/745/947 380/746/948
f 377/742/949 378/741/950 380/746/951 379/745/952
f 371/747/953 372/748/954 374/749/955 375/750/956
f 372/751/957 370/752/958 378/753/959 374/754/960
f 370/755/961 369/756/962 380/757/963 378/758/964
f 369/759/965 371/760/966 375/761/967 380/762/968
f 373/739/969 377/742/970 381/763/971 382/764/972
f 376/743/973 373/739/974 382/764/975 383/765/976
f 379/745/977 376/743/978 383/765/979 384/766/980
f 377/742/981 379/745/982 384/766/983 381/763/984
f 382/767/985 381/768/986 385/769/987 386/770/988
f 383/771/989 382/772/990 386/773/991 387/774/992
f 384/775/993 383/776/994 387/777/995 388/778/996
f 381/779/997 384/780/998 388/781/999 385/782/1000
f 386/783/1001 385/784/1002 389/785/1003 390/786/1004
f 387/787/1005 386/783/1006 390/786/1007 391/788/1008
f 388/789/1009 387/787/1010 391/788/1011 392/790/1012
f 385/784/1013 388/789/1014 392/790/1015 389/785/1016
f 394/791/1017 395/792/1018 397/793/1019 396/794/1020
f 395/792/1021 394/791/1022 400/795/1023 401/796/1024
f 396/794/1025 397/793/1026 399/797/1027 398/798/1028
f 398/798/1029 399/797/1030 401/796/1031 400/795/1032
f 390/799/1033 389/800/1034 394/801/1035 396/802/1036
f 391/803/1037 390/804/1038 396/805/1039 398/806/1040
f 392/807/1041 391/808/1042 398/809/1043 400/810/1044
f 389/811/1045 392/812/1046 400/813/1047 394/814/1048
s 51
f 397/793/1049 395/792/1050 393/815/1051
f 399/797/1052 397/793/1049 393/815/1051
f 401/796/1053 399/797/1052 393/815/1051
f 395/792/1050 401/796/1053 393/815/1051
s 52
f 408/816/1054 405/817/1055 402/818/1056
f 411/819/1057 408/816/1054 402/818/1056
f 414/820/1058 411/819/1057 402/818/1056
f 417/821/1059 414/820/1058 402/818/1056
f 420/822/1060 417/821/1059 402/818/1056
f 423/823/1061 420/822/1060 402/818/1056
f 426/824/1062 423/823/1061 402/818/1056
f 429/825/1063 426/824/1062 402/818/1056
f 432/826/1064 429/825/1063 402/818/1056
f 435/827/1065 432/826/1064 402/818/1056
f 438/828/1066 435/827/1065 402/818/1056
f 441/829/1067 438/828/1066 402/818/1056
f 444/830/1068 441/829/1067 402/818/1056
f 447/831/1069 444/830/1068 402/818/1056
f 450/832/1070 447/831/1069 402/818/1056
f 405/817/1055 450/832/1070 402/818/1056
s 53
f 403/833/1071 404/834/1072 407/835/1073 406/836/1074
s 52
f 404/834/1075 405/817/1055 408/816/1054 407/835/1076
s 53
f 406/836/1074 407/835/1073 410/837/1077 409/838/1078
s 52
f 407/835/1076 408/816/1054 411/819/1057 410/837/1079
s 53
f 409/838/1078 410/837/1077 413/839/1080 412/840/1081
s 52
f 410/837/1079 411/819/1057 414/820/1058 413/839/1082
s 53
f 412/840/1081 413/839/1080 416/841/1083 415/842/1084
s 52
f 413/839/1082 414/820/1058 417/821/1059 416/841/1085
s 53
f 415/842/1084 416/841/1083 419/843/1086 418/844/1087
s 52
f 416/841/1085 417/821/1059 420/822/1060 419/843/1088
s 53
f 418/844/1087 419/843/1086 422/845/1089 421/846/1090
s 52
f 419/843/1088 420/822/1060 423/823/1061 422/845/1091
s 53
f 421/846/1090 422/845/1089 425/847/1092 424/848/1093
s 52
f 422/845/1091 423/823/1061 426/824/1062 425/847/1094
s 53
f 424/848/1093 425/847/1092 428/849/1095 427/850/1096
s 52
f 425/847/1094 426/824/1062 429/825/1063 428/849/1097
s 53
f 427/850/1096 428/849/1095 431/851/1098 430/852/1099
s 52
f 428/849/1097 429/825/1063 432/826/1064 431/851/1100
s 53
f 430/852/1099 431/851/1098 434/853/1101 433/854/1102
s 52
f 431/851/1100 432/826/1064 435/827/1065 434/853/1103
s 53
f 433/854/1102 434/853/1101 437/855/1104 436/856/1105
s 52
f 434/853/1103 435/827/1065 438/828/1066 437/855/1106
s 53
f 436/856/1105 437/855/1104 440/857/1107 439/858/1108
s 52
f 437/855/1106 438/828/1066 441/829/1067 440/857/1109
s 53
f 439/858/1108 440/857/1107 443/859/1110 442/860/1111
s 52
f 440/857/1109 441/829/1067 444/830/1068 443/859/1112
s 53
f 442/860/1111 443/859/1110 446/861/1113 445/862/1114
s 52
f 443/859/1112 444/830/1068 447/831/1069 446/861/1115
s 53
f 445/862/1114 446/861/1113 449/863/1116 448/864/1117
s 52
f 446/861/1115 447/831/1069 450/832/1070 449/863/1118
f 405/817/1055 404/834/1075 449/863/1118 450/832/1070
s 53
f 404/834/1072 403/833/1071 448/864/1117 449/863/1116
s 54
f 451/865/1119 452/866/1120 454/867/1121 453/868/1122
f 452/866/1120 451/865/1119 481/869/1123 482/870/1124
f 453/868/1122 454/867/1121 456/871/1125 455/872/1126
f 455/872/1126 456/871/1125 458/873/1127 457/874/1128
f 457/874/1128 458/873/1127 460/875/1129 459/876/1130
f 459/876/1130 460/875/1129 462/877/1131 461/878/1132
f 461/878/1132 462/877/1131 464/879/1133 463/880/1134
f 463/880/1134 464/879/1133 466/881/1135 465/882/1136
f 465/882/1136 466/881/1135 468/883/1137 467/884/1138
f 467/884/1138 468/883/1137 470/885/1139 469/886/1140
f 469/886/1140 470/885/1139 472/887/1141 471/888/1142
f 471/888/1142 472/887/1141 474/889/1143 473/890/1144
f 473/890/1144 474/889/1143 476/891/1145 475/892/1146
f 475/892/1146 476/891/1145 478/893/1147 477/894/1148
f 477/894/1148 478/893/1147 480/895/1149 479/896/1150
f 479/897/1150 480/898/1149 482/870/1124 481/869/1123
s 53
f 403/899/1071 406/900/1074 454/867/1151 452/866/1152
f 406/900/1074 409/901/1078 456/871/1153 454/867/1151
f 409/901/1078 412/902/1081 458/873/1154 456/871/1153
f 412/902/1081 415/903/1084 460/875/1155 458/873/1154
f 415/903/1084 418/904/1087 462/877/1156 460/875/1155
f 418/904/1087 421/905/1090 464/879/1157 462/877/1156
f 421/905/1090 424/906/1093 466/881/1158 464/879/1157
f 424/906/1093 427/907/1096 468/883/1159 466/881/1158
f 427/907/1096 430/908/1099 470/885/1160 468/883/1159
f 430/908/1099 433/909/1102 472/887/1161 470/885/1160
f 433/909/1102 436/910/1105 474/889/1162 472/887/1161
f 436/910/1105 439/911/1108 476/891/1163 474/889/1162
f 439/911/1108 442/912/1111 478/893/1164 476/891/1163
f 442/912/1111 445/913/1114 480/895/1165 478/893/1164
f 445/914/1114 448/915/1117 482/870/1166 480/898/1165
f 448/915/1117 403/899/1071 452/866/1152 482/870/1166
s off
f 451/865/1167 453/868/1168 483/916/1169 484/917/1170
f 453/868/1171 455/872/1172 485/918/1173 483/916/1174
f 455/872/1175 457/874/1176 486/919/1177 485/918/1178
f 457/874/1179 459/876/1180 487/920/1181 486/919/1182
f 459/876/1183 461/878/1184 488/921/1185 487/920/1186
f 461/878/1187 463/880/1188 489/922/1189 488/921/1190
f 463/880/1191 465/882/1192 490/923/1193 489/922/1194
f 465/882/1195 467/884/1196 491/924/1197 490/923/1198
f 467/884/1199 469/886/1200 492/925/1201 491/924/1202
f 469/886/1203 471/888/1204 493/926/1205 492/925/1206
f 471/888/1207 473/890/1208 494/927/1209 493/926/1210
f 473/890/1211 475/892/1212 495/928/1213 494/927/1214
f 475/892/1215 477/894/1216 496/929/1217 495/928/1218
f 477/894/1219 479/896/1220 497/930/1221 496/929/1222
f 479/897/1223 481/869/1224 498/931/1225 497/932/1226
f 481/869/1227 451/865/1228 484/917/1229 498/931/1230
